<?xml version="1.0" encoding="utf-8" standalone="no"?>
<!DOCTYPE svg PUBLIC "-//W3C//DTD SVG 1.1//EN"
  "http://www.w3.org/Graphics/SVG/1.1/DTD/svg11.dtd">
<svg xmlns:xlink="http://www.w3.org/1999/xlink" width="1000.358125pt" height="388.844525pt" viewBox="0 0 1000.358125 388.844525" xmlns="http://www.w3.org/2000/svg" version="1.1">
 <metadata>
  <rdf:RDF xmlns:dc="http://purl.org/dc/elements/1.1/" xmlns:cc="http://creativecommons.org/ns#" xmlns:rdf="http://www.w3.org/1999/02/22-rdf-syntax-ns#">
   <cc:Work>
    <dc:type rdf:resource="http://purl.org/dc/dcmitype/StillImage"/>
    <dc:date>2025-01-24T09:54:35.145859</dc:date>
    <dc:format>image/svg+xml</dc:format>
    <dc:creator>
     <cc:Agent>
      <dc:title>Matplotlib v3.8.2, https://matplotlib.org/</dc:title>
     </cc:Agent>
    </dc:creator>
   </cc:Work>
  </rdf:RDF>
 </metadata>
 <defs>
  <style type="text/css">*{stroke-linejoin: round; stroke-linecap: butt}</style>
 </defs>
 <g id="figure_1">
  <g id="axes_1">
   <g id="patch_1">
    <path d="M 32.968125 353.2239 
L 993.158125 353.2239 
L 993.158125 35.2559 
L 32.968125 35.2559 
z
" style="fill: #ffffff"/>
   </g>
   <g id="patch_2">
    <path d="M 32.968125 -918.6481 
L 993.158125 -918.6481 
L 993.158125 -6006.1361 
L 32.968125 -6006.1361 
z
" clip-path="url(#p19b216da69)" style="fill: #e6c3c3"/>
   </g>
   <g id="patch_3">
    <path d="M 32.968125 35.2559 
L 993.158125 35.2559 
L 993.158125 -918.6481 
L 32.968125 -918.6481 
z
" clip-path="url(#p19b216da69)" style="fill: #e6dcc3"/>
   </g>
   <g id="patch_4">
    <path d="M 32.968125 353.2239 
L 993.158125 353.2239 
L 993.158125 35.2559 
L 32.968125 35.2559 
z
" clip-path="url(#p19b216da69)" style="fill: #c3e6c3"/>
   </g>
   <g id="matplotlib.axis_1">
    <g id="xtick_1">
     <g id="text_1">
      <!-- 0 -->
      <g transform="translate(30.423125 366.30265) scale(0.08 -0.08)">
       <defs>
        <path id="DejaVuSans-30" d="M 2034 4250 
Q 1547 4250 1301 3770 
Q 1056 3291 1056 2328 
Q 1056 1369 1301 889 
Q 1547 409 2034 409 
Q 2525 409 2770 889 
Q 3016 1369 3016 2328 
Q 3016 3291 2770 3770 
Q 2525 4250 2034 4250 
z
M 2034 4750 
Q 2819 4750 3233 4129 
Q 3647 3509 3647 2328 
Q 3647 1150 3233 529 
Q 2819 -91 2034 -91 
Q 1250 -91 836 529 
Q 422 1150 422 2328 
Q 422 3509 836 4129 
Q 1250 4750 2034 4750 
z
" transform="scale(0.015625)"/>
       </defs>
       <use xlink:href="#DejaVuSans-30"/>
      </g>
     </g>
    </g>
    <g id="xtick_2">
     <g id="text_2">
      <!-- 10 -->
      <g transform="translate(210.945809 366.30265) scale(0.08 -0.08)">
       <defs>
        <path id="DejaVuSans-31" d="M 794 531 
L 1825 531 
L 1825 4091 
L 703 3866 
L 703 4441 
L 1819 4666 
L 2450 4666 
L 2450 531 
L 3481 531 
L 3481 0 
L 794 0 
L 794 531 
z
" transform="scale(0.015625)"/>
       </defs>
       <use xlink:href="#DejaVuSans-31"/>
       <use xlink:href="#DejaVuSans-30" x="63.623047"/>
      </g>
     </g>
    </g>
    <g id="xtick_3">
     <g id="text_3">
      <!-- 20 -->
      <g transform="translate(394.013492 366.30265) scale(0.08 -0.08)">
       <defs>
        <path id="DejaVuSans-32" d="M 1228 531 
L 3431 531 
L 3431 0 
L 469 0 
L 469 531 
Q 828 903 1448 1529 
Q 2069 2156 2228 2338 
Q 2531 2678 2651 2914 
Q 2772 3150 2772 3378 
Q 2772 3750 2511 3984 
Q 2250 4219 1831 4219 
Q 1534 4219 1204 4116 
Q 875 4013 500 3803 
L 500 4441 
Q 881 4594 1212 4672 
Q 1544 4750 1819 4750 
Q 2544 4750 2975 4387 
Q 3406 4025 3406 3419 
Q 3406 3131 3298 2873 
Q 3191 2616 2906 2266 
Q 2828 2175 2409 1742 
Q 1991 1309 1228 531 
z
" transform="scale(0.015625)"/>
       </defs>
       <use xlink:href="#DejaVuSans-32"/>
       <use xlink:href="#DejaVuSans-30" x="63.623047"/>
      </g>
     </g>
    </g>
    <g id="xtick_4">
     <g id="text_4">
      <!-- 30 -->
      <g transform="translate(577.081176 366.30265) scale(0.08 -0.08)">
       <defs>
        <path id="DejaVuSans-33" d="M 2597 2516 
Q 3050 2419 3304 2112 
Q 3559 1806 3559 1356 
Q 3559 666 3084 287 
Q 2609 -91 1734 -91 
Q 1441 -91 1130 -33 
Q 819 25 488 141 
L 488 750 
Q 750 597 1062 519 
Q 1375 441 1716 441 
Q 2309 441 2620 675 
Q 2931 909 2931 1356 
Q 2931 1769 2642 2001 
Q 2353 2234 1838 2234 
L 1294 2234 
L 1294 2753 
L 1863 2753 
Q 2328 2753 2575 2939 
Q 2822 3125 2822 3475 
Q 2822 3834 2567 4026 
Q 2313 4219 1838 4219 
Q 1578 4219 1281 4162 
Q 984 4106 628 3988 
L 628 4550 
Q 988 4650 1302 4700 
Q 1616 4750 1894 4750 
Q 2613 4750 3031 4423 
Q 3450 4097 3450 3541 
Q 3450 3153 3228 2886 
Q 3006 2619 2597 2516 
z
" transform="scale(0.015625)"/>
       </defs>
       <use xlink:href="#DejaVuSans-33"/>
       <use xlink:href="#DejaVuSans-30" x="63.623047"/>
      </g>
     </g>
    </g>
    <g id="xtick_5">
     <g id="text_5">
      <!-- 40 -->
      <g transform="translate(760.148859 366.30265) scale(0.08 -0.08)">
       <defs>
        <path id="DejaVuSans-34" d="M 2419 4116 
L 825 1625 
L 2419 1625 
L 2419 4116 
z
M 2253 4666 
L 3047 4666 
L 3047 1625 
L 3713 1625 
L 3713 1100 
L 3047 1100 
L 3047 0 
L 2419 0 
L 2419 1100 
L 313 1100 
L 313 1709 
L 2253 4666 
z
" transform="scale(0.015625)"/>
       </defs>
       <use xlink:href="#DejaVuSans-34"/>
       <use xlink:href="#DejaVuSans-30" x="63.623047"/>
      </g>
     </g>
    </g>
    <g id="xtick_6">
     <g id="text_6">
      <!-- 50 -->
      <g transform="translate(943.216543 366.30265) scale(0.08 -0.08)">
       <defs>
        <path id="DejaVuSans-35" d="M 691 4666 
L 3169 4666 
L 3169 4134 
L 1269 4134 
L 1269 2991 
Q 1406 3038 1543 3061 
Q 1681 3084 1819 3084 
Q 2600 3084 3056 2656 
Q 3513 2228 3513 1497 
Q 3513 744 3044 326 
Q 2575 -91 1722 -91 
Q 1428 -91 1123 -41 
Q 819 9 494 109 
L 494 744 
Q 775 591 1075 516 
Q 1375 441 1709 441 
Q 2250 441 2565 725 
Q 2881 1009 2881 1497 
Q 2881 1984 2565 2268 
Q 2250 2553 1709 2553 
Q 1456 2553 1204 2497 
Q 953 2441 691 2322 
L 691 4666 
z
" transform="scale(0.015625)"/>
       </defs>
       <use xlink:href="#DejaVuSans-35"/>
       <use xlink:href="#DejaVuSans-30" x="63.623047"/>
      </g>
     </g>
    </g>
    <g id="text_7">
     <!-- Position in Read (bp) -->
     <g transform="translate(461.46 379.564837) scale(0.1 -0.1)">
      <defs>
       <path id="DejaVuSans-50" d="M 1259 4147 
L 1259 2394 
L 2053 2394 
Q 2494 2394 2734 2622 
Q 2975 2850 2975 3272 
Q 2975 3691 2734 3919 
Q 2494 4147 2053 4147 
L 1259 4147 
z
M 628 4666 
L 2053 4666 
Q 2838 4666 3239 4311 
Q 3641 3956 3641 3272 
Q 3641 2581 3239 2228 
Q 2838 1875 2053 1875 
L 1259 1875 
L 1259 0 
L 628 0 
L 628 4666 
z
" transform="scale(0.015625)"/>
       <path id="DejaVuSans-6f" d="M 1959 3097 
Q 1497 3097 1228 2736 
Q 959 2375 959 1747 
Q 959 1119 1226 758 
Q 1494 397 1959 397 
Q 2419 397 2687 759 
Q 2956 1122 2956 1747 
Q 2956 2369 2687 2733 
Q 2419 3097 1959 3097 
z
M 1959 3584 
Q 2709 3584 3137 3096 
Q 3566 2609 3566 1747 
Q 3566 888 3137 398 
Q 2709 -91 1959 -91 
Q 1206 -91 779 398 
Q 353 888 353 1747 
Q 353 2609 779 3096 
Q 1206 3584 1959 3584 
z
" transform="scale(0.015625)"/>
       <path id="DejaVuSans-73" d="M 2834 3397 
L 2834 2853 
Q 2591 2978 2328 3040 
Q 2066 3103 1784 3103 
Q 1356 3103 1142 2972 
Q 928 2841 928 2578 
Q 928 2378 1081 2264 
Q 1234 2150 1697 2047 
L 1894 2003 
Q 2506 1872 2764 1633 
Q 3022 1394 3022 966 
Q 3022 478 2636 193 
Q 2250 -91 1575 -91 
Q 1294 -91 989 -36 
Q 684 19 347 128 
L 347 722 
Q 666 556 975 473 
Q 1284 391 1588 391 
Q 1994 391 2212 530 
Q 2431 669 2431 922 
Q 2431 1156 2273 1281 
Q 2116 1406 1581 1522 
L 1381 1569 
Q 847 1681 609 1914 
Q 372 2147 372 2553 
Q 372 3047 722 3315 
Q 1072 3584 1716 3584 
Q 2034 3584 2315 3537 
Q 2597 3491 2834 3397 
z
" transform="scale(0.015625)"/>
       <path id="DejaVuSans-69" d="M 603 3500 
L 1178 3500 
L 1178 0 
L 603 0 
L 603 3500 
z
M 603 4863 
L 1178 4863 
L 1178 4134 
L 603 4134 
L 603 4863 
z
" transform="scale(0.015625)"/>
       <path id="DejaVuSans-74" d="M 1172 4494 
L 1172 3500 
L 2356 3500 
L 2356 3053 
L 1172 3053 
L 1172 1153 
Q 1172 725 1289 603 
Q 1406 481 1766 481 
L 2356 481 
L 2356 0 
L 1766 0 
Q 1100 0 847 248 
Q 594 497 594 1153 
L 594 3053 
L 172 3053 
L 172 3500 
L 594 3500 
L 594 4494 
L 1172 4494 
z
" transform="scale(0.015625)"/>
       <path id="DejaVuSans-6e" d="M 3513 2113 
L 3513 0 
L 2938 0 
L 2938 2094 
Q 2938 2591 2744 2837 
Q 2550 3084 2163 3084 
Q 1697 3084 1428 2787 
Q 1159 2491 1159 1978 
L 1159 0 
L 581 0 
L 581 3500 
L 1159 3500 
L 1159 2956 
Q 1366 3272 1645 3428 
Q 1925 3584 2291 3584 
Q 2894 3584 3203 3211 
Q 3513 2838 3513 2113 
z
" transform="scale(0.015625)"/>
       <path id="DejaVuSans-20" transform="scale(0.015625)"/>
       <path id="DejaVuSans-52" d="M 2841 2188 
Q 3044 2119 3236 1894 
Q 3428 1669 3622 1275 
L 4263 0 
L 3584 0 
L 2988 1197 
Q 2756 1666 2539 1819 
Q 2322 1972 1947 1972 
L 1259 1972 
L 1259 0 
L 628 0 
L 628 4666 
L 2053 4666 
Q 2853 4666 3247 4331 
Q 3641 3997 3641 3322 
Q 3641 2881 3436 2590 
Q 3231 2300 2841 2188 
z
M 1259 4147 
L 1259 2491 
L 2053 2491 
Q 2509 2491 2742 2702 
Q 2975 2913 2975 3322 
Q 2975 3731 2742 3939 
Q 2509 4147 2053 4147 
L 1259 4147 
z
" transform="scale(0.015625)"/>
       <path id="DejaVuSans-65" d="M 3597 1894 
L 3597 1613 
L 953 1613 
Q 991 1019 1311 708 
Q 1631 397 2203 397 
Q 2534 397 2845 478 
Q 3156 559 3463 722 
L 3463 178 
Q 3153 47 2828 -22 
Q 2503 -91 2169 -91 
Q 1331 -91 842 396 
Q 353 884 353 1716 
Q 353 2575 817 3079 
Q 1281 3584 2069 3584 
Q 2775 3584 3186 3129 
Q 3597 2675 3597 1894 
z
M 3022 2063 
Q 3016 2534 2758 2815 
Q 2500 3097 2075 3097 
Q 1594 3097 1305 2825 
Q 1016 2553 972 2059 
L 3022 2063 
z
" transform="scale(0.015625)"/>
       <path id="DejaVuSans-61" d="M 2194 1759 
Q 1497 1759 1228 1600 
Q 959 1441 959 1056 
Q 959 750 1161 570 
Q 1363 391 1709 391 
Q 2188 391 2477 730 
Q 2766 1069 2766 1631 
L 2766 1759 
L 2194 1759 
z
M 3341 1997 
L 3341 0 
L 2766 0 
L 2766 531 
Q 2569 213 2275 61 
Q 1981 -91 1556 -91 
Q 1019 -91 701 211 
Q 384 513 384 1019 
Q 384 1609 779 1909 
Q 1175 2209 1959 2209 
L 2766 2209 
L 2766 2266 
Q 2766 2663 2505 2880 
Q 2244 3097 1772 3097 
Q 1472 3097 1187 3025 
Q 903 2953 641 2809 
L 641 3341 
Q 956 3463 1253 3523 
Q 1550 3584 1831 3584 
Q 2591 3584 2966 3190 
Q 3341 2797 3341 1997 
z
" transform="scale(0.015625)"/>
       <path id="DejaVuSans-64" d="M 2906 2969 
L 2906 4863 
L 3481 4863 
L 3481 0 
L 2906 0 
L 2906 525 
Q 2725 213 2448 61 
Q 2172 -91 1784 -91 
Q 1150 -91 751 415 
Q 353 922 353 1747 
Q 353 2572 751 3078 
Q 1150 3584 1784 3584 
Q 2172 3584 2448 3432 
Q 2725 3281 2906 2969 
z
M 947 1747 
Q 947 1113 1208 752 
Q 1469 391 1925 391 
Q 2381 391 2643 752 
Q 2906 1113 2906 1747 
Q 2906 2381 2643 2742 
Q 2381 3103 1925 3103 
Q 1469 3103 1208 2742 
Q 947 2381 947 1747 
z
" transform="scale(0.015625)"/>
       <path id="DejaVuSans-28" d="M 1984 4856 
Q 1566 4138 1362 3434 
Q 1159 2731 1159 2009 
Q 1159 1288 1364 580 
Q 1569 -128 1984 -844 
L 1484 -844 
Q 1016 -109 783 600 
Q 550 1309 550 2009 
Q 550 2706 781 3412 
Q 1013 4119 1484 4856 
L 1984 4856 
z
" transform="scale(0.015625)"/>
       <path id="DejaVuSans-62" d="M 3116 1747 
Q 3116 2381 2855 2742 
Q 2594 3103 2138 3103 
Q 1681 3103 1420 2742 
Q 1159 2381 1159 1747 
Q 1159 1113 1420 752 
Q 1681 391 2138 391 
Q 2594 391 2855 752 
Q 3116 1113 3116 1747 
z
M 1159 2969 
Q 1341 3281 1617 3432 
Q 1894 3584 2278 3584 
Q 2916 3584 3314 3078 
Q 3713 2572 3713 1747 
Q 3713 922 3314 415 
Q 2916 -91 2278 -91 
Q 1894 -91 1617 61 
Q 1341 213 1159 525 
L 1159 0 
L 581 0 
L 581 4863 
L 1159 4863 
L 1159 2969 
z
" transform="scale(0.015625)"/>
       <path id="DejaVuSans-70" d="M 1159 525 
L 1159 -1331 
L 581 -1331 
L 581 3500 
L 1159 3500 
L 1159 2969 
Q 1341 3281 1617 3432 
Q 1894 3584 2278 3584 
Q 2916 3584 3314 3078 
Q 3713 2572 3713 1747 
Q 3713 922 3314 415 
Q 2916 -91 2278 -91 
Q 1894 -91 1617 61 
Q 1341 213 1159 525 
z
M 3116 1747 
Q 3116 2381 2855 2742 
Q 2594 3103 2138 3103 
Q 1681 3103 1420 2742 
Q 1159 2381 1159 1747 
Q 1159 1113 1420 752 
Q 1681 391 2138 391 
Q 2594 391 2855 752 
Q 3116 1113 3116 1747 
z
" transform="scale(0.015625)"/>
       <path id="DejaVuSans-29" d="M 513 4856 
L 1013 4856 
Q 1481 4119 1714 3412 
Q 1947 2706 1947 2009 
Q 1947 1309 1714 600 
Q 1481 -109 1013 -844 
L 513 -844 
Q 928 -128 1133 580 
Q 1338 1288 1338 2009 
Q 1338 2731 1133 3434 
Q 928 4138 513 4856 
z
" transform="scale(0.015625)"/>
      </defs>
      <use xlink:href="#DejaVuSans-50"/>
      <use xlink:href="#DejaVuSans-6f" x="56.677734"/>
      <use xlink:href="#DejaVuSans-73" x="117.859375"/>
      <use xlink:href="#DejaVuSans-69" x="169.958984"/>
      <use xlink:href="#DejaVuSans-74" x="197.742188"/>
      <use xlink:href="#DejaVuSans-69" x="236.951172"/>
      <use xlink:href="#DejaVuSans-6f" x="264.734375"/>
      <use xlink:href="#DejaVuSans-6e" x="325.916016"/>
      <use xlink:href="#DejaVuSans-20" x="389.294922"/>
      <use xlink:href="#DejaVuSans-69" x="421.082031"/>
      <use xlink:href="#DejaVuSans-6e" x="448.865234"/>
      <use xlink:href="#DejaVuSans-20" x="512.244141"/>
      <use xlink:href="#DejaVuSans-52" x="544.03125"/>
      <use xlink:href="#DejaVuSans-65" x="609.013672"/>
      <use xlink:href="#DejaVuSans-61" x="670.537109"/>
      <use xlink:href="#DejaVuSans-64" x="731.816406"/>
      <use xlink:href="#DejaVuSans-20" x="795.292969"/>
      <use xlink:href="#DejaVuSans-28" x="827.080078"/>
      <use xlink:href="#DejaVuSans-62" x="866.09375"/>
      <use xlink:href="#DejaVuSans-70" x="929.570312"/>
      <use xlink:href="#DejaVuSans-29" x="993.046875"/>
     </g>
    </g>
   </g>
   <g id="matplotlib.axis_2">
    <g id="ytick_1">
     <g id="line2d_1">
      <path d="M 32.968125 353.2239 
L 993.158125 353.2239 
" clip-path="url(#p19b216da69)" style="fill: none; stroke: #dedede; stroke-linecap: square"/>
     </g>
     <g id="text_8">
      <!-- 0 -->
      <g transform="translate(20.878125 356.263275) scale(0.08 -0.08)">
       <use xlink:href="#DejaVuSans-30"/>
      </g>
     </g>
    </g>
    <g id="ytick_2">
     <g id="line2d_2">
      <path d="M 32.968125 289.6303 
L 993.158125 289.6303 
" clip-path="url(#p19b216da69)" style="fill: none; stroke: #dedede; stroke-linecap: square"/>
     </g>
     <g id="text_9">
      <!-- 1 -->
      <g transform="translate(20.878125 292.669675) scale(0.08 -0.08)">
       <use xlink:href="#DejaVuSans-31"/>
      </g>
     </g>
    </g>
    <g id="ytick_3">
     <g id="line2d_3">
      <path d="M 32.968125 226.0367 
L 993.158125 226.0367 
" clip-path="url(#p19b216da69)" style="fill: none; stroke: #dedede; stroke-linecap: square"/>
     </g>
     <g id="text_10">
      <!-- 2 -->
      <g transform="translate(20.878125 229.076075) scale(0.08 -0.08)">
       <use xlink:href="#DejaVuSans-32"/>
      </g>
     </g>
    </g>
    <g id="ytick_4">
     <g id="line2d_4">
      <path d="M 32.968125 162.4431 
L 993.158125 162.4431 
" clip-path="url(#p19b216da69)" style="fill: none; stroke: #dedede; stroke-linecap: square"/>
     </g>
     <g id="text_11">
      <!-- 3 -->
      <g transform="translate(20.878125 165.482475) scale(0.08 -0.08)">
       <use xlink:href="#DejaVuSans-33"/>
      </g>
     </g>
    </g>
    <g id="ytick_5">
     <g id="line2d_5">
      <path d="M 32.968125 98.8495 
L 993.158125 98.8495 
" clip-path="url(#p19b216da69)" style="fill: none; stroke: #dedede; stroke-linecap: square"/>
     </g>
     <g id="text_12">
      <!-- 4 -->
      <g transform="translate(20.878125 101.888875) scale(0.08 -0.08)">
       <use xlink:href="#DejaVuSans-34"/>
      </g>
     </g>
    </g>
    <g id="ytick_6">
     <g id="line2d_6">
      <path d="M 32.968125 35.2559 
L 993.158125 35.2559 
" clip-path="url(#p19b216da69)" style="fill: none; stroke: #dedede; stroke-linecap: square"/>
     </g>
     <g id="text_13">
      <!-- 5 -->
      <g transform="translate(20.878125 38.295275) scale(0.08 -0.08)">
       <use xlink:href="#DejaVuSans-35"/>
      </g>
     </g>
    </g>
    <g id="text_14">
     <!-- Percentage N-Count -->
     <g transform="translate(14.798438 244.344588) rotate(-90) scale(0.1 -0.1)">
      <defs>
       <path id="DejaVuSans-72" d="M 2631 2963 
Q 2534 3019 2420 3045 
Q 2306 3072 2169 3072 
Q 1681 3072 1420 2755 
Q 1159 2438 1159 1844 
L 1159 0 
L 581 0 
L 581 3500 
L 1159 3500 
L 1159 2956 
Q 1341 3275 1631 3429 
Q 1922 3584 2338 3584 
Q 2397 3584 2469 3576 
Q 2541 3569 2628 3553 
L 2631 2963 
z
" transform="scale(0.015625)"/>
       <path id="DejaVuSans-63" d="M 3122 3366 
L 3122 2828 
Q 2878 2963 2633 3030 
Q 2388 3097 2138 3097 
Q 1578 3097 1268 2742 
Q 959 2388 959 1747 
Q 959 1106 1268 751 
Q 1578 397 2138 397 
Q 2388 397 2633 464 
Q 2878 531 3122 666 
L 3122 134 
Q 2881 22 2623 -34 
Q 2366 -91 2075 -91 
Q 1284 -91 818 406 
Q 353 903 353 1747 
Q 353 2603 823 3093 
Q 1294 3584 2113 3584 
Q 2378 3584 2631 3529 
Q 2884 3475 3122 3366 
z
" transform="scale(0.015625)"/>
       <path id="DejaVuSans-67" d="M 2906 1791 
Q 2906 2416 2648 2759 
Q 2391 3103 1925 3103 
Q 1463 3103 1205 2759 
Q 947 2416 947 1791 
Q 947 1169 1205 825 
Q 1463 481 1925 481 
Q 2391 481 2648 825 
Q 2906 1169 2906 1791 
z
M 3481 434 
Q 3481 -459 3084 -895 
Q 2688 -1331 1869 -1331 
Q 1566 -1331 1297 -1286 
Q 1028 -1241 775 -1147 
L 775 -588 
Q 1028 -725 1275 -790 
Q 1522 -856 1778 -856 
Q 2344 -856 2625 -561 
Q 2906 -266 2906 331 
L 2906 616 
Q 2728 306 2450 153 
Q 2172 0 1784 0 
Q 1141 0 747 490 
Q 353 981 353 1791 
Q 353 2603 747 3093 
Q 1141 3584 1784 3584 
Q 2172 3584 2450 3431 
Q 2728 3278 2906 2969 
L 2906 3500 
L 3481 3500 
L 3481 434 
z
" transform="scale(0.015625)"/>
       <path id="DejaVuSans-4e" d="M 628 4666 
L 1478 4666 
L 3547 763 
L 3547 4666 
L 4159 4666 
L 4159 0 
L 3309 0 
L 1241 3903 
L 1241 0 
L 628 0 
L 628 4666 
z
" transform="scale(0.015625)"/>
       <path id="DejaVuSans-2d" d="M 313 2009 
L 1997 2009 
L 1997 1497 
L 313 1497 
L 313 2009 
z
" transform="scale(0.015625)"/>
       <path id="DejaVuSans-43" d="M 4122 4306 
L 4122 3641 
Q 3803 3938 3442 4084 
Q 3081 4231 2675 4231 
Q 1875 4231 1450 3742 
Q 1025 3253 1025 2328 
Q 1025 1406 1450 917 
Q 1875 428 2675 428 
Q 3081 428 3442 575 
Q 3803 722 4122 1019 
L 4122 359 
Q 3791 134 3420 21 
Q 3050 -91 2638 -91 
Q 1578 -91 968 557 
Q 359 1206 359 2328 
Q 359 3453 968 4101 
Q 1578 4750 2638 4750 
Q 3056 4750 3426 4639 
Q 3797 4528 4122 4306 
z
" transform="scale(0.015625)"/>
       <path id="DejaVuSans-75" d="M 544 1381 
L 544 3500 
L 1119 3500 
L 1119 1403 
Q 1119 906 1312 657 
Q 1506 409 1894 409 
Q 2359 409 2629 706 
Q 2900 1003 2900 1516 
L 2900 3500 
L 3475 3500 
L 3475 0 
L 2900 0 
L 2900 538 
Q 2691 219 2414 64 
Q 2138 -91 1772 -91 
Q 1169 -91 856 284 
Q 544 659 544 1381 
z
M 1991 3584 
L 1991 3584 
z
" transform="scale(0.015625)"/>
      </defs>
      <use xlink:href="#DejaVuSans-50"/>
      <use xlink:href="#DejaVuSans-65" x="56.677734"/>
      <use xlink:href="#DejaVuSans-72" x="118.201172"/>
      <use xlink:href="#DejaVuSans-63" x="157.064453"/>
      <use xlink:href="#DejaVuSans-65" x="212.044922"/>
      <use xlink:href="#DejaVuSans-6e" x="273.568359"/>
      <use xlink:href="#DejaVuSans-74" x="336.947266"/>
      <use xlink:href="#DejaVuSans-61" x="376.15625"/>
      <use xlink:href="#DejaVuSans-67" x="437.435547"/>
      <use xlink:href="#DejaVuSans-65" x="500.912109"/>
      <use xlink:href="#DejaVuSans-20" x="562.435547"/>
      <use xlink:href="#DejaVuSans-4e" x="594.222656"/>
      <use xlink:href="#DejaVuSans-2d" x="669.027344"/>
      <use xlink:href="#DejaVuSans-43" x="705.111328"/>
      <use xlink:href="#DejaVuSans-6f" x="774.935547"/>
      <use xlink:href="#DejaVuSans-75" x="836.117188"/>
      <use xlink:href="#DejaVuSans-6e" x="899.496094"/>
      <use xlink:href="#DejaVuSans-74" x="962.875"/>
     </g>
    </g>
   </g>
   <g id="line2d_7">
    <path d="M 51.274893 353.196908 
L 69.581662 353.218807 
L 87.88843 353.171444 
L 106.195198 353.2239 
L 124.501967 353.221863 
L 142.808735 353.2239 
L 161.115503 353.2239 
L 179.422272 353.185195 
L 197.72904 353.223391 
L 216.035809 353.218298 
L 234.342577 353.19538 
L 252.649345 353.222881 
L 270.956114 353.222372 
L 289.262882 353.2239 
L 307.56965 353.215242 
L 325.876419 353.221863 
L 344.183187 353.2239 
L 362.489955 353.2239 
L 380.796724 353.2239 
L 399.103492 353.2239 
L 417.41026 353.2239 
L 435.717029 353.194871 
L 454.023797 353.208112 
L 472.330565 353.199964 
L 490.637334 353.213714 
L 508.944102 352.918331 
L 527.25087 353.222881 
L 545.557639 353.212187 
L 563.864407 353.217789 
L 582.171176 353.220844 
L 600.477944 353.173481 
L 618.784712 353.203529 
L 637.091481 353.217789 
L 655.398249 353.18163 
L 673.705017 353.223391 
L 692.011786 263.166976 
L 710.318554 353.202001 
L 728.625322 353.207603 
L 746.932091 353.2239 
L 765.238859 353.2239 
L 783.545627 353.211677 
L 801.852396 353.221863 
L 820.159164 353.220844 
L 838.465932 353.222881 
L 856.772701 353.2239 
L 875.079469 353.2239 
L 893.386237 353.2239 
L 911.693006 353.193852 
L 929.999774 353.2239 
L 948.306543 353.221863 
" clip-path="url(#p19b216da69)" style="fill: none; stroke: #5cb85c; stroke-linecap: square"/>
   </g>
   <g id="line2d_8">
    <path d="M 51.274893 353.157816 
L 69.581662 352.573471 
L 87.88843 353.172753 
L 106.195198 353.222542 
L 124.501967 353.184974 
L 142.808735 353.214847 
L 161.115503 353.2239 
L 179.422272 353.213037 
L 197.72904 353.2239 
L 216.035809 309.501253 
L 234.342577 353.2239 
L 252.649345 353.2239 
L 270.956114 353.2239 
L 289.262882 353.220732 
L 307.56965 353.2239 
L 325.876419 353.2239 
L 344.183187 353.2239 
L 362.489955 353.219374 
L 380.796724 353.168679 
L 399.103492 353.2239 
L 417.41026 353.2239 
L 435.717029 353.212584 
L 454.023797 353.2239 
L 472.330565 353.2239 
L 490.637334 353.222995 
L 508.944102 353.2239 
L 527.25087 353.219374 
L 545.557639 353.2239 
L 563.864407 353.2239 
L 582.171176 353.2239 
L 600.477944 353.2239 
L 618.784712 353.2239 
L 637.091481 353.220732 
L 655.398249 353.2239 
L 673.705017 353.217563 
L 692.011786 353.183163 
L 710.318554 353.181805 
L 728.625322 353.2239 
L 746.932091 353.196742 
L 765.238859 353.208963 
L 783.545627 353.2239 
L 801.852396 353.2239 
L 820.159164 353.212584 
L 838.465932 353.2239 
L 856.772701 353.181353 
L 875.079469 353.2239 
L 893.386237 353.2239 
L 911.693006 353.2239 
L 929.999774 353.2239 
L 948.306543 353.221184 
" clip-path="url(#p19b216da69)" style="fill: none; stroke: #5cb85c; stroke-linecap: square"/>
   </g>
   <g id="line2d_9">
    <path d="M 51.274893 353.185068 
L 69.581662 353.216134 
L 87.88843 353.170571 
L 106.195198 353.2239 
L 124.501967 353.223382 
L 142.808735 353.2239 
L 161.115503 353.2239 
L 179.422272 353.180408 
L 197.72904 353.2239 
L 216.035809 353.217169 
L 234.342577 353.186103 
L 252.649345 353.222864 
L 270.956114 353.222347 
L 289.262882 353.2239 
L 307.56965 353.218205 
L 325.876419 353.2239 
L 344.183187 353.2239 
L 362.489955 353.2239 
L 380.796724 353.2239 
L 399.103492 353.2239 
L 417.41026 353.2239 
L 435.717029 353.192834 
L 454.023797 353.195941 
L 472.330565 353.205778 
L 490.637334 353.192317 
L 508.944102 352.927222 
L 527.25087 353.222864 
L 545.557639 353.21458 
L 563.864407 353.213027 
L 582.171176 353.220793 
L 600.477944 353.170571 
L 618.784712 353.196976 
L 637.091481 353.219758 
L 655.398249 353.169017 
L 673.705017 353.223382 
L 692.011786 262.660099 
L 710.318554 353.201118 
L 728.625322 353.206296 
L 746.932091 353.2239 
L 765.238859 353.2239 
L 783.545627 353.213545 
L 801.852396 353.2239 
L 820.159164 353.221311 
L 838.465932 353.2239 
L 856.772701 353.2239 
L 875.079469 353.2239 
L 893.386237 353.2239 
L 911.693006 353.20319 
L 929.999774 353.2239 
L 948.306543 353.221829 
" clip-path="url(#p19b216da69)" style="fill: none; stroke: #5cb85c; stroke-linecap: square"/>
   </g>
   <g id="line2d_10">
    <path d="M 51.274893 353.139758 
L 69.581662 352.628386 
L 87.88843 353.167608 
L 106.195198 353.222715 
L 124.501967 353.20079 
L 142.808735 353.216197 
L 161.115503 353.2239 
L 179.422272 353.208494 
L 197.72904 353.2239 
L 216.035809 308.832891 
L 234.342577 353.2239 
L 252.649345 353.2239 
L 270.956114 353.2239 
L 289.262882 353.222715 
L 307.56965 353.2239 
L 325.876419 353.223307 
L 344.183187 353.2239 
L 362.489955 353.220345 
L 380.796724 353.171163 
L 399.103492 353.2239 
L 417.41026 353.2239 
L 435.717029 353.201383 
L 454.023797 353.2239 
L 472.330565 353.2239 
L 490.637334 353.223307 
L 508.944102 353.2239 
L 527.25087 353.2239 
L 545.557639 353.2239 
L 563.864407 353.2239 
L 582.171176 353.2239 
L 600.477944 353.2239 
L 618.784712 353.2239 
L 637.091481 353.21916 
L 655.398249 353.2239 
L 673.705017 353.217382 
L 692.011786 353.175903 
L 710.318554 353.184792 
L 728.625322 353.207309 
L 746.932091 353.202568 
L 765.238859 353.218567 
L 783.545627 353.2239 
L 801.852396 353.223307 
L 820.159164 353.215012 
L 838.465932 353.2239 
L 856.772701 353.188939 
L 875.079469 353.220345 
L 893.386237 353.2239 
L 911.693006 353.2239 
L 929.999774 353.2239 
L 948.306543 353.220937 
" clip-path="url(#p19b216da69)" style="fill: none; stroke: #5cb85c; stroke-linecap: square"/>
   </g>
   <g id="line2d_11">
    <path d="M 51.274893 353.144547 
L 69.581662 352.657628 
L 87.88843 353.166615 
L 106.195198 353.221083 
L 124.501967 353.193849 
L 142.808735 353.21357 
L 161.115503 353.2239 
L 179.422272 353.206996 
L 197.72904 353.2239 
L 216.035809 309.627098 
L 234.342577 353.2239 
L 252.649345 353.2239 
L 270.956114 353.2239 
L 289.262882 353.221083 
L 307.56965 353.2239 
L 325.876419 353.222961 
L 344.183187 353.2239 
L 362.489955 353.221083 
L 380.796724 353.158633 
L 399.103492 353.2239 
L 417.41026 353.2239 
L 435.717029 353.207935 
L 454.023797 353.2239 
L 472.330565 353.2239 
L 490.637334 353.221552 
L 508.944102 353.2239 
L 527.25087 353.2239 
L 545.557639 353.2239 
L 563.864407 353.2239 
L 582.171176 353.2239 
L 600.477944 353.2239 
L 618.784712 353.2239 
L 637.091481 353.221552 
L 655.398249 353.2239 
L 673.705017 353.216387 
L 692.011786 353.165676 
L 710.318554 353.176945 
L 728.625322 353.216857 
L 746.932091 353.188215 
L 765.238859 353.209344 
L 783.545627 353.2239 
L 801.852396 353.221552 
L 820.159164 353.2239 
L 838.465932 353.2239 
L 856.772701 353.177415 
L 875.079469 353.2239 
L 893.386237 353.2239 
L 911.693006 353.2239 
L 929.999774 353.2239 
L 948.306543 353.22343 
" clip-path="url(#p19b216da69)" style="fill: none; stroke: #5cb85c; stroke-linecap: square"/>
   </g>
   <g id="line2d_12">
    <path d="M 51.274893 353.190034 
L 69.581662 353.21404 
L 87.88843 353.167743 
L 106.195198 353.2239 
L 124.501967 353.223471 
L 142.808735 353.2239 
L 161.115503 353.2239 
L 179.422272 353.193035 
L 197.72904 353.2239 
L 216.035809 353.202466 
L 234.342577 353.190891 
L 252.649345 353.2239 
L 270.956114 353.223471 
L 289.262882 353.2239 
L 307.56965 353.218327 
L 325.876419 353.2239 
L 344.183187 353.2239 
L 362.489955 353.2239 
L 380.796724 353.2239 
L 399.103492 353.2239 
L 417.41026 353.2239 
L 435.717029 353.196036 
L 454.023797 353.202037 
L 472.330565 353.204181 
L 490.637334 353.148452 
L 508.944102 352.910533 
L 527.25087 353.222614 
L 545.557639 353.212754 
L 563.864407 353.213612 
L 582.171176 353.221328 
L 600.477944 353.173315 
L 618.784712 353.200751 
L 637.091481 353.194321 
L 655.398249 353.169457 
L 673.705017 353.222185 
L 692.011786 263.656301 
L 710.318554 353.200322 
L 728.625322 353.208039 
L 746.932091 353.2239 
L 765.238859 353.223043 
L 783.545627 353.20118 
L 801.852396 353.2239 
L 820.159164 353.214898 
L 838.465932 353.2239 
L 856.772701 353.2239 
L 875.079469 353.2239 
L 893.386237 353.2239 
L 911.693006 353.21104 
L 929.999774 353.2239 
L 948.306543 353.222185 
" clip-path="url(#p19b216da69)" style="fill: none; stroke: #5cb85c; stroke-linecap: square"/>
   </g>
   <g id="line2d_13">
    <path d="M 51.274893 353.192558 
L 69.581662 353.213774 
L 87.88843 353.171824 
L 106.195198 353.2239 
L 124.501967 353.2239 
L 142.808735 353.2239 
L 161.115503 353.2239 
L 179.422272 353.18195 
L 197.72904 353.223418 
L 216.035809 353.220525 
L 234.342577 353.192076 
L 252.649345 353.222453 
L 270.956114 353.222453 
L 289.262882 353.2239 
L 307.56965 353.215703 
L 325.876419 353.223418 
L 344.183187 353.2239 
L 362.489955 353.2239 
L 380.796724 353.2239 
L 399.103492 353.2239 
L 417.41026 353.223418 
L 435.717029 353.202684 
L 454.023797 353.202202 
L 472.330565 353.211363 
L 490.637334 353.206059 
L 508.944102 352.904209 
L 527.25087 353.222936 
L 545.557639 353.220042 
L 563.864407 353.214256 
L 582.171176 353.2239 
L 600.477944 353.178574 
L 618.784712 353.202202 
L 637.091481 353.220042 
L 655.398249 353.175199 
L 673.705017 353.2239 
L 692.011786 262.281177 
L 710.318554 353.208952 
L 728.625322 353.213774 
L 746.932091 353.2239 
L 765.238859 353.2239 
L 783.545627 353.217632 
L 801.852396 353.2239 
L 820.159164 353.222936 
L 838.465932 353.2239 
L 856.772701 353.2239 
L 875.079469 353.2239 
L 893.386237 353.2239 
L 911.693006 353.214738 
L 929.999774 353.2239 
L 948.306543 353.222453 
" clip-path="url(#p19b216da69)" style="fill: none; stroke: #5cb85c; stroke-linecap: square"/>
   </g>
   <g id="line2d_14">
    <path d="M 51.274893 353.193635 
L 69.581662 353.213307 
L 87.88843 353.15984 
L 106.195198 353.2239 
L 124.501967 353.2239 
L 142.808735 353.2239 
L 161.115503 353.2239 
L 179.422272 353.190104 
L 197.72904 353.220874 
L 216.035809 353.214821 
L 234.342577 353.192122 
L 252.649345 353.222891 
L 270.956114 353.222387 
L 289.262882 353.2239 
L 307.56965 353.217343 
L 325.876419 353.2239 
L 344.183187 353.2239 
L 362.489955 353.2239 
L 380.796724 353.2239 
L 399.103492 353.223396 
L 417.41026 353.218351 
L 435.717029 353.21129 
L 454.023797 353.203219 
L 472.330565 353.221882 
L 490.637334 353.17245 
L 508.944102 352.928315 
L 527.25087 353.222387 
L 545.557639 353.221378 
L 563.864407 353.216838 
L 582.171176 353.21936 
L 600.477944 353.179512 
L 618.784712 353.204732 
L 637.091481 353.20221 
L 655.398249 353.178503 
L 673.705017 353.223396 
L 692.011786 262.057235 
L 710.318554 353.207759 
L 728.625322 353.212299 
L 746.932091 353.2239 
L 765.238859 353.2239 
L 783.545627 353.212299 
L 801.852396 353.222387 
L 820.159164 353.220874 
L 838.465932 353.2239 
L 856.772701 353.2239 
L 875.079469 353.2239 
L 893.386237 353.2239 
L 911.693006 353.198175 
L 929.999774 353.2239 
L 948.306543 353.222387 
" clip-path="url(#p19b216da69)" style="fill: none; stroke: #5cb85c; stroke-linecap: square"/>
   </g>
   <g id="line2d_15">
    <path d="M 51.274893 353.194082 
L 69.581662 353.218714 
L 87.88843 353.164913 
L 106.195198 353.2239 
L 124.501967 353.2239 
L 142.808735 353.2239 
L 161.115503 353.2239 
L 179.422272 353.188897 
L 197.72904 353.221955 
L 216.035809 353.221307 
L 234.342577 353.190193 
L 252.649345 353.223252 
L 270.956114 353.222604 
L 289.262882 353.2239 
L 307.56965 353.218066 
L 325.876419 353.222604 
L 344.183187 353.2239 
L 362.489955 353.2239 
L 380.796724 353.2239 
L 399.103492 353.2239 
L 417.41026 353.2239 
L 435.717029 353.203157 
L 454.023797 353.205102 
L 472.330565 353.204454 
L 490.637334 353.208991 
L 508.944102 352.909518 
L 527.25087 353.221955 
L 545.557639 353.216121 
L 563.864407 353.222604 
L 582.171176 353.220659 
L 600.477944 353.181766 
L 618.784712 353.204454 
L 637.091481 353.218714 
L 655.398249 353.174636 
L 673.705017 353.221307 
L 692.011786 261.787213 
L 710.318554 353.203157 
L 728.625322 353.21288 
L 746.932091 353.2239 
L 765.238859 353.2239 
L 783.545627 353.213529 
L 801.852396 353.2239 
L 820.159164 353.221955 
L 838.465932 353.2239 
L 856.772701 353.2239 
L 875.079469 353.2239 
L 893.386237 353.2239 
L 911.693006 353.190193 
L 929.999774 353.2239 
L 948.306543 353.2239 
" clip-path="url(#p19b216da69)" style="fill: none; stroke: #5cb85c; stroke-linecap: square"/>
   </g>
   <g id="line2d_16">
    <path d="M 51.274893 353.159509 
L 69.581662 352.514107 
L 87.88843 353.165499 
L 106.195198 353.223151 
L 124.501967 353.196197 
L 142.808735 353.216413 
L 161.115503 353.2239 
L 179.422272 353.212669 
L 197.72904 353.2239 
L 216.035809 309.21148 
L 234.342577 353.2239 
L 252.649345 353.2239 
L 270.956114 353.2239 
L 289.262882 353.220905 
L 307.56965 353.2239 
L 325.876419 353.223151 
L 344.183187 353.2239 
L 362.489955 353.222403 
L 380.796724 353.161756 
L 399.103492 353.2239 
L 417.41026 353.2239 
L 435.717029 353.202936 
L 454.023797 353.2239 
L 472.330565 353.2239 
L 490.637334 353.221654 
L 508.944102 353.2239 
L 527.25087 353.220905 
L 545.557639 353.2239 
L 563.864407 353.2239 
L 582.171176 353.2239 
L 600.477944 353.2239 
L 618.784712 353.2239 
L 637.091481 353.221654 
L 655.398249 353.2239 
L 673.705017 353.214167 
L 692.011786 353.177479 
L 710.318554 353.178976 
L 728.625322 353.2239 
L 746.932091 353.208925 
L 765.238859 353.223151 
L 783.545627 353.2239 
L 801.852396 353.223151 
L 820.159164 353.213418 
L 838.465932 353.2239 
L 856.772701 353.199192 
L 875.079469 353.2239 
L 893.386237 353.2239 
L 911.693006 353.2239 
L 929.999774 353.2239 
L 948.306543 353.2239 
" clip-path="url(#p19b216da69)" style="fill: none; stroke: #5cb85c; stroke-linecap: square"/>
   </g>
   <g id="line2d_17">
    <path d="M 51.274893 353.199452 
L 69.581662 353.220335 
L 87.88843 353.17857 
L 106.195198 353.2239 
L 124.501967 353.2239 
L 142.808735 353.2239 
L 161.115503 353.2239 
L 179.422272 353.19385 
L 197.72904 353.223391 
L 216.035809 353.222372 
L 234.342577 353.203018 
L 252.649345 353.223391 
L 270.956114 353.2239 
L 289.262882 353.2239 
L 307.56965 353.218807 
L 325.876419 353.2239 
L 344.183187 353.2239 
L 362.489955 353.2239 
L 380.796724 353.2239 
L 399.103492 353.2239 
L 417.41026 353.223391 
L 435.717029 353.206583 
L 454.023797 353.212186 
L 472.330565 353.204036 
L 490.637334 353.194359 
L 508.944102 352.940207 
L 527.25087 353.2239 
L 545.557639 353.215242 
L 563.864407 353.2239 
L 582.171176 353.221353 
L 600.477944 353.192322 
L 618.784712 353.197925 
L 637.091481 353.218297 
L 655.398249 353.184173 
L 673.705017 353.221863 
L 692.011786 261.97817 
L 710.318554 353.193341 
L 728.625322 353.206583 
L 746.932091 353.2239 
L 765.238859 353.223391 
L 783.545627 353.203018 
L 801.852396 353.2239 
L 820.159164 353.217788 
L 838.465932 353.2239 
L 856.772701 353.2239 
L 875.079469 353.2239 
L 893.386237 353.213714 
L 911.693006 353.197925 
L 929.999774 353.2239 
L 948.306543 353.2239 
" clip-path="url(#p19b216da69)" style="fill: none; stroke: #5cb85c; stroke-linecap: square"/>
   </g>
   <g id="line2d_18">
    <path d="M 51.274893 353.159226 
L 69.581662 352.552559 
L 87.88843 353.159929 
L 106.195198 353.222494 
L 124.501967 353.193672 
L 142.808735 353.213355 
L 161.115503 353.2239 
L 179.422272 353.212652 
L 197.72904 353.2239 
L 216.035809 309.103061 
L 234.342577 353.2239 
L 252.649345 353.2239 
L 270.956114 353.2239 
L 289.262882 353.223197 
L 307.56965 353.2239 
L 325.876419 353.2239 
L 344.183187 353.2239 
L 362.489955 353.221088 
L 380.796724 353.165553 
L 399.103492 353.2239 
L 417.41026 353.2239 
L 435.717029 353.209138 
L 454.023797 353.2239 
L 472.330565 353.2239 
L 490.637334 353.2239 
L 508.944102 353.2239 
L 527.25087 353.2239 
L 545.557639 353.2239 
L 563.864407 353.2239 
L 582.171176 353.2239 
L 600.477944 353.2239 
L 618.784712 353.2239 
L 637.091481 353.221088 
L 655.398249 353.2239 
L 673.705017 353.21687 
L 692.011786 353.166959 
L 710.318554 353.179613 
L 728.625322 353.207029 
L 746.932091 353.211949 
L 765.238859 353.222494 
L 783.545627 353.220385 
L 801.852396 353.223197 
L 820.159164 353.214058 
L 838.465932 353.2239 
L 856.772701 353.204217 
L 875.079469 353.218979 
L 893.386237 353.2239 
L 911.693006 353.2239 
L 929.999774 353.2239 
L 948.306543 353.2239 
" clip-path="url(#p19b216da69)" style="fill: none; stroke: #5cb85c; stroke-linecap: square"/>
   </g>
   <g id="line2d_19">
    <path d="M 51.274893 353.20191 
L 69.581662 353.2239 
L 87.88843 353.169304 
L 106.195198 353.2239 
L 124.501967 353.2239 
L 142.808735 353.2239 
L 161.115503 353.2239 
L 179.422272 353.19736 
L 197.72904 353.2239 
L 216.035809 353.221625 
L 234.342577 353.201152 
L 252.649345 353.220867 
L 270.956114 353.220867 
L 289.262882 353.2239 
L 307.56965 353.213284 
L 325.876419 353.2239 
L 344.183187 353.2239 
L 362.489955 353.2239 
L 380.796724 353.2239 
L 399.103492 353.2239 
L 417.41026 353.2239 
L 435.717029 353.205701 
L 454.023797 353.212526 
L 472.330565 353.208734 
L 490.637334 353.210251 
L 508.944102 352.944096 
L 527.25087 353.2239 
L 545.557639 353.220867 
L 563.864407 353.222383 
L 582.171176 353.2239 
L 600.477944 353.186744 
L 618.784712 353.19736 
L 637.091481 353.217834 
L 655.398249 353.183711 
L 673.705017 353.2239 
L 692.011786 263.531861 
L 710.318554 353.195844 
L 728.625322 353.210251 
L 746.932091 353.2239 
L 765.238859 353.2239 
L 783.545627 353.208734 
L 801.852396 353.2239 
L 820.159164 353.21935 
L 838.465932 353.2239 
L 856.772701 353.2239 
L 875.079469 353.2239 
L 893.386237 353.220109 
L 911.693006 353.207218 
L 929.999774 353.2239 
L 948.306543 353.2239 
" clip-path="url(#p19b216da69)" style="fill: none; stroke: #5cb85c; stroke-linecap: square"/>
   </g>
   <g id="line2d_20">
    <path d="M 51.274893 353.148716 
L 69.581662 352.589096 
L 87.88843 353.169286 
L 106.195198 353.222481 
L 124.501967 353.191273 
L 142.808735 353.220354 
L 161.115503 353.2239 
L 179.422272 353.203331 
L 197.72904 353.2239 
L 216.035809 309.431611 
L 234.342577 353.2239 
L 252.649345 353.2239 
L 270.956114 353.2239 
L 289.262882 353.219644 
L 307.56965 353.2239 
L 325.876419 353.2239 
L 344.183187 353.2239 
L 362.489955 353.221063 
L 380.796724 353.164321 
L 399.103492 353.2239 
L 417.41026 353.2239 
L 435.717029 353.209005 
L 454.023797 353.2239 
L 472.330565 353.2239 
L 490.637334 353.222481 
L 508.944102 353.2239 
L 527.25087 353.216098 
L 545.557639 353.2239 
L 563.864407 353.2239 
L 582.171176 353.2239 
L 600.477944 353.2239 
L 618.784712 353.2239 
L 637.091481 353.216807 
L 655.398249 353.2239 
L 673.705017 353.216098 
L 692.011786 353.17425 
L 710.318554 353.176378 
L 728.625322 353.211842 
L 746.932091 353.20404 
L 765.238859 353.221772 
L 783.545627 353.221772 
L 801.852396 353.223191 
L 820.159164 353.197657 
L 838.465932 353.2239 
L 856.772701 353.189855 
L 875.079469 353.218935 
L 893.386237 353.2239 
L 911.693006 353.2239 
L 929.999774 353.2239 
L 948.306543 353.2239 
" clip-path="url(#p19b216da69)" style="fill: none; stroke: #5cb85c; stroke-linecap: square"/>
   </g>
   <g id="line2d_21">
    <path d="M 51.274893 353.194165 
L 69.581662 353.221041 
L 87.88843 353.160426 
L 106.195198 353.2239 
L 124.501967 353.2239 
L 142.808735 353.2239 
L 161.115503 353.2239 
L 179.422272 353.193021 
L 197.72904 353.2239 
L 216.035809 353.2239 
L 234.342577 353.194736 
L 252.649345 353.222184 
L 270.956114 353.222756 
L 289.262882 353.2239 
L 307.56965 353.215894 
L 325.876419 353.2239 
L 344.183187 353.2239 
L 362.489955 353.2239 
L 380.796724 353.2239 
L 399.103492 353.2239 
L 417.41026 353.2239 
L 435.717029 353.211891 
L 454.023797 353.207889 
L 472.330565 353.215894 
L 490.637334 353.213607 
L 508.944102 352.93398 
L 527.25087 353.2239 
L 545.557639 353.221041 
L 563.864407 353.220469 
L 582.171176 353.222756 
L 600.477944 353.173007 
L 618.784712 353.210176 
L 637.091481 353.219897 
L 655.398249 353.179297 
L 673.705017 353.2239 
L 692.011786 260.835046 
L 710.318554 353.21132 
L 728.625322 353.214179 
L 746.932091 353.2239 
L 765.238859 353.2239 
L 783.545627 353.219897 
L 801.852396 353.2239 
L 820.159164 353.223328 
L 838.465932 353.2239 
L 856.772701 353.2239 
L 875.079469 353.2239 
L 893.386237 353.2239 
L 911.693006 353.206173 
L 929.999774 353.2239 
L 948.306543 353.2239 
" clip-path="url(#p19b216da69)" style="fill: none; stroke: #5cb85c; stroke-linecap: square"/>
   </g>
   <g id="line2d_22">
    <path d="M 51.274893 353.144825 
L 69.581662 352.609401 
L 87.88843 353.166737 
L 106.195198 353.2239 
L 124.501967 353.205798 
L 142.808735 353.216278 
L 161.115503 353.2239 
L 179.422272 353.20294 
L 197.72904 353.2239 
L 216.035809 309.135262 
L 234.342577 353.2239 
L 252.649345 353.2239 
L 270.956114 353.2239 
L 289.262882 353.220089 
L 307.56965 353.2239 
L 325.876419 353.222947 
L 344.183187 353.2239 
L 362.489955 353.219136 
L 380.796724 353.180075 
L 399.103492 353.2239 
L 417.41026 353.2239 
L 435.717029 353.205798 
L 454.023797 353.2239 
L 472.330565 353.2239 
L 490.637334 353.221995 
L 508.944102 353.2239 
L 527.25087 353.221995 
L 545.557639 353.2239 
L 563.864407 353.216278 
L 582.171176 353.214373 
L 600.477944 353.221042 
L 618.784712 353.2239 
L 637.091481 353.221042 
L 655.398249 353.2239 
L 673.705017 353.218184 
L 692.011786 353.165785 
L 710.318554 353.177217 
L 728.625322 353.222947 
L 746.932091 353.210562 
L 765.238859 353.221995 
L 783.545627 353.201035 
L 801.852396 353.222947 
L 820.159164 353.212467 
L 838.465932 353.2239 
L 856.772701 353.192461 
L 875.079469 353.194366 
L 893.386237 353.219136 
L 911.693006 353.2239 
L 929.999774 353.2239 
L 948.306543 353.2239 
" clip-path="url(#p19b216da69)" style="fill: none; stroke: #5cb85c; stroke-linecap: square"/>
   </g>
   <g id="line2d_23">
    <path d="M 51.274893 353.221832 
L 69.581662 353.21549 
L 87.88843 353.163652 
L 106.195198 353.2239 
L 124.501967 353.2239 
L 142.808735 353.222659 
L 161.115503 353.2239 
L 179.422272 353.185021 
L 197.72904 353.222797 
L 216.035809 353.215076 
L 234.342577 353.221556 
L 252.649345 353.223486 
L 270.956114 353.223486 
L 289.262882 353.2239 
L 307.56965 353.218523 
L 325.876419 353.2239 
L 344.183187 353.2239 
L 362.489955 353.2239 
L 380.796724 353.22197 
L 399.103492 353.2239 
L 417.41026 353.222935 
L 435.717029 353.216179 
L 454.023797 353.2239 
L 472.330565 353.216179 
L 490.637334 353.188192 
L 508.944102 352.98139 
L 527.25087 353.2239 
L 545.557639 353.220867 
L 563.864407 353.2239 
L 582.171176 353.22197 
L 600.477944 353.215352 
L 618.784712 353.201152 
L 637.091481 353.209837 
L 655.398249 353.218247 
L 673.705017 353.223486 
L 692.011786 263.305669 
L 710.318554 353.202393 
L 728.625322 353.20901 
L 746.932091 353.2239 
L 765.238859 353.2239 
L 783.545627 353.208597 
L 801.852396 353.223762 
L 820.159164 353.218661 
L 838.465932 353.2239 
L 856.772701 353.2239 
L 875.079469 353.2239 
L 893.386237 353.22197 
L 911.693006 353.204323 
L 929.999774 353.2239 
L 948.306543 353.2239 
" clip-path="url(#p19b216da69)" style="fill: none; stroke: #5cb85c; stroke-linecap: square"/>
   </g>
   <g id="line2d_24">
    <path d="M 51.274893 353.148763 
L 69.581662 352.616361 
L 87.88843 353.171935 
L 106.195198 353.221569 
L 124.501967 353.18496 
L 142.808735 353.21677 
L 161.115503 353.2239 
L 179.422272 353.218964 
L 197.72904 353.2239 
L 216.035809 309.776021 
L 234.342577 353.2239 
L 252.649345 353.2239 
L 270.956114 353.2239 
L 289.262882 353.220746 
L 307.56965 353.2239 
L 325.876419 353.2239 
L 344.183187 353.2239 
L 362.489955 353.221021 
L 380.796724 353.158498 
L 399.103492 353.2239 
L 417.41026 353.2239 
L 435.717029 353.207172 
L 454.023797 353.2239 
L 472.330565 353.2239 
L 490.637334 353.222803 
L 508.944102 353.2239 
L 527.25087 353.221021 
L 545.557639 353.2239 
L 563.864407 353.222118 
L 582.171176 353.22198 
L 600.477944 353.223489 
L 618.784712 353.2239 
L 637.091481 353.2239 
L 655.398249 353.2239 
L 673.705017 353.216907 
L 692.011786 353.166588 
L 710.318554 353.172483 
L 728.625322 353.217044 
L 746.932091 353.1973 
L 765.238859 353.214028 
L 783.545627 353.217456 
L 801.852396 353.223489 
L 820.159164 353.21252 
L 838.465932 353.2239 
L 856.772701 353.185783 
L 875.079469 353.21581 
L 893.386237 353.223214 
L 911.693006 353.2239 
L 929.999774 353.2239 
L 948.306543 353.2239 
" clip-path="url(#p19b216da69)" style="fill: none; stroke: #5cb85c; stroke-linecap: square"/>
   </g>
   <g id="line2d_25">
    <path d="M 51.274893 353.18433 
L 69.581662 353.216508 
L 87.88843 353.167371 
L 106.195198 353.2239 
L 124.501967 353.2239 
L 142.808735 353.22303 
L 161.115503 353.2239 
L 179.422272 353.187374 
L 197.72904 353.221726 
L 216.035809 353.216943 
L 234.342577 353.186504 
L 252.649345 353.223465 
L 270.956114 353.223465 
L 289.262882 353.2239 
L 307.56965 353.215203 
L 325.876419 353.2239 
L 344.183187 353.2239 
L 362.489955 353.2239 
L 380.796724 353.22303 
L 399.103492 353.2239 
L 417.41026 353.221291 
L 435.717029 353.21042 
L 454.023797 353.199549 
L 472.330565 353.220421 
L 490.637334 353.163458 
L 508.944102 352.928211 
L 527.25087 353.2239 
L 545.557639 353.22303 
L 563.864407 353.212159 
L 582.171176 353.221726 
L 600.477944 353.172589 
L 618.784712 353.205637 
L 637.091481 353.198245 
L 655.398249 353.17172 
L 673.705017 353.2239 
L 692.011786 262.961395 
L 710.318554 353.208681 
L 728.625322 353.212594 
L 746.932091 353.2239 
L 765.238859 353.2239 
L 783.545627 353.214768 
L 801.852396 353.22303 
L 820.159164 353.222161 
L 838.465932 353.2239 
L 856.772701 353.2239 
L 875.079469 353.2239 
L 893.386237 353.22303 
L 911.693006 353.21042 
L 929.999774 353.2239 
L 948.306543 353.219986 
" clip-path="url(#p19b216da69)" style="fill: none; stroke: #5cb85c; stroke-linecap: square"/>
   </g>
   <g id="line2d_26">
    <path d="M 51.274893 353.191776 
L 69.581662 353.215539 
L 87.88843 353.167574 
L 106.195198 353.2239 
L 124.501967 353.2239 
L 142.808735 353.2239 
L 161.115503 353.2239 
L 179.422272 353.186496 
L 197.72904 353.2239 
L 216.035809 353.2239 
L 234.342577 353.192656 
L 252.649345 353.2239 
L 270.956114 353.2239 
L 289.262882 353.2239 
L 307.56965 353.215979 
L 325.876419 353.2239 
L 344.183187 353.2239 
L 362.489955 353.2239 
L 380.796724 353.2239 
L 399.103492 353.2239 
L 417.41026 353.2239 
L 435.717029 353.202778 
L 454.023797 353.203658 
L 472.330565 353.212019 
L 490.637334 353.213779 
L 508.944102 352.919826 
L 527.25087 353.2239 
L 545.557639 353.2217 
L 563.864407 353.214659 
L 582.171176 353.22346 
L 600.477944 353.177695 
L 618.784712 353.201017 
L 637.091481 353.22082 
L 655.398249 353.179455 
L 673.705017 353.22346 
L 692.011786 263.216181 
L 710.318554 353.201017 
L 728.625322 353.210699 
L 746.932091 353.2239 
L 765.238859 353.2239 
L 783.545627 353.208498 
L 801.852396 353.2239 
L 820.159164 353.219059 
L 838.465932 353.2239 
L 856.772701 353.2239 
L 875.079469 353.2239 
L 893.386237 353.22346 
L 911.693006 353.206738 
L 929.999774 353.2239 
L 948.306543 353.22082 
" clip-path="url(#p19b216da69)" style="fill: none; stroke: #5cb85c; stroke-linecap: square"/>
   </g>
   <g id="line2d_27">
    <path d="M 51.274893 353.190677 
L 69.581662 353.218526 
L 87.88843 353.15843 
L 106.195198 353.2239 
L 124.501967 353.2239 
L 142.808735 353.2239 
L 161.115503 353.2239 
L 179.422272 353.189699 
L 197.72904 353.2239 
L 216.035809 353.220969 
L 234.342577 353.191654 
L 252.649345 353.222923 
L 270.956114 353.222923 
L 289.262882 353.2239 
L 307.56965 353.216083 
L 325.876419 353.2239 
L 344.183187 353.2239 
L 362.489955 353.2239 
L 380.796724 353.2239 
L 399.103492 353.2239 
L 417.41026 353.2239 
L 435.717029 353.212663 
L 454.023797 353.2068 
L 472.330565 353.221457 
L 490.637334 353.172111 
L 508.944102 352.92831 
L 527.25087 353.2239 
L 545.557639 353.2239 
L 563.864407 353.215594 
L 582.171176 353.2239 
L 600.477944 353.176508 
L 618.784712 353.213151 
L 637.091481 353.207777 
L 655.398249 353.176508 
L 673.705017 353.2239 
L 692.011786 263.627249 
L 710.318554 353.218037 
L 728.625322 353.218037 
L 746.932091 353.2239 
L 765.238859 353.223411 
L 783.545627 353.222434 
L 801.852396 353.2239 
L 820.159164 353.222434 
L 838.465932 353.2239 
L 856.772701 353.2239 
L 875.079469 353.2239 
L 893.386237 353.2239 
L 911.693006 353.218526 
L 929.999774 353.2239 
L 948.306543 353.221457 
" clip-path="url(#p19b216da69)" style="fill: none; stroke: #5cb85c; stroke-linecap: square"/>
   </g>
   <g id="line2d_28">
    <path d="M 51.274893 353.166587 
L 69.581662 352.611497 
L 87.88843 353.163403 
L 106.195198 353.222308 
L 124.501967 353.197897 
L 142.808735 353.217001 
L 161.115503 353.2239 
L 179.422272 353.2239 
L 197.72904 353.2239 
L 216.035809 309.595213 
L 234.342577 353.2239 
L 252.649345 353.2239 
L 270.956114 353.2239 
L 289.262882 353.222839 
L 307.56965 353.2239 
L 325.876419 353.223369 
L 344.183187 353.2239 
L 362.489955 353.222839 
L 380.796724 353.161811 
L 399.103492 353.2239 
L 417.41026 353.2239 
L 435.717029 353.209041 
L 454.023797 353.2239 
L 472.330565 353.2239 
L 490.637334 353.221777 
L 508.944102 353.2239 
L 527.25087 353.2239 
L 545.557639 353.2239 
L 563.864407 353.2239 
L 582.171176 353.2239 
L 600.477944 353.2239 
L 618.784712 353.2239 
L 637.091481 353.2239 
L 655.398249 353.2239 
L 673.705017 353.214348 
L 692.011786 353.169771 
L 710.318554 353.1772 
L 728.625322 353.2239 
L 746.932091 353.206388 
L 765.238859 353.221247 
L 783.545627 353.2239 
L 801.852396 353.2239 
L 820.159164 353.211164 
L 838.465932 353.2239 
L 856.772701 353.193121 
L 875.079469 353.223369 
L 893.386237 353.2239 
L 911.693006 353.2239 
L 929.999774 353.2239 
L 948.306543 353.220716 
" clip-path="url(#p19b216da69)" style="fill: none; stroke: #5cb85c; stroke-linecap: square"/>
   </g>
   <g id="line2d_29">
    <path d="M 51.274893 353.194761 
L 69.581662 353.220015 
L 87.88843 353.167565 
L 106.195198 353.2239 
L 124.501967 353.2239 
L 142.808735 353.223414 
L 161.115503 353.2239 
L 179.422272 353.184563 
L 197.72904 353.223414 
L 216.035809 353.217587 
L 234.342577 353.19719 
L 252.649345 353.2239 
L 270.956114 353.2239 
L 289.262882 353.2239 
L 307.56965 353.218072 
L 325.876419 353.2239 
L 344.183187 353.2239 
L 362.489955 353.2239 
L 380.796724 353.223414 
L 399.103492 353.2239 
L 417.41026 353.2239 
L 435.717029 353.205445 
L 454.023797 353.204474 
L 472.330565 353.212245 
L 490.637334 353.210302 
L 508.944102 352.939798 
L 527.25087 353.220015 
L 545.557639 353.21613 
L 563.864407 353.221957 
L 582.171176 353.221957 
L 600.477944 353.179221 
L 618.784712 353.206902 
L 637.091481 353.221472 
L 655.398249 353.178249 
L 673.705017 353.223414 
L 692.011786 262.439367 
L 710.318554 353.210302 
L 728.625322 353.215644 
L 746.932091 353.2239 
L 765.238859 353.2239 
L 783.545627 353.218072 
L 801.852396 353.2239 
L 820.159164 353.223414 
L 838.465932 353.2239 
L 856.772701 353.2239 
L 875.079469 353.2239 
L 893.386237 353.2239 
L 911.693006 353.220986 
L 929.999774 353.2239 
L 948.306543 353.2239 
" clip-path="url(#p19b216da69)" style="fill: none; stroke: #5cb85c; stroke-linecap: square"/>
   </g>
   <g id="line2d_30">
    <path d="M 51.274893 353.156441 
L 69.581662 352.548894 
L 87.88843 353.172681 
L 106.195198 353.222234 
L 124.501967 353.193918 
L 142.808735 353.215155 
L 161.115503 353.2239 
L 179.422272 353.223484 
L 197.72904 353.2239 
L 216.035809 309.627945 
L 234.342577 353.2239 
L 252.649345 353.2239 
L 270.956114 353.2239 
L 289.262882 353.220152 
L 307.56965 353.2239 
L 325.876419 353.223484 
L 344.183187 353.2239 
L 362.489955 353.220569 
L 380.796724 353.164353 
L 399.103492 353.2239 
L 417.41026 353.2239 
L 435.717029 353.210158 
L 454.023797 353.2239 
L 472.330565 353.2239 
L 490.637334 353.223067 
L 508.944102 353.2239 
L 527.25087 353.2239 
L 545.557639 353.2239 
L 563.864407 353.2239 
L 582.171176 353.2239 
L 600.477944 353.2239 
L 618.784712 353.2239 
L 637.091481 353.2239 
L 655.398249 353.2239 
L 673.705017 353.219319 
L 692.011786 353.180593 
L 710.318554 353.176429 
L 728.625322 353.2239 
L 746.932091 353.206411 
L 765.238859 353.222234 
L 783.545627 353.2239 
L 801.852396 353.2239 
L 820.159164 353.216821 
L 838.465932 353.2239 
L 856.772701 353.197666 
L 875.079469 353.2239 
L 893.386237 353.2239 
L 911.693006 353.2239 
L 929.999774 353.2239 
L 948.306543 353.220569 
" clip-path="url(#p19b216da69)" style="fill: none; stroke: #5cb85c; stroke-linecap: square"/>
   </g>
   <g id="line2d_31">
    <path d="M 51.274893 353.154385 
L 69.581662 352.596588 
L 87.88843 353.171135 
L 106.195198 353.221806 
L 124.501967 353.195005 
L 142.808735 353.215525 
L 161.115503 353.2239 
L 179.422272 353.215525 
L 197.72904 353.2239 
L 216.035809 309.883231 
L 234.342577 353.2239 
L 252.649345 353.2239 
L 270.956114 353.2239 
L 289.262882 353.222644 
L 307.56965 353.2239 
L 325.876419 353.2239 
L 344.183187 353.2239 
L 362.489955 353.223062 
L 380.796724 353.156479 
L 399.103492 353.2239 
L 417.41026 353.2239 
L 435.717029 353.208824 
L 454.023797 353.2239 
L 472.330565 353.2239 
L 490.637334 353.223062 
L 508.944102 353.2239 
L 527.25087 353.2239 
L 545.557639 353.2239 
L 563.864407 353.2239 
L 582.171176 353.2239 
L 600.477944 353.2239 
L 618.784712 353.2239 
L 637.091481 353.223062 
L 655.398249 353.2239 
L 673.705017 353.218875 
L 692.011786 353.174486 
L 710.318554 353.170298 
L 728.625322 353.216362 
L 746.932091 353.196261 
L 765.238859 353.215106 
L 783.545627 353.2239 
L 801.852396 353.223481 
L 820.159164 353.2239 
L 838.465932 353.2239 
L 856.772701 353.188305 
L 875.079469 353.2239 
L 893.386237 353.2239 
L 911.693006 353.2239 
L 929.999774 353.2239 
L 948.306543 353.2239 
" clip-path="url(#p19b216da69)" style="fill: none; stroke: #5cb85c; stroke-linecap: square"/>
   </g>
   <g id="line2d_32">
    <path d="M 51.274893 353.151229 
L 69.581662 352.509062 
L 87.88843 353.165478 
L 106.195198 353.22105 
L 124.501967 353.194926 
L 142.808735 353.21535 
L 161.115503 353.2239 
L 179.422272 353.2201 
L 197.72904 353.2239 
L 216.035809 310.107046 
L 234.342577 353.2239 
L 252.649345 353.2239 
L 270.956114 353.2239 
L 289.262882 353.219625 
L 307.56965 353.2239 
L 325.876419 353.223425 
L 344.183187 353.2239 
L 362.489955 353.222 
L 380.796724 353.160253 
L 399.103492 353.2239 
L 417.41026 353.2239 
L 435.717029 353.205851 
L 454.023797 353.2239 
L 472.330565 353.2239 
L 490.637334 353.22295 
L 508.944102 353.2239 
L 527.25087 353.218675 
L 545.557639 353.2239 
L 563.864407 353.2239 
L 582.171176 353.2239 
L 600.477944 353.2239 
L 618.784712 353.2239 
L 637.091481 353.219625 
L 655.398249 353.2239 
L 673.705017 353.219625 
L 692.011786 353.177352 
L 710.318554 353.183052 
L 728.625322 353.213451 
L 746.932091 353.196351 
L 765.238859 353.212976 
L 783.545627 353.22295 
L 801.852396 353.2239 
L 820.159164 353.195401 
L 838.465932 353.2239 
L 856.772701 353.185427 
L 875.079469 353.217725 
L 893.386237 353.2239 
L 911.693006 353.2239 
L 929.999774 353.2239 
L 948.306543 353.2239 
" clip-path="url(#p19b216da69)" style="fill: none; stroke: #5cb85c; stroke-linecap: square"/>
   </g>
   <g id="line2d_33">
    <path d="M 51.274893 353.190462 
L 69.581662 353.211581 
L 87.88843 353.16641 
L 106.195198 353.2239 
L 124.501967 353.2239 
L 142.808735 353.2239 
L 161.115503 353.2239 
L 179.422272 353.188702 
L 197.72904 353.2239 
L 216.035809 353.2239 
L 234.342577 353.191049 
L 252.649345 353.223313 
L 270.956114 353.223313 
L 289.262882 353.2239 
L 307.56965 353.210994 
L 325.876419 353.2239 
L 344.183187 353.2239 
L 362.489955 353.2239 
L 380.796724 353.2239 
L 399.103492 353.2239 
L 417.41026 353.2239 
L 435.717029 353.198675 
L 454.023797 353.203368 
L 472.330565 353.208648 
L 490.637334 353.213341 
L 508.944102 352.921786 
L 527.25087 353.2239 
L 545.557639 353.219794 
L 563.864407 353.214514 
L 582.171176 353.221553 
L 600.477944 353.17873 
L 618.784712 353.212754 
L 637.091481 353.21862 
L 655.398249 353.17697 
L 673.705017 353.2239 
L 692.011786 263.372173 
L 710.318554 353.203368 
L 728.625322 353.213927 
L 746.932091 353.2239 
L 765.238859 353.2239 
L 783.545627 353.21686 
L 801.852396 353.2239 
L 820.159164 353.223313 
L 838.465932 353.2239 
L 856.772701 353.2239 
L 875.079469 353.2239 
L 893.386237 353.2239 
L 911.693006 353.219794 
L 929.999774 353.2239 
L 948.306543 353.220967 
" clip-path="url(#p19b216da69)" style="fill: none; stroke: #5cb85c; stroke-linecap: square"/>
   </g>
   <g id="line2d_34">
    <path d="M 51.274893 353.194974 
L 69.581662 353.2239 
L 87.88843 353.166911 
L 106.195198 353.2239 
L 124.501967 353.2239 
L 142.808735 353.2239 
L 161.115503 353.223468 
L 179.422272 353.174251 
L 197.72904 353.223468 
L 216.035809 353.218719 
L 234.342577 353.192815 
L 252.649345 353.2239 
L 270.956114 353.223468 
L 289.262882 353.2239 
L 307.56965 353.216561 
L 325.876419 353.2239 
L 344.183187 353.2239 
L 362.489955 353.2239 
L 380.796724 353.2239 
L 399.103492 353.2239 
L 417.41026 353.2239 
L 435.717029 353.207926 
L 454.023797 353.207494 
L 472.330565 353.216129 
L 490.637334 353.213107 
L 508.944102 352.935502 
L 527.25087 353.219151 
L 545.557639 353.220014 
L 563.864407 353.222173 
L 582.171176 353.2239 
L 600.477944 353.185907 
L 618.784712 353.201882 
L 637.091481 353.220014 
L 655.398249 353.182022 
L 673.705017 353.222173 
L 692.011786 263.461698 
L 710.318554 353.207062 
L 728.625322 353.210085 
L 746.932091 353.2239 
L 765.238859 353.2239 
L 783.545627 353.217856 
L 801.852396 353.2239 
L 820.159164 353.223037 
L 838.465932 353.2239 
L 856.772701 353.2239 
L 875.079469 353.2239 
L 893.386237 353.2239 
L 911.693006 353.223037 
L 929.999774 353.2239 
L 948.306543 353.2239 
" clip-path="url(#p19b216da69)" style="fill: none; stroke: #5cb85c; stroke-linecap: square"/>
   </g>
   <g id="line2d_35">
    <path d="M 51.274893 353.155483 
L 69.581662 352.561035 
L 87.88843 353.165725 
L 106.195198 353.222671 
L 124.501967 353.192355 
L 142.808735 353.214068 
L 161.115503 353.2239 
L 179.422272 353.22349 
L 197.72904 353.2239 
L 216.035809 309.964784 
L 234.342577 353.2239 
L 252.649345 353.2239 
L 270.956114 353.2239 
L 289.262882 353.219394 
L 307.56965 353.2239 
L 325.876419 353.22349 
L 344.183187 353.2239 
L 362.489955 353.222671 
L 380.796724 353.160809 
L 399.103492 353.2239 
L 417.41026 353.2239 
L 435.717029 353.208742 
L 454.023797 353.2239 
L 472.330565 353.2239 
L 490.637334 353.22349 
L 508.944102 353.2239 
L 527.25087 353.2239 
L 545.557639 353.2239 
L 563.864407 353.2239 
L 582.171176 353.2239 
L 600.477944 353.2239 
L 618.784712 353.2239 
L 637.091481 353.2239 
L 655.398249 353.2239 
L 673.705017 353.216116 
L 692.011786 353.175148 
L 710.318554 353.175558 
L 728.625322 353.213658 
L 746.932091 353.202597 
L 765.238859 353.220213 
L 783.545627 353.2239 
L 801.852396 353.2239 
L 820.159164 353.196042 
L 838.465932 353.2239 
L 856.772701 353.189487 
L 875.079469 353.2239 
L 893.386237 353.2239 
L 911.693006 353.2239 
L 929.999774 353.2239 
L 948.306543 353.219803 
" clip-path="url(#p19b216da69)" style="fill: none; stroke: #5cb85c; stroke-linecap: square"/>
   </g>
   <g id="line2d_36">
    <path d="M 51.274893 353.203883 
L 69.581662 353.218363 
L 87.88843 353.16385 
L 106.195198 353.2239 
L 124.501967 353.2239 
L 142.808735 353.2239 
L 161.115503 353.223474 
L 179.422272 353.180033 
L 197.72904 353.2239 
L 216.035809 353.217086 
L 234.342577 353.203883 
L 252.649345 353.223048 
L 270.956114 353.223048 
L 289.262882 353.2239 
L 307.56965 353.215808 
L 325.876419 353.2239 
L 344.183187 353.2239 
L 362.489955 353.2239 
L 380.796724 353.223474 
L 399.103492 353.2239 
L 417.41026 353.2239 
L 435.717029 353.203031 
L 454.023797 353.212827 
L 472.330565 353.211549 
L 490.637334 353.20942 
L 508.944102 352.947924 
L 527.25087 353.217512 
L 545.557639 353.21666 
L 563.864407 353.222622 
L 582.171176 353.223048 
L 600.477944 353.191107 
L 618.784712 353.202606 
L 637.091481 353.220067 
L 655.398249 353.19281 
L 673.705017 353.221345 
L 692.011786 262.95764 
L 710.318554 353.204735 
L 728.625322 353.210272 
L 746.932091 353.2239 
L 765.238859 353.2239 
L 783.545627 353.215808 
L 801.852396 353.2239 
L 820.159164 353.223048 
L 838.465932 353.2239 
L 856.772701 353.2239 
L 875.079469 353.2239 
L 893.386237 353.2239 
L 911.693006 353.223474 
L 929.999774 353.2239 
L 948.306543 353.2239 
" clip-path="url(#p19b216da69)" style="fill: none; stroke: #5cb85c; stroke-linecap: square"/>
   </g>
   <g id="line2d_37">
    <path d="M 51.274893 353.189825 
L 69.581662 353.215173 
L 87.88843 353.166347 
L 106.195198 353.2239 
L 124.501967 353.2239 
L 142.808735 353.2239 
L 161.115503 353.2239 
L 179.422272 353.192526 
L 197.72904 353.223692 
L 216.035809 353.22016 
L 234.342577 353.190241 
L 252.649345 353.2239 
L 270.956114 353.2239 
L 289.262882 353.2239 
L 307.56965 353.217875 
L 325.876419 353.2239 
L 344.183187 353.2239 
L 362.489955 353.2239 
L 380.796724 353.2239 
L 399.103492 353.2239 
L 417.41026 353.223484 
L 435.717029 353.201668 
L 454.023797 353.203954 
L 472.330565 353.209356 
L 490.637334 353.181306 
L 508.944102 352.922004 
L 527.25087 353.2239 
L 545.557639 353.217459 
L 563.864407 353.21455 
L 582.171176 353.220576 
L 600.477944 353.177151 
L 618.784712 353.197928 
L 637.091481 353.216005 
L 655.398249 353.177359 
L 673.705017 353.220576 
L 692.011786 263.019549 
L 710.318554 353.193773 
L 728.625322 353.204161 
L 746.932091 353.2239 
L 765.238859 353.223692 
L 783.545627 353.204993 
L 801.852396 353.2239 
L 820.159164 353.21642 
L 838.465932 353.2239 
L 856.772701 353.2239 
L 875.079469 353.2239 
L 893.386237 353.213304 
L 911.693006 353.2052 
L 929.999774 353.2239 
L 948.306543 353.222446 
" clip-path="url(#p19b216da69)" style="fill: none; stroke: #5cb85c; stroke-linecap: square"/>
   </g>
   <g id="line2d_38">
    <path d="M 51.274893 353.161541 
L 69.581662 352.602271 
L 87.88843 353.1701 
L 106.195198 353.222433 
L 124.501967 353.185751 
L 142.808735 353.217297 
L 161.115503 353.2239 
L 179.422272 353.222922 
L 197.72904 353.2239 
L 216.035809 309.601533 
L 234.342577 353.2239 
L 252.649345 353.2239 
L 270.956114 353.2239 
L 289.262882 353.222433 
L 307.56965 353.2239 
L 325.876419 353.223655 
L 344.183187 353.2239 
L 362.489955 353.220965 
L 380.796724 353.164721 
L 399.103492 353.2239 
L 417.41026 353.2239 
L 435.717029 353.203603 
L 454.023797 353.2239 
L 472.330565 353.2239 
L 490.637334 353.222188 
L 508.944102 353.2239 
L 527.25087 353.2239 
L 545.557639 353.2239 
L 563.864407 353.2239 
L 582.171176 353.2239 
L 600.477944 353.2239 
L 618.784712 353.2239 
L 637.091481 353.2239 
L 655.398249 353.2239 
L 673.705017 353.218765 
L 692.011786 353.169367 
L 710.318554 353.180127 
L 728.625322 353.215341 
L 746.932091 353.204581 
L 765.238859 353.220721 
L 783.545627 353.2239 
L 801.852396 353.2239 
L 820.159164 353.216319 
L 838.465932 353.2239 
L 856.772701 353.190153 
L 875.079469 353.223655 
L 893.386237 353.2239 
L 911.693006 353.2239 
L 929.999774 353.2239 
L 948.306543 353.219254 
" clip-path="url(#p19b216da69)" style="fill: none; stroke: #5cb85c; stroke-linecap: square"/>
   </g>
   <g id="line2d_39">
    <path d="M 32.968125 353.2239 
L 993.158125 353.2239 
" clip-path="url(#p19b216da69)" style="fill: none; stroke: #dedede; stroke-width: 2; stroke-linecap: square"/>
   </g>
   <g id="text_15">
    <!-- FastQC: Per Base N Content -->
    <g transform="translate(402.209375 19.3575) scale(0.16 -0.16)">
     <defs>
      <path id="DejaVuSans-46" d="M 628 4666 
L 3309 4666 
L 3309 4134 
L 1259 4134 
L 1259 2759 
L 3109 2759 
L 3109 2228 
L 1259 2228 
L 1259 0 
L 628 0 
L 628 4666 
z
" transform="scale(0.015625)"/>
      <path id="DejaVuSans-51" d="M 2522 4238 
Q 1834 4238 1429 3725 
Q 1025 3213 1025 2328 
Q 1025 1447 1429 934 
Q 1834 422 2522 422 
Q 3209 422 3611 934 
Q 4013 1447 4013 2328 
Q 4013 3213 3611 3725 
Q 3209 4238 2522 4238 
z
M 3406 84 
L 4238 -825 
L 3475 -825 
L 2784 -78 
Q 2681 -84 2626 -87 
Q 2572 -91 2522 -91 
Q 1538 -91 948 567 
Q 359 1225 359 2328 
Q 359 3434 948 4092 
Q 1538 4750 2522 4750 
Q 3503 4750 4090 4092 
Q 4678 3434 4678 2328 
Q 4678 1516 4351 937 
Q 4025 359 3406 84 
z
" transform="scale(0.015625)"/>
      <path id="DejaVuSans-3a" d="M 750 794 
L 1409 794 
L 1409 0 
L 750 0 
L 750 794 
z
M 750 3309 
L 1409 3309 
L 1409 2516 
L 750 2516 
L 750 3309 
z
" transform="scale(0.015625)"/>
      <path id="DejaVuSans-42" d="M 1259 2228 
L 1259 519 
L 2272 519 
Q 2781 519 3026 730 
Q 3272 941 3272 1375 
Q 3272 1813 3026 2020 
Q 2781 2228 2272 2228 
L 1259 2228 
z
M 1259 4147 
L 1259 2741 
L 2194 2741 
Q 2656 2741 2882 2914 
Q 3109 3088 3109 3444 
Q 3109 3797 2882 3972 
Q 2656 4147 2194 4147 
L 1259 4147 
z
M 628 4666 
L 2241 4666 
Q 2963 4666 3353 4366 
Q 3744 4066 3744 3513 
Q 3744 3084 3544 2831 
Q 3344 2578 2956 2516 
Q 3422 2416 3680 2098 
Q 3938 1781 3938 1306 
Q 3938 681 3513 340 
Q 3088 0 2303 0 
L 628 0 
L 628 4666 
z
" transform="scale(0.015625)"/>
     </defs>
     <use xlink:href="#DejaVuSans-46"/>
     <use xlink:href="#DejaVuSans-61" x="48.394531"/>
     <use xlink:href="#DejaVuSans-73" x="109.673828"/>
     <use xlink:href="#DejaVuSans-74" x="161.773438"/>
     <use xlink:href="#DejaVuSans-51" x="200.982422"/>
     <use xlink:href="#DejaVuSans-43" x="279.693359"/>
     <use xlink:href="#DejaVuSans-3a" x="349.517578"/>
     <use xlink:href="#DejaVuSans-20" x="383.208984"/>
     <use xlink:href="#DejaVuSans-50" x="414.996094"/>
     <use xlink:href="#DejaVuSans-65" x="471.673828"/>
     <use xlink:href="#DejaVuSans-72" x="533.197266"/>
     <use xlink:href="#DejaVuSans-20" x="574.310547"/>
     <use xlink:href="#DejaVuSans-42" x="606.097656"/>
     <use xlink:href="#DejaVuSans-61" x="674.701172"/>
     <use xlink:href="#DejaVuSans-73" x="735.980469"/>
     <use xlink:href="#DejaVuSans-65" x="788.080078"/>
     <use xlink:href="#DejaVuSans-20" x="849.603516"/>
     <use xlink:href="#DejaVuSans-4e" x="881.390625"/>
     <use xlink:href="#DejaVuSans-20" x="956.195312"/>
     <use xlink:href="#DejaVuSans-43" x="987.982422"/>
     <use xlink:href="#DejaVuSans-6f" x="1057.806641"/>
     <use xlink:href="#DejaVuSans-6e" x="1118.988281"/>
     <use xlink:href="#DejaVuSans-74" x="1182.367188"/>
     <use xlink:href="#DejaVuSans-65" x="1221.576172"/>
     <use xlink:href="#DejaVuSans-6e" x="1283.099609"/>
     <use xlink:href="#DejaVuSans-74" x="1346.478516"/>
    </g>
   </g>
  </g>
 </g>
 <defs>
  <clipPath id="p19b216da69">
   <rect x="32.968125" y="35.2559" width="960.19" height="317.968"/>
  </clipPath>
 </defs>
</svg>
