<?xml version="1.0" encoding="utf-8" standalone="no"?>
<!DOCTYPE svg PUBLIC "-//W3C//DTD SVG 1.1//EN"
  "http://www.w3.org/Graphics/SVG/1.1/DTD/svg11.dtd">
<svg xmlns:xlink="http://www.w3.org/1999/xlink" width="1000.340625pt" height="388.844525pt" viewBox="0 0 1000.340625 388.844525" xmlns="http://www.w3.org/2000/svg" version="1.1">
 <metadata>
  <rdf:RDF xmlns:dc="http://purl.org/dc/elements/1.1/" xmlns:cc="http://creativecommons.org/ns#" xmlns:rdf="http://www.w3.org/1999/02/22-rdf-syntax-ns#">
   <cc:Work>
    <dc:type rdf:resource="http://purl.org/dc/dcmitype/StillImage"/>
    <dc:date>2025-01-24T09:54:41.234869</dc:date>
    <dc:format>image/svg+xml</dc:format>
    <dc:creator>
     <cc:Agent>
      <dc:title>Matplotlib v3.8.2, https://matplotlib.org/</dc:title>
     </cc:Agent>
    </dc:creator>
   </cc:Work>
  </rdf:RDF>
 </metadata>
 <defs>
  <style type="text/css">*{stroke-linejoin: round; stroke-linecap: butt}</style>
 </defs>
 <g id="figure_1">
  <g id="axes_1">
   <g id="patch_1">
    <path d="M 40.600625 353.2239 
L 993.140625 353.2239 
L 993.140625 35.2559 
L 40.600625 35.2559 
z
" style="fill: #ffffff"/>
   </g>
   <g id="matplotlib.axis_1">
    <g id="xtick_1">
     <g id="text_1">
      <!-- 0 -->
      <g transform="translate(63.680542 366.30265) scale(0.08 -0.08)">
       <defs>
        <path id="DejaVuSans-30" d="M 2034 4250 
Q 1547 4250 1301 3770 
Q 1056 3291 1056 2328 
Q 1056 1369 1301 889 
Q 1547 409 2034 409 
Q 2525 409 2770 889 
Q 3016 1369 3016 2328 
Q 3016 3291 2770 3770 
Q 2525 4250 2034 4250 
z
M 2034 4750 
Q 2819 4750 3233 4129 
Q 3647 3509 3647 2328 
Q 3647 1150 3233 529 
Q 2819 -91 2034 -91 
Q 1250 -91 836 529 
Q 422 1150 422 2328 
Q 422 3509 836 4129 
Q 1250 4750 2034 4750 
z
" transform="scale(0.015625)"/>
       </defs>
       <use xlink:href="#DejaVuSans-30"/>
      </g>
     </g>
    </g>
    <g id="xtick_2">
     <g id="text_2">
      <!-- 10 -->
      <g transform="translate(237.859104 366.30265) scale(0.08 -0.08)">
       <defs>
        <path id="DejaVuSans-31" d="M 794 531 
L 1825 531 
L 1825 4091 
L 703 3866 
L 703 4441 
L 1819 4666 
L 2450 4666 
L 2450 531 
L 3481 531 
L 3481 0 
L 794 0 
L 794 531 
z
" transform="scale(0.015625)"/>
       </defs>
       <use xlink:href="#DejaVuSans-31"/>
       <use xlink:href="#DejaVuSans-30" x="63.623047"/>
      </g>
     </g>
    </g>
    <g id="xtick_3">
     <g id="text_3">
      <!-- 20 -->
      <g transform="translate(414.582666 366.30265) scale(0.08 -0.08)">
       <defs>
        <path id="DejaVuSans-32" d="M 1228 531 
L 3431 531 
L 3431 0 
L 469 0 
L 469 531 
Q 828 903 1448 1529 
Q 2069 2156 2228 2338 
Q 2531 2678 2651 2914 
Q 2772 3150 2772 3378 
Q 2772 3750 2511 3984 
Q 2250 4219 1831 4219 
Q 1534 4219 1204 4116 
Q 875 4013 500 3803 
L 500 4441 
Q 881 4594 1212 4672 
Q 1544 4750 1819 4750 
Q 2544 4750 2975 4387 
Q 3406 4025 3406 3419 
Q 3406 3131 3298 2873 
Q 3191 2616 2906 2266 
Q 2828 2175 2409 1742 
Q 1991 1309 1228 531 
z
" transform="scale(0.015625)"/>
       </defs>
       <use xlink:href="#DejaVuSans-32"/>
       <use xlink:href="#DejaVuSans-30" x="63.623047"/>
      </g>
     </g>
    </g>
    <g id="xtick_4">
     <g id="text_4">
      <!-- 30 -->
      <g transform="translate(591.306228 366.30265) scale(0.08 -0.08)">
       <defs>
        <path id="DejaVuSans-33" d="M 2597 2516 
Q 3050 2419 3304 2112 
Q 3559 1806 3559 1356 
Q 3559 666 3084 287 
Q 2609 -91 1734 -91 
Q 1441 -91 1130 -33 
Q 819 25 488 141 
L 488 750 
Q 750 597 1062 519 
Q 1375 441 1716 441 
Q 2309 441 2620 675 
Q 2931 909 2931 1356 
Q 2931 1769 2642 2001 
Q 2353 2234 1838 2234 
L 1294 2234 
L 1294 2753 
L 1863 2753 
Q 2328 2753 2575 2939 
Q 2822 3125 2822 3475 
Q 2822 3834 2567 4026 
Q 2313 4219 1838 4219 
Q 1578 4219 1281 4162 
Q 984 4106 628 3988 
L 628 4550 
Q 988 4650 1302 4700 
Q 1616 4750 1894 4750 
Q 2613 4750 3031 4423 
Q 3450 4097 3450 3541 
Q 3450 3153 3228 2886 
Q 3006 2619 2597 2516 
z
" transform="scale(0.015625)"/>
       </defs>
       <use xlink:href="#DejaVuSans-33"/>
       <use xlink:href="#DejaVuSans-30" x="63.623047"/>
      </g>
     </g>
    </g>
    <g id="xtick_5">
     <g id="text_5">
      <!-- 40 -->
      <g transform="translate(768.02979 366.30265) scale(0.08 -0.08)">
       <defs>
        <path id="DejaVuSans-34" d="M 2419 4116 
L 825 1625 
L 2419 1625 
L 2419 4116 
z
M 2253 4666 
L 3047 4666 
L 3047 1625 
L 3713 1625 
L 3713 1100 
L 3047 1100 
L 3047 0 
L 2419 0 
L 2419 1100 
L 313 1100 
L 313 1709 
L 2253 4666 
z
" transform="scale(0.015625)"/>
       </defs>
       <use xlink:href="#DejaVuSans-34"/>
       <use xlink:href="#DejaVuSans-30" x="63.623047"/>
      </g>
     </g>
    </g>
    <g id="xtick_6">
     <g id="text_6">
      <!-- 50 -->
      <g transform="translate(944.753352 366.30265) scale(0.08 -0.08)">
       <defs>
        <path id="DejaVuSans-35" d="M 691 4666 
L 3169 4666 
L 3169 4134 
L 1269 4134 
L 1269 2991 
Q 1406 3038 1543 3061 
Q 1681 3084 1819 3084 
Q 2600 3084 3056 2656 
Q 3513 2228 3513 1497 
Q 3513 744 3044 326 
Q 2575 -91 1722 -91 
Q 1428 -91 1123 -41 
Q 819 9 494 109 
L 494 744 
Q 775 591 1075 516 
Q 1375 441 1709 441 
Q 2250 441 2565 725 
Q 2881 1009 2881 1497 
Q 2881 1984 2565 2268 
Q 2250 2553 1709 2553 
Q 1456 2553 1204 2497 
Q 953 2441 691 2322 
L 691 4666 
z
" transform="scale(0.015625)"/>
       </defs>
       <use xlink:href="#DejaVuSans-35"/>
       <use xlink:href="#DejaVuSans-30" x="63.623047"/>
      </g>
     </g>
    </g>
    <g id="text_7">
     <!-- Length Trimmed (bp) -->
     <g transform="translate(464.443281 379.564837) scale(0.1 -0.1)">
      <defs>
       <path id="DejaVuSans-4c" d="M 628 4666 
L 1259 4666 
L 1259 531 
L 3531 531 
L 3531 0 
L 628 0 
L 628 4666 
z
" transform="scale(0.015625)"/>
       <path id="DejaVuSans-65" d="M 3597 1894 
L 3597 1613 
L 953 1613 
Q 991 1019 1311 708 
Q 1631 397 2203 397 
Q 2534 397 2845 478 
Q 3156 559 3463 722 
L 3463 178 
Q 3153 47 2828 -22 
Q 2503 -91 2169 -91 
Q 1331 -91 842 396 
Q 353 884 353 1716 
Q 353 2575 817 3079 
Q 1281 3584 2069 3584 
Q 2775 3584 3186 3129 
Q 3597 2675 3597 1894 
z
M 3022 2063 
Q 3016 2534 2758 2815 
Q 2500 3097 2075 3097 
Q 1594 3097 1305 2825 
Q 1016 2553 972 2059 
L 3022 2063 
z
" transform="scale(0.015625)"/>
       <path id="DejaVuSans-6e" d="M 3513 2113 
L 3513 0 
L 2938 0 
L 2938 2094 
Q 2938 2591 2744 2837 
Q 2550 3084 2163 3084 
Q 1697 3084 1428 2787 
Q 1159 2491 1159 1978 
L 1159 0 
L 581 0 
L 581 3500 
L 1159 3500 
L 1159 2956 
Q 1366 3272 1645 3428 
Q 1925 3584 2291 3584 
Q 2894 3584 3203 3211 
Q 3513 2838 3513 2113 
z
" transform="scale(0.015625)"/>
       <path id="DejaVuSans-67" d="M 2906 1791 
Q 2906 2416 2648 2759 
Q 2391 3103 1925 3103 
Q 1463 3103 1205 2759 
Q 947 2416 947 1791 
Q 947 1169 1205 825 
Q 1463 481 1925 481 
Q 2391 481 2648 825 
Q 2906 1169 2906 1791 
z
M 3481 434 
Q 3481 -459 3084 -895 
Q 2688 -1331 1869 -1331 
Q 1566 -1331 1297 -1286 
Q 1028 -1241 775 -1147 
L 775 -588 
Q 1028 -725 1275 -790 
Q 1522 -856 1778 -856 
Q 2344 -856 2625 -561 
Q 2906 -266 2906 331 
L 2906 616 
Q 2728 306 2450 153 
Q 2172 0 1784 0 
Q 1141 0 747 490 
Q 353 981 353 1791 
Q 353 2603 747 3093 
Q 1141 3584 1784 3584 
Q 2172 3584 2450 3431 
Q 2728 3278 2906 2969 
L 2906 3500 
L 3481 3500 
L 3481 434 
z
" transform="scale(0.015625)"/>
       <path id="DejaVuSans-74" d="M 1172 4494 
L 1172 3500 
L 2356 3500 
L 2356 3053 
L 1172 3053 
L 1172 1153 
Q 1172 725 1289 603 
Q 1406 481 1766 481 
L 2356 481 
L 2356 0 
L 1766 0 
Q 1100 0 847 248 
Q 594 497 594 1153 
L 594 3053 
L 172 3053 
L 172 3500 
L 594 3500 
L 594 4494 
L 1172 4494 
z
" transform="scale(0.015625)"/>
       <path id="DejaVuSans-68" d="M 3513 2113 
L 3513 0 
L 2938 0 
L 2938 2094 
Q 2938 2591 2744 2837 
Q 2550 3084 2163 3084 
Q 1697 3084 1428 2787 
Q 1159 2491 1159 1978 
L 1159 0 
L 581 0 
L 581 4863 
L 1159 4863 
L 1159 2956 
Q 1366 3272 1645 3428 
Q 1925 3584 2291 3584 
Q 2894 3584 3203 3211 
Q 3513 2838 3513 2113 
z
" transform="scale(0.015625)"/>
       <path id="DejaVuSans-20" transform="scale(0.015625)"/>
       <path id="DejaVuSans-54" d="M -19 4666 
L 3928 4666 
L 3928 4134 
L 2272 4134 
L 2272 0 
L 1638 0 
L 1638 4134 
L -19 4134 
L -19 4666 
z
" transform="scale(0.015625)"/>
       <path id="DejaVuSans-72" d="M 2631 2963 
Q 2534 3019 2420 3045 
Q 2306 3072 2169 3072 
Q 1681 3072 1420 2755 
Q 1159 2438 1159 1844 
L 1159 0 
L 581 0 
L 581 3500 
L 1159 3500 
L 1159 2956 
Q 1341 3275 1631 3429 
Q 1922 3584 2338 3584 
Q 2397 3584 2469 3576 
Q 2541 3569 2628 3553 
L 2631 2963 
z
" transform="scale(0.015625)"/>
       <path id="DejaVuSans-69" d="M 603 3500 
L 1178 3500 
L 1178 0 
L 603 0 
L 603 3500 
z
M 603 4863 
L 1178 4863 
L 1178 4134 
L 603 4134 
L 603 4863 
z
" transform="scale(0.015625)"/>
       <path id="DejaVuSans-6d" d="M 3328 2828 
Q 3544 3216 3844 3400 
Q 4144 3584 4550 3584 
Q 5097 3584 5394 3201 
Q 5691 2819 5691 2113 
L 5691 0 
L 5113 0 
L 5113 2094 
Q 5113 2597 4934 2840 
Q 4756 3084 4391 3084 
Q 3944 3084 3684 2787 
Q 3425 2491 3425 1978 
L 3425 0 
L 2847 0 
L 2847 2094 
Q 2847 2600 2669 2842 
Q 2491 3084 2119 3084 
Q 1678 3084 1418 2786 
Q 1159 2488 1159 1978 
L 1159 0 
L 581 0 
L 581 3500 
L 1159 3500 
L 1159 2956 
Q 1356 3278 1631 3431 
Q 1906 3584 2284 3584 
Q 2666 3584 2933 3390 
Q 3200 3197 3328 2828 
z
" transform="scale(0.015625)"/>
       <path id="DejaVuSans-64" d="M 2906 2969 
L 2906 4863 
L 3481 4863 
L 3481 0 
L 2906 0 
L 2906 525 
Q 2725 213 2448 61 
Q 2172 -91 1784 -91 
Q 1150 -91 751 415 
Q 353 922 353 1747 
Q 353 2572 751 3078 
Q 1150 3584 1784 3584 
Q 2172 3584 2448 3432 
Q 2725 3281 2906 2969 
z
M 947 1747 
Q 947 1113 1208 752 
Q 1469 391 1925 391 
Q 2381 391 2643 752 
Q 2906 1113 2906 1747 
Q 2906 2381 2643 2742 
Q 2381 3103 1925 3103 
Q 1469 3103 1208 2742 
Q 947 2381 947 1747 
z
" transform="scale(0.015625)"/>
       <path id="DejaVuSans-28" d="M 1984 4856 
Q 1566 4138 1362 3434 
Q 1159 2731 1159 2009 
Q 1159 1288 1364 580 
Q 1569 -128 1984 -844 
L 1484 -844 
Q 1016 -109 783 600 
Q 550 1309 550 2009 
Q 550 2706 781 3412 
Q 1013 4119 1484 4856 
L 1984 4856 
z
" transform="scale(0.015625)"/>
       <path id="DejaVuSans-62" d="M 3116 1747 
Q 3116 2381 2855 2742 
Q 2594 3103 2138 3103 
Q 1681 3103 1420 2742 
Q 1159 2381 1159 1747 
Q 1159 1113 1420 752 
Q 1681 391 2138 391 
Q 2594 391 2855 752 
Q 3116 1113 3116 1747 
z
M 1159 2969 
Q 1341 3281 1617 3432 
Q 1894 3584 2278 3584 
Q 2916 3584 3314 3078 
Q 3713 2572 3713 1747 
Q 3713 922 3314 415 
Q 2916 -91 2278 -91 
Q 1894 -91 1617 61 
Q 1341 213 1159 525 
L 1159 0 
L 581 0 
L 581 4863 
L 1159 4863 
L 1159 2969 
z
" transform="scale(0.015625)"/>
       <path id="DejaVuSans-70" d="M 1159 525 
L 1159 -1331 
L 581 -1331 
L 581 3500 
L 1159 3500 
L 1159 2969 
Q 1341 3281 1617 3432 
Q 1894 3584 2278 3584 
Q 2916 3584 3314 3078 
Q 3713 2572 3713 1747 
Q 3713 922 3314 415 
Q 2916 -91 2278 -91 
Q 1894 -91 1617 61 
Q 1341 213 1159 525 
z
M 3116 1747 
Q 3116 2381 2855 2742 
Q 2594 3103 2138 3103 
Q 1681 3103 1420 2742 
Q 1159 2381 1159 1747 
Q 1159 1113 1420 752 
Q 1681 391 2138 391 
Q 2594 391 2855 752 
Q 3116 1113 3116 1747 
z
" transform="scale(0.015625)"/>
       <path id="DejaVuSans-29" d="M 513 4856 
L 1013 4856 
Q 1481 4119 1714 3412 
Q 1947 2706 1947 2009 
Q 1947 1309 1714 600 
Q 1481 -109 1013 -844 
L 513 -844 
Q 928 -128 1133 580 
Q 1338 1288 1338 2009 
Q 1338 2731 1133 3434 
Q 928 4138 513 4856 
z
" transform="scale(0.015625)"/>
      </defs>
      <use xlink:href="#DejaVuSans-4c"/>
      <use xlink:href="#DejaVuSans-65" x="53.962891"/>
      <use xlink:href="#DejaVuSans-6e" x="115.486328"/>
      <use xlink:href="#DejaVuSans-67" x="178.865234"/>
      <use xlink:href="#DejaVuSans-74" x="242.341797"/>
      <use xlink:href="#DejaVuSans-68" x="281.550781"/>
      <use xlink:href="#DejaVuSans-20" x="344.929688"/>
      <use xlink:href="#DejaVuSans-54" x="376.716797"/>
      <use xlink:href="#DejaVuSans-72" x="423.050781"/>
      <use xlink:href="#DejaVuSans-69" x="464.164062"/>
      <use xlink:href="#DejaVuSans-6d" x="491.947266"/>
      <use xlink:href="#DejaVuSans-6d" x="589.359375"/>
      <use xlink:href="#DejaVuSans-65" x="686.771484"/>
      <use xlink:href="#DejaVuSans-64" x="748.294922"/>
      <use xlink:href="#DejaVuSans-20" x="811.771484"/>
      <use xlink:href="#DejaVuSans-28" x="843.558594"/>
      <use xlink:href="#DejaVuSans-62" x="882.572266"/>
      <use xlink:href="#DejaVuSans-70" x="946.048828"/>
      <use xlink:href="#DejaVuSans-29" x="1009.525391"/>
     </g>
    </g>
   </g>
   <g id="matplotlib.axis_2">
    <g id="ytick_1">
     <g id="line2d_1">
      <path d="M 40.600625 353.2239 
L 993.140625 353.2239 
" clip-path="url(#p0441d0b312)" style="fill: none; stroke: #dedede; stroke-linecap: square"/>
     </g>
     <g id="text_8">
      <!-- 0.0 -->
      <g transform="translate(20.878125 356.263275) scale(0.08 -0.08)">
       <defs>
        <path id="DejaVuSans-2e" d="M 684 794 
L 1344 794 
L 1344 0 
L 684 0 
L 684 794 
z
" transform="scale(0.015625)"/>
       </defs>
       <use xlink:href="#DejaVuSans-30"/>
       <use xlink:href="#DejaVuSans-2e" x="63.623047"/>
       <use xlink:href="#DejaVuSans-30" x="95.410156"/>
      </g>
     </g>
    </g>
    <g id="ytick_2">
     <g id="line2d_2">
      <path d="M 40.600625 305.7595 
L 993.140625 305.7595 
" clip-path="url(#p0441d0b312)" style="fill: none; stroke: #dedede; stroke-linecap: square"/>
     </g>
     <g id="text_9">
      <!-- 0.5 -->
      <g transform="translate(20.878125 308.798875) scale(0.08 -0.08)">
       <use xlink:href="#DejaVuSans-30"/>
       <use xlink:href="#DejaVuSans-2e" x="63.623047"/>
       <use xlink:href="#DejaVuSans-35" x="95.410156"/>
      </g>
     </g>
    </g>
    <g id="ytick_3">
     <g id="line2d_3">
      <path d="M 40.600625 258.2951 
L 993.140625 258.2951 
" clip-path="url(#p0441d0b312)" style="fill: none; stroke: #dedede; stroke-linecap: square"/>
     </g>
     <g id="text_10">
      <!-- 1.0 -->
      <g transform="translate(20.878125 261.334475) scale(0.08 -0.08)">
       <use xlink:href="#DejaVuSans-31"/>
       <use xlink:href="#DejaVuSans-2e" x="63.623047"/>
       <use xlink:href="#DejaVuSans-30" x="95.410156"/>
      </g>
     </g>
    </g>
    <g id="ytick_4">
     <g id="line2d_4">
      <path d="M 40.600625 210.830701 
L 993.140625 210.830701 
" clip-path="url(#p0441d0b312)" style="fill: none; stroke: #dedede; stroke-linecap: square"/>
     </g>
     <g id="text_11">
      <!-- 1.5 -->
      <g transform="translate(20.878125 213.870076) scale(0.08 -0.08)">
       <use xlink:href="#DejaVuSans-31"/>
       <use xlink:href="#DejaVuSans-2e" x="63.623047"/>
       <use xlink:href="#DejaVuSans-35" x="95.410156"/>
      </g>
     </g>
    </g>
    <g id="ytick_5">
     <g id="line2d_5">
      <path d="M 40.600625 163.366301 
L 993.140625 163.366301 
" clip-path="url(#p0441d0b312)" style="fill: none; stroke: #dedede; stroke-linecap: square"/>
     </g>
     <g id="text_12">
      <!-- 2.0 -->
      <g transform="translate(20.878125 166.405676) scale(0.08 -0.08)">
       <use xlink:href="#DejaVuSans-32"/>
       <use xlink:href="#DejaVuSans-2e" x="63.623047"/>
       <use xlink:href="#DejaVuSans-30" x="95.410156"/>
      </g>
     </g>
    </g>
    <g id="ytick_6">
     <g id="line2d_6">
      <path d="M 40.600625 115.901901 
L 993.140625 115.901901 
" clip-path="url(#p0441d0b312)" style="fill: none; stroke: #dedede; stroke-linecap: square"/>
     </g>
     <g id="text_13">
      <!-- 2.5 -->
      <g transform="translate(20.878125 118.941276) scale(0.08 -0.08)">
       <use xlink:href="#DejaVuSans-32"/>
       <use xlink:href="#DejaVuSans-2e" x="63.623047"/>
       <use xlink:href="#DejaVuSans-35" x="95.410156"/>
      </g>
     </g>
    </g>
    <g id="ytick_7">
     <g id="line2d_7">
      <path d="M 40.600625 68.437501 
L 993.140625 68.437501 
" clip-path="url(#p0441d0b312)" style="fill: none; stroke: #dedede; stroke-linecap: square"/>
     </g>
     <g id="text_14">
      <!-- 3.0 -->
      <g transform="translate(20.878125 71.476876) scale(0.08 -0.08)">
       <use xlink:href="#DejaVuSans-33"/>
       <use xlink:href="#DejaVuSans-2e" x="63.623047"/>
       <use xlink:href="#DejaVuSans-30" x="95.410156"/>
      </g>
     </g>
    </g>
    <g id="text_15">
     <!-- Observed / Expected -->
     <g transform="translate(14.798438 246.489119) rotate(-90) scale(0.1 -0.1)">
      <defs>
       <path id="DejaVuSans-4f" d="M 2522 4238 
Q 1834 4238 1429 3725 
Q 1025 3213 1025 2328 
Q 1025 1447 1429 934 
Q 1834 422 2522 422 
Q 3209 422 3611 934 
Q 4013 1447 4013 2328 
Q 4013 3213 3611 3725 
Q 3209 4238 2522 4238 
z
M 2522 4750 
Q 3503 4750 4090 4092 
Q 4678 3434 4678 2328 
Q 4678 1225 4090 567 
Q 3503 -91 2522 -91 
Q 1538 -91 948 565 
Q 359 1222 359 2328 
Q 359 3434 948 4092 
Q 1538 4750 2522 4750 
z
" transform="scale(0.015625)"/>
       <path id="DejaVuSans-73" d="M 2834 3397 
L 2834 2853 
Q 2591 2978 2328 3040 
Q 2066 3103 1784 3103 
Q 1356 3103 1142 2972 
Q 928 2841 928 2578 
Q 928 2378 1081 2264 
Q 1234 2150 1697 2047 
L 1894 2003 
Q 2506 1872 2764 1633 
Q 3022 1394 3022 966 
Q 3022 478 2636 193 
Q 2250 -91 1575 -91 
Q 1294 -91 989 -36 
Q 684 19 347 128 
L 347 722 
Q 666 556 975 473 
Q 1284 391 1588 391 
Q 1994 391 2212 530 
Q 2431 669 2431 922 
Q 2431 1156 2273 1281 
Q 2116 1406 1581 1522 
L 1381 1569 
Q 847 1681 609 1914 
Q 372 2147 372 2553 
Q 372 3047 722 3315 
Q 1072 3584 1716 3584 
Q 2034 3584 2315 3537 
Q 2597 3491 2834 3397 
z
" transform="scale(0.015625)"/>
       <path id="DejaVuSans-76" d="M 191 3500 
L 800 3500 
L 1894 563 
L 2988 3500 
L 3597 3500 
L 2284 0 
L 1503 0 
L 191 3500 
z
" transform="scale(0.015625)"/>
       <path id="DejaVuSans-2f" d="M 1625 4666 
L 2156 4666 
L 531 -594 
L 0 -594 
L 1625 4666 
z
" transform="scale(0.015625)"/>
       <path id="DejaVuSans-45" d="M 628 4666 
L 3578 4666 
L 3578 4134 
L 1259 4134 
L 1259 2753 
L 3481 2753 
L 3481 2222 
L 1259 2222 
L 1259 531 
L 3634 531 
L 3634 0 
L 628 0 
L 628 4666 
z
" transform="scale(0.015625)"/>
       <path id="DejaVuSans-78" d="M 3513 3500 
L 2247 1797 
L 3578 0 
L 2900 0 
L 1881 1375 
L 863 0 
L 184 0 
L 1544 1831 
L 300 3500 
L 978 3500 
L 1906 2253 
L 2834 3500 
L 3513 3500 
z
" transform="scale(0.015625)"/>
       <path id="DejaVuSans-63" d="M 3122 3366 
L 3122 2828 
Q 2878 2963 2633 3030 
Q 2388 3097 2138 3097 
Q 1578 3097 1268 2742 
Q 959 2388 959 1747 
Q 959 1106 1268 751 
Q 1578 397 2138 397 
Q 2388 397 2633 464 
Q 2878 531 3122 666 
L 3122 134 
Q 2881 22 2623 -34 
Q 2366 -91 2075 -91 
Q 1284 -91 818 406 
Q 353 903 353 1747 
Q 353 2603 823 3093 
Q 1294 3584 2113 3584 
Q 2378 3584 2631 3529 
Q 2884 3475 3122 3366 
z
" transform="scale(0.015625)"/>
      </defs>
      <use xlink:href="#DejaVuSans-4f"/>
      <use xlink:href="#DejaVuSans-62" x="78.710938"/>
      <use xlink:href="#DejaVuSans-73" x="142.1875"/>
      <use xlink:href="#DejaVuSans-65" x="194.287109"/>
      <use xlink:href="#DejaVuSans-72" x="255.810547"/>
      <use xlink:href="#DejaVuSans-76" x="296.923828"/>
      <use xlink:href="#DejaVuSans-65" x="356.103516"/>
      <use xlink:href="#DejaVuSans-64" x="417.626953"/>
      <use xlink:href="#DejaVuSans-20" x="481.103516"/>
      <use xlink:href="#DejaVuSans-2f" x="512.890625"/>
      <use xlink:href="#DejaVuSans-20" x="546.582031"/>
      <use xlink:href="#DejaVuSans-45" x="578.369141"/>
      <use xlink:href="#DejaVuSans-78" x="641.552734"/>
      <use xlink:href="#DejaVuSans-70" x="700.732422"/>
      <use xlink:href="#DejaVuSans-65" x="764.208984"/>
      <use xlink:href="#DejaVuSans-63" x="825.732422"/>
      <use xlink:href="#DejaVuSans-74" x="880.712891"/>
      <use xlink:href="#DejaVuSans-65" x="919.921875"/>
      <use xlink:href="#DejaVuSans-64" x="981.445312"/>
     </g>
    </g>
    <g id="text_16">
     <!-- 1e6 -->
     <g transform="translate(40.600625 32.2559) scale(0.1 -0.1)">
      <defs>
       <path id="DejaVuSans-36" d="M 2113 2584 
Q 1688 2584 1439 2293 
Q 1191 2003 1191 1497 
Q 1191 994 1439 701 
Q 1688 409 2113 409 
Q 2538 409 2786 701 
Q 3034 994 3034 1497 
Q 3034 2003 2786 2293 
Q 2538 2584 2113 2584 
z
M 3366 4563 
L 3366 3988 
Q 3128 4100 2886 4159 
Q 2644 4219 2406 4219 
Q 1781 4219 1451 3797 
Q 1122 3375 1075 2522 
Q 1259 2794 1537 2939 
Q 1816 3084 2150 3084 
Q 2853 3084 3261 2657 
Q 3669 2231 3669 1497 
Q 3669 778 3244 343 
Q 2819 -91 2113 -91 
Q 1303 -91 875 529 
Q 447 1150 447 2328 
Q 447 3434 972 4092 
Q 1497 4750 2381 4750 
Q 2619 4750 2861 4703 
Q 3103 4656 3366 4563 
z
" transform="scale(0.015625)"/>
      </defs>
      <use xlink:href="#DejaVuSans-31"/>
      <use xlink:href="#DejaVuSans-65" x="63.623047"/>
      <use xlink:href="#DejaVuSans-36" x="125.146484"/>
     </g>
    </g>
   </g>
   <g id="line2d_8">
    <path d="M 83.897898 353.223807 
L 101.570254 353.223781 
L 119.24261 353.223776 
L 136.914966 353.223791 
L 154.587323 353.223813 
L 172.259679 353.223879 
L 189.932035 353.223859 
L 207.604391 353.223777 
L 225.276747 353.22303 
L 242.949104 353.219911 
L 260.62146 353.213996 
L 278.293816 353.198134 
L 295.966172 353.167417 
L 313.638529 353.15745 
L 331.310885 353.164095 
L 348.983241 353.16457 
L 366.655597 353.157924 
L 384.327953 353.175486 
L 402.00031 353.139888 
L 419.672666 353.162671 
L 437.345022 353.207762 
L 455.017378 353.211559 
L 472.689734 353.186403 
L 490.362091 353.174062 
L 508.034447 353.219154 
L 525.706803 353.20349 
L 543.379159 353.167417 
L 561.051516 353.213458 
L 578.723872 353.202541 
L 596.396228 353.21773 
L 614.068584 353.202541 
L 631.74094 353.209661 
L 649.413297 353.147957 
L 667.085653 353.215831 
L 684.758009 353.208711 
L 702.430365 353.17691 
L 720.102721 353.214882 
L 737.775078 353.187827 
L 755.447434 353.196371 
L 773.11979 353.080083 
L 790.792146 353.207287 
L 808.464503 353.180233 
L 826.136859 353.183081 
L 843.809215 353.202066 
L 861.481571 352.804789 
L 879.153927 352.952878 
L 896.826284 353.180233 
L 914.49864 353.002716 
L 932.170996 351.779558 
L 949.843352 352.795771 
" clip-path="url(#p0441d0b312)" style="fill: none; stroke: #7cb5ec; stroke-linecap: square"/>
   </g>
   <g id="line2d_9">
    <path d="M 83.897898 353.223809 
L 101.570254 353.223779 
L 119.24261 353.223776 
L 136.914966 353.223793 
L 154.587323 353.223808 
L 172.259679 353.223868 
L 189.932035 353.223822 
L 207.604391 353.223668 
L 225.276747 353.222699 
L 242.949104 353.217928 
L 260.62146 353.207359 
L 278.293816 353.174537 
L 295.966172 353.061097 
L 313.638529 353.075811 
L 331.310885 353.072489 
L 348.983241 353.091474 
L 366.655597 353.112833 
L 384.327953 353.124225 
L 402.00031 352.989901 
L 419.672666 353.200168 
L 437.345022 353.208711 
L 455.017378 353.196371 
L 472.689734 353.165044 
L 490.362091 353.121852 
L 508.034447 353.220103 
L 525.706803 353.181657 
L 543.379159 353.099543 
L 561.051516 353.209661 
L 578.723872 353.200168 
L 596.396228 353.212509 
L 614.068584 353.198744 
L 631.74094 353.189251 
L 649.413297 353.200642 
L 667.085653 353.091 
L 684.758009 353.206813 
L 702.430365 353.096221 
L 720.102721 353.207762 
L 737.775078 353.173113 
L 755.447434 353.168841 
L 773.11979 353.032144 
L 790.792146 353.105714 
L 808.464503 353.199693 
L 826.136859 353.113308 
L 843.809215 353.195896 
L 861.481571 352.907312 
L 879.153927 352.87741 
L 896.826284 353.168841 
L 914.49864 352.87124 
L 932.170996 352.152628 
L 949.843352 352.71698 
" clip-path="url(#p0441d0b312)" style="fill: none; stroke: #434348; stroke-linecap: square"/>
   </g>
   <g id="line2d_10">
    <path d="M 83.897898 353.223808 
L 101.570254 353.223781 
L 119.24261 353.223776 
L 136.914966 353.223791 
L 154.587323 353.223812 
L 172.259679 353.223878 
L 189.932035 353.223849 
L 207.604391 353.223741 
L 225.276747 353.222997 
L 242.949104 353.219121 
L 260.62146 353.21277 
L 278.293816 353.187691 
L 295.966172 353.154127 
L 313.638529 353.127547 
L 331.310885 353.135616 
L 348.983241 353.141312 
L 366.655597 353.152703 
L 384.327953 353.156975 
L 402.00031 353.047807 
L 419.672666 353.203965 
L 437.345022 353.212983 
L 455.017378 353.205864 
L 472.689734 353.173588 
L 490.362091 353.155077 
L 508.034447 353.214882 
L 525.706803 353.196845 
L 543.379159 353.124699 
L 561.051516 353.209661 
L 578.723872 353.199693 
L 596.396228 353.214882 
L 614.068584 353.186878 
L 631.74094 353.201117 
L 649.413297 353.097645 
L 667.085653 353.130395 
L 684.758009 353.198744 
L 702.430365 353.203016 
L 720.102721 353.186878 
L 737.775078 353.165993 
L 755.447434 353.13087 
L 773.11979 353.206338 
L 790.792146 353.047807 
L 808.464503 353.100018 
L 826.136859 353.15745 
L 843.809215 353.178809 
L 861.481571 352.660498 
L 879.153927 352.851779 
L 896.826284 353.159823 
L 914.49864 352.922026 
L 932.170996 351.550305 
L 949.843352 352.492474 
" clip-path="url(#p0441d0b312)" style="fill: none; stroke: #90ed7d; stroke-linecap: square"/>
   </g>
   <g id="line2d_11">
    <path d="M 83.897898 353.223808 
L 101.570254 353.223784 
L 119.24261 353.223779 
L 136.914966 353.223791 
L 154.587323 353.223815 
L 172.259679 353.223875 
L 189.932035 353.223845 
L 207.604391 353.223701 
L 225.276747 353.222939 
L 242.949104 353.2188 
L 260.62146 353.211121 
L 278.293816 353.18134 
L 295.966172 353.125174 
L 313.638529 353.132768 
L 331.310885 353.128022 
L 348.983241 353.142736 
L 366.655597 353.14416 
L 384.327953 353.151279 
L 402.00031 353.038789 
L 419.672666 353.205864 
L 437.345022 353.214407 
L 455.017378 353.201117 
L 472.689734 353.171215 
L 490.362091 353.137515 
L 508.034447 353.213458 
L 525.706803 353.188302 
L 543.379159 353.115681 
L 561.051516 353.203016 
L 578.723872 353.196371 
L 596.396228 353.210135 
L 614.068584 353.186878 
L 631.74094 353.194472 
L 649.413297 353.139888 
L 667.085653 353.172164 
L 684.758009 353.12992 
L 702.430365 353.20444 
L 720.102721 353.100967 
L 737.775078 353.19732 
L 755.447434 353.084829 
L 773.11979 353.089101 
L 790.792146 353.15033 
L 808.464503 353.195896 
L 826.136859 353.168367 
L 843.809215 353.184979 
L 861.481571 352.893548 
L 879.153927 352.697994 
L 896.826284 353.128971 
L 914.49864 352.705589 
L 932.170996 351.558374 
L 949.843352 352.329671 
" clip-path="url(#p0441d0b312)" style="fill: none; stroke: #f7a35c; stroke-linecap: square"/>
   </g>
   <g id="line2d_12">
    <path d="M 83.897898 353.223811 
L 101.570254 353.223782 
L 119.24261 353.223779 
L 136.914966 353.223795 
L 154.587323 353.22381 
L 172.259679 353.223849 
L 189.932035 353.223759 
L 207.604391 353.22339 
L 225.276747 353.221676 
L 242.949104 353.21401 
L 260.62146 353.199337 
L 278.293816 353.125767 
L 295.966172 352.965694 
L 313.638529 352.948606 
L 331.310885 352.956201 
L 348.983241 352.981357 
L 366.655597 353.019803 
L 384.327953 353.07771 
L 402.00031 352.868866 
L 419.672666 353.193997 
L 437.345022 353.21061 
L 455.017378 353.180233 
L 472.689734 353.149856 
L 490.362091 353.120428 
L 508.034447 353.214882 
L 525.706803 353.177385 
L 543.379159 353.086253 
L 561.051516 353.201592 
L 578.723872 353.186878 
L 596.396228 353.212034 
L 614.068584 353.182131 
L 631.74094 353.19732 
L 649.413297 353.077235 
L 667.085653 353.154127 
L 684.758009 353.202066 
L 702.430365 353.154602 
L 720.102721 353.111884 
L 737.775078 353.196845 
L 755.447434 353.181182 
L 773.11979 353.113308 
L 790.792146 353.082931 
L 808.464503 353.20444 
L 826.136859 353.112833 
L 843.809215 353.191624 
L 861.481571 352.915856 
L 879.153927 352.706538 
L 896.826284 353.145109 
L 914.49864 352.629646 
L 932.170996 351.778609 
L 949.843352 352.378084 
" clip-path="url(#p0441d0b312)" style="fill: none; stroke: #8085e9; stroke-linecap: square"/>
   </g>
   <g id="line2d_13">
    <path d="M 83.897898 353.223809 
L 101.570254 353.223779 
L 119.24261 353.223775 
L 136.914966 353.223792 
L 154.587323 353.223807 
L 172.259679 353.223861 
L 189.932035 353.223796 
L 207.604391 353.223559 
L 225.276747 353.222224 
L 242.949104 353.217161 
L 260.62146 353.204019 
L 278.293816 353.159243 
L 295.966172 353.012209 
L 313.638529 353.03072 
L 331.310885 353.027872 
L 348.983241 353.049706 
L 366.655597 353.081981 
L 384.327953 353.106663 
L 402.00031 352.958574 
L 419.672666 353.20444 
L 437.345022 353.212509 
L 455.017378 353.194947 
L 472.689734 353.174062 
L 490.362091 353.158399 
L 508.034447 353.208711 
L 525.706803 353.190675 
L 543.379159 353.086253 
L 561.051516 353.212034 
L 578.723872 353.191624 
L 596.396228 353.21061 
L 614.068584 353.186403 
L 631.74094 353.202541 
L 649.413297 353.139413 
L 667.085653 353.150805 
L 684.758009 353.201592 
L 702.430365 353.138464 
L 720.102721 353.206338 
L 737.775078 353.166468 
L 755.447434 353.20444 
L 773.11979 353.157924 
L 790.792146 353.105239 
L 808.464503 353.21061 
L 826.136859 353.147957 
L 843.809215 353.194472 
L 861.481571 352.972813 
L 879.153927 352.807163 
L 896.826284 353.161247 
L 914.49864 352.863171 
L 932.170996 351.918154 
L 949.843352 352.739288 
" clip-path="url(#p0441d0b312)" style="fill: none; stroke: #f15c80; stroke-linecap: square"/>
   </g>
   <g id="line2d_14">
    <path d="M 83.897898 353.223812 
L 101.570254 353.223783 
L 119.24261 353.223781 
L 136.914966 353.223796 
L 154.587323 353.223807 
L 172.259679 353.223847 
L 189.932035 353.223752 
L 207.604391 353.22337 
L 225.276747 353.221607 
L 242.949104 353.214294 
L 260.62146 353.196279 
L 278.293816 353.115325 
L 295.966172 352.950505 
L 313.638529 352.931045 
L 331.310885 352.982781 
L 348.983241 352.992274 
L 366.655597 353.001292 
L 384.327953 353.05113 
L 402.00031 352.838014 
L 419.672666 353.199693 
L 437.345022 353.206813 
L 455.017378 353.185928 
L 472.689734 353.131344 
L 490.362091 353.100018 
L 508.034447 353.211559 
L 525.706803 353.182131 
L 543.379159 353.042111 
L 561.051516 353.196371 
L 578.723872 353.175486 
L 596.396228 353.201117 
L 614.068584 353.194947 
L 631.74094 353.175012 
L 649.413297 353.121852 
L 667.085653 353.153178 
L 684.758009 353.198269 
L 702.430365 353.128971 
L 720.102721 353.199219 
L 737.775078 353.045434 
L 755.447434 353.15745 
L 773.11979 353.190675 
L 790.792146 352.880258 
L 808.464503 353.058249 
L 826.136859 353.125174 
L 843.809215 353.150805 
L 861.481571 352.628222 
L 879.153927 352.506713 
L 896.826284 353.104764 
L 914.49864 352.60449 
L 932.170996 351.278334 
L 949.843352 352.241862 
" clip-path="url(#p0441d0b312)" style="fill: none; stroke: #e4d354; stroke-linecap: square"/>
   </g>
   <g id="line2d_15">
    <path d="M 83.897898 353.22381 
L 101.570254 353.223781 
L 119.24261 353.223778 
L 136.914966 353.223793 
L 154.587323 353.22381 
L 172.259679 353.223856 
L 189.932035 353.223782 
L 207.604391 353.223485 
L 225.276747 353.221938 
L 242.949104 353.216662 
L 260.62146 353.201212 
L 278.293816 353.146058 
L 295.966172 352.998444 
L 313.638529 353.003665 
L 331.310885 353.063945 
L 348.983241 353.046858 
L 366.655597 353.057775 
L 384.327953 353.108087 
L 402.00031 352.956675 
L 419.672666 353.198744 
L 437.345022 353.209661 
L 455.017378 353.198269 
L 472.689734 353.156026 
L 490.362091 353.13087 
L 508.034447 353.213932 
L 525.706803 353.187827 
L 543.379159 353.118054 
L 561.051516 353.212034 
L 578.723872 353.198269 
L 596.396228 353.211085 
L 614.068584 353.185928 
L 631.74094 353.187352 
L 649.413297 353.198744 
L 667.085653 353.045434 
L 684.758009 353.213458 
L 702.430365 353.134192 
L 720.102721 353.201592 
L 737.775078 353.169316 
L 755.447434 353.206338 
L 773.11979 353.169791 
L 790.792146 352.677585 
L 808.464503 353.178809 
L 826.136859 353.143211 
L 843.809215 353.011734 
L 861.481571 352.683755 
L 879.153927 352.992748 
L 896.826284 353.140837 
L 914.49864 353.087203 
L 932.170996 352.16402 
L 949.843352 352.31021 
" clip-path="url(#p0441d0b312)" style="fill: none; stroke: #2b908f; stroke-linecap: square"/>
   </g>
   <g id="line2d_16">
    <path d="M 83.897898 353.223811 
L 101.570254 353.223788 
L 119.24261 353.223786 
L 136.914966 353.223801 
L 154.587323 353.223819 
L 172.259679 353.223868 
L 189.932035 353.223831 
L 207.604391 353.22363 
L 225.276747 353.22273 
L 242.949104 353.218618 
L 260.62146 353.208546 
L 278.293816 353.178492 
L 295.966172 352.999868 
L 313.638529 353.01031 
L 331.310885 353.034992 
L 348.983241 353.034042 
L 366.655597 353.053977 
L 384.327953 353.079608 
L 402.00031 352.959998 
L 419.672666 353.061572 
L 437.345022 353.177385 
L 455.017378 353.189726 
L 472.689734 353.093848 
L 490.362091 353.030245 
L 508.034447 353.207762 
L 525.706803 353.139413 
L 543.379159 352.931519 
L 561.051516 353.195421 
L 578.723872 353.135616 
L 596.396228 353.201117 
L 614.068584 353.075811 
L 631.74094 353.176436 
L 649.413297 352.818554 
L 667.085653 353.163146 
L 684.758009 353.161247 
L 702.430365 352.965694 
L 720.102721 353.19732 
L 737.775078 353.082456 
L 755.447434 353.082456 
L 773.11979 352.267967 
L 790.792146 353.155551 
L 808.464503 352.991324 
L 826.136859 352.966643 
L 843.809215 353.082456 
L 861.481571 351.349056 
L 879.153927 351.913883 
L 896.826284 353.004614 
L 914.49864 352.190125 
L 932.170996 346.993723 
L 949.843352 351.072813 
" clip-path="url(#p0441d0b312)" style="fill: none; stroke: #f45b5b; stroke-linecap: square"/>
   </g>
   <g id="line2d_17">
    <path d="M 83.897898 353.223809 
L 101.570254 353.223786 
L 119.24261 353.223777 
L 136.914966 353.223797 
L 154.587323 353.223816 
L 172.259679 353.223869 
L 189.932035 353.223837 
L 207.604391 353.223681 
L 225.276747 353.222643 
L 242.949104 353.219294 
L 260.62146 353.208237 
L 278.293816 353.177385 
L 295.966172 353.052079 
L 313.638529 353.083405 
L 331.310885 353.084355 
L 348.983241 353.071065 
L 366.655597 353.091 
L 384.327953 353.108087 
L 402.00031 353.119478 
L 419.672666 353.13087 
L 437.345022 353.107138 
L 455.017378 353.156501 
L 472.689734 353.101442 
L 490.362091 353.151754 
L 508.034447 353.158399 
L 525.706803 353.15745 
L 543.379159 353.165044 
L 561.051516 353.162196 
L 578.723872 353.145109 
L 596.396228 353.174537 
L 614.068584 353.178334 
L 631.74094 353.152703 
L 649.413297 353.173588 
L 667.085653 353.020752 
L 684.758009 353.15745 
L 702.430365 353.141312 
L 720.102721 353.046383 
L 737.775078 353.120428 
L 755.447434 353.099543 
L 773.11979 353.018854 
L 790.792146 352.612559 
L 808.464503 352.05058 
L 826.136859 346.924425 
L 843.809215 339.458275 
L 861.481571 348.307537 
L 879.153927 352.603066 
L 896.826284 345.472964 
L 914.49864 331.690251 
L 932.170996 344.91763 
L 949.843352 266.340316 
" clip-path="url(#p0441d0b312)" style="fill: none; stroke: #91e8e1; stroke-linecap: square"/>
   </g>
   <g id="line2d_18">
    <path d="M 83.897898 353.223808 
L 101.570254 353.223785 
L 119.24261 353.223778 
L 136.914966 353.223796 
L 154.587323 353.223816 
L 172.259679 353.223875 
L 189.932035 353.223846 
L 207.604391 353.223742 
L 225.276747 353.222801 
L 242.949104 353.21976 
L 260.62146 353.211496 
L 278.293816 353.181182 
L 295.966172 353.120428 
L 313.638529 353.131819 
L 331.310885 353.128971 
L 348.983241 353.135616 
L 366.655597 353.140837 
L 384.327953 353.158399 
L 402.00031 353.144634 
L 419.672666 353.15033 
L 437.345022 353.166943 
L 455.017378 353.160298 
L 472.689734 353.151754 
L 490.362091 353.181657 
L 508.034447 353.178809 
L 525.706803 353.182606 
L 543.379159 353.184505 
L 561.051516 353.188776 
L 578.723872 353.184979 
L 596.396228 353.187827 
L 614.068584 353.19732 
L 631.74094 353.172164 
L 649.413297 353.194947 
L 667.085653 353.119478 
L 684.758009 353.171689 
L 702.430365 353.175486 
L 720.102721 353.137515 
L 737.775078 353.174537 
L 755.447434 353.143685 
L 773.11979 353.109511 
L 790.792146 352.898769 
L 808.464503 352.5575 
L 826.136859 350.056126 
L 843.809215 345.77104 
L 861.481571 350.525549 
L 879.153927 352.860797 
L 896.826284 348.476985 
L 914.49864 340.589826 
L 932.170996 348.645009 
L 949.843352 307.312535 
" clip-path="url(#p0441d0b312)" style="fill: none; stroke: #7cb5ec; stroke-linecap: square"/>
   </g>
   <g id="line2d_19">
    <path d="M 83.897898 353.223808 
L 101.570254 353.223786 
L 119.24261 353.223778 
L 136.914966 353.223796 
L 154.587323 353.223818 
L 172.259679 353.223868 
L 189.932035 353.223828 
L 207.604391 353.223667 
L 225.276747 353.222681 
L 242.949104 353.218591 
L 260.62146 353.209574 
L 278.293816 353.180612 
L 295.966172 353.013158 
L 313.638529 353.045434 
L 331.310885 353.039738 
L 348.983241 353.068217 
L 366.655597 353.084355 
L 384.327953 353.102391 
L 402.00031 353.122326 
L 419.672666 353.150805 
L 437.345022 353.123275 
L 455.017378 353.141312 
L 472.689734 353.126123 
L 490.362091 353.173588 
L 508.034447 353.167892 
L 525.706803 353.162196 
L 543.379159 353.187827 
L 561.051516 353.171689 
L 578.723872 353.162196 
L 596.396228 353.183081 
L 614.068584 353.173588 
L 631.74094 353.151754 
L 649.413297 353.185928 
L 667.085653 353.079608 
L 684.758009 353.165993 
L 702.430365 353.156501 
L 720.102721 353.107138 
L 737.775078 353.147008 
L 755.447434 353.110935 
L 773.11979 353.079608 
L 790.792146 352.764445 
L 808.464503 352.27746 
L 826.136859 348.150905 
L 843.809215 342.653578 
L 861.481571 350.11783 
L 879.153927 352.776785 
L 896.826284 346.946258 
L 914.49864 336.618954 
L 932.170996 347.728472 
L 949.843352 282.492451 
" clip-path="url(#p0441d0b312)" style="fill: none; stroke: #434348; stroke-linecap: square"/>
   </g>
   <g id="line2d_20">
    <path d="M 83.897898 353.223817 
L 101.570254 353.223795 
L 119.24261 353.223795 
L 136.914966 353.223809 
L 154.587323 353.223821 
L 172.259679 353.22383 
L 189.932035 353.223679 
L 207.604391 353.223101 
L 225.276747 353.220616 
L 242.949104 353.210871 
L 260.62146 353.183176 
L 278.293816 353.07752 
L 295.966172 352.583131 
L 313.638529 352.636291 
L 331.310885 352.78343 
L 348.983241 352.746408 
L 366.655597 352.898294 
L 384.327953 352.945759 
L 402.00031 352.863171 
L 419.672666 352.99702 
L 437.345022 352.977085 
L 455.017378 353.07676 
L 472.689734 352.995122 
L 490.362091 353.078659 
L 508.034447 353.135616 
L 525.706803 353.109985 
L 543.379159 353.083405 
L 561.051516 353.089101 
L 578.723872 353.074862 
L 596.396228 353.113783 
L 614.068584 353.138464 
L 631.74094 353.053977 
L 649.413297 353.118529 
L 667.085653 352.660023 
L 684.758009 353.055876 
L 702.430365 353.026448 
L 720.102721 352.856526 
L 737.775078 352.914432 
L 755.447434 352.808112 
L 773.11979 352.686603 
L 790.792146 351.443985 
L 808.464503 349.495097 
L 826.136859 332.217106 
L 843.809215 311.616607 
L 861.481571 344.419254 
L 879.153927 351.466768 
L 896.826284 325.98598 
L 914.49864 282.649084 
L 932.170996 335.034593 
L 949.843352 50.397232 
" clip-path="url(#p0441d0b312)" style="fill: none; stroke: #90ed7d; stroke-linecap: square"/>
   </g>
   <g id="line2d_21">
    <path d="M 83.897898 353.223811 
L 101.570254 353.223787 
L 119.24261 353.223787 
L 136.914966 353.2238 
L 154.587323 353.223811 
L 172.259679 353.223831 
L 189.932035 353.223695 
L 207.604391 353.223188 
L 225.276747 353.221027 
L 242.949104 353.211394 
L 260.62146 353.185205 
L 278.293816 353.0779 
L 295.966172 352.683755 
L 313.638529 352.74451 
L 331.310885 352.83754 
L 348.983241 352.842286 
L 366.655597 352.909686 
L 384.327953 352.993223 
L 402.00031 352.665719 
L 419.672666 353.161247 
L 437.345022 353.194472 
L 455.017378 353.178334 
L 472.689734 353.083405 
L 490.362091 353.059673 
L 508.034447 353.192573 
L 525.706803 353.149856 
L 543.379159 352.793873 
L 561.051516 353.203016 
L 578.723872 353.146058 
L 596.396228 353.203965 
L 614.068584 353.110935 
L 631.74094 353.165993 
L 649.413297 352.960947 
L 667.085653 353.06442 
L 684.758009 353.189726 
L 702.430365 353.007462 
L 720.102721 353.186878 
L 737.775078 353.068217 
L 755.447434 353.183081 
L 773.11979 353.042586 
L 790.792146 352.871714 
L 808.464503 353.17074 
L 826.136859 352.972339 
L 843.809215 353.169791 
L 861.481571 352.179683 
L 879.153927 351.576885 
L 896.826284 353.027397 
L 914.49864 351.824649 
L 932.170996 348.433793 
L 949.843352 351.518979 
" clip-path="url(#p0441d0b312)" style="fill: none; stroke: #f7a35c; stroke-linecap: square"/>
   </g>
   <g id="line2d_22">
    <path d="M 83.897898 353.223813 
L 101.570254 353.223789 
L 119.24261 353.223792 
L 136.914966 353.223805 
L 154.587323 353.223817 
L 172.259679 353.223828 
L 189.932035 353.223692 
L 207.604391 353.223136 
L 225.276747 353.220804 
L 242.949104 353.210879 
L 260.62146 353.188214 
L 278.293816 353.089372 
L 295.966172 352.873138 
L 313.638529 352.91111 
L 331.310885 352.931994 
L 348.983241 353.014582 
L 366.655597 353.022176 
L 384.327953 353.035466 
L 402.00031 352.856051 
L 419.672666 353.202066 
L 437.345022 353.207287 
L 455.017378 353.187352 
L 472.689734 353.149381 
L 490.362091 353.100493 
L 508.034447 353.212509 
L 525.706803 353.173113 
L 543.379159 353.026448 
L 561.051516 353.20444 
L 578.723872 353.166943 
L 596.396228 353.204914 
L 614.068584 353.182606 
L 631.74094 353.171215 
L 649.413297 353.102866 
L 667.085653 353.136091 
L 684.758009 353.198269 
L 702.430365 353.123275 
L 720.102721 353.198744 
L 737.775078 353.049231 
L 755.447434 353.154127 
L 773.11979 353.200168 
L 790.792146 352.899244 
L 808.464503 353.019328 
L 826.136859 353.078184 
L 843.809215 353.146533 
L 861.481571 352.444535 
L 879.153927 352.250405 
L 896.826284 353.098594 
L 914.49864 352.405614 
L 932.170996 350.951305 
L 949.843352 352.079059 
" clip-path="url(#p0441d0b312)" style="fill: none; stroke: #8085e9; stroke-linecap: square"/>
   </g>
   <g id="line2d_23">
    <path d="M 83.897898 353.22381 
L 101.570254 353.223787 
L 119.24261 353.223781 
L 136.914966 353.223798 
L 154.587323 353.223813 
L 172.259679 353.223834 
L 189.932035 353.223705 
L 207.604391 353.223186 
L 225.276747 353.220885 
L 242.949104 353.213265 
L 260.62146 353.189488 
L 278.293816 353.112833 
L 295.966172 352.828047 
L 313.638529 352.83754 
L 331.310885 352.950505 
L 348.983241 352.95715 
L 366.655597 353.022651 
L 384.327953 353.040687 
L 402.00031 353.073912 
L 419.672666 353.115681 
L 437.345022 353.114732 
L 455.017378 353.147957 
L 472.689734 353.115681 
L 490.362091 353.164095 
L 508.034447 353.168841 
L 525.706803 353.154602 
L 543.379159 353.162196 
L 561.051516 353.165044 
L 578.723872 353.162196 
L 596.396228 353.174537 
L 614.068584 353.180233 
L 631.74094 353.152703 
L 649.413297 353.181182 
L 667.085653 353.085304 
L 684.758009 353.167892 
L 702.430365 353.162196 
L 720.102721 353.108087 
L 737.775078 353.13087 
L 755.447434 353.13087 
L 773.11979 353.091 
L 790.792146 352.820453 
L 808.464503 352.527123 
L 826.136859 350.169091 
L 843.809215 343.849681 
L 861.481571 349.234043 
L 879.153927 352.669516 
L 896.826284 346.661472 
L 914.49864 339.603516 
L 932.170996 347.785429 
L 949.843352 280.695449 
" clip-path="url(#p0441d0b312)" style="fill: none; stroke: #f15c80; stroke-linecap: square"/>
   </g>
   <g id="line2d_24">
    <path d="M 83.897898 353.22381 
L 101.570254 353.223786 
L 119.24261 353.223782 
L 136.914966 353.223799 
L 154.587323 353.223817 
L 172.259679 353.223871 
L 189.932035 353.223832 
L 207.604391 353.223674 
L 225.276747 353.22279 
L 242.949104 353.218804 
L 260.62146 353.210463 
L 278.293816 353.177666 
L 295.966172 353.093305 
L 313.638529 353.100221 
L 331.310885 353.117851 
L 348.983241 353.122191 
L 366.655597 353.140227 
L 384.327953 353.140769 
L 402.00031 353.053842 
L 419.672666 353.187013 
L 437.345022 353.189997 
L 455.017378 353.190675 
L 472.689734 353.158399 
L 490.362091 353.146058 
L 508.034447 353.20166 
L 525.706803 353.177656 
L 543.379159 353.09995 
L 561.051516 353.193116 
L 578.723872 353.182267 
L 596.396228 353.199219 
L 614.068584 353.182538 
L 631.74094 353.183487 
L 649.413297 353.082727 
L 667.085653 353.121648 
L 684.758009 353.190404 
L 702.430365 353.144567 
L 720.102721 353.131548 
L 737.775078 353.162061 
L 755.447434 353.160976 
L 773.11979 353.112155 
L 790.792146 352.89192 
L 808.464503 353.089508 
L 826.136859 352.710878 
L 843.809215 352.142797 
L 861.481571 352.417005 
L 879.153927 352.840116 
L 896.826284 352.547193 
L 914.49864 352.333603 
L 932.170996 351.48833 
L 949.843352 335.645527 
" clip-path="url(#p0441d0b312)" style="fill: none; stroke: #e4d354; stroke-linecap: square"/>
   </g>
   <g id="line2d_25">
    <path d="M 83.897898 353.223811 
L 101.570254 353.223792 
L 119.24261 353.223789 
L 136.914966 353.223802 
L 154.587323 353.223821 
L 172.259679 353.22385 
L 189.932035 353.22376 
L 207.604391 353.223409 
L 225.276747 353.221773 
L 242.949104 353.215088 
L 260.62146 353.195952 
L 278.293816 353.125716 
L 295.966172 352.928807 
L 313.638529 352.939249 
L 331.310885 352.996613 
L 348.983241 353.009225 
L 366.655597 353.043942 
L 384.327953 353.066996 
L 402.00031 352.894904 
L 419.672666 353.194472 
L 437.345022 353.206542 
L 455.017378 353.193387 
L 472.689734 353.147279 
L 490.362091 353.125174 
L 508.034447 353.208711 
L 525.706803 353.175622 
L 543.379159 353.032958 
L 561.051516 353.208033 
L 578.723872 353.181724 
L 596.396228 353.209796 
L 614.068584 353.184708 
L 631.74094 353.190539 
L 649.413297 353.072556 
L 667.085653 353.100357 
L 684.758009 353.204372 
L 702.430365 353.10768 
L 720.102721 353.189861 
L 737.775078 353.132497 
L 755.447434 353.190946 
L 773.11979 353.135752 
L 790.792146 352.914839 
L 808.464503 353.16857 
L 826.136859 353.120021 
L 843.809215 353.12653 
L 861.481571 352.640359 
L 879.153927 352.558856 
L 896.826284 353.132768 
L 914.49864 352.643885 
L 932.170996 351.205849 
L 949.843352 352.273256 
" clip-path="url(#p0441d0b312)" style="fill: none; stroke: #2b908f; stroke-linecap: square"/>
   </g>
   <g id="line2d_26">
    <path d="M 83.897898 353.223804 
L 101.570254 353.223787 
L 119.24261 353.223763 
L 136.914966 353.223775 
L 154.587323 353.223764 
L 172.259679 353.223702 
L 189.932035 353.22332 
L 207.604391 353.221735 
L 225.276747 353.215635 
L 242.949104 353.189562 
L 260.62146 353.099164 
L 278.293816 352.755374 
L 295.966172 351.294472 
L 313.638529 351.581632 
L 331.310885 352.173038 
L 348.983241 352.49722 
L 366.655597 352.73027 
L 384.327953 352.862221 
L 402.00031 352.961897 
L 419.672666 353.015531 
L 437.345022 353.028821 
L 455.017378 353.07771 
L 472.689734 353.110935 
L 490.362091 353.136566 
L 508.034447 353.176436 
L 525.706803 353.203016 
L 543.379159 353.197795 
L 561.051516 353.20444 
L 578.723872 353.205864 
L 596.396228 353.206338 
L 614.068584 353.206813 
L 631.74094 353.206338 
L 649.413297 353.209186 
L 667.085653 353.178334 
L 684.758009 353.200168 
L 702.430365 353.209186 
L 720.102721 353.201592 
L 737.775078 353.17786 
L 755.447434 353.195421 
L 773.11979 353.192099 
L 790.792146 353.084355 
L 808.464503 353.087203 
L 826.136859 352.390425 
L 843.809215 350.982156 
L 861.481571 352.117979 
L 879.153927 353.11758 
L 896.826284 351.331494 
L 914.49864 351.616281 
L 932.170996 351.716905 
L 949.843352 314.697047 
" clip-path="url(#p0441d0b312)" style="fill: none; stroke: #f45b5b; stroke-linecap: square"/>
   </g>
   <g id="line2d_27">
    <path d="M 83.897898 353.223803 
L 101.570254 353.223786 
L 119.24261 353.22376 
L 136.914966 353.223772 
L 154.587323 353.223759 
L 172.259679 353.223693 
L 189.932035 353.223298 
L 207.604391 353.221626 
L 225.276747 353.215553 
L 242.949104 353.188694 
L 260.62146 353.096388 
L 278.293816 352.741662 
L 295.966172 351.278334 
L 313.638529 351.655676 
L 331.310885 352.064819 
L 348.983241 352.492474 
L 366.655597 352.700368 
L 384.327953 352.854627 
L 402.00031 352.947183 
L 419.672666 353.025499 
L 437.345022 353.034042 
L 455.017378 353.066793 
L 472.689734 353.109036 
L 490.362091 353.142736 
L 508.034447 353.174537 
L 525.706803 353.187827 
L 543.379159 353.19732 
L 561.051516 353.209186 
L 578.723872 353.199219 
L 596.396228 353.209186 
L 614.068584 353.208711 
L 631.74094 353.205864 
L 649.413297 353.211085 
L 667.085653 353.173588 
L 684.758009 353.200168 
L 702.430365 353.209661 
L 720.102721 353.206813 
L 737.775078 353.184979 
L 755.447434 353.198269 
L 773.11979 353.183081 
L 790.792146 353.086728 
L 808.464503 353.079608 
L 826.136859 352.232843 
L 843.809215 351.200018 
L 861.481571 352.241387 
L 879.153927 353.151279 
L 896.826284 352.052953 
L 914.49864 352.183955 
L 932.170996 352.076211 
L 949.843352 318.607164 
" clip-path="url(#p0441d0b312)" style="fill: none; stroke: #91e8e1; stroke-linecap: square"/>
   </g>
   <g id="line2d_28">
    <path d="M 83.897898 353.223803 
L 101.570254 353.223786 
L 119.24261 353.223766 
L 136.914966 353.223772 
L 154.587323 353.223754 
L 172.259679 353.223682 
L 189.932035 353.223237 
L 207.604391 353.221603 
L 225.276747 353.215314 
L 242.949104 353.184543 
L 260.62146 353.091459 
L 278.293816 352.657531 
L 295.966172 351.465344 
L 313.638529 351.619129 
L 331.310885 352.173038 
L 348.983241 352.520478 
L 366.655597 352.716506 
L 384.327953 352.873138 
L 402.00031 352.576011 
L 419.672666 353.190675 
L 437.345022 353.196845 
L 455.017378 353.175961 
L 472.689734 353.118529 
L 490.362091 353.105239 
L 508.034447 353.212983 
L 525.706803 353.195896 
L 543.379159 353.153653 
L 561.051516 353.212509 
L 578.723872 353.211085 
L 596.396228 353.218204 
L 614.068584 353.206813 
L 631.74094 353.21061 
L 649.413297 353.207762 
L 667.085653 353.154602 
L 684.758009 353.215831 
L 702.430365 353.153653 
L 720.102721 353.214882 
L 737.775078 353.199693 
L 755.447434 353.20349 
L 773.11979 353.126598 
L 790.792146 353.168367 
L 808.464503 353.21773 
L 826.136859 353.184979 
L 843.809215 353.208711 
L 861.481571 352.895446 
L 879.153927 352.866968 
L 896.826284 353.181182 
L 914.49864 352.865544 
L 932.170996 352.085229 
L 949.843352 352.747832 
" clip-path="url(#p0441d0b312)" style="fill: none; stroke: #7cb5ec; stroke-linecap: square"/>
   </g>
   <g id="line2d_29">
    <path d="M 83.897898 353.22381 
L 101.570254 353.223796 
L 119.24261 353.223793 
L 136.914966 353.223805 
L 154.587323 353.223815 
L 172.259679 353.223794 
L 189.932035 353.223614 
L 207.604391 353.222856 
L 225.276747 353.220136 
L 242.949104 353.208187 
L 260.62146 353.168318 
L 278.293816 353.010175 
L 295.966172 352.507188 
L 313.638529 352.560822 
L 331.310885 352.782006 
L 348.983241 352.902091 
L 366.655597 353.002241 
L 384.327953 353.052554 
L 402.00031 353.104764 
L 419.672666 353.128022 
L 437.345022 353.137515 
L 455.017378 353.155551 
L 472.689734 353.146533 
L 490.362091 353.175486 
L 508.034447 353.191624 
L 525.706803 353.201592 
L 543.379159 353.204914 
L 561.051516 353.207287 
L 578.723872 353.214407 
L 596.396228 353.212509 
L 614.068584 353.21678 
L 631.74094 353.215831 
L 649.413297 353.214407 
L 667.085653 353.175961 
L 684.758009 353.208711 
L 702.430365 353.217255 
L 720.102721 353.202541 
L 737.775078 353.1902 
L 755.447434 353.206813 
L 773.11979 353.196845 
L 790.792146 353.087677 
L 808.464503 353.117105 
L 826.136859 352.709386 
L 843.809215 350.592474 
L 861.481571 351.847432 
L 879.153927 353.062521 
L 896.826284 351.341937 
L 914.49864 351.566918 
L 932.170996 351.395571 
L 949.843352 315.435593 
" clip-path="url(#p0441d0b312)" style="fill: none; stroke: #434348; stroke-linecap: square"/>
   </g>
   <g id="line2d_30">
    <path d="M 83.897898 353.223807 
L 101.570254 353.223796 
L 119.24261 353.223788 
L 136.914966 353.2238 
L 154.587323 353.22381 
L 172.259679 353.223789 
L 189.932035 353.223589 
L 207.604391 353.22276 
L 225.276747 353.220221 
L 242.949104 353.207101 
L 260.62146 353.161859 
L 278.293816 352.994528 
L 295.966172 352.369066 
L 313.638529 352.483455 
L 331.310885 352.702741 
L 348.983241 352.865069 
L 366.655597 352.952878 
L 384.327953 353.031669 
L 402.00031 353.065369 
L 419.672666 353.115207 
L 437.345022 353.120902 
L 455.017378 353.142261 
L 472.689734 353.141787 
L 490.362091 353.174062 
L 508.034447 353.193523 
L 525.706803 353.195421 
L 543.379159 353.205864 
L 561.051516 353.207762 
L 578.723872 353.21061 
L 596.396228 353.212983 
L 614.068584 353.215356 
L 631.74094 353.207762 
L 649.413297 353.21061 
L 667.085653 353.187352 
L 684.758009 353.212034 
L 702.430365 353.212509 
L 720.102721 353.200642 
L 737.775078 353.175961 
L 755.447434 353.20444 
L 773.11979 353.202066 
L 790.792146 353.097645 
L 808.464503 353.099543 
L 826.136859 352.590725 
L 843.809215 350.820777 
L 861.481571 351.683206 
L 879.153927 353.089101 
L 896.826284 351.693173 
L 914.49864 351.795696 
L 932.170996 351.532743 
L 949.843352 314.053429 
" clip-path="url(#p0441d0b312)" style="fill: none; stroke: #90ed7d; stroke-linecap: square"/>
   </g>
   <g id="line2d_31">
    <path d="M 83.897898 353.223808 
L 101.570254 353.223796 
L 119.24261 353.223791 
L 136.914966 353.2238 
L 154.587323 353.223807 
L 172.259679 353.223782 
L 189.932035 353.22355 
L 207.604391 353.222661 
L 225.276747 353.219745 
L 242.949104 353.205981 
L 260.62146 353.160535 
L 278.293816 352.944915 
L 295.966172 352.274612 
L 313.638529 352.231419 
L 331.310885 352.555601 
L 348.983241 352.775361 
L 366.655597 352.878834 
L 384.327953 352.97661 
L 402.00031 352.767292 
L 419.672666 353.192573 
L 437.345022 353.208237 
L 455.017378 353.165993 
L 472.689734 353.112833 
L 490.362091 353.118529 
L 508.034447 353.213932 
L 525.706803 353.193523 
L 543.379159 353.153178 
L 561.051516 353.209661 
L 578.723872 353.211559 
L 596.396228 353.214407 
L 614.068584 353.21061 
L 631.74094 353.208711 
L 649.413297 353.206813 
L 667.085653 353.159348 
L 684.758009 353.215831 
L 702.430365 353.147008 
L 720.102721 353.21678 
L 737.775078 353.196845 
L 755.447434 353.195896 
L 773.11979 353.096221 
L 790.792146 353.144634 
L 808.464503 353.208237 
L 826.136859 353.162671 
L 843.809215 353.199219 
L 861.481571 352.793398 
L 879.153927 352.722676 
L 896.826284 353.157924 
L 914.49864 352.679009 
L 932.170996 351.415032 
L 949.843352 352.498644 
" clip-path="url(#p0441d0b312)" style="fill: none; stroke: #f7a35c; stroke-linecap: square"/>
   </g>
   <g id="line2d_32">
    <path d="M 83.897898 353.223802 
L 101.570254 353.223786 
L 119.24261 353.223765 
L 136.914966 353.223771 
L 154.587323 353.223754 
L 172.259679 353.223686 
L 189.932035 353.223281 
L 207.604391 353.221604 
L 225.276747 353.215407 
L 242.949104 353.186629 
L 260.62146 353.101943 
L 278.293816 352.646522 
L 295.966172 351.304914 
L 313.638529 351.450155 
L 331.310885 352.088552 
L 348.983241 352.355776 
L 366.655597 352.660498 
L 384.327953 352.813808 
L 402.00031 352.45118 
L 419.672666 353.182606 
L 437.345022 353.189251 
L 455.017378 353.157924 
L 472.689734 353.079608 
L 490.362091 353.090525 
L 508.034447 353.21773 
L 525.706803 353.185454 
L 543.379159 353.140837 
L 561.051516 353.209186 
L 578.723872 353.196371 
L 596.396228 353.211559 
L 614.068584 353.204914 
L 631.74094 353.212509 
L 649.413297 353.140837 
L 667.085653 353.174062 
L 684.758009 353.211559 
L 702.430365 353.183081 
L 720.102721 353.156501 
L 737.775078 353.206338 
L 755.447434 353.198269 
L 773.11979 353.159348 
L 790.792146 353.137515 
L 808.464503 353.212509 
L 826.136859 353.174537 
L 843.809215 353.206338 
L 861.481571 352.981832 
L 879.153927 352.811909 
L 896.826284 353.172164 
L 914.49864 352.736441 
L 932.170996 352.026373 
L 949.843352 352.528547 
" clip-path="url(#p0441d0b312)" style="fill: none; stroke: #8085e9; stroke-linecap: square"/>
   </g>
   <g id="line2d_33">
    <path d="M 83.897898 353.2238 
L 101.570254 353.223786 
L 119.24261 353.223755 
L 136.914966 353.223767 
L 154.587323 353.223757 
L 172.259679 353.223705 
L 189.932035 353.223312 
L 207.604391 353.221882 
L 225.276747 353.216354 
L 242.949104 353.192084 
L 260.62146 353.106129 
L 278.293816 352.747713 
L 295.966172 351.475312 
L 313.638529 351.79 
L 331.310885 352.287902 
L 348.983241 352.557025 
L 366.655597 352.780583 
L 384.327953 352.935316 
L 402.00031 352.992748 
L 419.672666 353.059673 
L 437.345022 353.07059 
L 455.017378 353.078659 
L 472.689734 353.112833 
L 490.362091 353.158874 
L 508.034447 353.19115 
L 525.706803 353.194472 
L 543.379159 353.200642 
L 561.051516 353.205389 
L 578.723872 353.209186 
L 596.396228 353.211085 
L 614.068584 353.208711 
L 631.74094 353.206338 
L 649.413297 353.210135 
L 667.085653 353.179758 
L 684.758009 353.20444 
L 702.430365 353.213458 
L 720.102721 353.201592 
L 737.775078 353.179758 
L 755.447434 353.194472 
L 773.11979 353.183555 
L 790.792146 353.066793 
L 808.464503 353.073912 
L 826.136859 352.135541 
L 843.809215 350.974087 
L 861.481571 352.106588 
L 879.153927 353.139888 
L 896.826284 351.62435 
L 914.49864 351.933818 
L 932.170996 351.831769 
L 949.843352 313.054778 
" clip-path="url(#p0441d0b312)" style="fill: none; stroke: #f15c80; stroke-linecap: square"/>
   </g>
   <g id="line2d_34">
    <path d="M 83.897898 353.223799 
L 101.570254 353.223786 
L 119.24261 353.223754 
L 136.914966 353.223767 
L 154.587323 353.223761 
L 172.259679 353.223731 
L 189.932035 353.223408 
L 207.604391 353.222114 
L 225.276747 353.217166 
L 242.949104 353.195716 
L 260.62146 353.121961 
L 278.293816 352.785171 
L 295.966172 351.986028 
L 313.638529 352.249456 
L 331.310885 352.633443 
L 348.983241 352.831844 
L 366.655597 352.969016 
L 384.327953 353.018379 
L 402.00031 353.071539 
L 419.672666 353.094797 
L 437.345022 353.131819 
L 455.017378 353.14416 
L 472.689734 353.150805 
L 490.362091 353.172638 
L 508.034447 353.196845 
L 525.706803 353.210135 
L 543.379159 353.206813 
L 561.051516 353.211559 
L 578.723872 353.211085 
L 596.396228 353.21678 
L 614.068584 353.214407 
L 631.74094 353.213458 
L 649.413297 353.213458 
L 667.085653 353.195421 
L 684.758009 353.215831 
L 702.430365 353.213932 
L 720.102721 353.211085 
L 737.775078 353.198744 
L 755.447434 353.209661 
L 773.11979 353.20444 
L 790.792146 353.140363 
L 808.464503 353.147482 
L 826.136859 352.63107 
L 843.809215 352.156426 
L 861.481571 352.768242 
L 879.153927 353.179283 
L 896.826284 352.493898 
L 914.49864 352.610185 
L 932.170996 352.450705 
L 949.843352 331.769991 
" clip-path="url(#p0441d0b312)" style="fill: none; stroke: #e4d354; stroke-linecap: square"/>
   </g>
   <g id="line2d_35">
    <path d="M 83.897898 353.22381 
L 101.570254 353.223796 
L 119.24261 353.223793 
L 136.914966 353.223804 
L 154.587323 353.223818 
L 172.259679 353.223802 
L 189.932035 353.223629 
L 207.604391 353.222946 
L 225.276747 353.220143 
L 242.949104 353.20861 
L 260.62146 353.170713 
L 278.293816 353.031511 
L 295.966172 352.38378 
L 313.638529 352.459723 
L 331.310885 352.693248 
L 348.983241 352.833743 
L 366.655597 352.946233 
L 384.327953 353.027397 
L 402.00031 353.068217 
L 419.672666 353.106663 
L 437.345022 353.105714 
L 455.017378 353.131344 
L 472.689734 353.126598 
L 490.362091 353.170265 
L 508.034447 353.188776 
L 525.706803 353.200642 
L 543.379159 353.199219 
L 561.051516 353.200642 
L 578.723872 353.206338 
L 596.396228 353.207762 
L 614.068584 353.212509 
L 631.74094 353.202541 
L 649.413297 353.212509 
L 667.085653 353.157924 
L 684.758009 353.203016 
L 702.430365 353.208711 
L 720.102721 353.192099 
L 737.775078 353.141312 
L 755.447434 353.187827 
L 773.11979 353.147008 
L 790.792146 353.007462 
L 808.464503 352.959523 
L 826.136859 351.845059 
L 843.809215 348.287128 
L 861.481571 350.931369 
L 879.153927 352.918704 
L 896.826284 350.071315 
L 914.49864 350.259274 
L 932.170996 349.822126 
L 949.843352 264.291278 
" clip-path="url(#p0441d0b312)" style="fill: none; stroke: #2b908f; stroke-linecap: square"/>
   </g>
   <g id="line2d_36">
    <path d="M 83.897898 353.223809 
L 101.570254 353.223794 
L 119.24261 353.223793 
L 136.914966 353.223801 
L 154.587323 353.223807 
L 172.259679 353.223787 
L 189.932035 353.223569 
L 207.604391 353.22281 
L 225.276747 353.219931 
L 242.949104 353.206197 
L 260.62146 353.165301 
L 278.293816 352.96158 
L 295.966172 352.362421 
L 313.638529 352.342011 
L 331.310885 352.633443 
L 348.983241 352.787228 
L 366.655597 352.890225 
L 384.327953 352.984679 
L 402.00031 352.765869 
L 419.672666 353.194472 
L 437.345022 353.208237 
L 455.017378 353.189726 
L 472.689734 353.14416 
L 490.362091 353.139413 
L 508.034447 353.208711 
L 525.706803 353.186403 
L 543.379159 353.11663 
L 561.051516 353.212509 
L 578.723872 353.20444 
L 596.396228 353.214407 
L 614.068584 353.200642 
L 631.74094 353.204914 
L 649.413297 353.15745 
L 667.085653 353.171689 
L 684.758009 353.212034 
L 702.430365 353.166468 
L 720.102721 353.209186 
L 737.775078 353.179283 
L 755.447434 353.206338 
L 773.11979 353.178334 
L 790.792146 353.115207 
L 808.464503 353.209186 
L 826.136859 353.184505 
L 843.809215 353.204914 
L 861.481571 352.940538 
L 879.153927 352.764919 
L 896.826284 353.147957 
L 914.49864 352.822826 
L 932.170996 351.575461 
L 949.843352 352.623475 
" clip-path="url(#p0441d0b312)" style="fill: none; stroke: #f45b5b; stroke-linecap: square"/>
   </g>
   <g id="line2d_37">
    <path d="M 83.897898 353.223808 
L 101.570254 353.223794 
L 119.24261 353.223786 
L 136.914966 353.223798 
L 154.587323 353.223809 
L 172.259679 353.223789 
L 189.932035 353.22359 
L 207.604391 353.222741 
L 225.276747 353.219745 
L 242.949104 353.207 
L 260.62146 353.164279 
L 278.293816 353.003454 
L 295.966172 352.272713 
L 313.638529 352.37761 
L 331.310885 352.654327 
L 348.983241 352.793873 
L 366.655597 352.887377 
L 384.327953 353.019803 
L 402.00031 353.053028 
L 419.672666 353.093373 
L 437.345022 353.111884 
L 455.017378 353.126598 
L 472.689734 353.125174 
L 490.362091 353.175012 
L 508.034447 353.184505 
L 525.706803 353.190675 
L 543.379159 353.200168 
L 561.051516 353.206338 
L 578.723872 353.201592 
L 596.396228 353.208711 
L 614.068584 353.209661 
L 631.74094 353.20444 
L 649.413297 353.208711 
L 667.085653 353.159348 
L 684.758009 353.20444 
L 702.430365 353.213932 
L 720.102721 353.193523 
L 737.775078 353.176436 
L 755.447434 353.192099 
L 773.11979 353.174062 
L 790.792146 353.029296 
L 808.464503 353.062521 
L 826.136859 352.406563 
L 843.809215 350.203266 
L 861.481571 351.347632 
L 879.153927 353.034992 
L 896.826284 351.476735 
L 914.49864 351.519928 
L 932.170996 350.991175 
L 949.843352 303.955853 
" clip-path="url(#p0441d0b312)" style="fill: none; stroke: #91e8e1; stroke-linecap: square"/>
   </g>
   <g id="line2d_38">
    <path d="M 83.897898 353.223803 
L 101.570254 353.223787 
L 119.24261 353.223767 
L 136.914966 353.223772 
L 154.587323 353.223759 
L 172.259679 353.223692 
L 189.932035 353.223288 
L 207.604391 353.221746 
L 225.276747 353.215946 
L 242.949104 353.189121 
L 260.62146 353.103171 
L 278.293816 352.673682 
L 295.966172 351.675042 
L 313.638529 351.842496 
L 331.310885 352.31714 
L 348.983241 352.603066 
L 366.655597 352.787797 
L 384.327953 352.923166 
L 402.00031 352.670085 
L 419.672666 353.174157 
L 437.345022 353.203395 
L 455.017378 353.175676 
L 472.689734 353.128781 
L 490.362091 353.115871 
L 508.034447 353.217635 
L 525.706803 353.202066 
L 543.379159 353.155551 
L 561.051516 353.217065 
L 578.723872 353.21061 
L 596.396228 353.216306 
L 614.068584 353.21004 
L 631.74094 353.212888 
L 649.413297 353.165614 
L 667.085653 353.184789 
L 684.758009 353.195232 
L 702.430365 353.214407 
L 720.102721 353.186118 
L 737.775078 353.207003 
L 755.447434 353.165234 
L 773.11979 353.186308 
L 790.792146 353.168841 
L 808.464503 353.190105 
L 826.136859 353.202826 
L 843.809215 353.200927 
L 861.481571 352.961897 
L 879.153927 352.933987 
L 896.826284 353.177575 
L 914.49864 352.971959 
L 932.170996 352.245184 
L 949.843352 352.785709 
" clip-path="url(#p0441d0b312)" style="fill: none; stroke: #7cb5ec; stroke-linecap: square"/>
   </g>
   <g id="line2d_39">
    <path d="M 83.897898 353.223813 
L 101.570254 353.223801 
L 119.24261 353.2238 
L 136.914966 353.223807 
L 154.587323 353.223812 
L 172.259679 353.223776 
L 189.932035 353.223541 
L 207.604391 353.22257 
L 225.276747 353.219316 
L 242.949104 353.204677 
L 260.62146 353.157067 
L 278.293816 352.941012 
L 295.966172 352.286715 
L 313.638529 352.367405 
L 331.310885 352.616356 
L 348.983241 352.795534 
L 366.655597 352.903515 
L 384.327953 352.992748 
L 402.00031 352.781532 
L 419.672666 353.196133 
L 437.345022 353.207525 
L 455.017378 353.171689 
L 472.689734 353.121852 
L 490.362091 353.112596 
L 508.034447 353.217255 
L 525.706803 353.192573 
L 543.379159 353.137515 
L 561.051516 353.214644 
L 578.723872 353.208474 
L 596.396228 353.215356 
L 614.068584 353.20349 
L 631.74094 353.206338 
L 649.413297 353.073201 
L 667.085653 353.162908 
L 684.758009 353.169791 
L 702.430365 353.210135 
L 720.102721 353.158636 
L 737.775078 353.197083 
L 755.447434 353.147008 
L 773.11979 353.168129 
L 790.792146 353.154839 
L 808.464503 353.172401 
L 826.136859 353.191862 
L 843.809215 353.198507 
L 861.481571 352.864594 
L 879.153927 352.813808 
L 896.826284 353.156738 
L 914.49864 352.878596 
L 932.170996 351.795934 
L 949.843352 352.566043 
" clip-path="url(#p0441d0b312)" style="fill: none; stroke: #434348; stroke-linecap: square"/>
   </g>
   <g id="line2d_40">
    <path d="M 40.600625 353.2239 
L 993.140625 353.2239 
" clip-path="url(#p0441d0b312)" style="fill: none; stroke: #dedede; stroke-width: 2; stroke-linecap: square"/>
   </g>
   <g id="text_17">
    <!-- Cutadapt: Lengths of Trimmed Sequences (3' end) -->
    <g transform="translate(315.518125 19.3575) scale(0.16 -0.16)">
     <defs>
      <path id="DejaVuSans-43" d="M 4122 4306 
L 4122 3641 
Q 3803 3938 3442 4084 
Q 3081 4231 2675 4231 
Q 1875 4231 1450 3742 
Q 1025 3253 1025 2328 
Q 1025 1406 1450 917 
Q 1875 428 2675 428 
Q 3081 428 3442 575 
Q 3803 722 4122 1019 
L 4122 359 
Q 3791 134 3420 21 
Q 3050 -91 2638 -91 
Q 1578 -91 968 557 
Q 359 1206 359 2328 
Q 359 3453 968 4101 
Q 1578 4750 2638 4750 
Q 3056 4750 3426 4639 
Q 3797 4528 4122 4306 
z
" transform="scale(0.015625)"/>
      <path id="DejaVuSans-75" d="M 544 1381 
L 544 3500 
L 1119 3500 
L 1119 1403 
Q 1119 906 1312 657 
Q 1506 409 1894 409 
Q 2359 409 2629 706 
Q 2900 1003 2900 1516 
L 2900 3500 
L 3475 3500 
L 3475 0 
L 2900 0 
L 2900 538 
Q 2691 219 2414 64 
Q 2138 -91 1772 -91 
Q 1169 -91 856 284 
Q 544 659 544 1381 
z
M 1991 3584 
L 1991 3584 
z
" transform="scale(0.015625)"/>
      <path id="DejaVuSans-61" d="M 2194 1759 
Q 1497 1759 1228 1600 
Q 959 1441 959 1056 
Q 959 750 1161 570 
Q 1363 391 1709 391 
Q 2188 391 2477 730 
Q 2766 1069 2766 1631 
L 2766 1759 
L 2194 1759 
z
M 3341 1997 
L 3341 0 
L 2766 0 
L 2766 531 
Q 2569 213 2275 61 
Q 1981 -91 1556 -91 
Q 1019 -91 701 211 
Q 384 513 384 1019 
Q 384 1609 779 1909 
Q 1175 2209 1959 2209 
L 2766 2209 
L 2766 2266 
Q 2766 2663 2505 2880 
Q 2244 3097 1772 3097 
Q 1472 3097 1187 3025 
Q 903 2953 641 2809 
L 641 3341 
Q 956 3463 1253 3523 
Q 1550 3584 1831 3584 
Q 2591 3584 2966 3190 
Q 3341 2797 3341 1997 
z
" transform="scale(0.015625)"/>
      <path id="DejaVuSans-3a" d="M 750 794 
L 1409 794 
L 1409 0 
L 750 0 
L 750 794 
z
M 750 3309 
L 1409 3309 
L 1409 2516 
L 750 2516 
L 750 3309 
z
" transform="scale(0.015625)"/>
      <path id="DejaVuSans-6f" d="M 1959 3097 
Q 1497 3097 1228 2736 
Q 959 2375 959 1747 
Q 959 1119 1226 758 
Q 1494 397 1959 397 
Q 2419 397 2687 759 
Q 2956 1122 2956 1747 
Q 2956 2369 2687 2733 
Q 2419 3097 1959 3097 
z
M 1959 3584 
Q 2709 3584 3137 3096 
Q 3566 2609 3566 1747 
Q 3566 888 3137 398 
Q 2709 -91 1959 -91 
Q 1206 -91 779 398 
Q 353 888 353 1747 
Q 353 2609 779 3096 
Q 1206 3584 1959 3584 
z
" transform="scale(0.015625)"/>
      <path id="DejaVuSans-66" d="M 2375 4863 
L 2375 4384 
L 1825 4384 
Q 1516 4384 1395 4259 
Q 1275 4134 1275 3809 
L 1275 3500 
L 2222 3500 
L 2222 3053 
L 1275 3053 
L 1275 0 
L 697 0 
L 697 3053 
L 147 3053 
L 147 3500 
L 697 3500 
L 697 3744 
Q 697 4328 969 4595 
Q 1241 4863 1831 4863 
L 2375 4863 
z
" transform="scale(0.015625)"/>
      <path id="DejaVuSans-53" d="M 3425 4513 
L 3425 3897 
Q 3066 4069 2747 4153 
Q 2428 4238 2131 4238 
Q 1616 4238 1336 4038 
Q 1056 3838 1056 3469 
Q 1056 3159 1242 3001 
Q 1428 2844 1947 2747 
L 2328 2669 
Q 3034 2534 3370 2195 
Q 3706 1856 3706 1288 
Q 3706 609 3251 259 
Q 2797 -91 1919 -91 
Q 1588 -91 1214 -16 
Q 841 59 441 206 
L 441 856 
Q 825 641 1194 531 
Q 1563 422 1919 422 
Q 2459 422 2753 634 
Q 3047 847 3047 1241 
Q 3047 1584 2836 1778 
Q 2625 1972 2144 2069 
L 1759 2144 
Q 1053 2284 737 2584 
Q 422 2884 422 3419 
Q 422 4038 858 4394 
Q 1294 4750 2059 4750 
Q 2388 4750 2728 4690 
Q 3069 4631 3425 4513 
z
" transform="scale(0.015625)"/>
      <path id="DejaVuSans-71" d="M 947 1747 
Q 947 1113 1208 752 
Q 1469 391 1925 391 
Q 2381 391 2643 752 
Q 2906 1113 2906 1747 
Q 2906 2381 2643 2742 
Q 2381 3103 1925 3103 
Q 1469 3103 1208 2742 
Q 947 2381 947 1747 
z
M 2906 525 
Q 2725 213 2448 61 
Q 2172 -91 1784 -91 
Q 1150 -91 751 415 
Q 353 922 353 1747 
Q 353 2572 751 3078 
Q 1150 3584 1784 3584 
Q 2172 3584 2448 3432 
Q 2725 3281 2906 2969 
L 2906 3500 
L 3481 3500 
L 3481 -1331 
L 2906 -1331 
L 2906 525 
z
" transform="scale(0.015625)"/>
      <path id="DejaVuSans-27" d="M 1147 4666 
L 1147 2931 
L 616 2931 
L 616 4666 
L 1147 4666 
z
" transform="scale(0.015625)"/>
     </defs>
     <use xlink:href="#DejaVuSans-43"/>
     <use xlink:href="#DejaVuSans-75" x="69.824219"/>
     <use xlink:href="#DejaVuSans-74" x="133.203125"/>
     <use xlink:href="#DejaVuSans-61" x="172.412109"/>
     <use xlink:href="#DejaVuSans-64" x="233.691406"/>
     <use xlink:href="#DejaVuSans-61" x="297.167969"/>
     <use xlink:href="#DejaVuSans-70" x="358.447266"/>
     <use xlink:href="#DejaVuSans-74" x="421.923828"/>
     <use xlink:href="#DejaVuSans-3a" x="461.132812"/>
     <use xlink:href="#DejaVuSans-20" x="494.824219"/>
     <use xlink:href="#DejaVuSans-4c" x="526.611328"/>
     <use xlink:href="#DejaVuSans-65" x="580.574219"/>
     <use xlink:href="#DejaVuSans-6e" x="642.097656"/>
     <use xlink:href="#DejaVuSans-67" x="705.476562"/>
     <use xlink:href="#DejaVuSans-74" x="768.953125"/>
     <use xlink:href="#DejaVuSans-68" x="808.162109"/>
     <use xlink:href="#DejaVuSans-73" x="871.541016"/>
     <use xlink:href="#DejaVuSans-20" x="923.640625"/>
     <use xlink:href="#DejaVuSans-6f" x="955.427734"/>
     <use xlink:href="#DejaVuSans-66" x="1016.609375"/>
     <use xlink:href="#DejaVuSans-20" x="1051.814453"/>
     <use xlink:href="#DejaVuSans-54" x="1083.601562"/>
     <use xlink:href="#DejaVuSans-72" x="1129.935547"/>
     <use xlink:href="#DejaVuSans-69" x="1171.048828"/>
     <use xlink:href="#DejaVuSans-6d" x="1198.832031"/>
     <use xlink:href="#DejaVuSans-6d" x="1296.244141"/>
     <use xlink:href="#DejaVuSans-65" x="1393.65625"/>
     <use xlink:href="#DejaVuSans-64" x="1455.179688"/>
     <use xlink:href="#DejaVuSans-20" x="1518.65625"/>
     <use xlink:href="#DejaVuSans-53" x="1550.443359"/>
     <use xlink:href="#DejaVuSans-65" x="1613.919922"/>
     <use xlink:href="#DejaVuSans-71" x="1675.443359"/>
     <use xlink:href="#DejaVuSans-75" x="1738.919922"/>
     <use xlink:href="#DejaVuSans-65" x="1802.298828"/>
     <use xlink:href="#DejaVuSans-6e" x="1863.822266"/>
     <use xlink:href="#DejaVuSans-63" x="1927.201172"/>
     <use xlink:href="#DejaVuSans-65" x="1982.181641"/>
     <use xlink:href="#DejaVuSans-73" x="2043.705078"/>
     <use xlink:href="#DejaVuSans-20" x="2095.804688"/>
     <use xlink:href="#DejaVuSans-28" x="2127.591797"/>
     <use xlink:href="#DejaVuSans-33" x="2166.605469"/>
     <use xlink:href="#DejaVuSans-27" x="2230.228516"/>
     <use xlink:href="#DejaVuSans-20" x="2257.71875"/>
     <use xlink:href="#DejaVuSans-65" x="2289.505859"/>
     <use xlink:href="#DejaVuSans-6e" x="2351.029297"/>
     <use xlink:href="#DejaVuSans-64" x="2414.408203"/>
     <use xlink:href="#DejaVuSans-29" x="2477.884766"/>
    </g>
   </g>
  </g>
 </g>
 <defs>
  <clipPath id="p0441d0b312">
   <rect x="40.600625" y="35.2559" width="952.54" height="317.968"/>
  </clipPath>
 </defs>
</svg>
