<?xml version="1.0" encoding="utf-8" standalone="no"?>
<!DOCTYPE svg PUBLIC "-//W3C//DTD SVG 1.1//EN"
  "http://www.w3.org/Graphics/SVG/1.1/DTD/svg11.dtd">
<svg xmlns:xlink="http://www.w3.org/1999/xlink" width="1000.278125pt" height="388.844525pt" viewBox="0 0 1000.278125 388.844525" xmlns="http://www.w3.org/2000/svg" version="1.1">
 <metadata>
  <rdf:RDF xmlns:dc="http://purl.org/dc/elements/1.1/" xmlns:cc="http://creativecommons.org/ns#" xmlns:rdf="http://www.w3.org/1999/02/22-rdf-syntax-ns#">
   <cc:Work>
    <dc:type rdf:resource="http://purl.org/dc/dcmitype/StillImage"/>
    <dc:date>2025-01-24T09:54:51.956169</dc:date>
    <dc:format>image/svg+xml</dc:format>
    <dc:creator>
     <cc:Agent>
      <dc:title>Matplotlib v3.8.2, https://matplotlib.org/</dc:title>
     </cc:Agent>
    </dc:creator>
   </cc:Work>
  </rdf:RDF>
 </metadata>
 <defs>
  <style type="text/css">*{stroke-linejoin: round; stroke-linecap: butt}</style>
 </defs>
 <g id="figure_1">
  <g id="axes_1">
   <g id="patch_1">
    <path d="M 43.148125 353.2239 
L 993.078125 353.2239 
L 993.078125 35.2559 
L 43.148125 35.2559 
z
" style="fill: #ffffff"/>
   </g>
   <g id="matplotlib.axis_1">
    <g id="xtick_1">
     <g id="text_1">
      <!-- 1.0 -->
      <g transform="translate(79.965511 366.30265) scale(0.08 -0.08)">
       <defs>
        <path id="DejaVuSans-31" d="M 794 531 
L 1825 531 
L 1825 4091 
L 703 3866 
L 703 4441 
L 1819 4666 
L 2450 4666 
L 2450 531 
L 3481 531 
L 3481 0 
L 794 0 
L 794 531 
z
" transform="scale(0.015625)"/>
        <path id="DejaVuSans-2e" d="M 684 794 
L 1344 794 
L 1344 0 
L 684 0 
L 684 794 
z
" transform="scale(0.015625)"/>
        <path id="DejaVuSans-30" d="M 2034 4250 
Q 1547 4250 1301 3770 
Q 1056 3291 1056 2328 
Q 1056 1369 1301 889 
Q 1547 409 2034 409 
Q 2525 409 2770 889 
Q 3016 1369 3016 2328 
Q 3016 3291 2770 3770 
Q 2525 4250 2034 4250 
z
M 2034 4750 
Q 2819 4750 3233 4129 
Q 3647 3509 3647 2328 
Q 3647 1150 3233 529 
Q 2819 -91 2034 -91 
Q 1250 -91 836 529 
Q 422 1150 422 2328 
Q 422 3509 836 4129 
Q 1250 4750 2034 4750 
z
" transform="scale(0.015625)"/>
       </defs>
       <use xlink:href="#DejaVuSans-31"/>
       <use xlink:href="#DejaVuSans-2e" x="63.623047"/>
       <use xlink:href="#DejaVuSans-30" x="95.410156"/>
      </g>
     </g>
    </g>
    <g id="xtick_2">
     <g id="text_2">
      <!-- 2.0 -->
      <g transform="translate(137.537027 366.30265) scale(0.08 -0.08)">
       <defs>
        <path id="DejaVuSans-32" d="M 1228 531 
L 3431 531 
L 3431 0 
L 469 0 
L 469 531 
Q 828 903 1448 1529 
Q 2069 2156 2228 2338 
Q 2531 2678 2651 2914 
Q 2772 3150 2772 3378 
Q 2772 3750 2511 3984 
Q 2250 4219 1831 4219 
Q 1534 4219 1204 4116 
Q 875 4013 500 3803 
L 500 4441 
Q 881 4594 1212 4672 
Q 1544 4750 1819 4750 
Q 2544 4750 2975 4387 
Q 3406 4025 3406 3419 
Q 3406 3131 3298 2873 
Q 3191 2616 2906 2266 
Q 2828 2175 2409 1742 
Q 1991 1309 1228 531 
z
" transform="scale(0.015625)"/>
       </defs>
       <use xlink:href="#DejaVuSans-32"/>
       <use xlink:href="#DejaVuSans-2e" x="63.623047"/>
       <use xlink:href="#DejaVuSans-30" x="95.410156"/>
      </g>
     </g>
    </g>
    <g id="xtick_3">
     <g id="text_3">
      <!-- 3.0 -->
      <g transform="translate(195.108542 366.30265) scale(0.08 -0.08)">
       <defs>
        <path id="DejaVuSans-33" d="M 2597 2516 
Q 3050 2419 3304 2112 
Q 3559 1806 3559 1356 
Q 3559 666 3084 287 
Q 2609 -91 1734 -91 
Q 1441 -91 1130 -33 
Q 819 25 488 141 
L 488 750 
Q 750 597 1062 519 
Q 1375 441 1716 441 
Q 2309 441 2620 675 
Q 2931 909 2931 1356 
Q 2931 1769 2642 2001 
Q 2353 2234 1838 2234 
L 1294 2234 
L 1294 2753 
L 1863 2753 
Q 2328 2753 2575 2939 
Q 2822 3125 2822 3475 
Q 2822 3834 2567 4026 
Q 2313 4219 1838 4219 
Q 1578 4219 1281 4162 
Q 984 4106 628 3988 
L 628 4550 
Q 988 4650 1302 4700 
Q 1616 4750 1894 4750 
Q 2613 4750 3031 4423 
Q 3450 4097 3450 3541 
Q 3450 3153 3228 2886 
Q 3006 2619 2597 2516 
z
" transform="scale(0.015625)"/>
       </defs>
       <use xlink:href="#DejaVuSans-33"/>
       <use xlink:href="#DejaVuSans-2e" x="63.623047"/>
       <use xlink:href="#DejaVuSans-30" x="95.410156"/>
      </g>
     </g>
    </g>
    <g id="xtick_4">
     <g id="text_4">
      <!-- 4.0 -->
      <g transform="translate(252.680057 366.30265) scale(0.08 -0.08)">
       <defs>
        <path id="DejaVuSans-34" d="M 2419 4116 
L 825 1625 
L 2419 1625 
L 2419 4116 
z
M 2253 4666 
L 3047 4666 
L 3047 1625 
L 3713 1625 
L 3713 1100 
L 3047 1100 
L 3047 0 
L 2419 0 
L 2419 1100 
L 313 1100 
L 313 1709 
L 2253 4666 
z
" transform="scale(0.015625)"/>
       </defs>
       <use xlink:href="#DejaVuSans-34"/>
       <use xlink:href="#DejaVuSans-2e" x="63.623047"/>
       <use xlink:href="#DejaVuSans-30" x="95.410156"/>
      </g>
     </g>
    </g>
    <g id="xtick_5">
     <g id="text_5">
      <!-- 5.0 -->
      <g transform="translate(310.251572 366.30265) scale(0.08 -0.08)">
       <defs>
        <path id="DejaVuSans-35" d="M 691 4666 
L 3169 4666 
L 3169 4134 
L 1269 4134 
L 1269 2991 
Q 1406 3038 1543 3061 
Q 1681 3084 1819 3084 
Q 2600 3084 3056 2656 
Q 3513 2228 3513 1497 
Q 3513 744 3044 326 
Q 2575 -91 1722 -91 
Q 1428 -91 1123 -41 
Q 819 9 494 109 
L 494 744 
Q 775 591 1075 516 
Q 1375 441 1709 441 
Q 2250 441 2565 725 
Q 2881 1009 2881 1497 
Q 2881 1984 2565 2268 
Q 2250 2553 1709 2553 
Q 1456 2553 1204 2497 
Q 953 2441 691 2322 
L 691 4666 
z
" transform="scale(0.015625)"/>
       </defs>
       <use xlink:href="#DejaVuSans-35"/>
       <use xlink:href="#DejaVuSans-2e" x="63.623047"/>
       <use xlink:href="#DejaVuSans-30" x="95.410156"/>
      </g>
     </g>
    </g>
    <g id="xtick_6">
     <g id="text_6">
      <!-- 6.0 -->
      <g transform="translate(367.823087 366.30265) scale(0.08 -0.08)">
       <defs>
        <path id="DejaVuSans-36" d="M 2113 2584 
Q 1688 2584 1439 2293 
Q 1191 2003 1191 1497 
Q 1191 994 1439 701 
Q 1688 409 2113 409 
Q 2538 409 2786 701 
Q 3034 994 3034 1497 
Q 3034 2003 2786 2293 
Q 2538 2584 2113 2584 
z
M 3366 4563 
L 3366 3988 
Q 3128 4100 2886 4159 
Q 2644 4219 2406 4219 
Q 1781 4219 1451 3797 
Q 1122 3375 1075 2522 
Q 1259 2794 1537 2939 
Q 1816 3084 2150 3084 
Q 2853 3084 3261 2657 
Q 3669 2231 3669 1497 
Q 3669 778 3244 343 
Q 2819 -91 2113 -91 
Q 1303 -91 875 529 
Q 447 1150 447 2328 
Q 447 3434 972 4092 
Q 1497 4750 2381 4750 
Q 2619 4750 2861 4703 
Q 3103 4656 3366 4563 
z
" transform="scale(0.015625)"/>
       </defs>
       <use xlink:href="#DejaVuSans-36"/>
       <use xlink:href="#DejaVuSans-2e" x="63.623047"/>
       <use xlink:href="#DejaVuSans-30" x="95.410156"/>
      </g>
     </g>
    </g>
    <g id="xtick_7">
     <g id="text_7">
      <!-- 7.0 -->
      <g transform="translate(425.394602 366.30265) scale(0.08 -0.08)">
       <defs>
        <path id="DejaVuSans-37" d="M 525 4666 
L 3525 4666 
L 3525 4397 
L 1831 0 
L 1172 0 
L 2766 4134 
L 525 4134 
L 525 4666 
z
" transform="scale(0.015625)"/>
       </defs>
       <use xlink:href="#DejaVuSans-37"/>
       <use xlink:href="#DejaVuSans-2e" x="63.623047"/>
       <use xlink:href="#DejaVuSans-30" x="95.410156"/>
      </g>
     </g>
    </g>
    <g id="xtick_8">
     <g id="text_8">
      <!-- 8.0 -->
      <g transform="translate(482.966117 366.30265) scale(0.08 -0.08)">
       <defs>
        <path id="DejaVuSans-38" d="M 2034 2216 
Q 1584 2216 1326 1975 
Q 1069 1734 1069 1313 
Q 1069 891 1326 650 
Q 1584 409 2034 409 
Q 2484 409 2743 651 
Q 3003 894 3003 1313 
Q 3003 1734 2745 1975 
Q 2488 2216 2034 2216 
z
M 1403 2484 
Q 997 2584 770 2862 
Q 544 3141 544 3541 
Q 544 4100 942 4425 
Q 1341 4750 2034 4750 
Q 2731 4750 3128 4425 
Q 3525 4100 3525 3541 
Q 3525 3141 3298 2862 
Q 3072 2584 2669 2484 
Q 3125 2378 3379 2068 
Q 3634 1759 3634 1313 
Q 3634 634 3220 271 
Q 2806 -91 2034 -91 
Q 1263 -91 848 271 
Q 434 634 434 1313 
Q 434 1759 690 2068 
Q 947 2378 1403 2484 
z
M 1172 3481 
Q 1172 3119 1398 2916 
Q 1625 2713 2034 2713 
Q 2441 2713 2670 2916 
Q 2900 3119 2900 3481 
Q 2900 3844 2670 4047 
Q 2441 4250 2034 4250 
Q 1625 4250 1398 4047 
Q 1172 3844 1172 3481 
z
" transform="scale(0.015625)"/>
       </defs>
       <use xlink:href="#DejaVuSans-38"/>
       <use xlink:href="#DejaVuSans-2e" x="63.623047"/>
       <use xlink:href="#DejaVuSans-30" x="95.410156"/>
      </g>
     </g>
    </g>
    <g id="xtick_9">
     <g id="text_9">
      <!-- 9.0 -->
      <g transform="translate(540.537633 366.30265) scale(0.08 -0.08)">
       <defs>
        <path id="DejaVuSans-39" d="M 703 97 
L 703 672 
Q 941 559 1184 500 
Q 1428 441 1663 441 
Q 2288 441 2617 861 
Q 2947 1281 2994 2138 
Q 2813 1869 2534 1725 
Q 2256 1581 1919 1581 
Q 1219 1581 811 2004 
Q 403 2428 403 3163 
Q 403 3881 828 4315 
Q 1253 4750 1959 4750 
Q 2769 4750 3195 4129 
Q 3622 3509 3622 2328 
Q 3622 1225 3098 567 
Q 2575 -91 1691 -91 
Q 1453 -91 1209 -44 
Q 966 3 703 97 
z
M 1959 2075 
Q 2384 2075 2632 2365 
Q 2881 2656 2881 3163 
Q 2881 3666 2632 3958 
Q 2384 4250 1959 4250 
Q 1534 4250 1286 3958 
Q 1038 3666 1038 3163 
Q 1038 2656 1286 2365 
Q 1534 2075 1959 2075 
z
" transform="scale(0.015625)"/>
       </defs>
       <use xlink:href="#DejaVuSans-39"/>
       <use xlink:href="#DejaVuSans-2e" x="63.623047"/>
       <use xlink:href="#DejaVuSans-30" x="95.410156"/>
      </g>
     </g>
    </g>
    <g id="xtick_10">
     <g id="text_10">
      <!-- &gt;10 -->
      <g transform="translate(596.028523 366.30265) scale(0.08 -0.08)">
       <defs>
        <path id="DejaVuSans-3e" d="M 678 3150 
L 678 3719 
L 4684 2266 
L 4684 1747 
L 678 294 
L 678 863 
L 3897 2003 
L 678 3150 
z
" transform="scale(0.015625)"/>
       </defs>
       <use xlink:href="#DejaVuSans-3e"/>
       <use xlink:href="#DejaVuSans-31" x="83.789062"/>
       <use xlink:href="#DejaVuSans-30" x="147.412109"/>
      </g>
     </g>
    </g>
    <g id="xtick_11">
     <g id="text_11">
      <!-- &gt;50 -->
      <g transform="translate(653.600038 366.30265) scale(0.08 -0.08)">
       <use xlink:href="#DejaVuSans-3e"/>
       <use xlink:href="#DejaVuSans-35" x="83.789062"/>
       <use xlink:href="#DejaVuSans-30" x="147.412109"/>
      </g>
     </g>
    </g>
    <g id="xtick_12">
     <g id="text_12">
      <!-- &gt;100 -->
      <g transform="translate(708.626553 366.30265) scale(0.08 -0.08)">
       <use xlink:href="#DejaVuSans-3e"/>
       <use xlink:href="#DejaVuSans-31" x="83.789062"/>
       <use xlink:href="#DejaVuSans-30" x="147.412109"/>
       <use xlink:href="#DejaVuSans-30" x="211.035156"/>
      </g>
     </g>
    </g>
    <g id="xtick_13">
     <g id="text_13">
      <!-- &gt;500 -->
      <g transform="translate(766.198068 366.30265) scale(0.08 -0.08)">
       <use xlink:href="#DejaVuSans-3e"/>
       <use xlink:href="#DejaVuSans-35" x="83.789062"/>
       <use xlink:href="#DejaVuSans-30" x="147.412109"/>
       <use xlink:href="#DejaVuSans-30" x="211.035156"/>
      </g>
     </g>
    </g>
    <g id="xtick_14">
     <g id="text_14">
      <!-- &gt;1k -->
      <g transform="translate(826.543333 366.30265) scale(0.08 -0.08)">
       <defs>
        <path id="DejaVuSans-6b" d="M 581 4863 
L 1159 4863 
L 1159 1991 
L 2875 3500 
L 3609 3500 
L 1753 1863 
L 3688 0 
L 2938 0 
L 1159 1709 
L 1159 0 
L 581 0 
L 581 4863 
z
" transform="scale(0.015625)"/>
       </defs>
       <use xlink:href="#DejaVuSans-3e"/>
       <use xlink:href="#DejaVuSans-31" x="83.789062"/>
       <use xlink:href="#DejaVuSans-6b" x="147.412109"/>
      </g>
     </g>
    </g>
    <g id="xtick_15">
     <g id="text_15">
      <!-- &gt;5k -->
      <g transform="translate(884.114848 366.30265) scale(0.08 -0.08)">
       <use xlink:href="#DejaVuSans-3e"/>
       <use xlink:href="#DejaVuSans-35" x="83.789062"/>
       <use xlink:href="#DejaVuSans-6b" x="147.412109"/>
      </g>
     </g>
    </g>
    <g id="xtick_16">
     <g id="text_16">
      <!-- &gt;10k+ -->
      <g transform="translate(935.789489 366.30265) scale(0.08 -0.08)">
       <defs>
        <path id="DejaVuSans-2b" d="M 2944 4013 
L 2944 2272 
L 4684 2272 
L 4684 1741 
L 2944 1741 
L 2944 0 
L 2419 0 
L 2419 1741 
L 678 1741 
L 678 2272 
L 2419 2272 
L 2419 4013 
L 2944 4013 
z
" transform="scale(0.015625)"/>
       </defs>
       <use xlink:href="#DejaVuSans-3e"/>
       <use xlink:href="#DejaVuSans-31" x="83.789062"/>
       <use xlink:href="#DejaVuSans-30" x="147.412109"/>
       <use xlink:href="#DejaVuSans-6b" x="211.035156"/>
       <use xlink:href="#DejaVuSans-2b" x="268.945312"/>
      </g>
     </g>
    </g>
    <g id="text_17">
     <!-- Sequence Duplication Level -->
     <g transform="translate(448.708437 379.564837) scale(0.1 -0.1)">
      <defs>
       <path id="DejaVuSans-53" d="M 3425 4513 
L 3425 3897 
Q 3066 4069 2747 4153 
Q 2428 4238 2131 4238 
Q 1616 4238 1336 4038 
Q 1056 3838 1056 3469 
Q 1056 3159 1242 3001 
Q 1428 2844 1947 2747 
L 2328 2669 
Q 3034 2534 3370 2195 
Q 3706 1856 3706 1288 
Q 3706 609 3251 259 
Q 2797 -91 1919 -91 
Q 1588 -91 1214 -16 
Q 841 59 441 206 
L 441 856 
Q 825 641 1194 531 
Q 1563 422 1919 422 
Q 2459 422 2753 634 
Q 3047 847 3047 1241 
Q 3047 1584 2836 1778 
Q 2625 1972 2144 2069 
L 1759 2144 
Q 1053 2284 737 2584 
Q 422 2884 422 3419 
Q 422 4038 858 4394 
Q 1294 4750 2059 4750 
Q 2388 4750 2728 4690 
Q 3069 4631 3425 4513 
z
" transform="scale(0.015625)"/>
       <path id="DejaVuSans-65" d="M 3597 1894 
L 3597 1613 
L 953 1613 
Q 991 1019 1311 708 
Q 1631 397 2203 397 
Q 2534 397 2845 478 
Q 3156 559 3463 722 
L 3463 178 
Q 3153 47 2828 -22 
Q 2503 -91 2169 -91 
Q 1331 -91 842 396 
Q 353 884 353 1716 
Q 353 2575 817 3079 
Q 1281 3584 2069 3584 
Q 2775 3584 3186 3129 
Q 3597 2675 3597 1894 
z
M 3022 2063 
Q 3016 2534 2758 2815 
Q 2500 3097 2075 3097 
Q 1594 3097 1305 2825 
Q 1016 2553 972 2059 
L 3022 2063 
z
" transform="scale(0.015625)"/>
       <path id="DejaVuSans-71" d="M 947 1747 
Q 947 1113 1208 752 
Q 1469 391 1925 391 
Q 2381 391 2643 752 
Q 2906 1113 2906 1747 
Q 2906 2381 2643 2742 
Q 2381 3103 1925 3103 
Q 1469 3103 1208 2742 
Q 947 2381 947 1747 
z
M 2906 525 
Q 2725 213 2448 61 
Q 2172 -91 1784 -91 
Q 1150 -91 751 415 
Q 353 922 353 1747 
Q 353 2572 751 3078 
Q 1150 3584 1784 3584 
Q 2172 3584 2448 3432 
Q 2725 3281 2906 2969 
L 2906 3500 
L 3481 3500 
L 3481 -1331 
L 2906 -1331 
L 2906 525 
z
" transform="scale(0.015625)"/>
       <path id="DejaVuSans-75" d="M 544 1381 
L 544 3500 
L 1119 3500 
L 1119 1403 
Q 1119 906 1312 657 
Q 1506 409 1894 409 
Q 2359 409 2629 706 
Q 2900 1003 2900 1516 
L 2900 3500 
L 3475 3500 
L 3475 0 
L 2900 0 
L 2900 538 
Q 2691 219 2414 64 
Q 2138 -91 1772 -91 
Q 1169 -91 856 284 
Q 544 659 544 1381 
z
M 1991 3584 
L 1991 3584 
z
" transform="scale(0.015625)"/>
       <path id="DejaVuSans-6e" d="M 3513 2113 
L 3513 0 
L 2938 0 
L 2938 2094 
Q 2938 2591 2744 2837 
Q 2550 3084 2163 3084 
Q 1697 3084 1428 2787 
Q 1159 2491 1159 1978 
L 1159 0 
L 581 0 
L 581 3500 
L 1159 3500 
L 1159 2956 
Q 1366 3272 1645 3428 
Q 1925 3584 2291 3584 
Q 2894 3584 3203 3211 
Q 3513 2838 3513 2113 
z
" transform="scale(0.015625)"/>
       <path id="DejaVuSans-63" d="M 3122 3366 
L 3122 2828 
Q 2878 2963 2633 3030 
Q 2388 3097 2138 3097 
Q 1578 3097 1268 2742 
Q 959 2388 959 1747 
Q 959 1106 1268 751 
Q 1578 397 2138 397 
Q 2388 397 2633 464 
Q 2878 531 3122 666 
L 3122 134 
Q 2881 22 2623 -34 
Q 2366 -91 2075 -91 
Q 1284 -91 818 406 
Q 353 903 353 1747 
Q 353 2603 823 3093 
Q 1294 3584 2113 3584 
Q 2378 3584 2631 3529 
Q 2884 3475 3122 3366 
z
" transform="scale(0.015625)"/>
       <path id="DejaVuSans-20" transform="scale(0.015625)"/>
       <path id="DejaVuSans-44" d="M 1259 4147 
L 1259 519 
L 2022 519 
Q 2988 519 3436 956 
Q 3884 1394 3884 2338 
Q 3884 3275 3436 3711 
Q 2988 4147 2022 4147 
L 1259 4147 
z
M 628 4666 
L 1925 4666 
Q 3281 4666 3915 4102 
Q 4550 3538 4550 2338 
Q 4550 1131 3912 565 
Q 3275 0 1925 0 
L 628 0 
L 628 4666 
z
" transform="scale(0.015625)"/>
       <path id="DejaVuSans-70" d="M 1159 525 
L 1159 -1331 
L 581 -1331 
L 581 3500 
L 1159 3500 
L 1159 2969 
Q 1341 3281 1617 3432 
Q 1894 3584 2278 3584 
Q 2916 3584 3314 3078 
Q 3713 2572 3713 1747 
Q 3713 922 3314 415 
Q 2916 -91 2278 -91 
Q 1894 -91 1617 61 
Q 1341 213 1159 525 
z
M 3116 1747 
Q 3116 2381 2855 2742 
Q 2594 3103 2138 3103 
Q 1681 3103 1420 2742 
Q 1159 2381 1159 1747 
Q 1159 1113 1420 752 
Q 1681 391 2138 391 
Q 2594 391 2855 752 
Q 3116 1113 3116 1747 
z
" transform="scale(0.015625)"/>
       <path id="DejaVuSans-6c" d="M 603 4863 
L 1178 4863 
L 1178 0 
L 603 0 
L 603 4863 
z
" transform="scale(0.015625)"/>
       <path id="DejaVuSans-69" d="M 603 3500 
L 1178 3500 
L 1178 0 
L 603 0 
L 603 3500 
z
M 603 4863 
L 1178 4863 
L 1178 4134 
L 603 4134 
L 603 4863 
z
" transform="scale(0.015625)"/>
       <path id="DejaVuSans-61" d="M 2194 1759 
Q 1497 1759 1228 1600 
Q 959 1441 959 1056 
Q 959 750 1161 570 
Q 1363 391 1709 391 
Q 2188 391 2477 730 
Q 2766 1069 2766 1631 
L 2766 1759 
L 2194 1759 
z
M 3341 1997 
L 3341 0 
L 2766 0 
L 2766 531 
Q 2569 213 2275 61 
Q 1981 -91 1556 -91 
Q 1019 -91 701 211 
Q 384 513 384 1019 
Q 384 1609 779 1909 
Q 1175 2209 1959 2209 
L 2766 2209 
L 2766 2266 
Q 2766 2663 2505 2880 
Q 2244 3097 1772 3097 
Q 1472 3097 1187 3025 
Q 903 2953 641 2809 
L 641 3341 
Q 956 3463 1253 3523 
Q 1550 3584 1831 3584 
Q 2591 3584 2966 3190 
Q 3341 2797 3341 1997 
z
" transform="scale(0.015625)"/>
       <path id="DejaVuSans-74" d="M 1172 4494 
L 1172 3500 
L 2356 3500 
L 2356 3053 
L 1172 3053 
L 1172 1153 
Q 1172 725 1289 603 
Q 1406 481 1766 481 
L 2356 481 
L 2356 0 
L 1766 0 
Q 1100 0 847 248 
Q 594 497 594 1153 
L 594 3053 
L 172 3053 
L 172 3500 
L 594 3500 
L 594 4494 
L 1172 4494 
z
" transform="scale(0.015625)"/>
       <path id="DejaVuSans-6f" d="M 1959 3097 
Q 1497 3097 1228 2736 
Q 959 2375 959 1747 
Q 959 1119 1226 758 
Q 1494 397 1959 397 
Q 2419 397 2687 759 
Q 2956 1122 2956 1747 
Q 2956 2369 2687 2733 
Q 2419 3097 1959 3097 
z
M 1959 3584 
Q 2709 3584 3137 3096 
Q 3566 2609 3566 1747 
Q 3566 888 3137 398 
Q 2709 -91 1959 -91 
Q 1206 -91 779 398 
Q 353 888 353 1747 
Q 353 2609 779 3096 
Q 1206 3584 1959 3584 
z
" transform="scale(0.015625)"/>
       <path id="DejaVuSans-4c" d="M 628 4666 
L 1259 4666 
L 1259 531 
L 3531 531 
L 3531 0 
L 628 0 
L 628 4666 
z
" transform="scale(0.015625)"/>
       <path id="DejaVuSans-76" d="M 191 3500 
L 800 3500 
L 1894 563 
L 2988 3500 
L 3597 3500 
L 2284 0 
L 1503 0 
L 191 3500 
z
" transform="scale(0.015625)"/>
      </defs>
      <use xlink:href="#DejaVuSans-53"/>
      <use xlink:href="#DejaVuSans-65" x="63.476562"/>
      <use xlink:href="#DejaVuSans-71" x="125"/>
      <use xlink:href="#DejaVuSans-75" x="188.476562"/>
      <use xlink:href="#DejaVuSans-65" x="251.855469"/>
      <use xlink:href="#DejaVuSans-6e" x="313.378906"/>
      <use xlink:href="#DejaVuSans-63" x="376.757812"/>
      <use xlink:href="#DejaVuSans-65" x="431.738281"/>
      <use xlink:href="#DejaVuSans-20" x="493.261719"/>
      <use xlink:href="#DejaVuSans-44" x="525.048828"/>
      <use xlink:href="#DejaVuSans-75" x="602.050781"/>
      <use xlink:href="#DejaVuSans-70" x="665.429688"/>
      <use xlink:href="#DejaVuSans-6c" x="728.90625"/>
      <use xlink:href="#DejaVuSans-69" x="756.689453"/>
      <use xlink:href="#DejaVuSans-63" x="784.472656"/>
      <use xlink:href="#DejaVuSans-61" x="839.453125"/>
      <use xlink:href="#DejaVuSans-74" x="900.732422"/>
      <use xlink:href="#DejaVuSans-69" x="939.941406"/>
      <use xlink:href="#DejaVuSans-6f" x="967.724609"/>
      <use xlink:href="#DejaVuSans-6e" x="1028.90625"/>
      <use xlink:href="#DejaVuSans-20" x="1092.285156"/>
      <use xlink:href="#DejaVuSans-4c" x="1124.072266"/>
      <use xlink:href="#DejaVuSans-65" x="1178.035156"/>
      <use xlink:href="#DejaVuSans-76" x="1239.558594"/>
      <use xlink:href="#DejaVuSans-65" x="1298.738281"/>
      <use xlink:href="#DejaVuSans-6c" x="1360.261719"/>
     </g>
    </g>
   </g>
   <g id="matplotlib.axis_2">
    <g id="ytick_1">
     <g id="line2d_1">
      <path d="M 43.148125 353.2239 
L 993.078125 353.2239 
" clip-path="url(#p74457e3128)" style="fill: none; stroke: #dedede; stroke-linecap: square"/>
     </g>
     <g id="text_18">
      <!-- 0 -->
      <g transform="translate(31.058125 356.263275) scale(0.08 -0.08)">
       <use xlink:href="#DejaVuSans-30"/>
      </g>
     </g>
    </g>
    <g id="ytick_2">
     <g id="line2d_2">
      <path d="M 43.148125 289.6303 
L 993.078125 289.6303 
" clip-path="url(#p74457e3128)" style="fill: none; stroke: #dedede; stroke-linecap: square"/>
     </g>
     <g id="text_19">
      <!-- 20 -->
      <g transform="translate(25.968125 292.669675) scale(0.08 -0.08)">
       <use xlink:href="#DejaVuSans-32"/>
       <use xlink:href="#DejaVuSans-30" x="63.623047"/>
      </g>
     </g>
    </g>
    <g id="ytick_3">
     <g id="line2d_3">
      <path d="M 43.148125 226.0367 
L 993.078125 226.0367 
" clip-path="url(#p74457e3128)" style="fill: none; stroke: #dedede; stroke-linecap: square"/>
     </g>
     <g id="text_20">
      <!-- 40 -->
      <g transform="translate(25.968125 229.076075) scale(0.08 -0.08)">
       <use xlink:href="#DejaVuSans-34"/>
       <use xlink:href="#DejaVuSans-30" x="63.623047"/>
      </g>
     </g>
    </g>
    <g id="ytick_4">
     <g id="line2d_4">
      <path d="M 43.148125 162.4431 
L 993.078125 162.4431 
" clip-path="url(#p74457e3128)" style="fill: none; stroke: #dedede; stroke-linecap: square"/>
     </g>
     <g id="text_21">
      <!-- 60 -->
      <g transform="translate(25.968125 165.482475) scale(0.08 -0.08)">
       <use xlink:href="#DejaVuSans-36"/>
       <use xlink:href="#DejaVuSans-30" x="63.623047"/>
      </g>
     </g>
    </g>
    <g id="ytick_5">
     <g id="line2d_5">
      <path d="M 43.148125 98.8495 
L 993.078125 98.8495 
" clip-path="url(#p74457e3128)" style="fill: none; stroke: #dedede; stroke-linecap: square"/>
     </g>
     <g id="text_22">
      <!-- 80 -->
      <g transform="translate(25.968125 101.888875) scale(0.08 -0.08)">
       <use xlink:href="#DejaVuSans-38"/>
       <use xlink:href="#DejaVuSans-30" x="63.623047"/>
      </g>
     </g>
    </g>
    <g id="ytick_6">
     <g id="line2d_6">
      <path d="M 43.148125 35.2559 
L 993.078125 35.2559 
" clip-path="url(#p74457e3128)" style="fill: none; stroke: #dedede; stroke-linecap: square"/>
     </g>
     <g id="text_23">
      <!-- 100 -->
      <g transform="translate(20.878125 38.295275) scale(0.08 -0.08)">
       <use xlink:href="#DejaVuSans-31"/>
       <use xlink:href="#DejaVuSans-30" x="63.623047"/>
       <use xlink:href="#DejaVuSans-30" x="127.246094"/>
      </g>
     </g>
    </g>
    <g id="text_24">
     <!-- % of Library -->
     <g transform="translate(14.798437 224.471931) rotate(-90) scale(0.1 -0.1)">
      <defs>
       <path id="DejaVuSans-25" d="M 4653 2053 
Q 4381 2053 4226 1822 
Q 4072 1591 4072 1178 
Q 4072 772 4226 539 
Q 4381 306 4653 306 
Q 4919 306 5073 539 
Q 5228 772 5228 1178 
Q 5228 1588 5073 1820 
Q 4919 2053 4653 2053 
z
M 4653 2450 
Q 5147 2450 5437 2106 
Q 5728 1763 5728 1178 
Q 5728 594 5436 251 
Q 5144 -91 4653 -91 
Q 4153 -91 3862 251 
Q 3572 594 3572 1178 
Q 3572 1766 3864 2108 
Q 4156 2450 4653 2450 
z
M 1428 4353 
Q 1159 4353 1004 4120 
Q 850 3888 850 3481 
Q 850 3069 1003 2837 
Q 1156 2606 1428 2606 
Q 1700 2606 1854 2837 
Q 2009 3069 2009 3481 
Q 2009 3884 1853 4118 
Q 1697 4353 1428 4353 
z
M 4250 4750 
L 4750 4750 
L 1831 -91 
L 1331 -91 
L 4250 4750 
z
M 1428 4750 
Q 1922 4750 2215 4408 
Q 2509 4066 2509 3481 
Q 2509 2891 2217 2550 
Q 1925 2209 1428 2209 
Q 931 2209 642 2551 
Q 353 2894 353 3481 
Q 353 4063 643 4406 
Q 934 4750 1428 4750 
z
" transform="scale(0.015625)"/>
       <path id="DejaVuSans-66" d="M 2375 4863 
L 2375 4384 
L 1825 4384 
Q 1516 4384 1395 4259 
Q 1275 4134 1275 3809 
L 1275 3500 
L 2222 3500 
L 2222 3053 
L 1275 3053 
L 1275 0 
L 697 0 
L 697 3053 
L 147 3053 
L 147 3500 
L 697 3500 
L 697 3744 
Q 697 4328 969 4595 
Q 1241 4863 1831 4863 
L 2375 4863 
z
" transform="scale(0.015625)"/>
       <path id="DejaVuSans-62" d="M 3116 1747 
Q 3116 2381 2855 2742 
Q 2594 3103 2138 3103 
Q 1681 3103 1420 2742 
Q 1159 2381 1159 1747 
Q 1159 1113 1420 752 
Q 1681 391 2138 391 
Q 2594 391 2855 752 
Q 3116 1113 3116 1747 
z
M 1159 2969 
Q 1341 3281 1617 3432 
Q 1894 3584 2278 3584 
Q 2916 3584 3314 3078 
Q 3713 2572 3713 1747 
Q 3713 922 3314 415 
Q 2916 -91 2278 -91 
Q 1894 -91 1617 61 
Q 1341 213 1159 525 
L 1159 0 
L 581 0 
L 581 4863 
L 1159 4863 
L 1159 2969 
z
" transform="scale(0.015625)"/>
       <path id="DejaVuSans-72" d="M 2631 2963 
Q 2534 3019 2420 3045 
Q 2306 3072 2169 3072 
Q 1681 3072 1420 2755 
Q 1159 2438 1159 1844 
L 1159 0 
L 581 0 
L 581 3500 
L 1159 3500 
L 1159 2956 
Q 1341 3275 1631 3429 
Q 1922 3584 2338 3584 
Q 2397 3584 2469 3576 
Q 2541 3569 2628 3553 
L 2631 2963 
z
" transform="scale(0.015625)"/>
       <path id="DejaVuSans-79" d="M 2059 -325 
Q 1816 -950 1584 -1140 
Q 1353 -1331 966 -1331 
L 506 -1331 
L 506 -850 
L 844 -850 
Q 1081 -850 1212 -737 
Q 1344 -625 1503 -206 
L 1606 56 
L 191 3500 
L 800 3500 
L 1894 763 
L 2988 3500 
L 3597 3500 
L 2059 -325 
z
" transform="scale(0.015625)"/>
      </defs>
      <use xlink:href="#DejaVuSans-25"/>
      <use xlink:href="#DejaVuSans-20" x="95.019531"/>
      <use xlink:href="#DejaVuSans-6f" x="126.806641"/>
      <use xlink:href="#DejaVuSans-66" x="187.988281"/>
      <use xlink:href="#DejaVuSans-20" x="223.193359"/>
      <use xlink:href="#DejaVuSans-4c" x="254.980469"/>
      <use xlink:href="#DejaVuSans-69" x="310.693359"/>
      <use xlink:href="#DejaVuSans-62" x="338.476562"/>
      <use xlink:href="#DejaVuSans-72" x="401.953125"/>
      <use xlink:href="#DejaVuSans-61" x="443.066406"/>
      <use xlink:href="#DejaVuSans-72" x="504.345703"/>
      <use xlink:href="#DejaVuSans-79" x="545.458984"/>
     </g>
    </g>
   </g>
   <g id="line2d_7">
    <path d="M 86.326761 113.909249 
L 143.898277 308.083069 
L 201.469792 343.957353 
L 259.041307 350.637419 
L 316.612822 351.939206 
L 374.184337 352.218441 
L 431.755852 352.439096 
L 489.327367 352.500208 
L 546.898883 352.610564 
L 604.470398 341.479501 
L 662.041913 352.165377 
L 719.613428 350.224251 
L 777.184943 352.110364 
L 834.756458 352.892503 
L 892.327973 353.2239 
L 949.899489 353.2239 
" clip-path="url(#p74457e3128)" style="fill: none; stroke: #5cb85c; stroke-linecap: square"/>
   </g>
   <g id="line2d_8">
    <path d="M 86.326761 111.684213 
L 143.898277 309.465541 
L 201.469792 344.633773 
L 259.041307 350.721896 
L 316.612822 351.994381 
L 374.184337 352.248053 
L 431.755852 352.404392 
L 489.327367 352.510499 
L 546.898883 352.611086 
L 604.470398 341.664748 
L 662.041913 352.296459 
L 719.613428 350.189802 
L 777.184943 352.217781 
L 834.756458 352.908583 
L 892.327973 353.2239 
L 949.899489 352.839292 
" clip-path="url(#p74457e3128)" style="fill: none; stroke: #5cb85c; stroke-linecap: square"/>
   </g>
   <g id="line2d_9">
    <path d="M 86.326761 106.479578 
L 143.898277 310.095476 
L 201.469792 344.890851 
L 259.041307 350.677342 
L 316.612822 351.817945 
L 374.184337 352.237996 
L 431.755852 352.446136 
L 489.327367 352.439775 
L 546.898883 352.566213 
L 604.470398 346.148404 
L 662.041913 352.233353 
L 719.613428 350.513825 
L 777.184943 351.709629 
L 834.756458 352.910077 
L 892.327973 353.2239 
L 949.899489 353.2239 
" clip-path="url(#p74457e3128)" style="fill: none; stroke: #5cb85c; stroke-linecap: square"/>
   </g>
   <g id="line2d_10">
    <path d="M 86.326761 104.61447 
L 143.898277 311.329948 
L 201.469792 345.377482 
L 259.041307 350.764959 
L 316.612822 351.88912 
L 374.184337 352.216381 
L 431.755852 352.408218 
L 489.327367 352.517788 
L 546.898883 352.557037 
L 604.470398 346.279804 
L 662.041913 352.356652 
L 719.613428 350.454938 
L 777.184943 351.88711 
L 834.756458 352.890135 
L 892.327973 353.2239 
L 949.899489 352.846459 
" clip-path="url(#p74457e3128)" style="fill: none; stroke: #5cb85c; stroke-linecap: square"/>
   </g>
   <g id="line2d_11">
    <path d="M 86.326761 107.862187 
L 143.898277 308.073812 
L 201.469792 344.503945 
L 259.041307 350.838798 
L 316.612822 351.905884 
L 374.184337 352.147277 
L 431.755852 352.352184 
L 489.327367 352.390347 
L 546.898883 352.445175 
L 604.470398 346.459113 
L 662.041913 352.533044 
L 719.613428 350.260292 
L 777.184943 352.200947 
L 834.756458 353.193596 
L 892.327973 353.2239 
L 949.899489 353.2239 
" clip-path="url(#p74457e3128)" style="fill: none; stroke: #5cb85c; stroke-linecap: square"/>
   </g>
   <g id="line2d_12">
    <path d="M 86.326761 105.570646 
L 143.898277 310.055429 
L 201.469792 344.941709 
L 259.041307 350.844848 
L 316.612822 351.779682 
L 374.184337 352.293047 
L 431.755852 352.272659 
L 489.327367 352.469143 
L 546.898883 352.524269 
L 604.470398 346.63078 
L 662.041913 352.525179 
L 719.613428 350.31394 
L 777.184943 352.31338 
L 834.756458 353.158342 
L 892.327973 353.2239 
L 949.899489 352.697447 
" clip-path="url(#p74457e3128)" style="fill: none; stroke: #5cb85c; stroke-linecap: square"/>
   </g>
   <g id="line2d_13">
    <path d="M 86.326761 114.991066 
L 143.898277 308.090553 
L 201.469792 344.037869 
L 259.041307 350.547225 
L 316.612822 351.824135 
L 374.184337 352.211889 
L 431.755852 352.293742 
L 489.327367 352.568056 
L 546.898883 352.558074 
L 604.470398 340.283646 
L 662.041913 352.363353 
L 719.613428 349.863571 
L 777.184943 352.458332 
L 834.756458 353.075088 
L 892.327973 353.2239 
L 949.899489 353.2239 
" clip-path="url(#p74457e3128)" style="fill: none; stroke: #5cb85c; stroke-linecap: square"/>
   </g>
   <g id="line2d_14">
    <path d="M 86.326761 112.218823 
L 143.898277 309.46907 
L 201.469792 344.706375 
L 259.041307 350.775151 
L 316.612822 351.9244 
L 374.184337 352.257768 
L 431.755852 352.43982 
L 489.327367 352.445424 
L 546.898883 352.542415 
L 604.470398 340.93114 
L 662.041913 352.411457 
L 719.613428 350.015629 
L 777.184943 352.469913 
L 834.756458 353.106441 
L 892.327973 353.2239 
L 949.899489 352.676674 
" clip-path="url(#p74457e3128)" style="fill: none; stroke: #5cb85c; stroke-linecap: square"/>
   </g>
   <g id="line2d_15">
    <path d="M 86.326761 116.216326 
L 143.898277 311.086112 
L 201.469792 345.053456 
L 259.041307 350.990718 
L 316.612822 352.148441 
L 374.184337 352.474245 
L 431.755852 352.557204 
L 489.327367 352.605644 
L 546.898883 352.715629 
L 604.470398 342.043387 
L 662.041913 345.752545 
L 719.613428 348.509365 
L 777.184943 352.236462 
L 834.756458 352.777065 
L 892.327973 353.2239 
L 949.899489 353.2239 
" clip-path="url(#p74457e3128)" style="fill: none; stroke: #5cb85c; stroke-linecap: square"/>
   </g>
   <g id="line2d_16">
    <path d="M 86.326761 114.588275 
L 143.898277 312.402258 
L 201.469792 345.372247 
L 259.041307 350.995355 
L 316.612822 352.057502 
L 374.184337 352.392229 
L 431.755852 352.484354 
L 489.327367 352.638096 
L 546.898883 352.722427 
L 604.470398 342.239495 
L 662.041913 345.979062 
L 719.613428 348.657901 
L 777.184943 352.296195 
L 834.756458 352.803721 
L 892.327973 353.2239 
L 949.899489 352.761383 
" clip-path="url(#p74457e3128)" style="fill: none; stroke: #5cb85c; stroke-linecap: square"/>
   </g>
   <g id="line2d_17">
    <path d="M 86.326761 110.819461 
L 143.898277 308.092751 
L 201.469792 344.1886 
L 259.041307 350.674339 
L 316.612822 352.08149 
L 374.184337 352.36544 
L 431.755852 352.519737 
L 489.327367 352.697812 
L 546.898883 352.731459 
L 604.470398 342.885744 
L 662.041913 351.832169 
L 719.613428 350.907972 
L 777.184943 352.396914 
L 834.756458 352.972711 
L 892.327973 353.2239 
L 949.899489 353.2239 
" clip-path="url(#p74457e3128)" style="fill: none; stroke: #5cb85c; stroke-linecap: square"/>
   </g>
   <g id="line2d_18">
    <path d="M 86.326761 108.531853 
L 143.898277 309.675727 
L 201.469792 344.595688 
L 259.041307 350.718029 
L 316.612822 352.124022 
L 374.184337 352.366266 
L 431.755852 352.526846 
L 489.327367 352.71445 
L 546.898883 352.670453 
L 604.470398 343.234544 
L 662.041913 352.091759 
L 719.613428 350.975291 
L 777.184943 352.441449 
L 834.756458 352.940074 
L 892.327973 353.2239 
L 949.899489 352.78405 
" clip-path="url(#p74457e3128)" style="fill: none; stroke: #5cb85c; stroke-linecap: square"/>
   </g>
   <g id="line2d_19">
    <path d="M 86.326761 116.748256 
L 143.898277 312.395472 
L 201.469792 345.690143 
L 259.041307 351.076743 
L 316.612822 351.973517 
L 374.184337 352.412023 
L 431.755852 352.494468 
L 489.327367 352.664035 
L 546.898883 352.664801 
L 604.470398 341.622816 
L 662.041913 344.407871 
L 719.613428 347.958435 
L 777.184943 352.227991 
L 834.756458 352.83003 
L 892.327973 353.2239 
L 949.899489 353.2239 
" clip-path="url(#p74457e3128)" style="fill: none; stroke: #5cb85c; stroke-linecap: square"/>
   </g>
   <g id="line2d_20">
    <path d="M 86.326761 114.525149 
L 143.898277 313.525756 
L 201.469792 346.05027 
L 259.041307 351.112328 
L 316.612822 351.993064 
L 374.184337 352.368054 
L 431.755852 352.558518 
L 489.327367 352.689911 
L 546.898883 352.729334 
L 604.470398 341.762562 
L 662.041913 344.905422 
L 719.613428 348.406562 
L 777.184943 352.341326 
L 834.756458 352.793804 
L 892.327973 353.2239 
L 949.899489 352.628441 
" clip-path="url(#p74457e3128)" style="fill: none; stroke: #5cb85c; stroke-linecap: square"/>
   </g>
   <g id="line2d_21">
    <path d="M 86.326761 112.187914 
L 143.898277 311.085559 
L 201.469792 345.459848 
L 259.041307 350.977496 
L 316.612822 352.019353 
L 374.184337 352.304448 
L 431.755852 352.422174 
L 489.327367 352.573196 
L 546.898883 352.573514 
L 604.470398 340.369136 
L 662.041913 350.455648 
L 719.613428 350.056417 
L 777.184943 351.923788 
L 834.756458 352.758111 
L 892.327973 353.2239 
L 949.899489 353.2239 
" clip-path="url(#p74457e3128)" style="fill: none; stroke: #5cb85c; stroke-linecap: square"/>
   </g>
   <g id="line2d_22">
    <path d="M 86.326761 109.618504 
L 143.898277 312.821915 
L 201.469792 345.676138 
L 259.041307 351.111888 
L 316.612822 352.118684 
L 374.184337 352.317893 
L 431.755852 352.47726 
L 489.327367 352.506107 
L 546.898883 352.603128 
L 604.470398 340.720353 
L 662.041913 350.792343 
L 719.613428 350.130664 
L 777.184943 352.009479 
L 834.756458 352.773196 
L 892.327973 353.2239 
L 949.899489 352.712948 
" clip-path="url(#p74457e3128)" style="fill: none; stroke: #5cb85c; stroke-linecap: square"/>
   </g>
   <g id="line2d_23">
    <path d="M 86.326761 118.222614 
L 143.898277 315.589651 
L 201.469792 345.497439 
L 259.041307 350.713826 
L 316.612822 351.548078 
L 374.184337 352.058885 
L 431.755852 352.275594 
L 489.327367 352.356783 
L 546.898883 352.45834 
L 604.470398 335.978025 
L 662.041913 347.705484 
L 719.613428 348.675453 
L 777.184943 351.373766 
L 834.756458 352.712661 
L 892.327973 353.2239 
L 949.899489 353.2239 
" clip-path="url(#p74457e3128)" style="fill: none; stroke: #5cb85c; stroke-linecap: square"/>
   </g>
   <g id="line2d_24">
    <path d="M 86.326761 115.428363 
L 143.898277 317.122623 
L 201.469792 346.093536 
L 259.041307 350.652371 
L 316.612822 351.675133 
L 374.184337 352.072216 
L 431.755852 352.234651 
L 489.327367 352.447168 
L 546.898883 352.565343 
L 604.470398 335.989053 
L 662.041913 348.457337 
L 719.613428 348.911425 
L 777.184943 351.494625 
L 834.756458 352.678037 
L 892.327973 353.2239 
L 949.899489 352.568619 
" clip-path="url(#p74457e3128)" style="fill: none; stroke: #5cb85c; stroke-linecap: square"/>
   </g>
   <g id="line2d_25">
    <path d="M 86.326761 107.073017 
L 143.898277 313.872436 
L 201.469792 345.842119 
L 259.041307 350.625143 
L 316.612822 351.594781 
L 374.184337 351.97942 
L 431.755852 352.165348 
L 489.327367 352.220217 
L 546.898883 352.302121 
L 604.470398 343.777652 
L 662.041913 352.450314 
L 719.613428 348.948196 
L 777.184943 351.596777 
L 834.756458 352.719059 
L 892.327973 353.2239 
L 949.899489 353.2239 
" clip-path="url(#p74457e3128)" style="fill: none; stroke: #5cb85c; stroke-linecap: square"/>
   </g>
   <g id="line2d_26">
    <path d="M 86.326761 105.2802 
L 143.898277 315.219246 
L 201.469792 346.045632 
L 259.041307 350.531844 
L 316.612822 351.589566 
L 374.184337 352.051025 
L 431.755852 352.107913 
L 489.327367 352.240519 
L 546.898883 352.407727 
L 604.470398 344.251863 
L 662.041913 352.413852 
L 719.613428 348.979968 
L 777.184943 351.823141 
L 834.756458 352.738094 
L 892.327973 353.2239 
L 949.899489 352.709911 
" clip-path="url(#p74457e3128)" style="fill: none; stroke: #5cb85c; stroke-linecap: square"/>
   </g>
   <g id="line2d_27">
    <path d="M 86.326761 109.529668 
L 143.898277 315.064068 
L 201.469792 345.826102 
L 259.041307 350.674391 
L 316.612822 351.682259 
L 374.184337 352.0283 
L 431.755852 352.173066 
L 489.327367 352.296699 
L 546.898883 352.41502 
L 604.470398 340.91937 
L 662.041913 351.731304 
L 719.613428 350.248481 
L 777.184943 350.563498 
L 834.756458 352.014373 
L 892.327973 353.2239 
L 949.899489 353.2239 
" clip-path="url(#p74457e3128)" style="fill: none; stroke: #5cb85c; stroke-linecap: square"/>
   </g>
   <g id="line2d_28">
    <path d="M 86.326761 106.909414 
L 143.898277 316.651015 
L 201.469792 346.168567 
L 259.041307 350.752425 
L 316.612822 351.655309 
L 374.184337 351.991367 
L 431.755852 352.282608 
L 489.327367 352.32328 
L 546.898883 352.386875 
L 604.470398 341.766879 
L 662.041913 351.840244 
L 719.613428 350.166936 
L 777.184943 350.587047 
L 834.756458 352.237086 
L 892.327973 353.2239 
L 949.899489 352.671448 
" clip-path="url(#p74457e3128)" style="fill: none; stroke: #5cb85c; stroke-linecap: square"/>
   </g>
   <g id="line2d_29">
    <path d="M 86.326761 114.784611 
L 143.898277 316.097403 
L 201.469792 345.850802 
L 259.041307 350.532547 
L 316.612822 351.576814 
L 374.184337 351.949001 
L 431.755852 352.207249 
L 489.327367 352.349373 
L 546.898883 352.405643 
L 604.470398 335.466402 
L 662.041913 351.234003 
L 719.613428 349.018653 
L 777.184943 351.111205 
L 834.756458 352.582894 
L 892.327973 353.2239 
L 949.899489 353.2239 
" clip-path="url(#p74457e3128)" style="fill: none; stroke: #5cb85c; stroke-linecap: square"/>
   </g>
   <g id="line2d_30">
    <path d="M 86.326761 112.261711 
L 143.898277 317.630218 
L 201.469792 345.990544 
L 259.041307 350.722194 
L 316.612822 351.723018 
L 374.184337 351.8698 
L 431.755852 352.095424 
L 489.327367 352.294882 
L 546.898883 352.40923 
L 604.470398 336.270769 
L 662.041913 351.463091 
L 719.613428 349.047085 
L 777.184943 351.216165 
L 834.756458 352.674557 
L 892.327973 353.2239 
L 949.899489 352.721812 
" clip-path="url(#p74457e3128)" style="fill: none; stroke: #5cb85c; stroke-linecap: square"/>
   </g>
   <g id="line2d_31">
    <path d="M 86.326761 142.467996 
L 143.898277 323.878908 
L 201.469792 347.360262 
L 259.041307 350.977741 
L 316.612822 351.752882 
L 374.184337 352.080833 
L 431.755852 352.305001 
L 489.327367 352.456479 
L 546.898883 352.640968 
L 604.470398 337.443867 
L 662.041913 329.281953 
L 719.613428 330.570452 
L 777.184943 351.72127 
L 834.756458 352.227989 
L 892.327973 353.2239 
L 949.899489 353.2239 
" clip-path="url(#p74457e3128)" style="fill: none; stroke: #5cb85c; stroke-linecap: square"/>
   </g>
   <g id="line2d_32">
    <path d="M 86.326761 139.38052 
L 143.898277 325.034298 
L 201.469792 347.686969 
L 259.041307 350.993064 
L 316.612822 351.683733 
L 374.184337 352.027054 
L 431.755852 352.305933 
L 489.327367 352.390665 
L 546.898883 352.60279 
L 604.470398 337.466657 
L 662.041913 329.694332 
L 719.613428 332.833766 
L 777.184943 351.804579 
L 834.756458 352.271558 
L 892.327973 353.2239 
L 949.899489 352.214582 
" clip-path="url(#p74457e3128)" style="fill: none; stroke: #5cb85c; stroke-linecap: square"/>
   </g>
   <g id="line2d_33">
    <path d="M 86.326761 123.300164 
L 143.898277 314.772937 
L 201.469792 345.233526 
L 259.041307 350.58286 
L 316.612822 351.659271 
L 374.184337 352.126708 
L 431.755852 352.390181 
L 489.327367 352.37526 
L 546.898883 352.492328 
L 604.470398 336.086236 
L 662.041913 343.761388 
L 719.613428 348.486635 
L 777.184943 351.400873 
L 834.756458 352.498234 
L 892.327973 353.2239 
L 949.899489 353.2239 
" clip-path="url(#p74457e3128)" style="fill: none; stroke: #5cb85c; stroke-linecap: square"/>
   </g>
   <g id="line2d_34">
    <path d="M 86.326761 121.036819 
L 143.898277 316.098218 
L 201.469792 345.651269 
L 259.041307 350.455706 
L 316.612822 351.694336 
L 374.184337 352.079687 
L 431.755852 352.256902 
L 489.327367 352.490847 
L 546.898883 352.505533 
L 604.470398 336.467447 
L 662.041913 344.334145 
L 719.613428 348.589007 
L 777.184943 351.661015 
L 834.756458 352.370766 
L 892.327973 353.2239 
L 949.899489 352.698804 
" clip-path="url(#p74457e3128)" style="fill: none; stroke: #5cb85c; stroke-linecap: square"/>
   </g>
   <g id="line2d_35">
    <path d="M 86.326761 138.48049 
L 143.898277 316.730324 
L 201.469792 345.493913 
L 259.041307 350.458102 
L 316.612822 351.449176 
L 374.184337 352.004896 
L 431.755852 352.339325 
L 489.327367 352.424162 
L 546.898883 352.575122 
L 604.470398 341.463017 
L 662.041913 339.11451 
L 719.613428 331.190336 
L 777.184943 351.485251 
L 834.756458 351.957978 
L 892.327973 353.2239 
L 949.899489 353.2239 
" clip-path="url(#p74457e3128)" style="fill: none; stroke: #5cb85c; stroke-linecap: square"/>
   </g>
   <g id="line2d_36">
    <path d="M 86.326761 135.143238 
L 143.898277 318.290331 
L 201.469792 345.781163 
L 259.041307 350.58339 
L 316.612822 351.777887 
L 374.184337 351.981368 
L 431.755852 352.313207 
L 489.327367 352.444473 
L 546.898883 352.511865 
L 604.470398 341.529885 
L 662.041913 338.739115 
L 719.613428 332.987831 
L 777.184943 351.684392 
L 834.756458 352.00011 
L 892.327973 353.2239 
L 949.899489 352.622244 
" clip-path="url(#p74457e3128)" style="fill: none; stroke: #5cb85c; stroke-linecap: square"/>
   </g>
   <g id="line2d_37">
    <path d="M 86.326761 118.768831 
L 143.898277 317.397581 
L 201.469792 346.409488 
L 259.041307 350.927547 
L 316.612822 351.698776 
L 374.184337 352.027134 
L 431.755852 352.177808 
L 489.327367 352.392856 
L 546.898883 352.43488 
L 604.470398 331.535373 
L 662.041913 348.643425 
L 719.613428 348.405341 
L 777.184943 351.597684 
L 834.756458 352.749877 
L 892.327973 353.2239 
L 949.899489 353.2239 
" clip-path="url(#p74457e3128)" style="fill: none; stroke: #5cb85c; stroke-linecap: square"/>
   </g>
   <g id="line2d_38">
    <path d="M 86.326761 116.165876 
L 143.898277 318.371839 
L 201.469792 346.635818 
L 259.041307 350.92317 
L 316.612822 351.739171 
L 374.184337 352.138337 
L 431.755852 352.206354 
L 489.327367 352.467236 
L 546.898883 352.437891 
L 604.470398 332.167281 
L 662.041913 349.350252 
L 719.613428 348.668421 
L 777.184943 351.662209 
L 834.756458 352.765095 
L 892.327973 353.2239 
L 949.899489 352.691552 
" clip-path="url(#p74457e3128)" style="fill: none; stroke: #5cb85c; stroke-linecap: square"/>
   </g>
   <g id="line2d_39">
    <path d="M 86.326761 130.865133 
L 143.898277 318.167085 
L 201.469792 346.502759 
L 259.041307 351.139015 
L 316.612822 351.860479 
L 374.184337 352.119635 
L 431.755852 352.172902 
L 489.327367 352.417918 
L 546.898883 352.520431 
L 604.470398 341.700829 
L 662.041913 346.111871 
L 719.613428 339.648019 
L 777.184943 352.184149 
L 834.756458 346.288019 
L 892.327973 352.27186 
L 949.899489 347.644297 
" clip-path="url(#p74457e3128)" style="fill: none; stroke: #5cb85c; stroke-linecap: square"/>
   </g>
   <g id="line2d_40">
    <path d="M 86.326761 130.794517 
L 143.898277 318.203368 
L 201.469792 346.604782 
L 259.041307 351.082264 
L 316.612822 351.942728 
L 374.184337 352.056332 
L 431.755852 352.258288 
L 489.327367 352.44556 
L 546.898883 352.541984 
L 604.470398 341.516813 
L 662.041913 346.101015 
L 719.613428 339.799987 
L 777.184943 352.181851 
L 834.756458 346.414773 
L 892.327973 352.394472 
L 949.899489 347.275663 
" clip-path="url(#p74457e3128)" style="fill: none; stroke: #5cb85c; stroke-linecap: square"/>
   </g>
   <g id="line2d_41">
    <path d="M 86.326761 166.304962 
L 143.898277 309.536102 
L 201.469792 342.804781 
L 259.041307 350.118313 
L 316.612822 351.717339 
L 374.184337 352.151815 
L 431.755852 352.264799 
L 489.327367 352.410387 
L 546.898883 352.476958 
L 604.470398 342.077837 
L 662.041913 347.550631 
L 719.613428 322.4587 
L 777.184943 348.348871 
L 834.756458 347.079245 
L 892.327973 351.277811 
L 949.899489 345.035848 
" clip-path="url(#p74457e3128)" style="fill: none; stroke: #f0ad4e; stroke-linecap: square"/>
   </g>
   <g id="line2d_42">
    <path d="M 86.326761 162.955981 
L 143.898277 311.214871 
L 201.469792 343.275031 
L 259.041307 350.073586 
L 316.612822 351.732926 
L 374.184337 352.076399 
L 431.755852 352.247836 
L 489.327367 352.419723 
L 546.898883 352.468633 
L 604.470398 342.011076 
L 662.041913 347.684673 
L 719.613428 324.142427 
L 777.184943 349.001428 
L 834.756458 346.965318 
L 892.327973 350.482651 
L 949.899489 344.861841 
" clip-path="url(#p74457e3128)" style="fill: none; stroke: #f0ad4e; stroke-linecap: square"/>
   </g>
   <g id="line2d_43">
    <path d="M 86.326761 130.77491 
L 143.898277 316.051265 
L 201.469792 345.744668 
L 259.041307 350.473636 
L 316.612822 351.690968 
L 374.184337 352.080483 
L 431.755852 352.24972 
L 489.327367 352.354902 
L 546.898883 352.529724 
L 604.470398 338.73574 
L 662.041913 341.959341 
L 719.613428 342.41819 
L 777.184943 350.90571 
L 834.756458 349.642262 
L 892.327973 352.77898 
L 949.899489 353.2239 
" clip-path="url(#p74457e3128)" style="fill: none; stroke: #5cb85c; stroke-linecap: square"/>
   </g>
   <g id="line2d_44">
    <path d="M 86.326761 127.837777 
L 143.898277 316.613751 
L 201.469792 346.171068 
L 259.041307 350.913886 
L 316.612822 351.749801 
L 374.184337 351.985507 
L 431.755852 352.235522 
L 489.327367 352.362708 
L 546.898883 352.44392 
L 604.470398 339.175984 
L 662.041913 342.12755 
L 719.613428 343.341407 
L 777.184943 351.087602 
L 834.756458 349.693643 
L 892.327973 352.918779 
L 949.899489 352.955494 
" clip-path="url(#p74457e3128)" style="fill: none; stroke: #5cb85c; stroke-linecap: square"/>
   </g>
   <g id="line2d_45">
    <path d="M 86.326761 127.238324 
L 143.898277 313.599175 
L 201.469792 345.538895 
L 259.041307 350.858003 
L 316.612822 351.834722 
L 374.184337 352.009798 
L 431.755852 352.189408 
L 489.327367 352.307705 
L 546.898883 352.452152 
L 604.470398 338.781885 
L 662.041913 343.219659 
L 719.613428 346.980647 
L 777.184943 351.162488 
L 834.756458 349.587439 
L 892.327973 352.6302 
L 949.899489 353.2239 
" clip-path="url(#p74457e3128)" style="fill: none; stroke: #5cb85c; stroke-linecap: square"/>
   </g>
   <g id="line2d_46">
    <path d="M 86.326761 124.382928 
L 143.898277 315.181628 
L 201.469792 345.626711 
L 259.041307 350.712455 
L 316.612822 351.780037 
L 374.184337 352.014394 
L 431.755852 352.191159 
L 489.327367 352.44788 
L 546.898883 352.403839 
L 604.470398 338.855863 
L 662.041913 343.990904 
L 719.613428 347.330386 
L 777.184943 351.26633 
L 834.756458 349.681561 
L 892.327973 352.783161 
L 949.899489 352.965163 
" clip-path="url(#p74457e3128)" style="fill: none; stroke: #5cb85c; stroke-linecap: square"/>
   </g>
   <g id="line2d_47">
    <path d="M 86.326761 129.282569 
L 143.898277 313.287442 
L 201.469792 344.875714 
L 259.041307 350.607929 
L 316.612822 351.604537 
L 374.184337 352.064754 
L 431.755852 352.203592 
L 489.327367 352.312251 
L 546.898883 352.29244 
L 604.470398 337.979592 
L 662.041913 343.241772 
L 719.613428 346.758844 
L 777.184943 350.892325 
L 834.756458 350.07199 
L 892.327973 352.914748 
L 949.899489 353.2239 
" clip-path="url(#p74457e3128)" style="fill: none; stroke: #5cb85c; stroke-linecap: square"/>
   </g>
   <g id="line2d_48">
    <path d="M 86.326761 127.271992 
L 143.898277 314.105881 
L 201.469792 345.351417 
L 259.041307 350.577806 
L 316.612822 351.615557 
L 374.184337 352.091838 
L 431.755852 352.111903 
L 489.327367 352.144759 
L 546.898883 352.380174 
L 604.470398 338.173973 
L 662.041913 343.552493 
L 719.613428 347.090321 
L 777.184943 350.99179 
L 834.756458 350.230844 
L 892.327973 352.699752 
L 949.899489 353.2239 
" clip-path="url(#p74457e3128)" style="fill: none; stroke: #5cb85c; stroke-linecap: square"/>
   </g>
   <g id="line2d_49">
    <path d="M 86.326761 201.112468 
L 143.898277 325.033114 
L 201.469792 346.985087 
L 259.041307 350.945321 
L 316.612822 351.689999 
L 374.184337 352.037649 
L 431.755852 352.253367 
L 489.327367 352.372096 
L 546.898883 352.487278 
L 604.470398 343.071779 
L 662.041913 344.16012 
L 719.613428 260.811439 
L 777.184943 344.333468 
L 834.756458 350.201296 
L 892.327973 352.89602 
L 949.899489 353.2239 
" clip-path="url(#p74457e3128)" style="fill: none; stroke: #f0ad4e; stroke-linecap: square"/>
   </g>
   <g id="line2d_50">
    <path d="M 86.326761 197.220928 
L 143.898277 325.728577 
L 201.469792 346.910237 
L 259.041307 350.924786 
L 316.612822 351.719414 
L 374.184337 352.065753 
L 431.755852 352.152042 
L 489.327367 352.287483 
L 546.898883 352.381283 
L 604.470398 342.401528 
L 662.041913 344.0522 
L 719.613428 264.121997 
L 777.184943 345.291902 
L 834.756458 350.490525 
L 892.327973 352.641846 
L 949.899489 353.2239 
" clip-path="url(#p74457e3128)" style="fill: none; stroke: #f0ad4e; stroke-linecap: square"/>
   </g>
   <g id="line2d_51">
    <path d="M 86.326761 196.264544 
L 143.898277 320.476536 
L 201.469792 345.568356 
L 259.041307 350.581983 
L 316.612822 351.654573 
L 374.184337 351.922616 
L 431.755852 352.170161 
L 489.327367 352.355114 
L 546.898883 352.421396 
L 604.470398 342.902346 
L 662.041913 345.141624 
L 719.613428 269.950699 
L 777.184943 346.415096 
L 834.756458 349.480703 
L 892.327973 353.084754 
L 949.899489 353.2239 
" clip-path="url(#p74457e3128)" style="fill: none; stroke: #f0ad4e; stroke-linecap: square"/>
   </g>
   <g id="line2d_52">
    <path d="M 86.326761 192.199382 
L 143.898277 321.475851 
L 201.469792 345.804825 
L 259.041307 350.530951 
L 316.612822 351.605004 
L 374.184337 351.944616 
L 431.755852 352.137889 
L 489.327367 352.17725 
L 546.898883 352.365822 
L 604.470398 342.399977 
L 662.041913 344.794714 
L 719.613428 273.262569 
L 777.184943 347.071274 
L 834.756458 349.666133 
L 892.327973 353.2239 
L 949.899489 352.954243 
" clip-path="url(#p74457e3128)" style="fill: none; stroke: #f0ad4e; stroke-linecap: square"/>
   </g>
   <g id="line2d_53">
    <path d="M 86.326761 197.15735 
L 143.898277 319.412668 
L 201.469792 345.084208 
L 259.041307 350.479659 
L 316.612822 351.726129 
L 374.184337 352.093578 
L 431.755852 352.163671 
L 489.327367 352.273482 
L 546.898883 352.431387 
L 604.470398 343.465068 
L 662.041913 346.437342 
L 719.613428 271.874162 
L 777.184943 344.19332 
L 834.756458 348.755681 
L 892.327973 352.842796 
L 949.899489 353.2239 
" clip-path="url(#p74457e3128)" style="fill: none; stroke: #f0ad4e; stroke-linecap: square"/>
   </g>
   <g id="line2d_54">
    <path d="M 86.326761 194.30709 
L 143.898277 319.59718 
L 201.469792 345.342472 
L 259.041307 350.497144 
L 316.612822 351.650643 
L 374.184337 352.02436 
L 431.755852 352.155228 
L 489.327367 352.284659 
L 546.898883 352.402054 
L 604.470398 343.056849 
L 662.041913 346.362882 
L 719.613428 273.932602 
L 777.184943 345.002229 
L 834.756458 349.055365 
L 892.327973 352.976247 
L 949.899489 352.967395 
" clip-path="url(#p74457e3128)" style="fill: none; stroke: #f0ad4e; stroke-linecap: square"/>
   </g>
   <g id="line2d_55">
    <path d="M 86.326761 125.869012 
L 143.898277 311.078598 
L 201.469792 344.438549 
L 259.041307 350.520546 
L 316.612822 351.499081 
L 374.184337 351.908977 
L 431.755852 352.080013 
L 489.327367 352.302829 
L 546.898883 352.416522 
L 604.470398 337.408823 
L 662.041913 348.478889 
L 719.613428 349.409533 
L 777.184943 350.551446 
L 834.756458 349.524361 
L 892.327973 352.903322 
L 949.899489 353.2239 
" clip-path="url(#p74457e3128)" style="fill: none; stroke: #5cb85c; stroke-linecap: square"/>
   </g>
   <g id="line2d_56">
    <path d="M 86.326761 123.586342 
L 143.898277 311.881337 
L 201.469792 344.807123 
L 259.041307 350.391162 
L 316.612822 351.703889 
L 374.184337 351.898686 
L 431.755852 352.110697 
L 489.327367 352.343259 
L 546.898883 352.390656 
L 604.470398 337.891704 
L 662.041913 348.83382 
L 719.613428 349.440125 
L 777.184943 350.647375 
L 834.756458 349.786601 
L 892.327973 352.929021 
L 949.899489 352.972604 
" clip-path="url(#p74457e3128)" style="fill: none; stroke: #5cb85c; stroke-linecap: square"/>
   </g>
   <g id="line2d_57">
    <path d="M 86.326761 121.871258 
L 143.898277 308.373326 
L 201.469792 343.943844 
L 259.041307 350.492928 
L 316.612822 351.474902 
L 374.184337 351.996283 
L 431.755852 352.044809 
L 489.327367 352.166789 
L 546.898883 352.213319 
L 604.470398 341.790755 
L 662.041913 351.338243 
L 719.613428 349.279222 
L 777.184943 351.267946 
L 834.756458 349.2716 
L 892.327973 352.865275 
L 949.899489 353.2239 
" clip-path="url(#p74457e3128)" style="fill: none; stroke: #5cb85c; stroke-linecap: square"/>
   </g>
   <g id="line2d_58">
    <path d="M 86.326761 119.346447 
L 143.898277 309.969449 
L 201.469792 344.363993 
L 259.041307 350.404787 
L 316.612822 351.474469 
L 374.184337 351.929884 
L 431.755852 352.091985 
L 489.327367 352.309464 
L 546.898883 352.305609 
L 604.470398 342.11388 
L 662.041913 351.37195 
L 719.613428 349.336124 
L 777.184943 351.247558 
L 834.756458 349.618334 
L 892.327973 352.506567 
L 949.899489 353.2239 
" clip-path="url(#p74457e3128)" style="fill: none; stroke: #5cb85c; stroke-linecap: square"/>
   </g>
   <g id="line2d_59">
    <path d="M 86.326761 119.739066 
L 143.898277 308.990057 
L 201.469792 343.832627 
L 259.041307 350.299839 
L 316.612822 351.352212 
L 374.184337 351.724376 
L 431.755852 352.138589 
L 489.327367 352.168005 
L 546.898883 352.374135 
L 604.470398 343.951377 
L 662.041913 351.501751 
L 719.613428 348.851538 
L 777.184943 351.063935 
L 834.756458 349.567163 
L 892.327973 352.835831 
L 949.899489 353.2239 
" clip-path="url(#p74457e3128)" style="fill: none; stroke: #5cb85c; stroke-linecap: square"/>
   </g>
   <g id="line2d_60">
    <path d="M 86.326761 117.203776 
L 143.898277 310.041292 
L 201.469792 344.316812 
L 259.041307 350.231996 
L 316.612822 351.275418 
L 374.184337 351.859149 
L 431.755852 352.106076 
L 489.327367 352.208786 
L 546.898883 352.383198 
L 604.470398 344.71681 
L 662.041913 351.547304 
L 719.613428 349.011795 
L 777.184943 351.228259 
L 834.756458 349.605583 
L 892.327973 352.654246 
L 949.899489 353.2239 
" clip-path="url(#p74457e3128)" style="fill: none; stroke: #5cb85c; stroke-linecap: square"/>
   </g>
   <g id="line2d_61">
    <path d="M 86.326761 199.094932 
L 143.898277 321.170507 
L 201.469792 345.976058 
L 259.041307 350.678962 
L 316.612822 351.708182 
L 374.184337 352.051409 
L 431.755852 352.238352 
L 489.327367 352.381294 
L 546.898883 352.484704 
L 604.470398 343.703701 
L 662.041913 346.510627 
L 719.613428 268.90095 
L 777.184943 341.487999 
L 834.756458 349.208255 
L 892.327973 352.794569 
L 949.899489 353.2239 
" clip-path="url(#p74457e3128)" style="fill: none; stroke: #f0ad4e; stroke-linecap: square"/>
   </g>
   <g id="line2d_62">
    <path d="M 86.326761 195.471618 
L 143.898277 321.843633 
L 201.469792 346.096622 
L 259.041307 350.712985 
L 316.612822 351.656366 
L 374.184337 352.008877 
L 431.755852 352.22627 
L 489.327367 352.309181 
L 546.898883 352.423967 
L 604.470398 343.388849 
L 662.041913 346.424351 
L 719.613428 270.660264 
L 777.184943 343.256035 
L 834.756458 349.445848 
L 892.327973 352.811495 
L 949.899489 352.87804 
" clip-path="url(#p74457e3128)" style="fill: none; stroke: #f0ad4e; stroke-linecap: square"/>
   </g>
   <g id="line2d_63">
    <path d="M 86.326761 192.117437 
L 143.898277 321.031157 
L 201.469792 345.995344 
L 259.041307 350.568525 
L 316.612822 351.744208 
L 374.184337 352.041698 
L 431.755852 352.229623 
L 489.327367 352.38253 
L 546.898883 352.486783 
L 604.470398 343.375867 
L 662.041913 346.211759 
L 719.613428 275.437104 
L 777.184943 342.418041 
L 834.756458 349.402256 
L 892.327973 352.948169 
L 949.899489 353.2239 
" clip-path="url(#p74457e3128)" style="fill: none; stroke: #f0ad4e; stroke-linecap: square"/>
   </g>
   <g id="line2d_64">
    <path d="M 86.326761 188.639797 
L 143.898277 321.712916 
L 201.469792 346.133886 
L 259.041307 350.815537 
L 316.612822 351.702979 
L 374.184337 351.977702 
L 431.755852 352.104334 
L 489.327367 352.263914 
L 546.898883 352.427562 
L 604.470398 342.66026 
L 662.041913 346.141219 
L 719.613428 277.417568 
L 777.184943 343.945453 
L 834.756458 349.879628 
L 892.327973 352.851761 
L 949.899489 352.939883 
" clip-path="url(#p74457e3128)" style="fill: none; stroke: #f0ad4e; stroke-linecap: square"/>
   </g>
   <g id="line2d_65">
    <path d="M 86.326761 187.42317 
L 143.898277 319.75461 
L 201.469792 345.600272 
L 259.041307 350.612382 
L 316.612822 351.647324 
L 374.184337 352.00757 
L 431.755852 352.210669 
L 489.327367 352.396812 
L 546.898883 352.422802 
L 604.470398 343.228979 
L 662.041913 345.769332 
L 719.613428 278.280902 
L 777.184943 346.202794 
L 834.756458 349.860443 
L 892.327973 352.972437 
L 949.899489 353.2239 
" clip-path="url(#p74457e3128)" style="fill: none; stroke: #f0ad4e; stroke-linecap: square"/>
   </g>
   <g id="line2d_66">
    <path d="M 86.326761 184.21528 
L 143.898277 320.712872 
L 201.469792 345.667502 
L 259.041307 350.677083 
L 316.612822 351.645175 
L 374.184337 351.94191 
L 431.755852 352.144121 
L 489.327367 352.258669 
L 546.898883 352.417824 
L 604.470398 342.618409 
L 662.041913 345.834241 
L 719.613428 280.639919 
L 777.184943 346.709356 
L 834.756458 350.079037 
L 892.327973 353.107463 
L 949.899489 352.945539 
" clip-path="url(#p74457e3128)" style="fill: none; stroke: #f0ad4e; stroke-linecap: square"/>
   </g>
   <g id="line2d_67">
    <path d="M 86.326761 140.290972 
L 143.898277 313.866245 
L 201.469792 345.314942 
L 259.041307 350.718552 
L 316.612822 351.78738 
L 374.184337 352.047449 
L 431.755852 352.256465 
L 489.327367 352.484682 
L 546.898883 352.418749 
L 604.470398 340.980942 
L 662.041913 344.981115 
L 719.613428 333.264649 
L 777.184943 350.836859 
L 834.756458 347.673513 
L 892.327973 351.899563 
L 949.899489 352.792325 
" clip-path="url(#p74457e3128)" style="fill: none; stroke: #5cb85c; stroke-linecap: square"/>
   </g>
   <g id="line2d_68">
    <path d="M 86.326761 137.334998 
L 143.898277 315.572386 
L 201.469792 345.455433 
L 259.041307 350.565507 
L 316.612822 351.748644 
L 374.184337 352.067177 
L 431.755852 352.233623 
L 489.327367 352.400701 
L 546.898883 352.482243 
L 604.470398 340.87452 
L 662.041913 345.26277 
L 719.613428 334.270538 
L 777.184943 350.731009 
L 834.756458 348.71836 
L 892.327973 351.814635 
L 949.899489 352.081856 
" clip-path="url(#p74457e3128)" style="fill: none; stroke: #5cb85c; stroke-linecap: square"/>
   </g>
   <g id="line2d_69">
    <path d="M 86.326761 213.061477 
L 143.898277 324.063881 
L 201.469792 346.42439 
L 259.041307 350.85774 
L 316.612822 351.923049 
L 374.184337 352.125424 
L 431.755852 352.286197 
L 489.327367 352.385974 
L 546.898883 352.431409 
L 604.470398 343.385318 
L 662.041913 349.026761 
L 719.613428 306.372893 
L 777.184943 301.671305 
L 834.756458 342.470841 
L 892.327973 352.148661 
L 949.899489 342.97908 
" clip-path="url(#p74457e3128)" style="fill: none; stroke: #f0ad4e; stroke-linecap: square"/>
   </g>
   <g id="line2d_70">
    <path d="M 86.326761 209.956712 
L 143.898277 324.772441 
L 201.469792 346.510944 
L 259.041307 350.899181 
L 316.612822 351.862539 
L 374.184337 351.966612 
L 431.755852 352.253764 
L 489.327367 352.371528 
L 546.898883 352.528568 
L 604.470398 342.56793 
L 662.041913 349.034522 
L 719.613428 305.679316 
L 777.184943 305.980629 
L 834.756458 342.430834 
L 892.327973 351.787223 
L 949.899489 343.011657 
" clip-path="url(#p74457e3128)" style="fill: none; stroke: #f0ad4e; stroke-linecap: square"/>
   </g>
   <g id="line2d_71">
    <path d="M 43.148125 353.2239 
L 993.078125 353.2239 
" clip-path="url(#p74457e3128)" style="fill: none; stroke: #dedede; stroke-width: 2; stroke-linecap: square"/>
   </g>
   <g id="text_25">
    <!-- FastQC: Sequence Duplication Levels -->
    <g transform="translate(369.699375 19.3575) scale(0.16 -0.16)">
     <defs>
      <path id="DejaVuSans-46" d="M 628 4666 
L 3309 4666 
L 3309 4134 
L 1259 4134 
L 1259 2759 
L 3109 2759 
L 3109 2228 
L 1259 2228 
L 1259 0 
L 628 0 
L 628 4666 
z
" transform="scale(0.015625)"/>
      <path id="DejaVuSans-73" d="M 2834 3397 
L 2834 2853 
Q 2591 2978 2328 3040 
Q 2066 3103 1784 3103 
Q 1356 3103 1142 2972 
Q 928 2841 928 2578 
Q 928 2378 1081 2264 
Q 1234 2150 1697 2047 
L 1894 2003 
Q 2506 1872 2764 1633 
Q 3022 1394 3022 966 
Q 3022 478 2636 193 
Q 2250 -91 1575 -91 
Q 1294 -91 989 -36 
Q 684 19 347 128 
L 347 722 
Q 666 556 975 473 
Q 1284 391 1588 391 
Q 1994 391 2212 530 
Q 2431 669 2431 922 
Q 2431 1156 2273 1281 
Q 2116 1406 1581 1522 
L 1381 1569 
Q 847 1681 609 1914 
Q 372 2147 372 2553 
Q 372 3047 722 3315 
Q 1072 3584 1716 3584 
Q 2034 3584 2315 3537 
Q 2597 3491 2834 3397 
z
" transform="scale(0.015625)"/>
      <path id="DejaVuSans-51" d="M 2522 4238 
Q 1834 4238 1429 3725 
Q 1025 3213 1025 2328 
Q 1025 1447 1429 934 
Q 1834 422 2522 422 
Q 3209 422 3611 934 
Q 4013 1447 4013 2328 
Q 4013 3213 3611 3725 
Q 3209 4238 2522 4238 
z
M 3406 84 
L 4238 -825 
L 3475 -825 
L 2784 -78 
Q 2681 -84 2626 -87 
Q 2572 -91 2522 -91 
Q 1538 -91 948 567 
Q 359 1225 359 2328 
Q 359 3434 948 4092 
Q 1538 4750 2522 4750 
Q 3503 4750 4090 4092 
Q 4678 3434 4678 2328 
Q 4678 1516 4351 937 
Q 4025 359 3406 84 
z
" transform="scale(0.015625)"/>
      <path id="DejaVuSans-43" d="M 4122 4306 
L 4122 3641 
Q 3803 3938 3442 4084 
Q 3081 4231 2675 4231 
Q 1875 4231 1450 3742 
Q 1025 3253 1025 2328 
Q 1025 1406 1450 917 
Q 1875 428 2675 428 
Q 3081 428 3442 575 
Q 3803 722 4122 1019 
L 4122 359 
Q 3791 134 3420 21 
Q 3050 -91 2638 -91 
Q 1578 -91 968 557 
Q 359 1206 359 2328 
Q 359 3453 968 4101 
Q 1578 4750 2638 4750 
Q 3056 4750 3426 4639 
Q 3797 4528 4122 4306 
z
" transform="scale(0.015625)"/>
      <path id="DejaVuSans-3a" d="M 750 794 
L 1409 794 
L 1409 0 
L 750 0 
L 750 794 
z
M 750 3309 
L 1409 3309 
L 1409 2516 
L 750 2516 
L 750 3309 
z
" transform="scale(0.015625)"/>
     </defs>
     <use xlink:href="#DejaVuSans-46"/>
     <use xlink:href="#DejaVuSans-61" x="48.394531"/>
     <use xlink:href="#DejaVuSans-73" x="109.673828"/>
     <use xlink:href="#DejaVuSans-74" x="161.773438"/>
     <use xlink:href="#DejaVuSans-51" x="200.982422"/>
     <use xlink:href="#DejaVuSans-43" x="279.693359"/>
     <use xlink:href="#DejaVuSans-3a" x="349.517578"/>
     <use xlink:href="#DejaVuSans-20" x="383.208984"/>
     <use xlink:href="#DejaVuSans-53" x="414.996094"/>
     <use xlink:href="#DejaVuSans-65" x="478.472656"/>
     <use xlink:href="#DejaVuSans-71" x="539.996094"/>
     <use xlink:href="#DejaVuSans-75" x="603.472656"/>
     <use xlink:href="#DejaVuSans-65" x="666.851562"/>
     <use xlink:href="#DejaVuSans-6e" x="728.375"/>
     <use xlink:href="#DejaVuSans-63" x="791.753906"/>
     <use xlink:href="#DejaVuSans-65" x="846.734375"/>
     <use xlink:href="#DejaVuSans-20" x="908.257812"/>
     <use xlink:href="#DejaVuSans-44" x="940.044922"/>
     <use xlink:href="#DejaVuSans-75" x="1017.046875"/>
     <use xlink:href="#DejaVuSans-70" x="1080.425781"/>
     <use xlink:href="#DejaVuSans-6c" x="1143.902344"/>
     <use xlink:href="#DejaVuSans-69" x="1171.685547"/>
     <use xlink:href="#DejaVuSans-63" x="1199.46875"/>
     <use xlink:href="#DejaVuSans-61" x="1254.449219"/>
     <use xlink:href="#DejaVuSans-74" x="1315.728516"/>
     <use xlink:href="#DejaVuSans-69" x="1354.9375"/>
     <use xlink:href="#DejaVuSans-6f" x="1382.720703"/>
     <use xlink:href="#DejaVuSans-6e" x="1443.902344"/>
     <use xlink:href="#DejaVuSans-20" x="1507.28125"/>
     <use xlink:href="#DejaVuSans-4c" x="1539.068359"/>
     <use xlink:href="#DejaVuSans-65" x="1593.03125"/>
     <use xlink:href="#DejaVuSans-76" x="1654.554688"/>
     <use xlink:href="#DejaVuSans-65" x="1713.734375"/>
     <use xlink:href="#DejaVuSans-6c" x="1775.257812"/>
     <use xlink:href="#DejaVuSans-73" x="1803.041016"/>
    </g>
   </g>
  </g>
 </g>
 <defs>
  <clipPath id="p74457e3128">
   <rect x="43.148125" y="35.2559" width="949.93" height="317.968"/>
  </clipPath>
 </defs>
</svg>
