<?xml version="1.0" encoding="utf-8" standalone="no"?>
<!DOCTYPE svg PUBLIC "-//W3C//DTD SVG 1.1//EN"
  "http://www.w3.org/Graphics/SVG/1.1/DTD/svg11.dtd">
<svg xmlns:xlink="http://www.w3.org/1999/xlink" width="1000.278125pt" height="388.844525pt" viewBox="0 0 1000.278125 388.844525" xmlns="http://www.w3.org/2000/svg" version="1.1">
 <metadata>
  <rdf:RDF xmlns:dc="http://purl.org/dc/elements/1.1/" xmlns:cc="http://creativecommons.org/ns#" xmlns:rdf="http://www.w3.org/1999/02/22-rdf-syntax-ns#">
   <cc:Work>
    <dc:type rdf:resource="http://purl.org/dc/dcmitype/StillImage"/>
    <dc:date>2025-01-24T09:55:15.507293</dc:date>
    <dc:format>image/svg+xml</dc:format>
    <dc:creator>
     <cc:Agent>
      <dc:title>Matplotlib v3.8.2, https://matplotlib.org/</dc:title>
     </cc:Agent>
    </dc:creator>
   </cc:Work>
  </rdf:RDF>
 </metadata>
 <defs>
  <style type="text/css">*{stroke-linejoin: round; stroke-linecap: butt}</style>
 </defs>
 <g id="figure_1">
  <g id="axes_1">
   <g id="patch_1">
    <path d="M 43.148125 353.2239 
L 993.078125 353.2239 
L 993.078125 35.2559 
L 43.148125 35.2559 
z
" style="fill: #ffffff"/>
   </g>
   <g id="matplotlib.axis_1">
    <g id="xtick_1">
     <g id="text_1">
      <!-- 0 -->
      <g transform="translate(40.603125 366.30265) scale(0.08 -0.08)">
       <defs>
        <path id="DejaVuSans-30" d="M 2034 4250 
Q 1547 4250 1301 3770 
Q 1056 3291 1056 2328 
Q 1056 1369 1301 889 
Q 1547 409 2034 409 
Q 2525 409 2770 889 
Q 3016 1369 3016 2328 
Q 3016 3291 2770 3770 
Q 2525 4250 2034 4250 
z
M 2034 4750 
Q 2819 4750 3233 4129 
Q 3647 3509 3647 2328 
Q 3647 1150 3233 529 
Q 2819 -91 2034 -91 
Q 1250 -91 836 529 
Q 422 1150 422 2328 
Q 422 3509 836 4129 
Q 1250 4750 2034 4750 
z
" transform="scale(0.015625)"/>
       </defs>
       <use xlink:href="#DejaVuSans-30"/>
      </g>
     </g>
    </g>
    <g id="xtick_2">
     <g id="text_2">
      <!-- 100 -->
      <g transform="translate(168.556542 366.30265) scale(0.08 -0.08)">
       <defs>
        <path id="DejaVuSans-31" d="M 794 531 
L 1825 531 
L 1825 4091 
L 703 3866 
L 703 4441 
L 1819 4666 
L 2450 4666 
L 2450 531 
L 3481 531 
L 3481 0 
L 794 0 
L 794 531 
z
" transform="scale(0.015625)"/>
       </defs>
       <use xlink:href="#DejaVuSans-31"/>
       <use xlink:href="#DejaVuSans-30" x="63.623047"/>
       <use xlink:href="#DejaVuSans-30" x="127.246094"/>
      </g>
     </g>
    </g>
    <g id="xtick_3">
     <g id="text_3">
      <!-- 200 -->
      <g transform="translate(301.59996 366.30265) scale(0.08 -0.08)">
       <defs>
        <path id="DejaVuSans-32" d="M 1228 531 
L 3431 531 
L 3431 0 
L 469 0 
L 469 531 
Q 828 903 1448 1529 
Q 2069 2156 2228 2338 
Q 2531 2678 2651 2914 
Q 2772 3150 2772 3378 
Q 2772 3750 2511 3984 
Q 2250 4219 1831 4219 
Q 1534 4219 1204 4116 
Q 875 4013 500 3803 
L 500 4441 
Q 881 4594 1212 4672 
Q 1544 4750 1819 4750 
Q 2544 4750 2975 4387 
Q 3406 4025 3406 3419 
Q 3406 3131 3298 2873 
Q 3191 2616 2906 2266 
Q 2828 2175 2409 1742 
Q 1991 1309 1228 531 
z
" transform="scale(0.015625)"/>
       </defs>
       <use xlink:href="#DejaVuSans-32"/>
       <use xlink:href="#DejaVuSans-30" x="63.623047"/>
       <use xlink:href="#DejaVuSans-30" x="127.246094"/>
      </g>
     </g>
    </g>
    <g id="xtick_4">
     <g id="text_4">
      <!-- 300 -->
      <g transform="translate(434.643377 366.30265) scale(0.08 -0.08)">
       <defs>
        <path id="DejaVuSans-33" d="M 2597 2516 
Q 3050 2419 3304 2112 
Q 3559 1806 3559 1356 
Q 3559 666 3084 287 
Q 2609 -91 1734 -91 
Q 1441 -91 1130 -33 
Q 819 25 488 141 
L 488 750 
Q 750 597 1062 519 
Q 1375 441 1716 441 
Q 2309 441 2620 675 
Q 2931 909 2931 1356 
Q 2931 1769 2642 2001 
Q 2353 2234 1838 2234 
L 1294 2234 
L 1294 2753 
L 1863 2753 
Q 2328 2753 2575 2939 
Q 2822 3125 2822 3475 
Q 2822 3834 2567 4026 
Q 2313 4219 1838 4219 
Q 1578 4219 1281 4162 
Q 984 4106 628 3988 
L 628 4550 
Q 988 4650 1302 4700 
Q 1616 4750 1894 4750 
Q 2613 4750 3031 4423 
Q 3450 4097 3450 3541 
Q 3450 3153 3228 2886 
Q 3006 2619 2597 2516 
z
" transform="scale(0.015625)"/>
       </defs>
       <use xlink:href="#DejaVuSans-33"/>
       <use xlink:href="#DejaVuSans-30" x="63.623047"/>
       <use xlink:href="#DejaVuSans-30" x="127.246094"/>
      </g>
     </g>
    </g>
    <g id="xtick_5">
     <g id="text_5">
      <!-- 400 -->
      <g transform="translate(567.686794 366.30265) scale(0.08 -0.08)">
       <defs>
        <path id="DejaVuSans-34" d="M 2419 4116 
L 825 1625 
L 2419 1625 
L 2419 4116 
z
M 2253 4666 
L 3047 4666 
L 3047 1625 
L 3713 1625 
L 3713 1100 
L 3047 1100 
L 3047 0 
L 2419 0 
L 2419 1100 
L 313 1100 
L 313 1709 
L 2253 4666 
z
" transform="scale(0.015625)"/>
       </defs>
       <use xlink:href="#DejaVuSans-34"/>
       <use xlink:href="#DejaVuSans-30" x="63.623047"/>
       <use xlink:href="#DejaVuSans-30" x="127.246094"/>
      </g>
     </g>
    </g>
    <g id="xtick_6">
     <g id="text_6">
      <!-- 500 -->
      <g transform="translate(700.730212 366.30265) scale(0.08 -0.08)">
       <defs>
        <path id="DejaVuSans-35" d="M 691 4666 
L 3169 4666 
L 3169 4134 
L 1269 4134 
L 1269 2991 
Q 1406 3038 1543 3061 
Q 1681 3084 1819 3084 
Q 2600 3084 3056 2656 
Q 3513 2228 3513 1497 
Q 3513 744 3044 326 
Q 2575 -91 1722 -91 
Q 1428 -91 1123 -41 
Q 819 9 494 109 
L 494 744 
Q 775 591 1075 516 
Q 1375 441 1709 441 
Q 2250 441 2565 725 
Q 2881 1009 2881 1497 
Q 2881 1984 2565 2268 
Q 2250 2553 1709 2553 
Q 1456 2553 1204 2497 
Q 953 2441 691 2322 
L 691 4666 
z
" transform="scale(0.015625)"/>
       </defs>
       <use xlink:href="#DejaVuSans-35"/>
       <use xlink:href="#DejaVuSans-30" x="63.623047"/>
       <use xlink:href="#DejaVuSans-30" x="127.246094"/>
      </g>
     </g>
    </g>
    <g id="xtick_7">
     <g id="text_7">
      <!-- 600 -->
      <g transform="translate(833.773629 366.30265) scale(0.08 -0.08)">
       <defs>
        <path id="DejaVuSans-36" d="M 2113 2584 
Q 1688 2584 1439 2293 
Q 1191 2003 1191 1497 
Q 1191 994 1439 701 
Q 1688 409 2113 409 
Q 2538 409 2786 701 
Q 3034 994 3034 1497 
Q 3034 2003 2786 2293 
Q 2538 2584 2113 2584 
z
M 3366 4563 
L 3366 3988 
Q 3128 4100 2886 4159 
Q 2644 4219 2406 4219 
Q 1781 4219 1451 3797 
Q 1122 3375 1075 2522 
Q 1259 2794 1537 2939 
Q 1816 3084 2150 3084 
Q 2853 3084 3261 2657 
Q 3669 2231 3669 1497 
Q 3669 778 3244 343 
Q 2819 -91 2113 -91 
Q 1303 -91 875 529 
Q 447 1150 447 2328 
Q 447 3434 972 4092 
Q 1497 4750 2381 4750 
Q 2619 4750 2861 4703 
Q 3103 4656 3366 4563 
z
" transform="scale(0.015625)"/>
       </defs>
       <use xlink:href="#DejaVuSans-36"/>
       <use xlink:href="#DejaVuSans-30" x="63.623047"/>
       <use xlink:href="#DejaVuSans-30" x="127.246094"/>
      </g>
     </g>
    </g>
    <g id="xtick_8">
     <g id="text_8">
      <!-- 700 -->
      <g transform="translate(966.817047 366.30265) scale(0.08 -0.08)">
       <defs>
        <path id="DejaVuSans-37" d="M 525 4666 
L 3525 4666 
L 3525 4397 
L 1831 0 
L 1172 0 
L 2766 4134 
L 525 4134 
L 525 4666 
z
" transform="scale(0.015625)"/>
       </defs>
       <use xlink:href="#DejaVuSans-37"/>
       <use xlink:href="#DejaVuSans-30" x="63.623047"/>
       <use xlink:href="#DejaVuSans-30" x="127.246094"/>
      </g>
     </g>
    </g>
    <g id="text_9">
     <!-- Total molecules (including duplicates) -->
     <g transform="translate(423.863125 379.564837) scale(0.1 -0.1)">
      <defs>
       <path id="DejaVuSans-54" d="M -19 4666 
L 3928 4666 
L 3928 4134 
L 2272 4134 
L 2272 0 
L 1638 0 
L 1638 4134 
L -19 4134 
L -19 4666 
z
" transform="scale(0.015625)"/>
       <path id="DejaVuSans-6f" d="M 1959 3097 
Q 1497 3097 1228 2736 
Q 959 2375 959 1747 
Q 959 1119 1226 758 
Q 1494 397 1959 397 
Q 2419 397 2687 759 
Q 2956 1122 2956 1747 
Q 2956 2369 2687 2733 
Q 2419 3097 1959 3097 
z
M 1959 3584 
Q 2709 3584 3137 3096 
Q 3566 2609 3566 1747 
Q 3566 888 3137 398 
Q 2709 -91 1959 -91 
Q 1206 -91 779 398 
Q 353 888 353 1747 
Q 353 2609 779 3096 
Q 1206 3584 1959 3584 
z
" transform="scale(0.015625)"/>
       <path id="DejaVuSans-74" d="M 1172 4494 
L 1172 3500 
L 2356 3500 
L 2356 3053 
L 1172 3053 
L 1172 1153 
Q 1172 725 1289 603 
Q 1406 481 1766 481 
L 2356 481 
L 2356 0 
L 1766 0 
Q 1100 0 847 248 
Q 594 497 594 1153 
L 594 3053 
L 172 3053 
L 172 3500 
L 594 3500 
L 594 4494 
L 1172 4494 
z
" transform="scale(0.015625)"/>
       <path id="DejaVuSans-61" d="M 2194 1759 
Q 1497 1759 1228 1600 
Q 959 1441 959 1056 
Q 959 750 1161 570 
Q 1363 391 1709 391 
Q 2188 391 2477 730 
Q 2766 1069 2766 1631 
L 2766 1759 
L 2194 1759 
z
M 3341 1997 
L 3341 0 
L 2766 0 
L 2766 531 
Q 2569 213 2275 61 
Q 1981 -91 1556 -91 
Q 1019 -91 701 211 
Q 384 513 384 1019 
Q 384 1609 779 1909 
Q 1175 2209 1959 2209 
L 2766 2209 
L 2766 2266 
Q 2766 2663 2505 2880 
Q 2244 3097 1772 3097 
Q 1472 3097 1187 3025 
Q 903 2953 641 2809 
L 641 3341 
Q 956 3463 1253 3523 
Q 1550 3584 1831 3584 
Q 2591 3584 2966 3190 
Q 3341 2797 3341 1997 
z
" transform="scale(0.015625)"/>
       <path id="DejaVuSans-6c" d="M 603 4863 
L 1178 4863 
L 1178 0 
L 603 0 
L 603 4863 
z
" transform="scale(0.015625)"/>
       <path id="DejaVuSans-20" transform="scale(0.015625)"/>
       <path id="DejaVuSans-6d" d="M 3328 2828 
Q 3544 3216 3844 3400 
Q 4144 3584 4550 3584 
Q 5097 3584 5394 3201 
Q 5691 2819 5691 2113 
L 5691 0 
L 5113 0 
L 5113 2094 
Q 5113 2597 4934 2840 
Q 4756 3084 4391 3084 
Q 3944 3084 3684 2787 
Q 3425 2491 3425 1978 
L 3425 0 
L 2847 0 
L 2847 2094 
Q 2847 2600 2669 2842 
Q 2491 3084 2119 3084 
Q 1678 3084 1418 2786 
Q 1159 2488 1159 1978 
L 1159 0 
L 581 0 
L 581 3500 
L 1159 3500 
L 1159 2956 
Q 1356 3278 1631 3431 
Q 1906 3584 2284 3584 
Q 2666 3584 2933 3390 
Q 3200 3197 3328 2828 
z
" transform="scale(0.015625)"/>
       <path id="DejaVuSans-65" d="M 3597 1894 
L 3597 1613 
L 953 1613 
Q 991 1019 1311 708 
Q 1631 397 2203 397 
Q 2534 397 2845 478 
Q 3156 559 3463 722 
L 3463 178 
Q 3153 47 2828 -22 
Q 2503 -91 2169 -91 
Q 1331 -91 842 396 
Q 353 884 353 1716 
Q 353 2575 817 3079 
Q 1281 3584 2069 3584 
Q 2775 3584 3186 3129 
Q 3597 2675 3597 1894 
z
M 3022 2063 
Q 3016 2534 2758 2815 
Q 2500 3097 2075 3097 
Q 1594 3097 1305 2825 
Q 1016 2553 972 2059 
L 3022 2063 
z
" transform="scale(0.015625)"/>
       <path id="DejaVuSans-63" d="M 3122 3366 
L 3122 2828 
Q 2878 2963 2633 3030 
Q 2388 3097 2138 3097 
Q 1578 3097 1268 2742 
Q 959 2388 959 1747 
Q 959 1106 1268 751 
Q 1578 397 2138 397 
Q 2388 397 2633 464 
Q 2878 531 3122 666 
L 3122 134 
Q 2881 22 2623 -34 
Q 2366 -91 2075 -91 
Q 1284 -91 818 406 
Q 353 903 353 1747 
Q 353 2603 823 3093 
Q 1294 3584 2113 3584 
Q 2378 3584 2631 3529 
Q 2884 3475 3122 3366 
z
" transform="scale(0.015625)"/>
       <path id="DejaVuSans-75" d="M 544 1381 
L 544 3500 
L 1119 3500 
L 1119 1403 
Q 1119 906 1312 657 
Q 1506 409 1894 409 
Q 2359 409 2629 706 
Q 2900 1003 2900 1516 
L 2900 3500 
L 3475 3500 
L 3475 0 
L 2900 0 
L 2900 538 
Q 2691 219 2414 64 
Q 2138 -91 1772 -91 
Q 1169 -91 856 284 
Q 544 659 544 1381 
z
M 1991 3584 
L 1991 3584 
z
" transform="scale(0.015625)"/>
       <path id="DejaVuSans-73" d="M 2834 3397 
L 2834 2853 
Q 2591 2978 2328 3040 
Q 2066 3103 1784 3103 
Q 1356 3103 1142 2972 
Q 928 2841 928 2578 
Q 928 2378 1081 2264 
Q 1234 2150 1697 2047 
L 1894 2003 
Q 2506 1872 2764 1633 
Q 3022 1394 3022 966 
Q 3022 478 2636 193 
Q 2250 -91 1575 -91 
Q 1294 -91 989 -36 
Q 684 19 347 128 
L 347 722 
Q 666 556 975 473 
Q 1284 391 1588 391 
Q 1994 391 2212 530 
Q 2431 669 2431 922 
Q 2431 1156 2273 1281 
Q 2116 1406 1581 1522 
L 1381 1569 
Q 847 1681 609 1914 
Q 372 2147 372 2553 
Q 372 3047 722 3315 
Q 1072 3584 1716 3584 
Q 2034 3584 2315 3537 
Q 2597 3491 2834 3397 
z
" transform="scale(0.015625)"/>
       <path id="DejaVuSans-28" d="M 1984 4856 
Q 1566 4138 1362 3434 
Q 1159 2731 1159 2009 
Q 1159 1288 1364 580 
Q 1569 -128 1984 -844 
L 1484 -844 
Q 1016 -109 783 600 
Q 550 1309 550 2009 
Q 550 2706 781 3412 
Q 1013 4119 1484 4856 
L 1984 4856 
z
" transform="scale(0.015625)"/>
       <path id="DejaVuSans-69" d="M 603 3500 
L 1178 3500 
L 1178 0 
L 603 0 
L 603 3500 
z
M 603 4863 
L 1178 4863 
L 1178 4134 
L 603 4134 
L 603 4863 
z
" transform="scale(0.015625)"/>
       <path id="DejaVuSans-6e" d="M 3513 2113 
L 3513 0 
L 2938 0 
L 2938 2094 
Q 2938 2591 2744 2837 
Q 2550 3084 2163 3084 
Q 1697 3084 1428 2787 
Q 1159 2491 1159 1978 
L 1159 0 
L 581 0 
L 581 3500 
L 1159 3500 
L 1159 2956 
Q 1366 3272 1645 3428 
Q 1925 3584 2291 3584 
Q 2894 3584 3203 3211 
Q 3513 2838 3513 2113 
z
" transform="scale(0.015625)"/>
       <path id="DejaVuSans-64" d="M 2906 2969 
L 2906 4863 
L 3481 4863 
L 3481 0 
L 2906 0 
L 2906 525 
Q 2725 213 2448 61 
Q 2172 -91 1784 -91 
Q 1150 -91 751 415 
Q 353 922 353 1747 
Q 353 2572 751 3078 
Q 1150 3584 1784 3584 
Q 2172 3584 2448 3432 
Q 2725 3281 2906 2969 
z
M 947 1747 
Q 947 1113 1208 752 
Q 1469 391 1925 391 
Q 2381 391 2643 752 
Q 2906 1113 2906 1747 
Q 2906 2381 2643 2742 
Q 2381 3103 1925 3103 
Q 1469 3103 1208 2742 
Q 947 2381 947 1747 
z
" transform="scale(0.015625)"/>
       <path id="DejaVuSans-67" d="M 2906 1791 
Q 2906 2416 2648 2759 
Q 2391 3103 1925 3103 
Q 1463 3103 1205 2759 
Q 947 2416 947 1791 
Q 947 1169 1205 825 
Q 1463 481 1925 481 
Q 2391 481 2648 825 
Q 2906 1169 2906 1791 
z
M 3481 434 
Q 3481 -459 3084 -895 
Q 2688 -1331 1869 -1331 
Q 1566 -1331 1297 -1286 
Q 1028 -1241 775 -1147 
L 775 -588 
Q 1028 -725 1275 -790 
Q 1522 -856 1778 -856 
Q 2344 -856 2625 -561 
Q 2906 -266 2906 331 
L 2906 616 
Q 2728 306 2450 153 
Q 2172 0 1784 0 
Q 1141 0 747 490 
Q 353 981 353 1791 
Q 353 2603 747 3093 
Q 1141 3584 1784 3584 
Q 2172 3584 2450 3431 
Q 2728 3278 2906 2969 
L 2906 3500 
L 3481 3500 
L 3481 434 
z
" transform="scale(0.015625)"/>
       <path id="DejaVuSans-70" d="M 1159 525 
L 1159 -1331 
L 581 -1331 
L 581 3500 
L 1159 3500 
L 1159 2969 
Q 1341 3281 1617 3432 
Q 1894 3584 2278 3584 
Q 2916 3584 3314 3078 
Q 3713 2572 3713 1747 
Q 3713 922 3314 415 
Q 2916 -91 2278 -91 
Q 1894 -91 1617 61 
Q 1341 213 1159 525 
z
M 3116 1747 
Q 3116 2381 2855 2742 
Q 2594 3103 2138 3103 
Q 1681 3103 1420 2742 
Q 1159 2381 1159 1747 
Q 1159 1113 1420 752 
Q 1681 391 2138 391 
Q 2594 391 2855 752 
Q 3116 1113 3116 1747 
z
" transform="scale(0.015625)"/>
       <path id="DejaVuSans-29" d="M 513 4856 
L 1013 4856 
Q 1481 4119 1714 3412 
Q 1947 2706 1947 2009 
Q 1947 1309 1714 600 
Q 1481 -109 1013 -844 
L 513 -844 
Q 928 -128 1133 580 
Q 1338 1288 1338 2009 
Q 1338 2731 1133 3434 
Q 928 4138 513 4856 
z
" transform="scale(0.015625)"/>
      </defs>
      <use xlink:href="#DejaVuSans-54"/>
      <use xlink:href="#DejaVuSans-6f" x="44.083984"/>
      <use xlink:href="#DejaVuSans-74" x="105.265625"/>
      <use xlink:href="#DejaVuSans-61" x="144.474609"/>
      <use xlink:href="#DejaVuSans-6c" x="205.753906"/>
      <use xlink:href="#DejaVuSans-20" x="233.537109"/>
      <use xlink:href="#DejaVuSans-6d" x="265.324219"/>
      <use xlink:href="#DejaVuSans-6f" x="362.736328"/>
      <use xlink:href="#DejaVuSans-6c" x="423.917969"/>
      <use xlink:href="#DejaVuSans-65" x="451.701172"/>
      <use xlink:href="#DejaVuSans-63" x="513.224609"/>
      <use xlink:href="#DejaVuSans-75" x="568.205078"/>
      <use xlink:href="#DejaVuSans-6c" x="631.583984"/>
      <use xlink:href="#DejaVuSans-65" x="659.367188"/>
      <use xlink:href="#DejaVuSans-73" x="720.890625"/>
      <use xlink:href="#DejaVuSans-20" x="772.990234"/>
      <use xlink:href="#DejaVuSans-28" x="804.777344"/>
      <use xlink:href="#DejaVuSans-69" x="843.791016"/>
      <use xlink:href="#DejaVuSans-6e" x="871.574219"/>
      <use xlink:href="#DejaVuSans-63" x="934.953125"/>
      <use xlink:href="#DejaVuSans-6c" x="989.933594"/>
      <use xlink:href="#DejaVuSans-75" x="1017.716797"/>
      <use xlink:href="#DejaVuSans-64" x="1081.095703"/>
      <use xlink:href="#DejaVuSans-69" x="1144.572266"/>
      <use xlink:href="#DejaVuSans-6e" x="1172.355469"/>
      <use xlink:href="#DejaVuSans-67" x="1235.734375"/>
      <use xlink:href="#DejaVuSans-20" x="1299.210938"/>
      <use xlink:href="#DejaVuSans-64" x="1330.998047"/>
      <use xlink:href="#DejaVuSans-75" x="1394.474609"/>
      <use xlink:href="#DejaVuSans-70" x="1457.853516"/>
      <use xlink:href="#DejaVuSans-6c" x="1521.330078"/>
      <use xlink:href="#DejaVuSans-69" x="1549.113281"/>
      <use xlink:href="#DejaVuSans-63" x="1576.896484"/>
      <use xlink:href="#DejaVuSans-61" x="1631.876953"/>
      <use xlink:href="#DejaVuSans-74" x="1693.15625"/>
      <use xlink:href="#DejaVuSans-65" x="1732.365234"/>
      <use xlink:href="#DejaVuSans-73" x="1793.888672"/>
      <use xlink:href="#DejaVuSans-29" x="1845.988281"/>
     </g>
    </g>
   </g>
   <g id="matplotlib.axis_2">
    <g id="ytick_1">
     <g id="line2d_1">
      <path d="M 43.148125 353.2239 
L 993.078125 353.2239 
" clip-path="url(#p7e955ed7de)" style="fill: none; stroke: #dedede; stroke-linecap: square"/>
     </g>
     <g id="text_10">
      <!-- 0 -->
      <g transform="translate(31.058125 356.263275) scale(0.08 -0.08)">
       <use xlink:href="#DejaVuSans-30"/>
      </g>
     </g>
    </g>
    <g id="ytick_2">
     <g id="line2d_2">
      <path d="M 43.148125 313.770361 
L 993.078125 313.770361 
" clip-path="url(#p7e955ed7de)" style="fill: none; stroke: #dedede; stroke-linecap: square"/>
     </g>
     <g id="text_11">
      <!-- 20 -->
      <g transform="translate(25.968125 316.809736) scale(0.08 -0.08)">
       <use xlink:href="#DejaVuSans-32"/>
       <use xlink:href="#DejaVuSans-30" x="63.623047"/>
      </g>
     </g>
    </g>
    <g id="ytick_3">
     <g id="line2d_3">
      <path d="M 43.148125 274.316822 
L 993.078125 274.316822 
" clip-path="url(#p7e955ed7de)" style="fill: none; stroke: #dedede; stroke-linecap: square"/>
     </g>
     <g id="text_12">
      <!-- 40 -->
      <g transform="translate(25.968125 277.356197) scale(0.08 -0.08)">
       <use xlink:href="#DejaVuSans-34"/>
       <use xlink:href="#DejaVuSans-30" x="63.623047"/>
      </g>
     </g>
    </g>
    <g id="ytick_4">
     <g id="line2d_4">
      <path d="M 43.148125 234.863283 
L 993.078125 234.863283 
" clip-path="url(#p7e955ed7de)" style="fill: none; stroke: #dedede; stroke-linecap: square"/>
     </g>
     <g id="text_13">
      <!-- 60 -->
      <g transform="translate(25.968125 237.902658) scale(0.08 -0.08)">
       <use xlink:href="#DejaVuSans-36"/>
       <use xlink:href="#DejaVuSans-30" x="63.623047"/>
      </g>
     </g>
    </g>
    <g id="ytick_5">
     <g id="line2d_5">
      <path d="M 43.148125 195.409744 
L 993.078125 195.409744 
" clip-path="url(#p7e955ed7de)" style="fill: none; stroke: #dedede; stroke-linecap: square"/>
     </g>
     <g id="text_14">
      <!-- 80 -->
      <g transform="translate(25.968125 198.449119) scale(0.08 -0.08)">
       <defs>
        <path id="DejaVuSans-38" d="M 2034 2216 
Q 1584 2216 1326 1975 
Q 1069 1734 1069 1313 
Q 1069 891 1326 650 
Q 1584 409 2034 409 
Q 2484 409 2743 651 
Q 3003 894 3003 1313 
Q 3003 1734 2745 1975 
Q 2488 2216 2034 2216 
z
M 1403 2484 
Q 997 2584 770 2862 
Q 544 3141 544 3541 
Q 544 4100 942 4425 
Q 1341 4750 2034 4750 
Q 2731 4750 3128 4425 
Q 3525 4100 3525 3541 
Q 3525 3141 3298 2862 
Q 3072 2584 2669 2484 
Q 3125 2378 3379 2068 
Q 3634 1759 3634 1313 
Q 3634 634 3220 271 
Q 2806 -91 2034 -91 
Q 1263 -91 848 271 
Q 434 634 434 1313 
Q 434 1759 690 2068 
Q 947 2378 1403 2484 
z
M 1172 3481 
Q 1172 3119 1398 2916 
Q 1625 2713 2034 2713 
Q 2441 2713 2670 2916 
Q 2900 3119 2900 3481 
Q 2900 3844 2670 4047 
Q 2441 4250 2034 4250 
Q 1625 4250 1398 4047 
Q 1172 3844 1172 3481 
z
" transform="scale(0.015625)"/>
       </defs>
       <use xlink:href="#DejaVuSans-38"/>
       <use xlink:href="#DejaVuSans-30" x="63.623047"/>
      </g>
     </g>
    </g>
    <g id="ytick_6">
     <g id="line2d_6">
      <path d="M 43.148125 155.956205 
L 993.078125 155.956205 
" clip-path="url(#p7e955ed7de)" style="fill: none; stroke: #dedede; stroke-linecap: square"/>
     </g>
     <g id="text_15">
      <!-- 100 -->
      <g transform="translate(20.878125 158.99558) scale(0.08 -0.08)">
       <use xlink:href="#DejaVuSans-31"/>
       <use xlink:href="#DejaVuSans-30" x="63.623047"/>
       <use xlink:href="#DejaVuSans-30" x="127.246094"/>
      </g>
     </g>
    </g>
    <g id="ytick_7">
     <g id="line2d_7">
      <path d="M 43.148125 116.502666 
L 993.078125 116.502666 
" clip-path="url(#p7e955ed7de)" style="fill: none; stroke: #dedede; stroke-linecap: square"/>
     </g>
     <g id="text_16">
      <!-- 120 -->
      <g transform="translate(20.878125 119.542041) scale(0.08 -0.08)">
       <use xlink:href="#DejaVuSans-31"/>
       <use xlink:href="#DejaVuSans-32" x="63.623047"/>
       <use xlink:href="#DejaVuSans-30" x="127.246094"/>
      </g>
     </g>
    </g>
    <g id="ytick_8">
     <g id="line2d_8">
      <path d="M 43.148125 77.049127 
L 993.078125 77.049127 
" clip-path="url(#p7e955ed7de)" style="fill: none; stroke: #dedede; stroke-linecap: square"/>
     </g>
     <g id="text_17">
      <!-- 140 -->
      <g transform="translate(20.878125 80.088502) scale(0.08 -0.08)">
       <use xlink:href="#DejaVuSans-31"/>
       <use xlink:href="#DejaVuSans-34" x="63.623047"/>
       <use xlink:href="#DejaVuSans-30" x="127.246094"/>
      </g>
     </g>
    </g>
    <g id="ytick_9">
     <g id="line2d_9">
      <path d="M 43.148125 37.595588 
L 993.078125 37.595588 
" clip-path="url(#p7e955ed7de)" style="fill: none; stroke: #dedede; stroke-linecap: square"/>
     </g>
     <g id="text_18">
      <!-- 160 -->
      <g transform="translate(20.878125 40.634963) scale(0.08 -0.08)">
       <use xlink:href="#DejaVuSans-31"/>
       <use xlink:href="#DejaVuSans-36" x="63.623047"/>
       <use xlink:href="#DejaVuSans-30" x="127.246094"/>
      </g>
     </g>
    </g>
    <g id="text_19">
     <!-- Unique molecules -->
     <g transform="translate(14.798438 238.849275) rotate(-90) scale(0.1 -0.1)">
      <defs>
       <path id="DejaVuSans-55" d="M 556 4666 
L 1191 4666 
L 1191 1831 
Q 1191 1081 1462 751 
Q 1734 422 2344 422 
Q 2950 422 3222 751 
Q 3494 1081 3494 1831 
L 3494 4666 
L 4128 4666 
L 4128 1753 
Q 4128 841 3676 375 
Q 3225 -91 2344 -91 
Q 1459 -91 1007 375 
Q 556 841 556 1753 
L 556 4666 
z
" transform="scale(0.015625)"/>
       <path id="DejaVuSans-71" d="M 947 1747 
Q 947 1113 1208 752 
Q 1469 391 1925 391 
Q 2381 391 2643 752 
Q 2906 1113 2906 1747 
Q 2906 2381 2643 2742 
Q 2381 3103 1925 3103 
Q 1469 3103 1208 2742 
Q 947 2381 947 1747 
z
M 2906 525 
Q 2725 213 2448 61 
Q 2172 -91 1784 -91 
Q 1150 -91 751 415 
Q 353 922 353 1747 
Q 353 2572 751 3078 
Q 1150 3584 1784 3584 
Q 2172 3584 2448 3432 
Q 2725 3281 2906 2969 
L 2906 3500 
L 3481 3500 
L 3481 -1331 
L 2906 -1331 
L 2906 525 
z
" transform="scale(0.015625)"/>
      </defs>
      <use xlink:href="#DejaVuSans-55"/>
      <use xlink:href="#DejaVuSans-6e" x="73.193359"/>
      <use xlink:href="#DejaVuSans-69" x="136.572266"/>
      <use xlink:href="#DejaVuSans-71" x="164.355469"/>
      <use xlink:href="#DejaVuSans-75" x="227.832031"/>
      <use xlink:href="#DejaVuSans-65" x="291.210938"/>
      <use xlink:href="#DejaVuSans-20" x="352.734375"/>
      <use xlink:href="#DejaVuSans-6d" x="384.521484"/>
      <use xlink:href="#DejaVuSans-6f" x="481.933594"/>
      <use xlink:href="#DejaVuSans-6c" x="543.115234"/>
      <use xlink:href="#DejaVuSans-65" x="570.898438"/>
      <use xlink:href="#DejaVuSans-63" x="632.421875"/>
      <use xlink:href="#DejaVuSans-75" x="687.402344"/>
      <use xlink:href="#DejaVuSans-6c" x="750.78125"/>
      <use xlink:href="#DejaVuSans-65" x="778.564453"/>
      <use xlink:href="#DejaVuSans-73" x="840.087891"/>
     </g>
    </g>
   </g>
   <g id="line2d_10">
    <path d="M 43.148125 353.2239 
L 47.139428 347.581516 
L 51.13073 342.442904 
L 55.122033 337.745496 
L 59.113335 333.436385 
L 63.104638 329.470554 
L 67.09594 325.809394 
L 71.087243 322.420202 
L 75.078545 319.273746 
L 80.400282 315.414876 
L 85.722019 311.893221 
L 91.043755 308.667738 
L 96.365492 305.703868 
L 101.687229 302.972765 
L 107.008965 300.444696 
L 113.661136 297.545414 
L 120.313307 294.891695 
L 126.965478 292.462445 
L 134.948083 289.794107 
L 142.930688 287.36939 
L 150.913293 285.172735 
L 160.226332 282.833701 
L 170.869806 280.420199 
L 181.513279 278.244955 
L 192.156752 276.284186 
L 205.461094 274.082835 
L 218.765436 272.111243 
L 233.400212 270.172781 
L 249.365422 268.286143 
L 266.661066 266.467269 
L 285.287145 264.740947 
L 306.574091 263.006166 
L 329.191472 261.390267 
L 354.469722 259.811415 
L 382.408839 258.292474 
L 413.008825 256.847292 
L 447.600114 255.438268 
L 486.182705 254.091147 
L 530.087033 252.788247 
L 579.313097 251.554651 
L 635.191332 250.377642 
L 700.382607 249.234112 
L 774.886921 248.15472 
L 861.365142 247.124292 
L 962.478139 246.148481 
L 993.078125 245.891403 
L 993.078125 245.891403 
" clip-path="url(#p7e955ed7de)" style="fill: none; stroke: #7cb5ec; stroke-linecap: square"/>
   </g>
   <g id="line2d_11">
    <path d="M 43.148125 353.2239 
L 47.139428 347.512402 
L 51.13073 342.187739 
L 55.122033 337.214281 
L 59.113335 332.560422 
L 63.104638 328.19832 
L 67.09594 324.10292 
L 72.417677 319.01939 
L 77.739414 314.324021 
L 83.06115 309.977422 
L 88.382887 305.944205 
L 93.704624 302.194352 
L 99.02636 298.698165 
L 104.348097 295.43237 
L 111.000268 291.644931 
L 117.652439 288.146827 
L 124.30461 284.911444 
L 130.95678 281.910282 
L 138.939386 278.587905 
L 146.921991 275.535263 
L 154.904596 272.721219 
L 164.217635 269.704563 
L 173.530674 266.936982 
L 182.843713 264.397964 
L 193.487187 261.739984 
L 204.13066 259.311026 
L 216.104568 256.821226 
L 228.078475 254.548585 
L 241.382817 252.266566 
L 256.017593 249.97996 
L 270.652369 247.913272 
L 286.617579 245.877485 
L 303.913223 243.891678 
L 322.539301 241.965241 
L 343.826248 239.99853 
L 366.443629 238.141163 
L 390.391444 236.394023 
L 417.000128 234.674746 
L 446.26968 233.00858 
L 478.2001 231.413561 
L 514.121822 229.84729 
L 554.034848 228.337846 
L 597.939175 226.904278 
L 647.16524 225.523495 
L 703.043475 224.186677 
L 765.573881 222.919307 
L 836.086893 221.715638 
L 917.243377 220.558136 
L 993.078125 219.647045 
L 993.078125 219.647045 
" clip-path="url(#p7e955ed7de)" style="fill: none; stroke: #434348; stroke-linecap: square"/>
   </g>
   <g id="line2d_12">
    <path d="M 43.148125 353.2239 
L 47.139428 347.561395 
L 51.13073 342.369272 
L 55.122033 337.593324 
L 59.113335 333.187312 
L 63.104638 329.111179 
L 67.09594 325.33034 
L 71.087243 321.815281 
L 75.078545 318.539735 
L 80.400282 314.505898 
L 85.722019 310.811483 
L 91.043755 307.41675 
L 96.365492 304.287125 
L 101.687229 301.394707 
L 107.008965 298.713071 
L 113.661136 295.625437 
L 120.313307 292.80212 
L 126.965478 290.205303 
L 134.948083 287.355065 
L 142.930688 284.76004 
L 150.913293 282.388397 
L 160.226332 279.86958 
L 169.539371 277.579802 
L 180.182845 275.205983 
L 190.826318 273.061474 
L 202.800226 270.896042 
L 216.104568 268.729101 
L 229.408909 266.782733 
L 244.043685 264.868199 
L 260.008895 263.004959 
L 277.30454 261.208428 
L 295.930618 259.488895 
L 317.217565 257.754863 
L 339.834946 256.136743 
L 366.443629 254.469849 
L 394.382747 252.942778 
L 424.982733 251.495353 
L 459.574021 250.089966 
L 496.826178 248.797015 
L 542.06094 247.471828 
L 591.287005 246.237238 
L 647.16524 245.063148 
L 712.356514 243.923825 
L 786.860828 242.851303 
L 873.339049 241.834917 
L 974.452047 240.87487 
L 993.078125 240.719332 
L 993.078125 240.719332 
" clip-path="url(#p7e955ed7de)" style="fill: none; stroke: #90ed7d; stroke-linecap: square"/>
   </g>
   <g id="line2d_13">
    <path d="M 43.148125 353.2239 
L 45.808993 349.425683 
L 48.469862 345.901031 
L 52.461164 341.066882 
L 56.452467 336.706594 
L 60.443769 332.754626 
L 64.435072 329.156959 
L 68.426374 325.868381 
L 72.417677 322.851445 
L 76.408979 320.074514 
L 81.730716 316.697714 
L 87.052453 313.646249 
L 92.374189 310.874629 
L 97.695926 308.345214 
L 103.017663 306.02807 
L 109.669834 303.396242 
L 116.322005 301.013605 
L 122.974175 298.84515 
L 130.95678 296.490151 
L 138.939386 294.369786 
L 148.252425 292.14634 
L 157.565464 290.149626 
L 168.208937 288.110831 
L 178.852411 286.288498 
L 190.826318 284.454248 
L 204.13066 282.64084 
L 218.765436 280.876948 
L 234.730646 279.181532 
L 252.02629 277.570433 
L 271.982803 275.947262 
L 293.26975 274.443077 
L 317.217565 272.975239 
L 343.826248 271.566942 
L 374.426234 270.18096 
L 409.017523 268.851042 
L 447.600114 267.598719 
L 491.504442 266.402505 
L 542.06094 265.255672 
L 600.600044 264.16041 
L 668.452187 263.12327 
L 746.947803 262.151701 
L 840.078195 261.22629 
L 950.504231 260.358581 
L 993.078125 260.074445 
L 993.078125 260.074445 
" clip-path="url(#p7e955ed7de)" style="fill: none; stroke: #f7a35c; stroke-linecap: square"/>
   </g>
   <g id="line2d_14">
    <path d="M 43.148125 353.2239 
L 47.139428 347.526521 
L 51.13073 342.240658 
L 55.122033 337.325874 
L 59.113335 332.74656 
L 63.104638 328.471575 
L 67.09594 324.473458 
L 71.087243 320.72725 
L 76.408979 316.086814 
L 81.730716 311.809502 
L 87.052453 307.857829 
L 92.374189 304.197018 
L 97.695926 300.799563 
L 103.017663 297.638063 
L 108.3394 294.691487 
L 114.99157 291.275846 
L 121.643741 288.130492 
L 128.295912 285.223774 
L 134.948083 282.530348 
L 142.930688 279.550924 
L 150.913293 276.811339 
L 158.895898 274.294662 
L 168.208937 271.599168 
L 177.521977 269.13417 
L 188.16545 266.567902 
L 198.808923 264.238956 
L 210.782831 261.859523 
L 222.756738 259.700436 
L 236.06108 257.524907 
L 250.695856 255.363313 
L 266.661066 253.247665 
L 283.95671 251.198943 
L 302.582789 249.232428 
L 322.539301 247.35846 
L 343.826248 245.582603 
L 367.774063 243.815678 
L 394.382747 242.088396 
L 422.321864 240.496763 
L 454.252285 238.907787 
L 488.843573 237.412568 
L 527.426164 235.969521 
L 571.330492 234.558894 
L 620.556556 233.210562 
L 675.104357 231.946291 
L 737.634764 230.726232 
L 808.147775 229.579554 
L 890.634694 228.478369 
L 986.425954 227.429774 
L 993.078125 227.363567 
L 993.078125 227.363567 
" clip-path="url(#p7e955ed7de)" style="fill: none; stroke: #8085e9; stroke-linecap: square"/>
   </g>
   <g id="line2d_15">
    <path d="M 43.148125 353.2239 
L 47.139428 347.513009 
L 51.13073 342.189743 
L 55.122033 337.217828 
L 59.113335 332.565214 
L 63.104638 328.203744 
L 67.09594 324.108116 
L 72.417677 319.022247 
L 77.739414 314.322602 
L 83.06115 309.968987 
L 88.382887 305.925933 
L 93.704624 302.162535 
L 99.02636 298.651845 
L 104.348097 295.370244 
L 111.000268 291.561451 
L 117.652439 288.038892 
L 124.30461 284.771836 
L 130.95678 281.741638 
L 138.939386 278.375256 
L 146.921991 275.284608 
L 154.904596 272.434383 
L 164.217635 269.360474 
L 172.20024 266.925037 
L 181.513279 264.304371 
L 192.156752 261.551204 
L 202.800226 259.02991 
L 214.774133 256.441325 
L 226.748041 254.083068 
L 240.052383 251.695734 
L 254.687159 249.314965 
L 269.321935 247.157047 
L 285.287145 245.022841 
L 302.582789 242.934442 
L 321.208867 240.90896 
L 341.16538 238.959018 
L 363.782761 236.981302 
L 387.730576 235.112558 
L 414.339259 233.268681 
L 443.608811 231.47669 
L 475.539231 229.756143 
L 510.13052 228.120144 
L 548.713111 226.525011 
L 591.287005 224.994182 
L 637.852201 223.543145 
L 691.069568 222.114495 
L 749.608671 220.768765 
L 816.13038 219.466328 
L 891.965128 218.211817 
L 977.112915 217.029559 
L 993.078125 216.829924 
L 993.078125 216.829924 
" clip-path="url(#p7e955ed7de)" style="fill: none; stroke: #f15c80; stroke-linecap: square"/>
   </g>
   <g id="line2d_16">
    <path d="M 43.148125 353.2239 
L 47.139428 347.532521 
L 51.13073 342.263145 
L 55.122033 337.373371 
L 59.113335 332.826054 
L 63.104638 328.588358 
L 67.09594 324.631603 
L 71.087243 320.929838 
L 76.408979 316.351878 
L 81.730716 312.13993 
L 87.052453 308.252476 
L 92.374189 304.656989 
L 97.695926 301.321957 
L 103.017663 298.217265 
L 109.669834 294.626781 
L 116.322005 291.325947 
L 122.974175 288.278136 
L 129.626346 285.463253 
L 137.608951 282.351395 
L 145.591556 279.498404 
L 154.904596 276.446121 
L 164.217635 273.665711 
L 173.530674 271.122984 
L 184.174147 268.445217 
L 194.817621 266.00392 
L 205.461094 263.777848 
L 217.435002 261.488381 
L 230.739343 259.174868 
L 245.374119 256.87123 
L 261.339329 254.566534 
L 275.974105 252.677973 
L 293.26975 250.667495 
L 311.895828 248.719127 
L 333.182775 246.716196 
L 355.800156 244.803329 
L 381.078405 242.900643 
L 407.687089 241.122546 
L 436.95664 239.393845 
L 468.887061 237.757017 
L 504.808783 236.142175 
L 544.721808 234.578024 
L 588.626136 233.084502 
L 637.852201 231.637821 
L 692.400002 230.259883 
L 753.599974 228.93756 
L 822.782551 227.666972 
L 901.278167 226.449983 
L 991.747691 225.27563 
L 993.078125 225.259886 
L 993.078125 225.259886 
" clip-path="url(#p7e955ed7de)" style="fill: none; stroke: #e4d354; stroke-linecap: square"/>
   </g>
   <g id="line2d_17">
    <path d="M 43.148125 353.2239 
L 47.139428 347.542208 
L 51.13073 342.298597 
L 55.122033 337.446511 
L 59.113335 332.94587 
L 63.104638 328.760871 
L 67.09594 324.861204 
L 71.087243 321.220061 
L 75.078545 317.812384 
L 80.400282 313.598137 
L 85.722019 309.719769 
L 91.043755 306.139633 
L 96.365492 302.827048 
L 101.687229 299.753084 
L 108.3394 296.212392 
L 114.99157 292.964899 
L 121.643741 289.979842 
L 128.295912 287.224653 
L 136.278517 284.186911 
L 144.261122 281.412298 
L 152.243727 278.869163 
L 161.556766 276.15698 
L 170.869806 273.681516 
L 180.182845 271.419144 
L 190.826318 269.065954 
L 202.800226 266.666681 
L 214.774133 264.493213 
L 228.078475 262.316479 
L 242.713251 260.164615 
L 258.678461 258.06128 
L 275.974105 256.023414 
L 294.600184 254.070402 
L 314.556696 252.211661 
L 335.843643 250.442892 
L 359.791458 248.683299 
L 386.400142 246.96539 
L 415.669694 245.312875 
L 447.600114 243.741754 
L 480.860968 242.323888 
L 519.443559 240.897456 
L 563.347887 239.502549 
L 612.573951 238.168041 
L 668.452187 236.884095 
L 730.982593 235.673832 
L 802.826038 234.510682 
L 885.312957 233.403401 
L 981.104217 232.347239 
L 993.078125 232.229316 
L 993.078125 232.229316 
" clip-path="url(#p7e955ed7de)" style="fill: none; stroke: #2b908f; stroke-linecap: square"/>
   </g>
   <g id="line2d_18">
    <path d="M 43.148125 353.2239 
L 47.139428 347.602791 
L 51.13073 342.519008 
L 55.122033 337.89988 
L 59.113335 333.685392 
L 63.104638 329.825434 
L 67.09594 326.276405 
L 71.087243 323.004158 
L 75.078545 319.975475 
L 80.400282 316.271614 
L 85.722019 312.906395 
L 91.043755 309.832102 
L 96.365492 307.014225 
L 101.687229 304.419851 
L 108.3394 301.454851 
L 114.99157 298.764481 
L 121.643741 296.302763 
L 128.295912 294.048144 
L 136.278517 291.579751 
L 144.261122 289.335933 
L 153.574161 286.962239 
L 162.887201 284.812095 
L 173.530674 282.600885 
L 184.174147 280.611289 
L 196.148055 278.596349 
L 209.452397 276.593419 
L 224.087173 274.630977 
L 240.052383 272.730105 
L 257.348027 270.90856 
L 275.974105 269.176641 
L 295.930618 267.5391 
L 318.547999 265.911609 
L 343.826248 264.322795 
L 371.765366 262.798686 
L 402.365352 261.354958 
L 436.95664 259.950329 
L 475.539231 258.609999 
L 519.443559 257.312128 
L 568.669624 256.082529 
L 624.547859 254.910523 
L 689.739133 253.772843 
L 764.243447 252.701014 
L 850.721668 251.684049 
L 951.834666 250.72192 
L 993.078125 250.384023 
L 993.078125 250.384023 
" clip-path="url(#p7e955ed7de)" style="fill: none; stroke: #f45b5b; stroke-linecap: square"/>
   </g>
   <g id="line2d_19">
    <path d="M 43.148125 353.2239 
L 45.808993 349.421502 
L 49.800296 344.208857 
L 53.791598 339.510387 
L 57.782901 335.255837 
L 61.774203 331.385901 
L 65.765506 327.85283 
L 69.756808 324.614122 
L 73.748111 321.63635 
L 77.739414 318.889936 
L 83.06115 315.54184 
L 88.382887 312.509181 
L 93.704624 309.751535 
L 99.02636 307.231454 
L 105.678531 304.370518 
L 112.330702 301.792171 
L 118.982873 299.451054 
L 126.965478 296.911658 
L 134.948083 294.626842 
L 142.930688 292.567484 
L 152.243727 290.402255 
L 161.556766 288.457483 
L 172.20024 286.463371 
L 184.174147 284.466245 
L 197.478489 282.497779 
L 210.782831 280.750492 
L 225.417607 279.044784 
L 241.382817 277.399571 
L 260.008895 275.715015 
L 278.634974 274.247984 
L 301.252355 272.697482 
L 326.530604 271.204155 
L 354.469722 269.786315 
L 385.069708 268.449945 
L 419.660996 267.162498 
L 459.574021 265.907081 
L 504.808783 264.714524 
L 556.695716 263.576453 
L 616.565254 262.493396 
L 684.417397 261.490953 
L 765.573881 260.51997 
L 861.365142 259.603909 
L 975.782481 258.740656 
L 993.078125 258.627127 
L 993.078125 258.627127 
" clip-path="url(#p7e955ed7de)" style="fill: none; stroke: #91e8e1; stroke-linecap: square"/>
   </g>
   <g id="line2d_20">
    <path d="M 43.148125 353.2239 
L 47.139428 347.530838 
L 51.13073 342.254516 
L 55.122033 337.351149 
L 59.113335 332.783357 
L 63.104638 328.518297 
L 67.09594 324.526973 
L 71.087243 320.784307 
L 76.408979 316.142847 
L 81.730716 311.859184 
L 87.052453 307.891682 
L 92.374189 304.209361 
L 97.695926 300.782733 
L 103.017663 297.586091 
L 109.669834 293.875887 
L 116.322005 290.450111 
L 122.974175 287.278031 
L 129.626346 284.337173 
L 137.608951 281.07602 
L 145.591556 278.075742 
L 153.574161 275.305529 
L 162.887201 272.328613 
L 172.20024 269.59177 
L 181.513279 267.074483 
L 192.156752 264.430267 
L 202.800226 262.004834 
L 214.774133 259.504364 
L 228.078475 256.969027 
L 241.382817 254.661019 
L 256.017593 252.347688 
L 270.652369 250.238321 
L 287.948013 247.983481 
L 305.243657 245.947335 
L 325.20017 243.831157 
L 346.487117 241.806145 
L 369.104498 239.877661 
L 394.382747 237.952386 
L 420.99143 236.14705 
L 450.260982 234.381151 
L 482.191402 232.67453 
L 518.113125 230.982235 
L 558.02615 229.334859 
L 601.930478 227.754285 
L 649.826108 226.254908 
L 703.043475 224.811448 
L 762.913013 223.411537 
L 830.765156 222.050473 
L 906.599904 220.756658 
L 993.078125 219.509815 
L 993.078125 219.509815 
" clip-path="url(#p7e955ed7de)" style="fill: none; stroke: #7cb5ec; stroke-linecap: square"/>
   </g>
   <g id="line2d_21">
    <path d="M 43.148125 353.2239 
L 45.808993 349.42338 
L 48.469862 345.891854 
L 52.461164 341.039687 
L 56.452467 336.654045 
L 60.443769 332.671095 
L 64.435072 329.037077 
L 68.426374 325.708023 
L 72.417677 322.646676 
L 76.408979 319.819513 
L 80.400282 317.202511 
L 85.722019 314.000814 
L 91.043755 311.083936 
L 96.365492 308.419586 
L 101.687229 305.971194 
L 108.3394 303.184834 
L 114.99157 300.655158 
L 121.643741 298.357673 
L 129.626346 295.855576 
L 137.608951 293.594979 
L 146.921991 291.219551 
L 156.23503 289.085332 
L 166.878503 286.897065 
L 177.521977 284.936428 
L 189.495884 282.962821 
L 202.800226 281.01112 
L 217.435002 279.109617 
L 233.400212 277.278293 
L 250.695856 275.530987 
L 269.321935 273.87742 
L 290.608881 272.224237 
L 313.226262 270.693068 
L 338.504512 269.205943 
L 366.443629 267.784542 
L 398.374049 266.388664 
L 434.295772 265.049281 
L 474.208797 263.787538 
L 519.443559 262.580351 
L 571.330492 261.420375 
L 631.20003 260.309169 
L 700.382607 259.252902 
L 781.539091 258.244192 
L 875.999918 257.298775 
L 987.756388 256.408259 
L 993.078125 256.370721 
L 993.078125 256.370721 
" clip-path="url(#p7e955ed7de)" style="fill: none; stroke: #434348; stroke-linecap: square"/>
   </g>
   <g id="line2d_22">
    <path d="M 43.148125 353.2239 
L 45.808993 349.43481 
L 48.469862 345.934899 
L 51.13073 342.693026 
L 55.122033 338.256303 
L 59.113335 334.264139 
L 63.104638 330.65384 
L 67.09594 327.372876 
L 71.087243 324.378877 
L 75.078545 321.633705 
L 79.069848 319.110923 
L 84.391584 316.043959 
L 89.713321 313.274609 
L 95.035058 310.762501 
L 100.356794 308.471477 
L 107.008965 305.8799 
L 113.661136 303.547164 
L 120.313307 301.434146 
L 128.295912 299.145278 
L 136.278517 297.085432 
L 144.261122 295.230702 
L 153.574161 293.286997 
L 164.217635 291.30208 
L 174.861108 289.536507 
L 186.835016 287.768422 
L 200.139357 286.027153 
L 214.774133 284.341848 
L 230.739343 282.729928 
L 248.034988 281.200716 
L 267.9915 279.664818 
L 290.608881 278.16306 
L 315.887131 276.724279 
L 343.826248 275.366943 
L 375.756668 274.049481 
L 411.678391 272.79905 
L 452.92185 271.597717 
L 499.487047 270.470718 
L 552.704414 269.407201 
L 615.23482 268.385335 
L 688.408699 267.418667 
L 774.886921 266.505751 
L 877.330352 265.652033 
L 993.078125 264.89523 
L 993.078125 264.89523 
" clip-path="url(#p7e955ed7de)" style="fill: none; stroke: #90ed7d; stroke-linecap: square"/>
   </g>
   <g id="line2d_23">
    <path d="M 43.148125 353.2239 
L 45.808993 349.423769 
L 48.469862 345.893573 
L 52.461164 341.045486 
L 56.452467 336.665979 
L 60.443769 332.690764 
L 64.435072 329.067203 
L 68.426374 325.752573 
L 72.417677 322.707816 
L 76.408979 319.904344 
L 81.730716 316.488043 
L 87.052453 313.394925 
L 92.374189 310.581143 
L 97.695926 308.01284 
L 103.017663 305.662835 
L 109.669834 302.980008 
L 116.322005 300.545787 
L 122.974175 298.332659 
L 130.95678 295.925102 
L 138.939386 293.749968 
L 148.252425 291.470595 
L 157.565464 289.420832 
L 168.208937 287.318674 
L 178.852411 285.435627 
L 190.826318 283.537896 
L 204.13066 281.660886 
L 218.765436 279.832313 
L 234.730646 278.072044 
L 252.02629 276.394656 
L 270.652369 274.808822 
L 291.939315 273.224494 
L 315.887131 271.678464 
L 342.495814 270.196807 
L 371.765366 268.793646 
L 405.02622 267.428751 
L 442.278377 266.130325 
L 484.852271 264.878346 
L 532.747901 263.700208 
L 587.295702 262.585439 
L 651.156542 261.508833 
L 725.660856 260.484256 
L 812.139077 259.523659 
L 914.582509 258.614484 
L 993.078125 258.041634 
L 993.078125 258.041634 
" clip-path="url(#p7e955ed7de)" style="fill: none; stroke: #f7a35c; stroke-linecap: square"/>
   </g>
   <g id="line2d_24">
    <path d="M 43.148125 353.2239 
L 47.139428 347.585519 
L 51.13073 342.456479 
L 55.122033 337.77194 
L 59.113335 333.477748 
L 63.104638 329.528505 
L 67.09594 325.884463 
L 71.087243 322.512373 
L 75.078545 319.3832 
L 80.400282 315.545689 
L 85.722019 312.044324 
L 91.043755 308.837778 
L 96.365492 305.891671 
L 101.687229 303.175383 
L 108.3394 300.059502 
L 114.99157 297.221294 
L 121.643741 294.629092 
L 129.626346 291.79286 
L 137.608951 289.211736 
L 145.591556 286.866912 
L 154.904596 284.382882 
L 164.217635 282.132339 
L 174.861108 279.806414 
L 185.504582 277.708005 
L 197.478489 275.578545 
L 210.782831 273.457501 
L 225.417607 271.375828 
L 240.052383 269.508881 
L 256.017593 267.686511 
L 273.313237 265.925377 
L 293.26975 264.124008 
L 314.556696 262.431686 
L 338.504512 260.764034 
L 365.113195 259.146181 
L 394.382747 257.599047 
L 426.313167 256.136283 
L 462.23489 254.71641 
L 503.478349 253.319021 
L 548.713111 252.012368 
L 600.600044 250.743065 
L 659.139147 249.539287 
L 725.660856 248.396664 
L 802.826038 247.298909 
L 891.965128 246.25866 
L 993.078125 245.297338 
L 993.078125 245.297338 
" clip-path="url(#p7e955ed7de)" style="fill: none; stroke: #8085e9; stroke-linecap: square"/>
   </g>
   <g id="line2d_25">
    <path d="M 43.148125 353.2239 
L 45.808993 349.461298 
L 48.469862 346.033113 
L 51.13073 342.898486 
L 53.791598 340.022603 
L 56.452467 337.375781 
L 60.443769 333.78002 
L 64.435072 330.570888 
L 68.426374 327.690014 
L 72.417677 325.09055 
L 76.408979 322.730853 
L 80.400282 320.583019 
L 85.722019 317.998426 
L 91.043755 315.689077 
L 96.365492 313.61218 
L 101.687229 311.729758 
L 108.3394 309.61337 
L 114.99157 307.721715 
L 122.974175 305.701829 
L 130.95678 303.912905 
L 140.26982 302.072016 
L 149.582859 300.446324 
L 160.226332 298.80724 
L 172.20024 297.192925 
L 185.504582 295.626623 
L 200.139357 294.131572 
L 216.104568 292.719337 
L 234.730646 291.298732 
L 256.017593 289.91721 
L 279.965408 288.603935 
L 306.574091 287.376361 
L 337.174077 286.195939 
L 370.434932 285.138116 
L 410.347957 284.090379 
L 456.913153 283.094386 
L 511.460954 282.153855 
L 576.652229 281.259198 
L 655.147845 280.414228 
L 749.608671 279.627769 
L 865.356444 278.895414 
L 993.078125 278.28338 
L 993.078125 278.28338 
" clip-path="url(#p7e955ed7de)" style="fill: none; stroke: #f15c80; stroke-linecap: square"/>
   </g>
   <g id="line2d_26">
    <path d="M 43.148125 353.2239 
L 47.139428 347.697804 
L 51.13073 342.617145 
L 55.122033 337.92722 
L 59.113335 333.585186 
L 63.104638 329.555817 
L 67.09594 325.807093 
L 71.087243 322.311099 
L 76.408979 318.00043 
L 81.730716 314.047325 
L 87.052453 310.411875 
L 92.374189 307.044374 
L 97.695926 303.933957 
L 103.017663 301.034032 
L 109.669834 297.691901 
L 116.322005 294.621949 
L 122.974175 291.779432 
L 129.626346 289.17296 
L 137.608951 286.275684 
L 145.591556 283.62266 
L 154.904596 280.798886 
L 164.217635 278.216941 
L 174.861108 275.534843 
L 185.504582 273.091522 
L 197.478489 270.5899 
L 209.452397 268.323364 
L 222.756738 266.034528 
L 237.391514 263.767946 
L 253.356724 261.535758 
L 269.321935 259.539223 
L 287.948013 257.447934 
L 306.574091 255.581591 
L 327.861038 253.678826 
L 350.478419 251.879665 
L 375.756668 250.089526 
L 403.695786 248.344023 
L 434.295772 246.664284 
L 467.556626 245.065225 
L 504.808783 243.510256 
L 546.052243 242.016415 
L 592.617439 240.561234 
L 644.504371 239.170487 
L 703.043475 237.832335 
L 768.23475 236.568195 
L 842.739063 235.350207 
L 927.88685 234.186001 
L 993.078125 233.415079 
L 993.078125 233.415079 
" clip-path="url(#p7e955ed7de)" style="fill: none; stroke: #e4d354; stroke-linecap: square"/>
   </g>
   <g id="line2d_27">
    <path d="M 43.148125 353.2239 
L 49.800296 343.609613 
L 56.452467 334.465395 
L 63.104638 325.756241 
L 69.756808 317.451323 
L 76.408979 309.522954 
L 83.06115 301.945811 
L 89.713321 294.697248 
L 96.365492 287.756474 
L 103.017663 281.104036 
L 109.669834 274.72264 
L 117.652439 267.399373 
L 125.635044 260.416502 
L 133.617649 253.750517 
L 141.600254 247.382069 
L 149.582859 241.290002 
L 157.565464 235.457866 
L 165.548069 229.86847 
L 174.861108 223.635816 
L 184.174147 217.691962 
L 193.487187 212.018617 
L 202.800226 206.598227 
L 213.443699 200.686479 
L 224.087173 195.063352 
L 234.730646 189.702779 
L 245.374119 184.58542 
L 256.017593 179.70075 
L 267.9915 174.463651 
L 279.965408 169.47881 
L 291.939315 164.726259 
L 303.913223 160.195156 
L 317.217565 155.397114 
L 330.521907 150.830683 
L 345.156682 146.057036 
L 359.791458 141.525425 
L 374.426234 137.217334 
L 390.391444 132.751864 
L 406.356654 128.517923 
L 423.652299 124.1707 
L 440.947943 120.051518 
L 459.574021 115.849405 
L 478.2001 111.873795 
L 498.156612 107.845808 
L 519.443559 103.788881 
L 540.730506 99.959108 
L 563.347887 96.11881 
L 587.295702 92.287642 
L 611.243517 88.677969 
L 636.521766 85.087456 
L 663.13045 81.530733 
L 691.069568 78.020459 
L 720.339119 74.564658 
L 750.939105 71.175027 
L 782.869526 67.859408 
L 817.460814 64.498336 
L 853.382537 61.237796 
L 890.634694 58.079755 
L 930.547719 54.923548 
L 971.791178 51.884675 
L 993.078125 50.397233 
L 993.078125 50.397233 
" clip-path="url(#p7e955ed7de)" style="fill: none; stroke: #2b908f; stroke-linecap: square"/>
   </g>
   <g id="line2d_28">
    <path d="M 43.148125 353.2239 
L 47.139428 347.532655 
L 51.13073 342.261096 
L 55.122033 337.366587 
L 59.113335 332.812186 
L 63.104638 328.56559 
L 67.09594 324.597939 
L 71.087243 320.883734 
L 76.408979 316.287008 
L 81.730716 312.055386 
L 87.052453 308.147751 
L 92.374189 304.529496 
L 97.695926 301.171001 
L 103.017663 298.045752 
L 109.669834 294.433057 
L 116.322005 291.112264 
L 122.974175 288.04805 
L 129.626346 285.213571 
L 137.608951 282.077085 
L 145.591556 279.202899 
L 153.574161 276.556622 
L 161.556766 274.118813 
L 170.869806 271.50098 
L 180.182845 269.093646 
L 190.826318 266.578032 
L 201.469792 264.278365 
L 213.443699 261.918934 
L 226.748041 259.536988 
L 240.052383 257.374913 
L 254.687159 255.225779 
L 271.982803 252.931399 
L 289.278447 250.877311 
L 307.904526 248.890763 
L 327.861038 246.982939 
L 349.147985 245.164066 
L 373.0958 243.34097 
L 399.704484 241.553419 
L 428.974035 239.820714 
L 460.904456 238.160923 
L 495.495744 236.58583 
L 534.078335 235.052689 
L 576.652229 233.58346 
L 624.547859 232.155549 
L 677.765226 230.792511 
L 737.634764 229.482174 
L 805.486907 228.221597 
L 882.652089 227.013498 
L 971.791178 225.847525 
L 993.078125 225.598876 
L 993.078125 225.598876 
" clip-path="url(#p7e955ed7de)" style="fill: none; stroke: #f45b5b; stroke-linecap: square"/>
   </g>
   <g id="line2d_29">
    <path d="M 43.148125 353.2239 
L 47.139428 347.538899 
L 51.13073 342.284397 
L 55.122033 337.415481 
L 59.113335 332.893427 
L 63.104638 328.684653 
L 67.09594 324.758956 
L 71.087243 321.090081 
L 76.408979 316.557434 
L 81.730716 312.392042 
L 87.052453 308.551323 
L 92.374189 304.998409 
L 97.695926 301.703239 
L 103.017663 298.640265 
L 108.3394 295.783109 
L 114.99157 292.475431 
L 121.643741 289.423259 
L 128.295912 286.602882 
L 136.278517 283.4897 
L 142.930688 281.08816 
L 150.913293 278.438908 
L 160.226332 275.595139 
L 169.539371 272.993643 
L 180.182845 270.258615 
L 190.826318 267.745509 
L 201.469792 265.444985 
L 213.443699 263.104546 
L 226.748041 260.746728 
L 241.382817 258.407815 
L 256.017593 256.302172 
L 275.974105 253.701312 
L 293.26975 251.686099 
L 313.226262 249.596688 
L 334.513209 247.604327 
L 357.13059 245.713107 
L 378.417537 244.13939 
L 405.02622 242.40773 
L 434.295772 240.725533 
L 466.226192 239.110666 
L 502.147915 237.519833 
L 542.06094 235.981186 
L 585.965268 234.51411 
L 635.191332 233.095021 
L 704.373909 231.35764 
L 768.23475 230.011899 
L 840.078195 228.727335 
L 921.23468 227.5035 
L 993.078125 226.578121 
L 993.078125 226.578121 
" clip-path="url(#p7e955ed7de)" style="fill: none; stroke: #91e8e1; stroke-linecap: square"/>
   </g>
   <g id="line2d_30">
    <path d="M 43.148125 353.2239 
L 47.139428 347.573763 
L 51.13073 342.4141 
L 55.122033 337.687429 
L 59.113335 333.344759 
L 63.104638 329.343664 
L 67.09594 325.64784 
L 71.087243 322.225433 
L 75.078545 319.048478 
L 79.069848 316.092951 
L 84.391584 312.461086 
L 89.713321 309.141681 
L 95.035058 306.09732 
L 100.356794 303.294973 
L 105.678531 300.709195 
L 112.330702 297.748929 
L 118.982873 295.05162 
L 125.635044 292.586936 
L 133.617649 289.895727 
L 141.600254 287.462325 
L 149.582859 285.254472 
L 158.895898 282.917361 
L 168.208937 280.800937 
L 178.852411 278.619542 
L 189.495884 276.655947 
L 201.469792 274.669587 
L 214.774133 272.69807 
L 229.408909 270.771139 
L 245.374119 268.911082 
L 262.669764 267.133543 
L 281.295842 265.448537 
L 302.582789 263.761152 
L 325.20017 262.197836 
L 350.478419 260.678654 
L 378.417537 259.22632 
L 410.347957 257.80025 
L 447.600114 256.375486 
L 487.513139 255.082216 
L 532.747901 253.844143 
L 581.973965 252.717784 
L 640.513069 251.609467 
L 708.365212 250.551476 
L 788.191262 249.537918 
L 881.321654 248.58589 
L 991.747691 247.687542 
L 993.078125 247.677931 
L 993.078125 247.677931 
" clip-path="url(#p7e955ed7de)" style="fill: none; stroke: #7cb5ec; stroke-linecap: square"/>
   </g>
   <g id="line2d_31">
    <path d="M 43.148125 353.2239 
L 45.808993 349.482698 
L 48.469862 346.110389 
L 51.13073 343.057073 
L 53.791598 340.281004 
L 56.452467 337.747491 
L 60.443769 334.339127 
L 64.435072 331.331525 
L 68.426374 328.65806 
L 72.417677 326.267319 
L 76.408979 324.115794 
L 80.400282 322.173451 
L 85.722019 319.858851 
L 91.043755 317.810619 
L 96.365492 315.982086 
L 103.017663 313.963482 
L 109.669834 312.187147 
L 117.652439 310.317058 
L 125.635044 308.682626 
L 134.948083 307.02526 
L 144.261122 305.583778 
L 154.904596 304.151268 
L 166.878503 302.756711 
L 180.182845 301.427323 
L 196.148055 300.064269 
L 213.443699 298.813079 
L 233.400212 297.60502 
L 256.017593 296.472014 
L 282.626276 295.375877 
L 313.226262 294.347908 
L 349.147985 293.373369 
L 391.721879 292.452023 
L 442.278377 291.587693 
L 503.478349 290.771596 
L 577.982663 290.012646 
L 669.782621 289.31087 
L 784.19996 288.667235 
L 930.547719 288.075589 
L 993.078125 287.876169 
L 993.078125 287.876169 
" clip-path="url(#p7e955ed7de)" style="fill: none; stroke: #434348; stroke-linecap: square"/>
   </g>
   <g id="line2d_32">
    <path d="M 43.148125 353.2239 
L 45.808993 349.488902 
L 48.469862 346.132337 
L 51.13073 343.101455 
L 53.791598 340.352825 
L 56.452467 337.850014 
L 59.113335 335.563055 
L 63.104638 332.481117 
L 67.09594 329.756449 
L 71.087243 327.333548 
L 75.078545 325.163227 
L 79.069848 323.211017 
L 84.391584 320.895596 
L 89.713321 318.854679 
L 95.035058 317.044981 
L 101.687229 315.056386 
L 108.3394 313.312091 
L 114.99157 311.777432 
L 122.974175 310.160668 
L 132.287215 308.528317 
L 141.600254 307.114456 
L 152.243727 305.716841 
L 164.217635 304.367916 
L 177.521977 303.089484 
L 193.487187 301.793976 
L 210.782831 300.615118 
L 230.739343 299.482191 
L 253.356724 298.422925 
L 279.965408 297.402578 
L 311.895828 296.414761 
L 349.147985 295.497099 
L 393.052313 294.644826 
L 446.26968 293.842174 
L 511.460954 293.091756 
L 591.287005 292.402917 
L 692.400002 291.762629 
L 821.452117 291.178715 
L 990.417257 290.649087 
L 993.078125 290.64221 
L 993.078125 290.64221 
" clip-path="url(#p7e955ed7de)" style="fill: none; stroke: #90ed7d; stroke-linecap: square"/>
   </g>
   <g id="line2d_33">
    <path d="M 43.148125 353.2239 
L 45.808993 349.474419 
L 48.469862 346.080036 
L 51.13073 342.994499 
L 53.791598 340.179561 
L 56.452467 337.602553 
L 60.443769 334.123877 
L 64.435072 331.042122 
L 68.426374 328.295749 
L 72.417677 325.834157 
L 76.408979 323.617658 
L 80.400282 321.610189 
L 85.722019 319.215 
L 91.043755 317.094968 
L 96.365492 315.204109 
L 103.017663 313.114318 
L 109.669834 311.278861 
L 116.322005 309.653212 
L 124.30461 307.930377 
L 132.287215 306.42061 
L 141.600254 304.880101 
L 152.243727 303.355733 
L 164.217635 301.883147 
L 177.521977 300.486701 
L 193.487187 299.06121 
L 210.782831 297.75247 
L 230.739343 296.507376 
L 253.356724 295.339071 
L 278.634974 294.264823 
L 307.904526 293.253475 
L 343.826248 292.251355 
L 385.069708 291.334195 
L 431.634904 290.523705 
L 491.504442 289.715017 
L 563.347887 288.973405 
L 652.486977 288.285632 
L 764.243447 287.654856 
L 907.930338 287.076357 
L 993.078125 286.813966 
L 993.078125 286.813966 
" clip-path="url(#p7e955ed7de)" style="fill: none; stroke: #f7a35c; stroke-linecap: square"/>
   </g>
   <g id="line2d_34">
    <path d="M 43.148125 353.2239 
L 47.139428 347.538289 
L 51.13073 342.282392 
L 55.122033 337.411513 
L 59.113335 332.887269 
L 63.104638 328.676014 
L 67.09594 324.747755 
L 71.087243 321.076719 
L 75.078545 317.639317 
L 80.400282 313.384258 
L 85.722019 309.467272 
L 91.043755 305.849251 
L 96.365492 302.500991 
L 101.687229 299.391282 
L 107.008965 296.500405 
L 113.661136 293.162641 
L 120.313307 290.096983 
L 126.965478 287.265262 
L 133.617649 284.653719 
L 141.600254 281.76715 
L 149.582859 279.12496 
L 158.895898 276.310023 
L 168.208937 273.745871 
L 177.521977 271.403294 
L 188.16545 268.96588 
L 198.808923 266.756717 
L 210.782831 264.493759 
L 224.087173 262.223568 
L 237.391514 260.172458 
L 252.02629 258.137212 
L 267.9915 256.151189 
L 285.287145 254.230204 
L 303.913223 252.385666 
L 325.20017 250.510026 
L 347.817551 248.7444 
L 373.0958 247.007131 
L 399.704484 245.401175 
L 430.30447 243.786245 
L 463.565324 242.260679 
L 499.487047 240.837833 
L 540.730506 239.439309 
L 587.295702 238.090276 
L 639.182635 236.813584 
L 697.721738 235.597113 
L 765.573881 234.416561 
L 842.739063 233.302406 
L 931.878153 232.243095 
L 993.078125 231.625177 
L 993.078125 231.625177 
" clip-path="url(#p7e955ed7de)" style="fill: none; stroke: #8085e9; stroke-linecap: square"/>
   </g>
   <g id="line2d_35">
    <path d="M 43.148125 353.2239 
L 47.139428 347.580843 
L 51.13073 342.439284 
L 55.122033 337.738449 
L 59.113335 333.426877 
L 63.104638 329.460849 
L 67.09594 325.801863 
L 71.087243 322.41633 
L 75.078545 319.276882 
L 80.400282 315.4287 
L 85.722019 311.917225 
L 91.043755 308.702663 
L 96.365492 305.748073 
L 101.687229 303.022116 
L 108.3394 299.898211 
L 114.99157 297.048613 
L 121.643741 294.430127 
L 128.295912 292.023731 
L 136.278517 289.37245 
L 144.261122 286.973726 
L 153.574161 284.432267 
L 162.887201 282.130934 
L 173.530674 279.759036 
L 184.174147 277.618965 
L 198.808923 274.938558 
L 212.113265 272.810604 
L 228.078475 270.519648 
L 240.052383 269.008645 
L 258.678461 266.900501 
L 281.295842 264.63539 
L 301.252355 262.875436 
L 325.20017 260.99874 
L 349.147985 259.342003 
L 374.426234 257.838491 
L 403.695786 256.323137 
L 440.947943 254.652243 
L 478.2001 253.188079 
L 515.452257 251.947301 
L 562.017453 250.614286 
L 613.904386 249.353704 
L 675.104357 248.095828 
L 742.9565 246.929398 
L 821.452117 245.809637 
L 911.92164 244.748501 
L 993.078125 243.954972 
L 993.078125 243.954972 
" clip-path="url(#p7e955ed7de)" style="fill: none; stroke: #f15c80; stroke-linecap: square"/>
   </g>
   <g id="line2d_36">
    <path d="M 43.148125 353.2239 
L 45.808993 349.425763 
L 48.469862 345.900724 
L 52.461164 341.066954 
L 56.452467 336.710522 
L 60.443769 332.767671 
L 64.435072 329.185086 
L 68.426374 325.917786 
L 72.417677 322.927252 
L 76.408979 320.180148 
L 80.400282 317.651261 
L 85.722019 314.574747 
L 91.043755 311.794213 
L 96.365492 309.265009 
L 101.687229 306.959722 
L 108.3394 304.346901 
L 114.99157 301.991047 
L 121.643741 299.859999 
L 129.626346 297.555052 
L 137.608951 295.479217 
L 146.921991 293.310997 
L 156.23503 291.371601 
L 166.878503 289.389031 
L 178.852411 287.409898 
L 190.826318 285.653355 
L 204.13066 283.919254 
L 218.765436 282.23213 
L 234.730646 280.6097 
L 253.356724 278.952932 
L 273.313237 277.407818 
L 295.930618 275.889511 
L 321.208867 274.436917 
L 349.147985 273.06121 
L 379.747971 271.782226 
L 415.669694 270.509947 
L 456.913153 269.278565 
L 503.478349 268.120228 
L 559.356584 266.962614 
L 620.556556 265.918563 
L 693.730436 264.921975 
L 778.878223 263.991339 
L 879.99122 263.114204 
L 993.078125 262.341454 
L 993.078125 262.341454 
" clip-path="url(#p7e955ed7de)" style="fill: none; stroke: #e4d354; stroke-linecap: square"/>
   </g>
   <g id="line2d_37">
    <path d="M 43.148125 353.2239 
L 45.808993 349.470121 
L 48.469862 346.064519 
L 51.13073 342.962273 
L 53.791598 340.125984 
L 56.452467 337.523886 
L 60.443769 334.001939 
L 64.435072 330.871754 
L 68.426374 328.072409 
L 72.417677 325.554136 
L 76.408979 323.278417 
L 80.400282 321.211927 
L 85.722019 318.737402 
L 91.043755 316.537628 
L 96.365492 314.566741 
L 103.017663 312.374825 
L 109.669834 310.439198 
L 116.322005 308.720293 
L 124.30461 306.891876 
L 132.287215 305.27828 
L 141.600254 303.618883 
L 152.243727 301.966561 
L 162.887201 300.522714 
L 176.191542 298.968982 
L 190.826318 297.504615 
L 206.791528 296.14179 
L 225.417607 294.79454 
L 245.374119 293.577243 
L 267.9915 292.418102 
L 294.600184 291.283776 
L 325.20017 290.20933 
L 361.121893 289.178911 
L 402.365352 288.219243 
L 451.591416 287.303575 
L 510.13052 286.445071 
L 580.643531 285.641227 
L 664.460884 284.912756 
L 770.895618 284.220739 
L 905.26947 283.582188 
L 993.078125 283.257976 
L 993.078125 283.257976 
" clip-path="url(#p7e955ed7de)" style="fill: none; stroke: #2b908f; stroke-linecap: square"/>
   </g>
   <g id="line2d_38">
    <path d="M 43.148125 353.2239 
L 45.808993 349.443491 
L 48.469862 345.966539 
L 51.13073 342.758888 
L 55.122033 338.390063 
L 59.113335 334.481141 
L 63.104638 330.965909 
L 67.09594 327.788993 
L 71.087243 324.90572 
L 75.078545 322.276866 
L 79.069848 319.871716 
L 84.391584 316.966228 
L 89.713321 314.35745 
L 95.035058 312.009073 
L 100.356794 309.874208 
L 107.008965 307.477336 
L 113.661136 305.328286 
L 121.643741 303.031628 
L 129.626346 300.993888 
L 137.608951 299.180437 
L 146.921991 297.303514 
L 157.565464 295.404506 
L 168.208937 293.731618 
L 180.182845 292.073633 
L 193.487187 290.46088 
L 208.121963 288.915035 
L 224.087173 287.450311 
L 241.382817 286.083295 
L 261.339329 284.7378 
L 283.95671 283.439407 
L 309.23496 282.184893 
L 338.504512 280.961126 
L 371.765366 279.799764 
L 409.017523 278.728357 
L 452.92185 277.696494 
L 504.808783 276.707453 
L 566.008755 275.773339 
L 637.852201 274.905158 
L 728.321724 274.047272 
L 834.756458 273.273615 
L 965.139007 272.557923 
L 993.078125 272.428966 
L 993.078125 272.428966 
" clip-path="url(#p7e955ed7de)" style="fill: none; stroke: #f45b5b; stroke-linecap: square"/>
   </g>
   <g id="line2d_39">
    <path d="M 43.148125 353.2239 
L 45.808993 349.448212 
L 48.469862 345.984218 
L 51.13073 342.796268 
L 53.791598 339.854038 
L 57.782901 335.84488 
L 61.774203 332.255658 
L 65.765506 329.026018 
L 69.756808 326.104918 
L 73.748111 323.451577 
L 77.739414 321.028082 
L 83.06115 318.107585 
L 88.382887 315.488644 
L 93.704624 313.135061 
L 99.02636 311.006875 
L 105.678531 308.603934 
L 112.330702 306.448645 
L 118.982873 304.50406 
L 126.965478 302.453952 
L 134.948083 300.609012 
L 144.261122 298.688226 
L 154.904596 296.741297 
L 165.548069 295.036528 
L 176.191542 293.515937 
L 189.495884 291.847128 
L 202.800226 290.372103 
L 217.435002 288.973343 
L 234.730646 287.546221 
L 254.687159 286.123361 
L 277.30454 284.747378 
L 302.582789 283.444664 
L 330.521907 282.229465 
L 362.452327 281.063607 
L 397.043615 280.016651 
L 439.617509 278.953123 
L 488.843573 277.950428 
L 547.382677 276.989276 
L 616.565254 276.085594 
L 699.052173 275.239238 
L 798.834736 274.446727 
L 921.23468 273.707068 
L 993.078125 273.347477 
L 993.078125 273.347477 
" clip-path="url(#p7e955ed7de)" style="fill: none; stroke: #91e8e1; stroke-linecap: square"/>
   </g>
   <g id="line2d_40">
    <path d="M 43.148125 353.2239 
L 48.469862 345.549086 
L 53.791598 338.28039 
L 59.113335 331.387289 
L 64.435072 324.842892 
L 69.756808 318.622838 
L 75.078545 312.704614 
L 80.400282 307.067735 
L 87.052453 300.389254 
L 93.704624 294.088576 
L 100.356794 288.136164 
L 107.008965 282.505177 
L 113.661136 277.169302 
L 120.313307 272.108772 
L 126.965478 267.302324 
L 133.617649 262.733128 
L 141.600254 257.538503 
L 149.582859 252.634458 
L 157.565464 248.000073 
L 165.548069 243.612232 
L 173.530674 239.452746 
L 182.843713 234.863964 
L 192.156752 230.539237 
L 201.469792 226.458941 
L 210.782831 222.601916 
L 221.426304 218.450357 
L 232.069778 214.538498 
L 242.713251 210.851924 
L 254.687159 206.947815 
L 266.661066 203.283569 
L 278.634974 199.835465 
L 291.939315 196.236201 
L 305.243657 192.859558 
L 319.878433 189.378844 
L 334.513209 186.12322 
L 350.478419 182.801251 
L 367.774063 179.44674 
L 386.400142 176.075415 
L 403.695786 173.163201 
L 422.321864 170.226712 
L 442.278377 167.314445 
L 463.565324 164.428276 
L 486.182705 161.584749 
L 511.460954 158.643245 
L 536.739203 155.928416 
L 563.347887 153.288531 
L 592.617439 150.613381 
L 623.217425 148.042991 
L 656.478279 145.473388 
L 692.400002 142.92929 
L 729.652159 140.509471 
L 769.565184 138.140909 
L 812.139077 135.83919 
L 858.704273 133.569495 
L 907.930338 131.394983 
L 961.147705 129.268216 
L 993.078125 128.090361 
L 993.078125 128.090361 
" clip-path="url(#p7e955ed7de)" style="fill: none; stroke: #7cb5ec; stroke-linecap: square"/>
   </g>
   <g id="line2d_41">
    <path d="M 43.148125 353.2239 
L 47.139428 347.566246 
L 51.13073 342.384054 
L 55.122033 337.621597 
L 59.113335 333.231636 
L 63.104638 329.173736 
L 67.09594 325.412937 
L 71.087243 321.918867 
L 75.078545 318.664959 
L 80.400282 314.659257 
L 85.722019 310.991632 
L 91.043755 307.622535 
L 96.365492 304.515336 
L 101.687229 301.643858 
L 108.3394 298.343552 
L 114.99157 295.326659 
L 121.643741 292.55994 
L 128.295912 290.015588 
L 136.278517 287.2122 
L 144.261122 284.656123 
L 152.243727 282.313577 
L 161.556766 279.816375 
L 170.869806 277.537364 
L 181.513279 275.175462 
L 193.487187 272.772252 
L 205.461094 270.603924 
L 218.765436 268.432812 
L 233.400212 266.282338 
L 249.365422 264.186907 
L 266.661066 262.162982 
L 285.287145 260.223897 
L 305.243657 258.378255 
L 326.530604 256.630819 
L 350.478419 254.892361 
L 377.087103 253.194505 
L 406.356654 251.560267 
L 438.287075 250.005172 
L 474.208797 248.486113 
L 514.121822 247.030119 
L 558.02615 245.653733 
L 608.582649 244.299401 
L 664.460884 243.028437 
L 728.321724 241.802048 
L 801.495604 240.625423 
L 885.312957 239.506512 
L 982.434652 238.439547 
L 993.078125 238.334809 
L 993.078125 238.334809 
" clip-path="url(#p7e955ed7de)" style="fill: none; stroke: #434348; stroke-linecap: square"/>
   </g>
   <g id="line2d_42">
    <path d="M 43.148125 353.2239 
L 247.365661 50.424082 
" clip-path="url(#p7e955ed7de)" style="fill: none; stroke-dasharray: 3.7,1.6; stroke-dashoffset: 0; stroke: #000000"/>
   </g>
   <g id="line2d_43">
    <path d="M 43.148125 353.2239 
L 993.078125 353.2239 
" clip-path="url(#p7e955ed7de)" style="fill: none; stroke: #dedede; stroke-width: 2; stroke-linecap: square"/>
   </g>
   <g id="text_20">
    <!-- Preseq: Complexity curve (molecule count) -->
    <g transform="translate(345.504375 19.3575) scale(0.16 -0.16)">
     <defs>
      <path id="DejaVuSans-50" d="M 1259 4147 
L 1259 2394 
L 2053 2394 
Q 2494 2394 2734 2622 
Q 2975 2850 2975 3272 
Q 2975 3691 2734 3919 
Q 2494 4147 2053 4147 
L 1259 4147 
z
M 628 4666 
L 2053 4666 
Q 2838 4666 3239 4311 
Q 3641 3956 3641 3272 
Q 3641 2581 3239 2228 
Q 2838 1875 2053 1875 
L 1259 1875 
L 1259 0 
L 628 0 
L 628 4666 
z
" transform="scale(0.015625)"/>
      <path id="DejaVuSans-72" d="M 2631 2963 
Q 2534 3019 2420 3045 
Q 2306 3072 2169 3072 
Q 1681 3072 1420 2755 
Q 1159 2438 1159 1844 
L 1159 0 
L 581 0 
L 581 3500 
L 1159 3500 
L 1159 2956 
Q 1341 3275 1631 3429 
Q 1922 3584 2338 3584 
Q 2397 3584 2469 3576 
Q 2541 3569 2628 3553 
L 2631 2963 
z
" transform="scale(0.015625)"/>
      <path id="DejaVuSans-3a" d="M 750 794 
L 1409 794 
L 1409 0 
L 750 0 
L 750 794 
z
M 750 3309 
L 1409 3309 
L 1409 2516 
L 750 2516 
L 750 3309 
z
" transform="scale(0.015625)"/>
      <path id="DejaVuSans-43" d="M 4122 4306 
L 4122 3641 
Q 3803 3938 3442 4084 
Q 3081 4231 2675 4231 
Q 1875 4231 1450 3742 
Q 1025 3253 1025 2328 
Q 1025 1406 1450 917 
Q 1875 428 2675 428 
Q 3081 428 3442 575 
Q 3803 722 4122 1019 
L 4122 359 
Q 3791 134 3420 21 
Q 3050 -91 2638 -91 
Q 1578 -91 968 557 
Q 359 1206 359 2328 
Q 359 3453 968 4101 
Q 1578 4750 2638 4750 
Q 3056 4750 3426 4639 
Q 3797 4528 4122 4306 
z
" transform="scale(0.015625)"/>
      <path id="DejaVuSans-78" d="M 3513 3500 
L 2247 1797 
L 3578 0 
L 2900 0 
L 1881 1375 
L 863 0 
L 184 0 
L 1544 1831 
L 300 3500 
L 978 3500 
L 1906 2253 
L 2834 3500 
L 3513 3500 
z
" transform="scale(0.015625)"/>
      <path id="DejaVuSans-79" d="M 2059 -325 
Q 1816 -950 1584 -1140 
Q 1353 -1331 966 -1331 
L 506 -1331 
L 506 -850 
L 844 -850 
Q 1081 -850 1212 -737 
Q 1344 -625 1503 -206 
L 1606 56 
L 191 3500 
L 800 3500 
L 1894 763 
L 2988 3500 
L 3597 3500 
L 2059 -325 
z
" transform="scale(0.015625)"/>
      <path id="DejaVuSans-76" d="M 191 3500 
L 800 3500 
L 1894 563 
L 2988 3500 
L 3597 3500 
L 2284 0 
L 1503 0 
L 191 3500 
z
" transform="scale(0.015625)"/>
     </defs>
     <use xlink:href="#DejaVuSans-50"/>
     <use xlink:href="#DejaVuSans-72" x="58.552734"/>
     <use xlink:href="#DejaVuSans-65" x="97.416016"/>
     <use xlink:href="#DejaVuSans-73" x="158.939453"/>
     <use xlink:href="#DejaVuSans-65" x="211.039062"/>
     <use xlink:href="#DejaVuSans-71" x="272.5625"/>
     <use xlink:href="#DejaVuSans-3a" x="336.039062"/>
     <use xlink:href="#DejaVuSans-20" x="369.730469"/>
     <use xlink:href="#DejaVuSans-43" x="401.517578"/>
     <use xlink:href="#DejaVuSans-6f" x="471.341797"/>
     <use xlink:href="#DejaVuSans-6d" x="532.523438"/>
     <use xlink:href="#DejaVuSans-70" x="629.935547"/>
     <use xlink:href="#DejaVuSans-6c" x="693.412109"/>
     <use xlink:href="#DejaVuSans-65" x="721.195312"/>
     <use xlink:href="#DejaVuSans-78" x="780.96875"/>
     <use xlink:href="#DejaVuSans-69" x="840.148438"/>
     <use xlink:href="#DejaVuSans-74" x="867.931641"/>
     <use xlink:href="#DejaVuSans-79" x="907.140625"/>
     <use xlink:href="#DejaVuSans-20" x="966.320312"/>
     <use xlink:href="#DejaVuSans-63" x="998.107422"/>
     <use xlink:href="#DejaVuSans-75" x="1053.087891"/>
     <use xlink:href="#DejaVuSans-72" x="1116.466797"/>
     <use xlink:href="#DejaVuSans-76" x="1157.580078"/>
     <use xlink:href="#DejaVuSans-65" x="1216.759766"/>
     <use xlink:href="#DejaVuSans-20" x="1278.283203"/>
     <use xlink:href="#DejaVuSans-28" x="1310.070312"/>
     <use xlink:href="#DejaVuSans-6d" x="1349.083984"/>
     <use xlink:href="#DejaVuSans-6f" x="1446.496094"/>
     <use xlink:href="#DejaVuSans-6c" x="1507.677734"/>
     <use xlink:href="#DejaVuSans-65" x="1535.460938"/>
     <use xlink:href="#DejaVuSans-63" x="1596.984375"/>
     <use xlink:href="#DejaVuSans-75" x="1651.964844"/>
     <use xlink:href="#DejaVuSans-6c" x="1715.34375"/>
     <use xlink:href="#DejaVuSans-65" x="1743.126953"/>
     <use xlink:href="#DejaVuSans-20" x="1804.650391"/>
     <use xlink:href="#DejaVuSans-63" x="1836.4375"/>
     <use xlink:href="#DejaVuSans-6f" x="1891.417969"/>
     <use xlink:href="#DejaVuSans-75" x="1952.599609"/>
     <use xlink:href="#DejaVuSans-6e" x="2015.978516"/>
     <use xlink:href="#DejaVuSans-74" x="2079.357422"/>
     <use xlink:href="#DejaVuSans-29" x="2118.566406"/>
    </g>
   </g>
  </g>
 </g>
 <defs>
  <clipPath id="p7e955ed7de">
   <rect x="43.148125" y="35.2559" width="949.93" height="317.968"/>
  </clipPath>
 </defs>
</svg>
