<?xml version="1.0" encoding="utf-8" standalone="no"?>
<!DOCTYPE svg PUBLIC "-//W3C//DTD SVG 1.1//EN"
  "http://www.w3.org/Graphics/SVG/1.1/DTD/svg11.dtd">
<svg xmlns:xlink="http://www.w3.org/1999/xlink" width="1000.340625pt" height="388.844525pt" viewBox="0 0 1000.340625 388.844525" xmlns="http://www.w3.org/2000/svg" version="1.1">
 <metadata>
  <rdf:RDF xmlns:dc="http://purl.org/dc/elements/1.1/" xmlns:cc="http://creativecommons.org/ns#" xmlns:rdf="http://www.w3.org/1999/02/22-rdf-syntax-ns#">
   <cc:Work>
    <dc:type rdf:resource="http://purl.org/dc/dcmitype/StillImage"/>
    <dc:date>2025-01-24T09:54:40.574017</dc:date>
    <dc:format>image/svg+xml</dc:format>
    <dc:creator>
     <cc:Agent>
      <dc:title>Matplotlib v3.8.2, https://matplotlib.org/</dc:title>
     </cc:Agent>
    </dc:creator>
   </cc:Work>
  </rdf:RDF>
 </metadata>
 <defs>
  <style type="text/css">*{stroke-linejoin: round; stroke-linecap: butt}</style>
 </defs>
 <g id="figure_1">
  <g id="axes_1">
   <g id="patch_1">
    <path d="M 40.600625 353.2239 
L 993.140625 353.2239 
L 993.140625 35.2559 
L 40.600625 35.2559 
z
" style="fill: #ffffff"/>
   </g>
   <g id="matplotlib.axis_1">
    <g id="xtick_1">
     <g id="text_1">
      <!-- 0 -->
      <g transform="translate(63.680542 366.30265) scale(0.08 -0.08)">
       <defs>
        <path id="DejaVuSans-30" d="M 2034 4250 
Q 1547 4250 1301 3770 
Q 1056 3291 1056 2328 
Q 1056 1369 1301 889 
Q 1547 409 2034 409 
Q 2525 409 2770 889 
Q 3016 1369 3016 2328 
Q 3016 3291 2770 3770 
Q 2525 4250 2034 4250 
z
M 2034 4750 
Q 2819 4750 3233 4129 
Q 3647 3509 3647 2328 
Q 3647 1150 3233 529 
Q 2819 -91 2034 -91 
Q 1250 -91 836 529 
Q 422 1150 422 2328 
Q 422 3509 836 4129 
Q 1250 4750 2034 4750 
z
" transform="scale(0.015625)"/>
       </defs>
       <use xlink:href="#DejaVuSans-30"/>
      </g>
     </g>
    </g>
    <g id="xtick_2">
     <g id="text_2">
      <!-- 10 -->
      <g transform="translate(237.859104 366.30265) scale(0.08 -0.08)">
       <defs>
        <path id="DejaVuSans-31" d="M 794 531 
L 1825 531 
L 1825 4091 
L 703 3866 
L 703 4441 
L 1819 4666 
L 2450 4666 
L 2450 531 
L 3481 531 
L 3481 0 
L 794 0 
L 794 531 
z
" transform="scale(0.015625)"/>
       </defs>
       <use xlink:href="#DejaVuSans-31"/>
       <use xlink:href="#DejaVuSans-30" x="63.623047"/>
      </g>
     </g>
    </g>
    <g id="xtick_3">
     <g id="text_3">
      <!-- 20 -->
      <g transform="translate(414.582666 366.30265) scale(0.08 -0.08)">
       <defs>
        <path id="DejaVuSans-32" d="M 1228 531 
L 3431 531 
L 3431 0 
L 469 0 
L 469 531 
Q 828 903 1448 1529 
Q 2069 2156 2228 2338 
Q 2531 2678 2651 2914 
Q 2772 3150 2772 3378 
Q 2772 3750 2511 3984 
Q 2250 4219 1831 4219 
Q 1534 4219 1204 4116 
Q 875 4013 500 3803 
L 500 4441 
Q 881 4594 1212 4672 
Q 1544 4750 1819 4750 
Q 2544 4750 2975 4387 
Q 3406 4025 3406 3419 
Q 3406 3131 3298 2873 
Q 3191 2616 2906 2266 
Q 2828 2175 2409 1742 
Q 1991 1309 1228 531 
z
" transform="scale(0.015625)"/>
       </defs>
       <use xlink:href="#DejaVuSans-32"/>
       <use xlink:href="#DejaVuSans-30" x="63.623047"/>
      </g>
     </g>
    </g>
    <g id="xtick_4">
     <g id="text_4">
      <!-- 30 -->
      <g transform="translate(591.306228 366.30265) scale(0.08 -0.08)">
       <defs>
        <path id="DejaVuSans-33" d="M 2597 2516 
Q 3050 2419 3304 2112 
Q 3559 1806 3559 1356 
Q 3559 666 3084 287 
Q 2609 -91 1734 -91 
Q 1441 -91 1130 -33 
Q 819 25 488 141 
L 488 750 
Q 750 597 1062 519 
Q 1375 441 1716 441 
Q 2309 441 2620 675 
Q 2931 909 2931 1356 
Q 2931 1769 2642 2001 
Q 2353 2234 1838 2234 
L 1294 2234 
L 1294 2753 
L 1863 2753 
Q 2328 2753 2575 2939 
Q 2822 3125 2822 3475 
Q 2822 3834 2567 4026 
Q 2313 4219 1838 4219 
Q 1578 4219 1281 4162 
Q 984 4106 628 3988 
L 628 4550 
Q 988 4650 1302 4700 
Q 1616 4750 1894 4750 
Q 2613 4750 3031 4423 
Q 3450 4097 3450 3541 
Q 3450 3153 3228 2886 
Q 3006 2619 2597 2516 
z
" transform="scale(0.015625)"/>
       </defs>
       <use xlink:href="#DejaVuSans-33"/>
       <use xlink:href="#DejaVuSans-30" x="63.623047"/>
      </g>
     </g>
    </g>
    <g id="xtick_5">
     <g id="text_5">
      <!-- 40 -->
      <g transform="translate(768.02979 366.30265) scale(0.08 -0.08)">
       <defs>
        <path id="DejaVuSans-34" d="M 2419 4116 
L 825 1625 
L 2419 1625 
L 2419 4116 
z
M 2253 4666 
L 3047 4666 
L 3047 1625 
L 3713 1625 
L 3713 1100 
L 3047 1100 
L 3047 0 
L 2419 0 
L 2419 1100 
L 313 1100 
L 313 1709 
L 2253 4666 
z
" transform="scale(0.015625)"/>
       </defs>
       <use xlink:href="#DejaVuSans-34"/>
       <use xlink:href="#DejaVuSans-30" x="63.623047"/>
      </g>
     </g>
    </g>
    <g id="xtick_6">
     <g id="text_6">
      <!-- 50 -->
      <g transform="translate(944.753352 366.30265) scale(0.08 -0.08)">
       <defs>
        <path id="DejaVuSans-35" d="M 691 4666 
L 3169 4666 
L 3169 4134 
L 1269 4134 
L 1269 2991 
Q 1406 3038 1543 3061 
Q 1681 3084 1819 3084 
Q 2600 3084 3056 2656 
Q 3513 2228 3513 1497 
Q 3513 744 3044 326 
Q 2575 -91 1722 -91 
Q 1428 -91 1123 -41 
Q 819 9 494 109 
L 494 744 
Q 775 591 1075 516 
Q 1375 441 1709 441 
Q 2250 441 2565 725 
Q 2881 1009 2881 1497 
Q 2881 1984 2565 2268 
Q 2250 2553 1709 2553 
Q 1456 2553 1204 2497 
Q 953 2441 691 2322 
L 691 4666 
z
" transform="scale(0.015625)"/>
       </defs>
       <use xlink:href="#DejaVuSans-35"/>
       <use xlink:href="#DejaVuSans-30" x="63.623047"/>
      </g>
     </g>
    </g>
    <g id="text_7">
     <!-- Length Trimmed (bp) -->
     <g transform="translate(464.443281 379.564837) scale(0.1 -0.1)">
      <defs>
       <path id="DejaVuSans-4c" d="M 628 4666 
L 1259 4666 
L 1259 531 
L 3531 531 
L 3531 0 
L 628 0 
L 628 4666 
z
" transform="scale(0.015625)"/>
       <path id="DejaVuSans-65" d="M 3597 1894 
L 3597 1613 
L 953 1613 
Q 991 1019 1311 708 
Q 1631 397 2203 397 
Q 2534 397 2845 478 
Q 3156 559 3463 722 
L 3463 178 
Q 3153 47 2828 -22 
Q 2503 -91 2169 -91 
Q 1331 -91 842 396 
Q 353 884 353 1716 
Q 353 2575 817 3079 
Q 1281 3584 2069 3584 
Q 2775 3584 3186 3129 
Q 3597 2675 3597 1894 
z
M 3022 2063 
Q 3016 2534 2758 2815 
Q 2500 3097 2075 3097 
Q 1594 3097 1305 2825 
Q 1016 2553 972 2059 
L 3022 2063 
z
" transform="scale(0.015625)"/>
       <path id="DejaVuSans-6e" d="M 3513 2113 
L 3513 0 
L 2938 0 
L 2938 2094 
Q 2938 2591 2744 2837 
Q 2550 3084 2163 3084 
Q 1697 3084 1428 2787 
Q 1159 2491 1159 1978 
L 1159 0 
L 581 0 
L 581 3500 
L 1159 3500 
L 1159 2956 
Q 1366 3272 1645 3428 
Q 1925 3584 2291 3584 
Q 2894 3584 3203 3211 
Q 3513 2838 3513 2113 
z
" transform="scale(0.015625)"/>
       <path id="DejaVuSans-67" d="M 2906 1791 
Q 2906 2416 2648 2759 
Q 2391 3103 1925 3103 
Q 1463 3103 1205 2759 
Q 947 2416 947 1791 
Q 947 1169 1205 825 
Q 1463 481 1925 481 
Q 2391 481 2648 825 
Q 2906 1169 2906 1791 
z
M 3481 434 
Q 3481 -459 3084 -895 
Q 2688 -1331 1869 -1331 
Q 1566 -1331 1297 -1286 
Q 1028 -1241 775 -1147 
L 775 -588 
Q 1028 -725 1275 -790 
Q 1522 -856 1778 -856 
Q 2344 -856 2625 -561 
Q 2906 -266 2906 331 
L 2906 616 
Q 2728 306 2450 153 
Q 2172 0 1784 0 
Q 1141 0 747 490 
Q 353 981 353 1791 
Q 353 2603 747 3093 
Q 1141 3584 1784 3584 
Q 2172 3584 2450 3431 
Q 2728 3278 2906 2969 
L 2906 3500 
L 3481 3500 
L 3481 434 
z
" transform="scale(0.015625)"/>
       <path id="DejaVuSans-74" d="M 1172 4494 
L 1172 3500 
L 2356 3500 
L 2356 3053 
L 1172 3053 
L 1172 1153 
Q 1172 725 1289 603 
Q 1406 481 1766 481 
L 2356 481 
L 2356 0 
L 1766 0 
Q 1100 0 847 248 
Q 594 497 594 1153 
L 594 3053 
L 172 3053 
L 172 3500 
L 594 3500 
L 594 4494 
L 1172 4494 
z
" transform="scale(0.015625)"/>
       <path id="DejaVuSans-68" d="M 3513 2113 
L 3513 0 
L 2938 0 
L 2938 2094 
Q 2938 2591 2744 2837 
Q 2550 3084 2163 3084 
Q 1697 3084 1428 2787 
Q 1159 2491 1159 1978 
L 1159 0 
L 581 0 
L 581 4863 
L 1159 4863 
L 1159 2956 
Q 1366 3272 1645 3428 
Q 1925 3584 2291 3584 
Q 2894 3584 3203 3211 
Q 3513 2838 3513 2113 
z
" transform="scale(0.015625)"/>
       <path id="DejaVuSans-20" transform="scale(0.015625)"/>
       <path id="DejaVuSans-54" d="M -19 4666 
L 3928 4666 
L 3928 4134 
L 2272 4134 
L 2272 0 
L 1638 0 
L 1638 4134 
L -19 4134 
L -19 4666 
z
" transform="scale(0.015625)"/>
       <path id="DejaVuSans-72" d="M 2631 2963 
Q 2534 3019 2420 3045 
Q 2306 3072 2169 3072 
Q 1681 3072 1420 2755 
Q 1159 2438 1159 1844 
L 1159 0 
L 581 0 
L 581 3500 
L 1159 3500 
L 1159 2956 
Q 1341 3275 1631 3429 
Q 1922 3584 2338 3584 
Q 2397 3584 2469 3576 
Q 2541 3569 2628 3553 
L 2631 2963 
z
" transform="scale(0.015625)"/>
       <path id="DejaVuSans-69" d="M 603 3500 
L 1178 3500 
L 1178 0 
L 603 0 
L 603 3500 
z
M 603 4863 
L 1178 4863 
L 1178 4134 
L 603 4134 
L 603 4863 
z
" transform="scale(0.015625)"/>
       <path id="DejaVuSans-6d" d="M 3328 2828 
Q 3544 3216 3844 3400 
Q 4144 3584 4550 3584 
Q 5097 3584 5394 3201 
Q 5691 2819 5691 2113 
L 5691 0 
L 5113 0 
L 5113 2094 
Q 5113 2597 4934 2840 
Q 4756 3084 4391 3084 
Q 3944 3084 3684 2787 
Q 3425 2491 3425 1978 
L 3425 0 
L 2847 0 
L 2847 2094 
Q 2847 2600 2669 2842 
Q 2491 3084 2119 3084 
Q 1678 3084 1418 2786 
Q 1159 2488 1159 1978 
L 1159 0 
L 581 0 
L 581 3500 
L 1159 3500 
L 1159 2956 
Q 1356 3278 1631 3431 
Q 1906 3584 2284 3584 
Q 2666 3584 2933 3390 
Q 3200 3197 3328 2828 
z
" transform="scale(0.015625)"/>
       <path id="DejaVuSans-64" d="M 2906 2969 
L 2906 4863 
L 3481 4863 
L 3481 0 
L 2906 0 
L 2906 525 
Q 2725 213 2448 61 
Q 2172 -91 1784 -91 
Q 1150 -91 751 415 
Q 353 922 353 1747 
Q 353 2572 751 3078 
Q 1150 3584 1784 3584 
Q 2172 3584 2448 3432 
Q 2725 3281 2906 2969 
z
M 947 1747 
Q 947 1113 1208 752 
Q 1469 391 1925 391 
Q 2381 391 2643 752 
Q 2906 1113 2906 1747 
Q 2906 2381 2643 2742 
Q 2381 3103 1925 3103 
Q 1469 3103 1208 2742 
Q 947 2381 947 1747 
z
" transform="scale(0.015625)"/>
       <path id="DejaVuSans-28" d="M 1984 4856 
Q 1566 4138 1362 3434 
Q 1159 2731 1159 2009 
Q 1159 1288 1364 580 
Q 1569 -128 1984 -844 
L 1484 -844 
Q 1016 -109 783 600 
Q 550 1309 550 2009 
Q 550 2706 781 3412 
Q 1013 4119 1484 4856 
L 1984 4856 
z
" transform="scale(0.015625)"/>
       <path id="DejaVuSans-62" d="M 3116 1747 
Q 3116 2381 2855 2742 
Q 2594 3103 2138 3103 
Q 1681 3103 1420 2742 
Q 1159 2381 1159 1747 
Q 1159 1113 1420 752 
Q 1681 391 2138 391 
Q 2594 391 2855 752 
Q 3116 1113 3116 1747 
z
M 1159 2969 
Q 1341 3281 1617 3432 
Q 1894 3584 2278 3584 
Q 2916 3584 3314 3078 
Q 3713 2572 3713 1747 
Q 3713 922 3314 415 
Q 2916 -91 2278 -91 
Q 1894 -91 1617 61 
Q 1341 213 1159 525 
L 1159 0 
L 581 0 
L 581 4863 
L 1159 4863 
L 1159 2969 
z
" transform="scale(0.015625)"/>
       <path id="DejaVuSans-70" d="M 1159 525 
L 1159 -1331 
L 581 -1331 
L 581 3500 
L 1159 3500 
L 1159 2969 
Q 1341 3281 1617 3432 
Q 1894 3584 2278 3584 
Q 2916 3584 3314 3078 
Q 3713 2572 3713 1747 
Q 3713 922 3314 415 
Q 2916 -91 2278 -91 
Q 1894 -91 1617 61 
Q 1341 213 1159 525 
z
M 3116 1747 
Q 3116 2381 2855 2742 
Q 2594 3103 2138 3103 
Q 1681 3103 1420 2742 
Q 1159 2381 1159 1747 
Q 1159 1113 1420 752 
Q 1681 391 2138 391 
Q 2594 391 2855 752 
Q 3116 1113 3116 1747 
z
" transform="scale(0.015625)"/>
       <path id="DejaVuSans-29" d="M 513 4856 
L 1013 4856 
Q 1481 4119 1714 3412 
Q 1947 2706 1947 2009 
Q 1947 1309 1714 600 
Q 1481 -109 1013 -844 
L 513 -844 
Q 928 -128 1133 580 
Q 1338 1288 1338 2009 
Q 1338 2731 1133 3434 
Q 928 4138 513 4856 
z
" transform="scale(0.015625)"/>
      </defs>
      <use xlink:href="#DejaVuSans-4c"/>
      <use xlink:href="#DejaVuSans-65" x="53.962891"/>
      <use xlink:href="#DejaVuSans-6e" x="115.486328"/>
      <use xlink:href="#DejaVuSans-67" x="178.865234"/>
      <use xlink:href="#DejaVuSans-74" x="242.341797"/>
      <use xlink:href="#DejaVuSans-68" x="281.550781"/>
      <use xlink:href="#DejaVuSans-20" x="344.929688"/>
      <use xlink:href="#DejaVuSans-54" x="376.716797"/>
      <use xlink:href="#DejaVuSans-72" x="423.050781"/>
      <use xlink:href="#DejaVuSans-69" x="464.164062"/>
      <use xlink:href="#DejaVuSans-6d" x="491.947266"/>
      <use xlink:href="#DejaVuSans-6d" x="589.359375"/>
      <use xlink:href="#DejaVuSans-65" x="686.771484"/>
      <use xlink:href="#DejaVuSans-64" x="748.294922"/>
      <use xlink:href="#DejaVuSans-20" x="811.771484"/>
      <use xlink:href="#DejaVuSans-28" x="843.558594"/>
      <use xlink:href="#DejaVuSans-62" x="882.572266"/>
      <use xlink:href="#DejaVuSans-70" x="946.048828"/>
      <use xlink:href="#DejaVuSans-29" x="1009.525391"/>
     </g>
    </g>
   </g>
   <g id="matplotlib.axis_2">
    <g id="ytick_1">
     <g id="line2d_1">
      <path d="M 40.600625 353.2239 
L 993.140625 353.2239 
" clip-path="url(#p0a5fd195d4)" style="fill: none; stroke: #dedede; stroke-linecap: square"/>
     </g>
     <g id="text_8">
      <!-- 0.0 -->
      <g transform="translate(20.878125 356.263275) scale(0.08 -0.08)">
       <defs>
        <path id="DejaVuSans-2e" d="M 684 794 
L 1344 794 
L 1344 0 
L 684 0 
L 684 794 
z
" transform="scale(0.015625)"/>
       </defs>
       <use xlink:href="#DejaVuSans-30"/>
       <use xlink:href="#DejaVuSans-2e" x="63.623047"/>
       <use xlink:href="#DejaVuSans-30" x="95.410156"/>
      </g>
     </g>
    </g>
    <g id="ytick_2">
     <g id="line2d_2">
      <path d="M 40.600625 298.072175 
L 993.140625 298.072175 
" clip-path="url(#p0a5fd195d4)" style="fill: none; stroke: #dedede; stroke-linecap: square"/>
     </g>
     <g id="text_9">
      <!-- 0.2 -->
      <g transform="translate(20.878125 301.11155) scale(0.08 -0.08)">
       <use xlink:href="#DejaVuSans-30"/>
       <use xlink:href="#DejaVuSans-2e" x="63.623047"/>
       <use xlink:href="#DejaVuSans-32" x="95.410156"/>
      </g>
     </g>
    </g>
    <g id="ytick_3">
     <g id="line2d_3">
      <path d="M 40.600625 242.92045 
L 993.140625 242.92045 
" clip-path="url(#p0a5fd195d4)" style="fill: none; stroke: #dedede; stroke-linecap: square"/>
     </g>
     <g id="text_10">
      <!-- 0.4 -->
      <g transform="translate(20.878125 245.959825) scale(0.08 -0.08)">
       <use xlink:href="#DejaVuSans-30"/>
       <use xlink:href="#DejaVuSans-2e" x="63.623047"/>
       <use xlink:href="#DejaVuSans-34" x="95.410156"/>
      </g>
     </g>
    </g>
    <g id="ytick_4">
     <g id="line2d_4">
      <path d="M 40.600625 187.768725 
L 993.140625 187.768725 
" clip-path="url(#p0a5fd195d4)" style="fill: none; stroke: #dedede; stroke-linecap: square"/>
     </g>
     <g id="text_11">
      <!-- 0.6 -->
      <g transform="translate(20.878125 190.8081) scale(0.08 -0.08)">
       <defs>
        <path id="DejaVuSans-36" d="M 2113 2584 
Q 1688 2584 1439 2293 
Q 1191 2003 1191 1497 
Q 1191 994 1439 701 
Q 1688 409 2113 409 
Q 2538 409 2786 701 
Q 3034 994 3034 1497 
Q 3034 2003 2786 2293 
Q 2538 2584 2113 2584 
z
M 3366 4563 
L 3366 3988 
Q 3128 4100 2886 4159 
Q 2644 4219 2406 4219 
Q 1781 4219 1451 3797 
Q 1122 3375 1075 2522 
Q 1259 2794 1537 2939 
Q 1816 3084 2150 3084 
Q 2853 3084 3261 2657 
Q 3669 2231 3669 1497 
Q 3669 778 3244 343 
Q 2819 -91 2113 -91 
Q 1303 -91 875 529 
Q 447 1150 447 2328 
Q 447 3434 972 4092 
Q 1497 4750 2381 4750 
Q 2619 4750 2861 4703 
Q 3103 4656 3366 4563 
z
" transform="scale(0.015625)"/>
       </defs>
       <use xlink:href="#DejaVuSans-30"/>
       <use xlink:href="#DejaVuSans-2e" x="63.623047"/>
       <use xlink:href="#DejaVuSans-36" x="95.410156"/>
      </g>
     </g>
    </g>
    <g id="ytick_5">
     <g id="line2d_5">
      <path d="M 40.600625 132.617001 
L 993.140625 132.617001 
" clip-path="url(#p0a5fd195d4)" style="fill: none; stroke: #dedede; stroke-linecap: square"/>
     </g>
     <g id="text_12">
      <!-- 0.8 -->
      <g transform="translate(20.878125 135.656376) scale(0.08 -0.08)">
       <defs>
        <path id="DejaVuSans-38" d="M 2034 2216 
Q 1584 2216 1326 1975 
Q 1069 1734 1069 1313 
Q 1069 891 1326 650 
Q 1584 409 2034 409 
Q 2484 409 2743 651 
Q 3003 894 3003 1313 
Q 3003 1734 2745 1975 
Q 2488 2216 2034 2216 
z
M 1403 2484 
Q 997 2584 770 2862 
Q 544 3141 544 3541 
Q 544 4100 942 4425 
Q 1341 4750 2034 4750 
Q 2731 4750 3128 4425 
Q 3525 4100 3525 3541 
Q 3525 3141 3298 2862 
Q 3072 2584 2669 2484 
Q 3125 2378 3379 2068 
Q 3634 1759 3634 1313 
Q 3634 634 3220 271 
Q 2806 -91 2034 -91 
Q 1263 -91 848 271 
Q 434 634 434 1313 
Q 434 1759 690 2068 
Q 947 2378 1403 2484 
z
M 1172 3481 
Q 1172 3119 1398 2916 
Q 1625 2713 2034 2713 
Q 2441 2713 2670 2916 
Q 2900 3119 2900 3481 
Q 2900 3844 2670 4047 
Q 2441 4250 2034 4250 
Q 1625 4250 1398 4047 
Q 1172 3844 1172 3481 
z
" transform="scale(0.015625)"/>
       </defs>
       <use xlink:href="#DejaVuSans-30"/>
       <use xlink:href="#DejaVuSans-2e" x="63.623047"/>
       <use xlink:href="#DejaVuSans-38" x="95.410156"/>
      </g>
     </g>
    </g>
    <g id="ytick_6">
     <g id="line2d_6">
      <path d="M 40.600625 77.465276 
L 993.140625 77.465276 
" clip-path="url(#p0a5fd195d4)" style="fill: none; stroke: #dedede; stroke-linecap: square"/>
     </g>
     <g id="text_13">
      <!-- 1.0 -->
      <g transform="translate(20.878125 80.504651) scale(0.08 -0.08)">
       <use xlink:href="#DejaVuSans-31"/>
       <use xlink:href="#DejaVuSans-2e" x="63.623047"/>
       <use xlink:href="#DejaVuSans-30" x="95.410156"/>
      </g>
     </g>
    </g>
    <g id="text_14">
     <!-- Count -->
     <g transform="translate(14.798438 209.088338) rotate(-90) scale(0.1 -0.1)">
      <defs>
       <path id="DejaVuSans-43" d="M 4122 4306 
L 4122 3641 
Q 3803 3938 3442 4084 
Q 3081 4231 2675 4231 
Q 1875 4231 1450 3742 
Q 1025 3253 1025 2328 
Q 1025 1406 1450 917 
Q 1875 428 2675 428 
Q 3081 428 3442 575 
Q 3803 722 4122 1019 
L 4122 359 
Q 3791 134 3420 21 
Q 3050 -91 2638 -91 
Q 1578 -91 968 557 
Q 359 1206 359 2328 
Q 359 3453 968 4101 
Q 1578 4750 2638 4750 
Q 3056 4750 3426 4639 
Q 3797 4528 4122 4306 
z
" transform="scale(0.015625)"/>
       <path id="DejaVuSans-6f" d="M 1959 3097 
Q 1497 3097 1228 2736 
Q 959 2375 959 1747 
Q 959 1119 1226 758 
Q 1494 397 1959 397 
Q 2419 397 2687 759 
Q 2956 1122 2956 1747 
Q 2956 2369 2687 2733 
Q 2419 3097 1959 3097 
z
M 1959 3584 
Q 2709 3584 3137 3096 
Q 3566 2609 3566 1747 
Q 3566 888 3137 398 
Q 2709 -91 1959 -91 
Q 1206 -91 779 398 
Q 353 888 353 1747 
Q 353 2609 779 3096 
Q 1206 3584 1959 3584 
z
" transform="scale(0.015625)"/>
       <path id="DejaVuSans-75" d="M 544 1381 
L 544 3500 
L 1119 3500 
L 1119 1403 
Q 1119 906 1312 657 
Q 1506 409 1894 409 
Q 2359 409 2629 706 
Q 2900 1003 2900 1516 
L 2900 3500 
L 3475 3500 
L 3475 0 
L 2900 0 
L 2900 538 
Q 2691 219 2414 64 
Q 2138 -91 1772 -91 
Q 1169 -91 856 284 
Q 544 659 544 1381 
z
M 1991 3584 
L 1991 3584 
z
" transform="scale(0.015625)"/>
      </defs>
      <use xlink:href="#DejaVuSans-43"/>
      <use xlink:href="#DejaVuSans-6f" x="69.824219"/>
      <use xlink:href="#DejaVuSans-75" x="131.005859"/>
      <use xlink:href="#DejaVuSans-6e" x="194.384766"/>
      <use xlink:href="#DejaVuSans-74" x="257.763672"/>
     </g>
    </g>
    <g id="text_15">
     <!-- 1e7 -->
     <g transform="translate(40.600625 32.2559) scale(0.1 -0.1)">
      <defs>
       <path id="DejaVuSans-37" d="M 525 4666 
L 3525 4666 
L 3525 4397 
L 1831 0 
L 1172 0 
L 2766 4134 
L 525 4134 
L 525 4666 
z
" transform="scale(0.015625)"/>
      </defs>
      <use xlink:href="#DejaVuSans-31"/>
      <use xlink:href="#DejaVuSans-65" x="63.623047"/>
      <use xlink:href="#DejaVuSans-37" x="125.146484"/>
     </g>
    </g>
   </g>
   <g id="line2d_7">
    <path d="M 83.897898 268.738875 
L 101.570254 326.312947 
L 119.24261 346.204823 
L 136.914966 351.677777 
L 154.587323 352.91665 
L 172.259679 353.204983 
L 189.932035 353.214717 
L 207.604391 353.217116 
L 225.276747 353.211877 
L 242.949104 353.210112 
L 260.62146 353.215269 
L 278.293816 353.218661 
L 295.966172 353.220618 
L 313.638529 353.220039 
L 331.310885 353.220425 
L 348.983241 353.220453 
L 366.655597 353.220067 
L 384.327953 353.221087 
L 402.00031 353.219019 
L 419.672666 353.220343 
L 437.345022 353.222962 
L 455.017378 353.223183 
L 472.689734 353.221722 
L 490.362091 353.221005 
L 508.034447 353.223624 
L 525.706803 353.222714 
L 543.379159 353.220618 
L 561.051516 353.223293 
L 578.723872 353.222659 
L 596.396228 353.223542 
L 614.068584 353.222659 
L 631.74094 353.223073 
L 649.413297 353.219488 
L 667.085653 353.223431 
L 684.758009 353.223018 
L 702.430365 353.22117 
L 720.102721 353.223376 
L 737.775078 353.221804 
L 755.447434 353.222301 
L 773.11979 353.215545 
L 790.792146 353.222935 
L 808.464503 353.221363 
L 826.136859 353.221528 
L 843.809215 353.222632 
L 861.481571 353.199551 
L 879.153927 353.208154 
L 896.826284 353.221363 
L 914.49864 353.21105 
L 932.170996 353.139987 
L 949.843352 353.199027 
" clip-path="url(#p0a5fd195d4)" style="fill: none; stroke: #7cb5ec; stroke-linecap: square"/>
   </g>
   <g id="line2d_8">
    <path d="M 83.897898 260.521048 
L 101.570254 322.393645 
L 119.24261 345.291152 
L 136.914966 351.521173 
L 154.587323 352.855817 
L 172.259679 353.191967 
L 189.932035 353.204376 
L 207.604391 353.209423 
L 225.276747 353.205204 
L 242.949104 353.200654 
L 260.62146 353.208044 
L 278.293816 353.212428 
L 295.966172 353.214441 
L 313.638529 353.215296 
L 331.310885 353.215103 
L 348.983241 353.216206 
L 366.655597 353.217447 
L 384.327953 353.218109 
L 402.00031 353.210305 
L 419.672666 353.222521 
L 437.345022 353.223018 
L 455.017378 353.222301 
L 472.689734 353.220481 
L 490.362091 353.217971 
L 508.034447 353.223679 
L 525.706803 353.221446 
L 543.379159 353.216675 
L 561.051516 353.223073 
L 578.723872 353.222521 
L 596.396228 353.223238 
L 614.068584 353.222438 
L 631.74094 353.221887 
L 649.413297 353.222549 
L 667.085653 353.216179 
L 684.758009 353.222907 
L 702.430365 353.216482 
L 720.102721 353.222962 
L 737.775078 353.220949 
L 755.447434 353.220701 
L 773.11979 353.212759 
L 790.792146 353.217034 
L 808.464503 353.222494 
L 826.136859 353.217475 
L 843.809215 353.222273 
L 861.481571 353.205507 
L 879.153927 353.20377 
L 896.826284 353.220701 
L 914.49864 353.203411 
L 932.170996 353.161661 
L 949.843352 353.194449 
" clip-path="url(#p0a5fd195d4)" style="fill: none; stroke: #434348; stroke-linecap: square"/>
   </g>
   <g id="line2d_9">
    <path d="M 83.897898 271.538901 
L 101.570254 326.721704 
L 119.24261 346.307322 
L 136.914966 351.703008 
L 154.587323 352.915712 
L 172.259679 353.2049 
L 189.932035 353.212897 
L 207.604391 353.215241 
L 225.276747 353.211601 
L 242.949104 353.207658 
L 260.62146 353.214524 
L 278.293816 353.216537 
L 295.966172 353.219846 
L 313.638529 353.218302 
L 331.310885 353.218771 
L 348.983241 353.219102 
L 366.655597 353.219764 
L 384.327953 353.220012 
L 402.00031 353.213669 
L 419.672666 353.222742 
L 437.345022 353.223266 
L 455.017378 353.222852 
L 472.689734 353.220977 
L 490.362091 353.219901 
L 508.034447 353.223376 
L 525.706803 353.222328 
L 543.379159 353.218137 
L 561.051516 353.223073 
L 578.723872 353.222494 
L 596.396228 353.223376 
L 614.068584 353.221749 
L 631.74094 353.222576 
L 649.413297 353.216565 
L 667.085653 353.218468 
L 684.758009 353.222438 
L 702.430365 353.222687 
L 720.102721 353.221749 
L 737.775078 353.220536 
L 755.447434 353.218495 
L 773.11979 353.22288 
L 790.792146 353.213669 
L 808.464503 353.216703 
L 826.136859 353.220039 
L 843.809215 353.22128 
L 861.481571 353.191167 
L 879.153927 353.202281 
L 896.826284 353.220177 
L 914.49864 353.206362 
L 932.170996 353.126668 
L 949.843352 353.181406 
" clip-path="url(#p0a5fd195d4)" style="fill: none; stroke: #90ed7d; stroke-linecap: square"/>
   </g>
   <g id="line2d_10">
    <path d="M 83.897898 281.518109 
L 101.570254 330.528993 
L 119.24261 347.319853 
L 136.914966 351.89808 
L 154.587323 352.964328 
L 172.259679 353.204542 
L 189.932035 353.213449 
L 207.604391 353.214414 
L 225.276747 353.212484 
L 242.949104 353.208788 
L 260.62146 353.214248 
L 278.293816 353.216482 
L 295.966172 353.218164 
L 313.638529 353.218605 
L 331.310885 353.21833 
L 348.983241 353.219185 
L 366.655597 353.219267 
L 384.327953 353.219681 
L 402.00031 353.213145 
L 419.672666 353.222852 
L 437.345022 353.223348 
L 455.017378 353.222576 
L 472.689734 353.220839 
L 490.362091 353.218881 
L 508.034447 353.223293 
L 525.706803 353.221832 
L 543.379159 353.217613 
L 561.051516 353.222687 
L 578.723872 353.222301 
L 596.396228 353.2231 
L 614.068584 353.221749 
L 631.74094 353.22219 
L 649.413297 353.219019 
L 667.085653 353.220894 
L 684.758009 353.21844 
L 702.430365 353.222769 
L 720.102721 353.216758 
L 737.775078 353.222356 
L 755.447434 353.21582 
L 773.11979 353.216068 
L 790.792146 353.219626 
L 808.464503 353.222273 
L 826.136859 353.220674 
L 843.809215 353.221639 
L 861.481571 353.204707 
L 879.153927 353.193346 
L 896.826284 353.218385 
L 914.49864 353.193787 
L 932.170996 353.127136 
L 949.843352 353.171947 
" clip-path="url(#p0a5fd195d4)" style="fill: none; stroke: #f7a35c; stroke-linecap: square"/>
   </g>
   <g id="line2d_11">
    <path d="M 83.897898 265.238837 
L 101.570254 324.097171 
L 119.24261 345.783822 
L 136.914966 351.605087 
L 154.587323 352.876334 
L 172.259679 353.174512 
L 189.932035 353.19012 
L 207.604391 353.193291 
L 225.276747 353.190506 
L 242.949104 353.186838 
L 260.62146 353.201067 
L 278.293816 353.201095 
L 295.966172 353.208899 
L 313.638529 353.207906 
L 331.310885 353.208347 
L 348.983241 353.209809 
L 366.655597 353.212042 
L 384.327953 353.215407 
L 402.00031 353.203273 
L 419.672666 353.222163 
L 437.345022 353.223128 
L 455.017378 353.221363 
L 472.689734 353.219598 
L 490.362091 353.217888 
L 508.034447 353.223376 
L 525.706803 353.221198 
L 543.379159 353.215903 
L 561.051516 353.222604 
L 578.723872 353.221749 
L 596.396228 353.223211 
L 614.068584 353.221473 
L 631.74094 353.222356 
L 649.413297 353.215379 
L 667.085653 353.219846 
L 684.758009 353.222632 
L 702.430365 353.219874 
L 720.102721 353.217392 
L 737.775078 353.222328 
L 755.447434 353.221418 
L 773.11979 353.217475 
L 790.792146 353.21571 
L 808.464503 353.222769 
L 826.136859 353.217447 
L 843.809215 353.222025 
L 861.481571 353.206003 
L 879.153927 353.193842 
L 896.826284 353.219322 
L 914.49864 353.189375 
L 932.170996 353.139931 
L 949.843352 353.17476 
" clip-path="url(#p0a5fd195d4)" style="fill: none; stroke: #8085e9; stroke-linecap: square"/>
   </g>
   <g id="line2d_12">
    <path d="M 83.897898 255.413005 
L 101.570254 320.684382 
L 119.24261 344.821011 
L 136.914966 351.398902 
L 154.587323 352.834584 
L 172.259679 353.18295 
L 189.932035 353.196462 
L 207.604391 353.201481 
L 225.276747 353.196352 
L 242.949104 353.196297 
L 260.62146 353.203687 
L 278.293816 353.206996 
L 295.966172 353.211601 
L 313.638529 353.212677 
L 331.310885 353.212511 
L 348.983241 353.21378 
L 366.655597 353.215655 
L 384.327953 353.217089 
L 402.00031 353.208485 
L 419.672666 353.222769 
L 437.345022 353.223238 
L 455.017378 353.222218 
L 472.689734 353.221005 
L 490.362091 353.220095 
L 508.034447 353.223018 
L 525.706803 353.22197 
L 543.379159 353.215903 
L 561.051516 353.223211 
L 578.723872 353.222025 
L 596.396228 353.223128 
L 614.068584 353.221722 
L 631.74094 353.222659 
L 649.413297 353.218991 
L 667.085653 353.219653 
L 684.758009 353.222604 
L 702.430365 353.218936 
L 720.102721 353.22288 
L 737.775078 353.220563 
L 755.447434 353.222769 
L 773.11979 353.220067 
L 790.792146 353.217006 
L 808.464503 353.223128 
L 826.136859 353.219488 
L 843.809215 353.22219 
L 861.481571 353.209312 
L 879.153927 353.199688 
L 896.826284 353.22026 
L 914.49864 353.202942 
L 932.170996 353.148039 
L 949.843352 353.195745 
" clip-path="url(#p0a5fd195d4)" style="fill: none; stroke: #f15c80; stroke-linecap: square"/>
   </g>
   <g id="line2d_13">
    <path d="M 83.897898 268.947321 
L 101.570254 325.184901 
L 119.24261 346.084757 
L 136.914966 351.674909 
L 154.587323 352.877713 
L 172.259679 353.174015 
L 189.932035 353.189237 
L 207.604391 353.192905 
L 225.276747 353.190395 
L 242.949104 353.188741 
L 260.62146 353.199027 
L 278.293816 353.198668 
L 295.966172 353.208016 
L 313.638529 353.206886 
L 331.310885 353.209891 
L 348.983241 353.210443 
L 366.655597 353.210967 
L 384.327953 353.213862 
L 402.00031 353.201481 
L 419.672666 353.222494 
L 437.345022 353.222907 
L 455.017378 353.221694 
L 472.689734 353.218523 
L 490.362091 353.216703 
L 508.034447 353.223183 
L 525.706803 353.221473 
L 543.379159 353.213338 
L 561.051516 353.222301 
L 578.723872 353.221087 
L 596.396228 353.222576 
L 614.068584 353.222218 
L 631.74094 353.22106 
L 649.413297 353.217971 
L 667.085653 353.219791 
L 684.758009 353.222411 
L 702.430365 353.218385 
L 720.102721 353.222466 
L 737.775078 353.213531 
L 755.447434 353.220039 
L 773.11979 353.22197 
L 790.792146 353.203935 
L 808.464503 353.214276 
L 826.136859 353.218164 
L 843.809215 353.219653 
L 861.481571 353.189292 
L 879.153927 353.182233 
L 896.826284 353.216978 
L 914.49864 353.187913 
L 932.170996 353.110867 
L 949.843352 353.166846 
" clip-path="url(#p0a5fd195d4)" style="fill: none; stroke: #e4d354; stroke-linecap: square"/>
   </g>
   <g id="line2d_14">
    <path d="M 83.897898 270.41728 
L 101.570254 326.072706 
L 119.24261 346.235046 
L 136.914966 351.690131 
L 154.587323 352.901842 
L 172.259679 353.184853 
L 189.932035 353.197482 
L 207.604391 353.200709 
L 225.276747 353.19649 
L 242.949104 353.198668 
L 260.62146 353.204128 
L 278.293816 353.20581 
L 295.966172 353.210801 
L 313.638529 353.211105 
L 331.310885 353.214607 
L 348.983241 353.213614 
L 366.655597 353.214248 
L 384.327953 353.217171 
L 402.00031 353.208375 
L 419.672666 353.222438 
L 437.345022 353.223073 
L 455.017378 353.222411 
L 472.689734 353.219957 
L 490.362091 353.218495 
L 508.034447 353.223321 
L 525.706803 353.221804 
L 543.379159 353.217751 
L 561.051516 353.223211 
L 578.723872 353.222411 
L 596.396228 353.223155 
L 614.068584 353.221694 
L 631.74094 353.221777 
L 649.413297 353.222438 
L 667.085653 353.213531 
L 684.758009 353.223293 
L 702.430365 353.218688 
L 720.102721 353.222604 
L 737.775078 353.220729 
L 755.447434 353.22288 
L 773.11979 353.220756 
L 790.792146 353.19216 
L 808.464503 353.22128 
L 826.136859 353.219212 
L 843.809215 353.211574 
L 861.481571 353.192519 
L 879.153927 353.210471 
L 896.826284 353.219074 
L 914.49864 353.215958 
L 932.170996 353.162323 
L 949.843352 353.170816 
" clip-path="url(#p0a5fd195d4)" style="fill: none; stroke: #2b908f; stroke-linecap: square"/>
   </g>
   <g id="line2d_15">
    <path d="M 83.897898 289.540341 
L 101.570254 333.204596 
L 119.24261 348.161633 
L 136.914966 352.127125 
L 154.587323 352.997971 
L 172.259679 353.201674 
L 189.932035 353.211822 
L 207.604391 353.212153 
L 225.276747 353.211188 
L 242.949104 353.209478 
L 260.62146 353.213642 
L 278.293816 353.215986 
L 295.966172 353.217392 
L 313.638529 353.217695 
L 331.310885 353.218412 
L 348.983241 353.218385 
L 366.655597 353.218964 
L 384.327953 353.219708 
L 402.00031 353.216234 
L 419.672666 353.219185 
L 437.345022 353.222549 
L 455.017378 353.222907 
L 472.689734 353.220122 
L 490.362091 353.218275 
L 508.034447 353.223431 
L 525.706803 353.221446 
L 543.379159 353.215407 
L 561.051516 353.223073 
L 578.723872 353.221335 
L 596.396228 353.223238 
L 614.068584 353.219598 
L 631.74094 353.222521 
L 649.413297 353.212125 
L 667.085653 353.222135 
L 684.758009 353.22208 
L 702.430365 353.216399 
L 720.102721 353.223128 
L 737.775078 353.219791 
L 755.447434 353.219791 
L 773.11979 353.196131 
L 790.792146 353.221915 
L 808.464503 353.217144 
L 826.136859 353.216427 
L 843.809215 353.219791 
L 861.481571 353.169438 
L 879.153927 353.185845 
L 896.826284 353.21753 
L 914.49864 353.19387 
L 932.170996 353.04292 
L 949.843352 353.161413 
" clip-path="url(#p0a5fd195d4)" style="fill: none; stroke: #f45b5b; stroke-linecap: square"/>
   </g>
   <g id="line2d_16">
    <path d="M 83.897898 297.057466 
L 101.570254 335.57248 
L 119.24261 348.479611 
L 136.914966 352.231252 
L 154.587323 353.021052 
L 172.259679 353.205176 
L 189.932035 353.214359 
L 207.604391 353.215655 
L 225.276747 353.21207 
L 242.949104 353.213063 
L 260.62146 353.2148 
L 278.293816 353.217144 
L 295.966172 353.218909 
L 313.638529 353.219819 
L 331.310885 353.219846 
L 348.983241 353.21946 
L 366.655597 353.220039 
L 384.327953 353.220536 
L 402.00031 353.220867 
L 419.672666 353.221198 
L 437.345022 353.220508 
L 455.017378 353.221942 
L 472.689734 353.220343 
L 490.362091 353.221804 
L 508.034447 353.221997 
L 525.706803 353.22197 
L 543.379159 353.22219 
L 561.051516 353.222108 
L 578.723872 353.221611 
L 596.396228 353.222466 
L 614.068584 353.222576 
L 631.74094 353.221832 
L 649.413297 353.222438 
L 667.085653 353.217999 
L 684.758009 353.22197 
L 702.430365 353.221501 
L 720.102721 353.218743 
L 737.775078 353.220894 
L 755.447434 353.220288 
L 773.11979 353.217944 
L 790.792146 353.206141 
L 808.464503 353.189816 
L 826.136859 353.040907 
L 843.809215 352.824022 
L 861.481571 353.081085 
L 879.153927 353.205865 
L 896.826284 352.998743 
L 914.49864 352.598369 
L 932.170996 352.982611 
L 949.843352 350.700019 
" clip-path="url(#p0a5fd195d4)" style="fill: none; stroke: #91e8e1; stroke-linecap: square"/>
   </g>
   <g id="line2d_17">
    <path d="M 83.897898 269.759155 
L 101.570254 327.204199 
L 119.24261 346.302028 
L 136.914966 351.74917 
L 154.587323 352.926163 
L 172.259679 353.20195 
L 189.932035 353.211932 
L 207.604391 353.215158 
L 225.276747 353.208706 
L 242.949104 353.209588 
L 260.62146 353.21309 
L 278.293816 353.215214 
L 295.966172 353.217888 
L 313.638529 353.21855 
L 331.310885 353.218385 
L 348.983241 353.218771 
L 366.655597 353.219074 
L 384.327953 353.220095 
L 402.00031 353.219295 
L 419.672666 353.219626 
L 437.345022 353.220591 
L 455.017378 353.220205 
L 472.689734 353.219708 
L 490.362091 353.221446 
L 508.034447 353.22128 
L 525.706803 353.221501 
L 543.379159 353.221611 
L 561.051516 353.221859 
L 578.723872 353.221639 
L 596.396228 353.221804 
L 614.068584 353.222356 
L 631.74094 353.220894 
L 649.413297 353.222218 
L 667.085653 353.217833 
L 684.758009 353.220867 
L 702.430365 353.221087 
L 720.102721 353.218881 
L 737.775078 353.221032 
L 755.447434 353.21924 
L 773.11979 353.217254 
L 790.792146 353.205011 
L 808.464503 353.185183 
L 826.136859 353.039859 
L 843.809215 352.790904 
L 861.481571 353.067131 
L 879.153927 353.202804 
L 896.826284 352.948114 
L 914.49864 352.489886 
L 932.170996 352.957876 
L 949.843352 350.556542 
" clip-path="url(#p0a5fd195d4)" style="fill: none; stroke: #7cb5ec; stroke-linecap: square"/>
   </g>
   <g id="line2d_18">
    <path d="M 83.897898 292.487374 
L 101.570254 334.570015 
L 119.24261 348.229305 
L 136.914966 352.158893 
L 154.587323 353.0122 
L 172.259679 353.203328 
L 189.932035 353.212291 
L 207.604391 353.214552 
L 225.276747 353.211684 
L 242.949104 353.210636 
L 260.62146 353.214745 
L 278.293816 353.217613 
L 295.966172 353.217778 
L 313.638529 353.218716 
L 331.310885 353.21855 
L 348.983241 353.219378 
L 366.655597 353.219846 
L 384.327953 353.22037 
L 402.00031 353.220949 
L 419.672666 353.221777 
L 437.345022 353.220977 
L 455.017378 353.221501 
L 472.689734 353.22106 
L 490.362091 353.222438 
L 508.034447 353.222273 
L 525.706803 353.222108 
L 543.379159 353.222852 
L 561.051516 353.222383 
L 578.723872 353.222108 
L 596.396228 353.222714 
L 614.068584 353.222438 
L 631.74094 353.221804 
L 649.413297 353.222797 
L 667.085653 353.219708 
L 684.758009 353.222218 
L 702.430365 353.221942 
L 720.102721 353.220508 
L 737.775078 353.221666 
L 755.447434 353.220618 
L 773.11979 353.219708 
L 790.792146 353.210553 
L 808.464503 353.196407 
L 826.136859 353.076535 
L 843.809215 352.916843 
L 861.481571 353.133672 
L 879.153927 353.210912 
L 896.826284 353.041541 
L 914.49864 352.741543 
L 932.170996 353.064263 
L 949.843352 351.169222 
" clip-path="url(#p0a5fd195d4)" style="fill: none; stroke: #434348; stroke-linecap: square"/>
   </g>
   <g id="line2d_19">
    <path d="M 83.897898 302.378312 
L 101.570254 337.211755 
L 119.24261 349.210068 
L 136.914966 352.36152 
L 154.587323 353.036329 
L 172.259679 353.182371 
L 189.932035 353.191002 
L 207.604391 353.194201 
L 225.276747 353.193374 
L 242.949104 353.193622 
L 260.62146 353.20024 
L 278.293816 353.202639 
L 295.966172 353.205286 
L 313.638529 353.206831 
L 331.310885 353.211105 
L 348.983241 353.210029 
L 366.655597 353.214441 
L 384.327953 353.21582 
L 402.00031 353.213421 
L 419.672666 353.217309 
L 437.345022 353.21673 
L 455.017378 353.219626 
L 472.689734 353.217254 
L 490.362091 353.219681 
L 508.034447 353.221335 
L 525.706803 353.220591 
L 543.379159 353.219819 
L 561.051516 353.219984 
L 578.723872 353.219571 
L 596.396228 353.220701 
L 614.068584 353.221418 
L 631.74094 353.218964 
L 649.413297 353.220839 
L 667.085653 353.20752 
L 684.758009 353.219019 
L 702.430365 353.218164 
L 720.102721 353.213228 
L 737.775078 353.21491 
L 755.447434 353.211822 
L 773.11979 353.208292 
L 790.792146 353.172195 
L 808.464503 353.115582 
L 826.136859 352.613674 
L 843.809215 352.01525 
L 861.481571 352.968134 
L 879.153927 353.172857 
L 896.826284 352.432666 
L 914.49864 351.173773 
L 932.170996 352.695519 
L 949.843352 344.42709 
" clip-path="url(#p0a5fd195d4)" style="fill: none; stroke: #90ed7d; stroke-linecap: square"/>
   </g>
   <g id="line2d_20">
    <path d="M 83.897898 295.571044 
L 101.570254 334.812489 
L 119.24261 348.632105 
L 136.914966 352.208364 
L 154.587323 352.998192 
L 172.259679 353.179751 
L 189.932035 353.191388 
L 207.604391 353.195607 
L 225.276747 353.195359 
L 242.949104 353.192657 
L 260.62146 353.200295 
L 278.293816 353.202694 
L 295.966172 353.208209 
L 313.638529 353.209974 
L 331.310885 353.212677 
L 348.983241 353.212815 
L 366.655597 353.214772 
L 384.327953 353.217199 
L 402.00031 353.207685 
L 419.672666 353.22208 
L 437.345022 353.223045 
L 455.017378 353.222576 
L 472.689734 353.219819 
L 490.362091 353.219129 
L 508.034447 353.22299 
L 525.706803 353.221749 
L 543.379159 353.211408 
L 561.051516 353.223293 
L 578.723872 353.221639 
L 596.396228 353.223321 
L 614.068584 353.220618 
L 631.74094 353.222218 
L 649.413297 353.216261 
L 667.085653 353.219267 
L 684.758009 353.222907 
L 702.430365 353.217613 
L 720.102721 353.222825 
L 737.775078 353.219378 
L 755.447434 353.222714 
L 773.11979 353.218633 
L 790.792146 353.213669 
L 808.464503 353.222356 
L 826.136859 353.216592 
L 843.809215 353.222328 
L 861.481571 353.193567 
L 879.153927 353.176056 
L 896.826284 353.218192 
L 914.49864 353.183253 
L 932.170996 353.084752 
L 949.843352 353.174374 
" clip-path="url(#p0a5fd195d4)" style="fill: none; stroke: #f7a35c; stroke-linecap: square"/>
   </g>
   <g id="line2d_21">
    <path d="M 83.897898 283.218713 
L 101.570254 330.823558 
L 119.24261 347.747499 
L 136.914966 352.026611 
L 154.587323 352.961157 
L 172.259679 353.167011 
L 189.932035 353.182895 
L 207.604391 353.186259 
L 225.276747 353.185763 
L 242.949104 353.183805 
L 260.62146 353.19591 
L 278.293816 353.196545 
L 295.966172 353.203521 
L 313.638529 353.205728 
L 331.310885 353.206941 
L 348.983241 353.211739 
L 366.655597 353.21218 
L 384.327953 353.212952 
L 402.00031 353.202529 
L 419.672666 353.222632 
L 437.345022 353.222935 
L 455.017378 353.221777 
L 472.689734 353.219571 
L 490.362091 353.21673 
L 508.034447 353.223238 
L 525.706803 353.220949 
L 543.379159 353.212428 
L 561.051516 353.222769 
L 578.723872 353.220591 
L 596.396228 353.222797 
L 614.068584 353.221501 
L 631.74094 353.220839 
L 649.413297 353.216868 
L 667.085653 353.218798 
L 684.758009 353.222411 
L 702.430365 353.218054 
L 720.102721 353.222438 
L 737.775078 353.213752 
L 755.447434 353.219846 
L 773.11979 353.222521 
L 790.792146 353.205038 
L 808.464503 353.212015 
L 826.136859 353.215434 
L 843.809215 353.219405 
L 861.481571 353.17862 
L 879.153927 353.167342 
L 896.826284 353.21662 
L 914.49864 353.176359 
L 932.170996 353.091867 
L 949.843352 353.157387 
" clip-path="url(#p0a5fd195d4)" style="fill: none; stroke: #8085e9; stroke-linecap: square"/>
   </g>
   <g id="line2d_22">
    <path d="M 83.897898 309.417161 
L 101.570254 339.481028 
L 119.24261 349.62525 
L 136.914966 352.448356 
L 154.587323 353.058472 
L 172.259679 353.192574 
L 189.932035 353.200791 
L 207.604391 353.202777 
L 225.276747 353.201564 
L 242.949104 353.204128 
L 260.62146 353.207906 
L 278.293816 353.210994 
L 295.966172 353.212401 
L 313.638529 353.212677 
L 331.310885 353.215958 
L 348.983241 353.216151 
L 366.655597 353.218054 
L 384.327953 353.218578 
L 402.00031 353.219543 
L 419.672666 353.220756 
L 437.345022 353.220729 
L 455.017378 353.221694 
L 472.689734 353.220756 
L 490.362091 353.222163 
L 508.034447 353.222301 
L 525.706803 353.221887 
L 543.379159 353.222108 
L 561.051516 353.22219 
L 578.723872 353.222108 
L 596.396228 353.222466 
L 614.068584 353.222632 
L 631.74094 353.221832 
L 649.413297 353.222659 
L 667.085653 353.219874 
L 684.758009 353.222273 
L 702.430365 353.222108 
L 720.102721 353.220536 
L 737.775078 353.221198 
L 755.447434 353.221198 
L 773.11979 353.220039 
L 790.792146 353.21218 
L 808.464503 353.203659 
L 826.136859 353.135161 
L 843.809215 352.951588 
L 861.481571 353.107999 
L 879.153927 353.207796 
L 896.826284 353.033268 
L 914.49864 352.828242 
L 932.170996 353.065918 
L 949.843352 351.117021 
" clip-path="url(#p0a5fd195d4)" style="fill: none; stroke: #f15c80; stroke-linecap: square"/>
   </g>
   <g id="line2d_23">
    <path d="M 83.897898 50.397223 
L 101.570254 257.791617 
L 119.24261 328.470455 
L 136.914966 347.916567 
L 154.587323 352.141189 
L 172.259679 353.12926 
L 189.932035 353.168197 
L 207.604391 353.177793 
L 225.276747 353.167149 
L 242.949104 353.158766 
L 260.62146 353.180964 
L 278.293816 353.187638 
L 295.966172 353.197344 
L 313.638529 353.198751 
L 331.310885 353.202336 
L 348.983241 353.203218 
L 366.655597 353.206886 
L 384.327953 353.206996 
L 402.00031 353.18932 
L 419.672666 353.216399 
L 437.345022 353.217006 
L 455.017378 353.217144 
L 472.689734 353.210581 
L 490.362091 353.208071 
L 508.034447 353.219378 
L 525.706803 353.214497 
L 543.379159 353.198696 
L 561.051516 353.21764 
L 578.723872 353.215434 
L 596.396228 353.218881 
L 614.068584 353.215489 
L 631.74094 353.215682 
L 649.413297 353.195194 
L 667.085653 353.203108 
L 684.758009 353.217089 
L 702.430365 353.207768 
L 720.102721 353.205121 
L 737.775078 353.211325 
L 755.447434 353.211105 
L 773.11979 353.201177 
L 790.792146 353.156394 
L 808.464503 353.196572 
L 826.136859 353.119581 
L 843.809215 353.004065 
L 861.481571 353.059824 
L 879.153927 353.14586 
L 896.826284 353.086296 
L 914.49864 353.042864 
L 932.170996 352.870984 
L 949.843352 349.649462 
" clip-path="url(#p0a5fd195d4)" style="fill: none; stroke: #e4d354; stroke-linecap: square"/>
   </g>
   <g id="line2d_24">
    <path d="M 83.897898 54.740201 
L 101.570254 262.058678 
L 119.24261 329.928142 
L 136.914966 348.04416 
L 154.587323 352.179768 
L 172.259679 353.059217 
L 189.932035 353.108385 
L 207.604391 353.122917 
L 225.276747 353.114617 
L 242.949104 353.110756 
L 260.62146 353.133782 
L 278.293816 353.14404 
L 295.966172 353.163895 
L 313.638529 353.166018 
L 331.310885 353.177683 
L 348.983241 353.180247 
L 366.655597 353.187307 
L 384.327953 353.191995 
L 402.00031 353.157001 
L 419.672666 353.217916 
L 437.345022 353.22037 
L 455.017378 353.217695 
L 472.689734 353.20832 
L 490.362091 353.203825 
L 508.034447 353.220812 
L 525.706803 353.214083 
L 543.379159 353.185073 
L 561.051516 353.220674 
L 578.723872 353.215324 
L 596.396228 353.221032 
L 614.068584 353.215931 
L 631.74094 353.217116 
L 649.413297 353.193125 
L 667.085653 353.198778 
L 684.758009 353.219929 
L 702.430365 353.200267 
L 720.102721 353.216978 
L 737.775078 353.205314 
L 755.447434 353.217199 
L 773.11979 353.205976 
L 790.792146 353.161055 
L 808.464503 353.212649 
L 826.136859 353.202777 
L 843.809215 353.204101 
L 861.481571 353.105241 
L 879.153927 353.088668 
L 896.826284 353.205369 
L 914.49864 353.105958 
L 932.170996 352.813544 
L 949.843352 353.030593 
" clip-path="url(#p0a5fd195d4)" style="fill: none; stroke: #2b908f; stroke-linecap: square"/>
   </g>
   <g id="line2d_25">
    <path d="M 83.897898 251.044189 
L 101.570254 323.089935 
L 119.24261 344.148353 
L 136.914966 351.149285 
L 154.587323 352.657768 
L 172.259679 353.018267 
L 189.932035 353.073639 
L 207.604391 353.083511 
L 225.276747 353.089936 
L 242.949104 353.085249 
L 260.62146 353.097079 
L 278.293816 353.101408 
L 295.966172 353.111804 
L 313.638529 353.128488 
L 331.310885 353.162847 
L 348.983241 353.181681 
L 366.655597 353.195221 
L 384.327953 353.202887 
L 402.00031 353.208678 
L 419.672666 353.211794 
L 437.345022 353.212566 
L 455.017378 353.215407 
L 472.689734 353.217337 
L 490.362091 353.218826 
L 508.034447 353.221142 
L 525.706803 353.222687 
L 543.379159 353.222383 
L 561.051516 353.222769 
L 578.723872 353.222852 
L 596.396228 353.22288 
L 614.068584 353.222907 
L 631.74094 353.22288 
L 649.413297 353.223045 
L 667.085653 353.221253 
L 684.758009 353.222521 
L 702.430365 353.223045 
L 720.102721 353.222604 
L 737.775078 353.221225 
L 755.447434 353.222245 
L 773.11979 353.222052 
L 790.792146 353.215793 
L 808.464503 353.215958 
L 826.136859 353.175477 
L 843.809215 353.093659 
L 861.481571 353.159648 
L 879.153927 353.217723 
L 896.826284 353.113955 
L 914.49864 353.130501 
L 932.170996 353.136347 
L 949.843352 350.985567 
" clip-path="url(#p0a5fd195d4)" style="fill: none; stroke: #f45b5b; stroke-linecap: square"/>
   </g>
   <g id="line2d_26">
    <path d="M 83.897898 251.072344 
L 101.570254 323.327584 
L 119.24261 344.06466 
L 136.914966 351.127224 
L 154.587323 352.645414 
L 172.259679 353.011842 
L 189.932035 353.069751 
L 207.604391 353.078272 
L 225.276747 353.090295 
L 242.949104 353.082767 
L 260.62146 353.097961 
L 278.293816 353.097823 
L 295.966172 353.110867 
L 313.638529 353.132789 
L 331.310885 353.15656 
L 348.983241 353.181406 
L 366.655597 353.193484 
L 384.327953 353.202446 
L 402.00031 353.207823 
L 419.672666 353.212373 
L 437.345022 353.21287 
L 455.017378 353.214772 
L 472.689734 353.217227 
L 490.362091 353.219185 
L 508.034447 353.221032 
L 525.706803 353.221804 
L 543.379159 353.222356 
L 561.051516 353.223045 
L 578.723872 353.222466 
L 596.396228 353.223045 
L 614.068584 353.223018 
L 631.74094 353.222852 
L 649.413297 353.223155 
L 667.085653 353.220977 
L 684.758009 353.222521 
L 702.430365 353.223073 
L 720.102721 353.222907 
L 737.775078 353.221639 
L 755.447434 353.222411 
L 773.11979 353.221528 
L 790.792146 353.215931 
L 808.464503 353.215517 
L 826.136859 353.166322 
L 843.809215 353.106317 
L 861.481571 353.166818 
L 879.153927 353.219681 
L 896.826284 353.15587 
L 914.49864 353.163481 
L 932.170996 353.157222 
L 949.843352 351.212737 
" clip-path="url(#p0a5fd195d4)" style="fill: none; stroke: #91e8e1; stroke-linecap: square"/>
   </g>
   <g id="line2d_27">
    <path d="M 83.897898 261.638835 
L 101.570254 326.263531 
L 119.24261 345.291483 
L 136.914966 351.328197 
L 154.587323 352.685757 
L 172.259679 353.022982 
L 189.932035 353.070992 
L 207.604391 353.09137 
L 225.276747 353.099946 
L 242.949104 353.082132 
L 260.62146 353.104634 
L 278.293816 353.09228 
L 295.966172 353.121731 
L 313.638529 353.130666 
L 331.310885 353.162847 
L 348.983241 353.183033 
L 366.655597 353.194421 
L 384.327953 353.203521 
L 402.00031 353.186259 
L 419.672666 353.22197 
L 437.345022 353.222328 
L 455.017378 353.221115 
L 472.689734 353.217778 
L 490.362091 353.217006 
L 508.034447 353.223266 
L 525.706803 353.222273 
L 543.379159 353.219819 
L 561.051516 353.223238 
L 578.723872 353.223155 
L 596.396228 353.223569 
L 614.068584 353.222907 
L 631.74094 353.223128 
L 649.413297 353.222962 
L 667.085653 353.219874 
L 684.758009 353.223431 
L 702.430365 353.219819 
L 720.102721 353.223376 
L 737.775078 353.222494 
L 755.447434 353.222714 
L 773.11979 353.218247 
L 790.792146 353.220674 
L 808.464503 353.223542 
L 826.136859 353.221639 
L 843.809215 353.223018 
L 861.481571 353.204818 
L 879.153927 353.203163 
L 896.826284 353.221418 
L 914.49864 353.20308 
L 932.170996 353.157746 
L 949.843352 353.196241 
" clip-path="url(#p0a5fd195d4)" style="fill: none; stroke: #7cb5ec; stroke-linecap: square"/>
   </g>
   <g id="line2d_28">
    <path d="M 83.897898 274.531047 
L 101.570254 330.5478 
L 119.24261 347.415899 
L 136.914966 351.934701 
L 154.587323 352.935732 
L 172.259679 353.134196 
L 189.932035 353.163206 
L 207.604391 353.168417 
L 225.276747 353.173933 
L 242.949104 353.171864 
L 260.62146 353.177076 
L 278.293816 353.18044 
L 295.966172 353.18226 
L 313.638529 353.185377 
L 331.310885 353.198227 
L 348.983241 353.205204 
L 366.655597 353.211022 
L 384.327953 353.213945 
L 402.00031 353.216978 
L 419.672666 353.21833 
L 437.345022 353.218881 
L 455.017378 353.219929 
L 472.689734 353.219405 
L 490.362091 353.221087 
L 508.034447 353.222025 
L 525.706803 353.222604 
L 543.379159 353.222797 
L 561.051516 353.222935 
L 578.723872 353.223348 
L 596.396228 353.223238 
L 614.068584 353.223486 
L 631.74094 353.223431 
L 649.413297 353.223348 
L 667.085653 353.221115 
L 684.758009 353.223018 
L 702.430365 353.223514 
L 720.102721 353.222659 
L 737.775078 353.221942 
L 755.447434 353.222907 
L 773.11979 353.222328 
L 790.792146 353.215986 
L 808.464503 353.217695 
L 826.136859 353.194008 
L 843.809215 353.071019 
L 861.481571 353.14393 
L 879.153927 353.214524 
L 896.826284 353.114562 
L 914.49864 353.127633 
L 932.170996 353.117678 
L 949.843352 351.028475 
" clip-path="url(#p0a5fd195d4)" style="fill: none; stroke: #434348; stroke-linecap: square"/>
   </g>
   <g id="line2d_29">
    <path d="M 83.897898 264.910822 
L 101.570254 328.455674 
L 119.24261 346.540862 
L 136.914966 351.742276 
L 154.587323 352.890728 
L 172.259679 353.121014 
L 189.932035 353.151679 
L 207.604391 353.157718 
L 225.276747 353.170458 
L 242.949104 353.162902 
L 260.62146 353.168031 
L 278.293816 353.170596 
L 295.966172 353.174236 
L 313.638529 353.180882 
L 331.310885 353.193622 
L 348.983241 353.203053 
L 366.655597 353.208154 
L 384.327953 353.212732 
L 402.00031 353.21469 
L 419.672666 353.217585 
L 437.345022 353.217916 
L 455.017378 353.219157 
L 472.689734 353.219129 
L 490.362091 353.221005 
L 508.034447 353.222135 
L 525.706803 353.222245 
L 543.379159 353.222852 
L 561.051516 353.222962 
L 578.723872 353.223128 
L 596.396228 353.223266 
L 614.068584 353.223404 
L 631.74094 353.222962 
L 649.413297 353.223128 
L 667.085653 353.221777 
L 684.758009 353.223211 
L 702.430365 353.223238 
L 720.102721 353.222549 
L 737.775078 353.221115 
L 755.447434 353.222769 
L 773.11979 353.222632 
L 790.792146 353.216565 
L 808.464503 353.216675 
L 826.136859 353.187114 
L 843.809215 353.084283 
L 861.481571 353.134389 
L 879.153927 353.216068 
L 896.826284 353.134968 
L 914.49864 353.140924 
L 932.170996 353.125647 
L 949.843352 350.948174 
" clip-path="url(#p0a5fd195d4)" style="fill: none; stroke: #90ed7d; stroke-linecap: square"/>
   </g>
   <g id="line2d_30">
    <path d="M 83.897898 251.441888 
L 101.570254 324.30774 
L 119.24261 345.698061 
L 136.914966 351.483367 
L 154.587323 352.822837 
L 172.259679 353.095672 
L 189.932035 353.12926 
L 207.604391 353.140014 
L 225.276747 353.153526 
L 242.949104 353.147901 
L 260.62146 353.157635 
L 278.293816 353.150962 
L 295.966172 353.168748 
L 313.638529 353.166239 
L 331.310885 353.185073 
L 348.983241 353.197841 
L 366.655597 353.203852 
L 384.327953 353.209533 
L 402.00031 353.197372 
L 419.672666 353.22208 
L 437.345022 353.22299 
L 455.017378 353.220536 
L 472.689734 353.217447 
L 490.362091 353.217778 
L 508.034447 353.223321 
L 525.706803 353.222135 
L 543.379159 353.219791 
L 561.051516 353.223073 
L 578.723872 353.223183 
L 596.396228 353.223348 
L 614.068584 353.223128 
L 631.74094 353.223018 
L 649.413297 353.222907 
L 667.085653 353.22015 
L 684.758009 353.223431 
L 702.430365 353.219433 
L 720.102721 353.223486 
L 737.775078 353.222328 
L 755.447434 353.222273 
L 773.11979 353.216482 
L 790.792146 353.219295 
L 808.464503 353.22299 
L 826.136859 353.220343 
L 843.809215 353.222466 
L 861.481571 353.198889 
L 879.153927 353.19478 
L 896.826284 353.220067 
L 914.49864 353.192243 
L 932.170996 353.118808 
L 949.843352 353.181764 
" clip-path="url(#p0a5fd195d4)" style="fill: none; stroke: #f7a35c; stroke-linecap: square"/>
   </g>
   <g id="line2d_31">
    <path d="M 83.897898 245.463 
L 101.570254 321.712797 
L 119.24261 343.89664 
L 136.914966 350.99475 
L 154.587323 352.592854 
L 172.259679 352.993338 
L 189.932035 353.057342 
L 207.604391 353.069365 
L 225.276747 353.081057 
L 242.949104 353.066911 
L 260.62146 353.096362 
L 278.293816 353.07295 
L 295.966172 353.112411 
L 313.638529 353.120849 
L 331.310885 353.157939 
L 348.983241 353.173464 
L 366.655597 353.191167 
L 384.327953 353.200074 
L 402.00031 353.179006 
L 419.672666 353.221501 
L 437.345022 353.221887 
L 455.017378 353.220067 
L 472.689734 353.215517 
L 490.362091 353.216151 
L 508.034447 353.223542 
L 525.706803 353.221666 
L 543.379159 353.219074 
L 561.051516 353.223045 
L 578.723872 353.222301 
L 596.396228 353.223183 
L 614.068584 353.222797 
L 631.74094 353.223238 
L 649.413297 353.219074 
L 667.085653 353.221005 
L 684.758009 353.223183 
L 702.430365 353.221528 
L 720.102721 353.219984 
L 737.775078 353.22288 
L 755.447434 353.222411 
L 773.11979 353.22015 
L 790.792146 353.218881 
L 808.464503 353.223238 
L 826.136859 353.221032 
L 843.809215 353.22288 
L 861.481571 353.209836 
L 879.153927 353.199964 
L 896.826284 353.220894 
L 914.49864 353.19558 
L 932.170996 353.154326 
L 949.843352 353.183501 
" clip-path="url(#p0a5fd195d4)" style="fill: none; stroke: #8085e9; stroke-linecap: square"/>
   </g>
   <g id="line2d_32">
    <path d="M 83.897898 256.073144 
L 101.570254 325.424921 
L 119.24261 344.440161 
L 136.914966 351.210117 
L 154.587323 352.681759 
L 172.259679 353.039197 
L 189.932035 353.084283 
L 207.604391 353.104166 
L 225.276747 353.111887 
L 242.949104 353.1056 
L 260.62146 353.114424 
L 278.293816 353.113238 
L 295.966172 353.122311 
L 313.638529 353.140593 
L 331.310885 353.16952 
L 348.983241 353.185156 
L 366.655597 353.198144 
L 384.327953 353.207134 
L 402.00031 353.210471 
L 419.672666 353.214359 
L 437.345022 353.214993 
L 455.017378 353.215462 
L 472.689734 353.217447 
L 490.362091 353.220122 
L 508.034447 353.221997 
L 525.706803 353.22219 
L 543.379159 353.222549 
L 561.051516 353.222825 
L 578.723872 353.223045 
L 596.396228 353.223155 
L 614.068584 353.223018 
L 631.74094 353.22288 
L 649.413297 353.2231 
L 667.085653 353.221335 
L 684.758009 353.222769 
L 702.430365 353.223293 
L 720.102721 353.222604 
L 737.775078 353.221335 
L 755.447434 353.22219 
L 773.11979 353.221556 
L 790.792146 353.214772 
L 808.464503 353.215186 
L 826.136859 353.160669 
L 843.809215 353.09319 
L 861.481571 353.158986 
L 879.153927 353.219019 
L 896.826284 353.130969 
L 914.49864 353.148949 
L 932.170996 353.14302 
L 949.843352 350.890155 
" clip-path="url(#p0a5fd195d4)" style="fill: none; stroke: #f15c80; stroke-linecap: square"/>
   </g>
   <g id="line2d_33">
    <path d="M 83.897898 273.645118 
L 101.570254 330.858745 
L 119.24261 346.041574 
L 136.914966 351.586804 
L 154.587323 352.796777 
L 172.259679 353.093604 
L 189.932035 353.129287 
L 207.604391 353.138111 
L 225.276747 353.14291 
L 242.949104 353.139573 
L 260.62146 353.146908 
L 278.293816 353.147432 
L 295.966172 353.151982 
L 313.638529 353.167287 
L 331.310885 353.189596 
L 348.983241 353.201122 
L 366.655597 353.209092 
L 384.327953 353.21196 
L 402.00031 353.215048 
L 419.672666 353.216399 
L 437.345022 353.21855 
L 455.017378 353.219267 
L 472.689734 353.219653 
L 490.362091 353.220922 
L 508.034447 353.222328 
L 525.706803 353.2231 
L 543.379159 353.222907 
L 561.051516 353.223183 
L 578.723872 353.223155 
L 596.396228 353.223486 
L 614.068584 353.223348 
L 631.74094 353.223293 
L 649.413297 353.223293 
L 667.085653 353.222245 
L 684.758009 353.223431 
L 702.430365 353.223321 
L 720.102721 353.223155 
L 737.775078 353.222438 
L 755.447434 353.223073 
L 773.11979 353.222769 
L 790.792146 353.219047 
L 808.464503 353.21946 
L 826.136859 353.189458 
L 843.809215 353.161882 
L 861.481571 353.197427 
L 879.153927 353.221308 
L 896.826284 353.181488 
L 914.49864 353.188244 
L 932.170996 353.178979 
L 949.843352 351.977471 
" clip-path="url(#p0a5fd195d4)" style="fill: none; stroke: #e4d354; stroke-linecap: square"/>
   </g>
   <g id="line2d_34">
    <path d="M 83.897898 256.628191 
L 101.570254 325.363951 
L 119.24261 346.037079 
L 136.914966 351.61915 
L 154.587323 352.880387 
L 172.259679 353.121842 
L 189.932035 353.153113 
L 207.604391 353.161634 
L 225.276747 353.162571 
L 242.949104 353.161716 
L 260.62146 353.169824 
L 278.293816 353.173602 
L 295.966172 353.175091 
L 313.638529 353.179503 
L 331.310885 353.19307 
L 348.983241 353.201233 
L 366.655597 353.207768 
L 384.327953 353.212484 
L 402.00031 353.214855 
L 419.672666 353.217089 
L 437.345022 353.217034 
L 455.017378 353.218523 
L 472.689734 353.218247 
L 490.362091 353.220784 
L 508.034447 353.221859 
L 525.706803 353.222549 
L 543.379159 353.222466 
L 561.051516 353.222549 
L 578.723872 353.22288 
L 596.396228 353.222962 
L 614.068584 353.223238 
L 631.74094 353.222659 
L 649.413297 353.223238 
L 667.085653 353.220067 
L 684.758009 353.222687 
L 702.430365 353.223018 
L 720.102721 353.222052 
L 737.775078 353.219102 
L 755.447434 353.221804 
L 773.11979 353.219433 
L 790.792146 353.211325 
L 808.464503 353.20854 
L 826.136859 353.143792 
L 843.809215 352.937083 
L 861.481571 353.090709 
L 879.153927 353.206169 
L 896.826284 353.040741 
L 914.49864 353.051661 
L 932.170996 353.026264 
L 949.843352 348.057093 
" clip-path="url(#p0a5fd195d4)" style="fill: none; stroke: #2b908f; stroke-linecap: square"/>
   </g>
   <g id="line2d_35">
    <path d="M 83.897898 251.039611 
L 101.570254 323.491191 
L 119.24261 345.686424 
L 136.914966 351.481023 
L 154.587323 352.813626 
L 172.259679 353.099616 
L 189.932035 353.132845 
L 207.604391 353.148921 
L 225.276747 353.15565 
L 242.949104 353.147791 
L 260.62146 353.160917 
L 278.293816 353.155319 
L 295.966172 353.17385 
L 313.638529 353.172664 
L 331.310885 353.189596 
L 348.983241 353.19853 
L 366.655597 353.204514 
L 384.327953 353.210002 
L 402.00031 353.197289 
L 419.672666 353.22219 
L 437.345022 353.22299 
L 455.017378 353.221915 
L 472.689734 353.219267 
L 490.362091 353.218991 
L 508.034447 353.223018 
L 525.706803 353.221722 
L 543.379159 353.217668 
L 561.051516 353.223238 
L 578.723872 353.222769 
L 596.396228 353.223348 
L 614.068584 353.222549 
L 631.74094 353.222797 
L 649.413297 353.220039 
L 667.085653 353.220867 
L 684.758009 353.223211 
L 702.430365 353.220563 
L 720.102721 353.223045 
L 737.775078 353.221308 
L 755.447434 353.22288 
L 773.11979 353.221253 
L 790.792146 353.217585 
L 808.464503 353.223045 
L 826.136859 353.221611 
L 843.809215 353.222797 
L 861.481571 353.207437 
L 879.153927 353.197234 
L 896.826284 353.219488 
L 914.49864 353.200598 
L 932.170996 353.128129 
L 949.843352 353.189017 
" clip-path="url(#p0a5fd195d4)" style="fill: none; stroke: #f45b5b; stroke-linecap: square"/>
   </g>
   <g id="line2d_36">
    <path d="M 83.897898 252.996808 
L 101.570254 324.549526 
L 119.24261 345.517081 
L 136.914966 351.488854 
L 154.587323 352.838279 
L 172.259679 353.106344 
L 189.932035 353.141917 
L 207.604391 353.147212 
L 225.276747 353.155098 
L 242.949104 353.154188 
L 260.62146 353.161551 
L 278.293816 353.166266 
L 295.966172 353.168638 
L 313.638529 353.174732 
L 331.310885 353.190809 
L 348.983241 353.198916 
L 366.655597 353.204349 
L 384.327953 353.212042 
L 402.00031 353.213973 
L 419.672666 353.216317 
L 437.345022 353.217392 
L 455.017378 353.218247 
L 472.689734 353.218164 
L 490.362091 353.22106 
L 508.034447 353.221611 
L 525.706803 353.22197 
L 543.379159 353.222521 
L 561.051516 353.22288 
L 578.723872 353.222604 
L 596.396228 353.223018 
L 614.068584 353.223073 
L 631.74094 353.222769 
L 649.413297 353.223018 
L 667.085653 353.22015 
L 684.758009 353.222769 
L 702.430365 353.223321 
L 720.102721 353.222135 
L 737.775078 353.221142 
L 755.447434 353.222052 
L 773.11979 353.221005 
L 790.792146 353.212594 
L 808.464503 353.214524 
L 826.136859 353.176414 
L 843.809215 353.048407 
L 861.481571 353.114893 
L 879.153927 353.212925 
L 896.826284 353.122393 
L 914.49864 353.124903 
L 932.170996 353.094183 
L 949.843352 350.361525 
" clip-path="url(#p0a5fd195d4)" style="fill: none; stroke: #91e8e1; stroke-linecap: square"/>
   </g>
   <g id="line2d_37">
    <path d="M 83.897898 136.768933 
L 101.570254 290.357828 
L 119.24261 334.731775 
L 136.914966 348.779553 
L 154.587323 351.999614 
L 172.259679 352.772318 
L 189.932035 352.891831 
L 207.604391 352.931706 
L 225.276747 352.954043 
L 242.949104 352.928893 
L 260.62146 352.967886 
L 278.293816 352.936201 
L 295.966172 352.998936 
L 313.638529 353.023258 
L 331.310885 353.092198 
L 348.983241 353.133727 
L 366.655597 353.160558 
L 384.327953 353.18022 
L 402.00031 353.143461 
L 419.672666 353.216675 
L 437.345022 353.220922 
L 455.017378 353.216896 
L 472.689734 353.210084 
L 490.362091 353.208209 
L 508.034447 353.22299 
L 525.706803 353.220729 
L 543.379159 353.213973 
L 561.051516 353.222907 
L 578.723872 353.22197 
L 596.396228 353.222797 
L 614.068584 353.221887 
L 631.74094 353.222301 
L 649.413297 353.215434 
L 667.085653 353.218219 
L 684.758009 353.219736 
L 702.430365 353.222521 
L 720.102721 353.218412 
L 737.775078 353.221446 
L 755.447434 353.215379 
L 773.11979 353.21844 
L 790.792146 353.215903 
L 808.464503 353.218991 
L 826.136859 353.220839 
L 843.809215 353.220563 
L 861.481571 353.185845 
L 879.153927 353.181792 
L 896.826284 353.217171 
L 914.49864 353.187307 
L 932.170996 353.081746 
L 949.843352 353.160255 
" clip-path="url(#p0a5fd195d4)" style="fill: none; stroke: #7cb5ec; stroke-linecap: square"/>
   </g>
   <g id="line2d_38">
    <path d="M 83.897898 188.865335 
L 101.570254 306.635308 
L 119.24261 341.432323 
L 136.914966 350.469347 
L 154.587323 352.572999 
L 172.259679 352.994882 
L 189.932035 353.058307 
L 207.604391 353.070578 
L 225.276747 353.091812 
L 242.949104 353.085414 
L 260.62146 353.103531 
L 278.293816 353.092418 
L 295.966172 353.115003 
L 313.638529 353.124379 
L 331.310885 353.153306 
L 348.983241 353.174126 
L 366.655597 353.186673 
L 384.327953 353.197041 
L 402.00031 353.172499 
L 419.672666 353.220674 
L 437.345022 353.221997 
L 455.017378 353.217833 
L 472.689734 353.212042 
L 490.362091 353.210967 
L 508.034447 353.223128 
L 525.706803 353.22026 
L 543.379159 353.213862 
L 561.051516 353.222825 
L 578.723872 353.222108 
L 596.396228 353.222907 
L 614.068584 353.221528 
L 631.74094 353.221859 
L 649.413297 353.206389 
L 667.085653 353.216813 
L 684.758009 353.217613 
L 702.430365 353.222301 
L 720.102721 353.216317 
L 737.775078 353.220784 
L 755.447434 353.214965 
L 773.11979 353.21742 
L 790.792146 353.215875 
L 808.464503 353.217916 
L 826.136859 353.220177 
L 843.809215 353.220949 
L 861.481571 353.18215 
L 879.153927 353.176249 
L 896.826284 353.216096 
L 914.49864 353.183777 
L 932.170996 353.057976 
L 949.843352 353.14746 
" clip-path="url(#p0a5fd195d4)" style="fill: none; stroke: #434348; stroke-linecap: square"/>
   </g>
   <g id="line2d_39">
    <path d="M 40.600625 353.2239 
L 993.140625 353.2239 
" clip-path="url(#p0a5fd195d4)" style="fill: none; stroke: #dedede; stroke-width: 2; stroke-linecap: square"/>
   </g>
   <g id="text_16">
    <!-- Cutadapt: Lengths of Trimmed Sequences (3' end) -->
    <g transform="translate(315.518125 19.3575) scale(0.16 -0.16)">
     <defs>
      <path id="DejaVuSans-61" d="M 2194 1759 
Q 1497 1759 1228 1600 
Q 959 1441 959 1056 
Q 959 750 1161 570 
Q 1363 391 1709 391 
Q 2188 391 2477 730 
Q 2766 1069 2766 1631 
L 2766 1759 
L 2194 1759 
z
M 3341 1997 
L 3341 0 
L 2766 0 
L 2766 531 
Q 2569 213 2275 61 
Q 1981 -91 1556 -91 
Q 1019 -91 701 211 
Q 384 513 384 1019 
Q 384 1609 779 1909 
Q 1175 2209 1959 2209 
L 2766 2209 
L 2766 2266 
Q 2766 2663 2505 2880 
Q 2244 3097 1772 3097 
Q 1472 3097 1187 3025 
Q 903 2953 641 2809 
L 641 3341 
Q 956 3463 1253 3523 
Q 1550 3584 1831 3584 
Q 2591 3584 2966 3190 
Q 3341 2797 3341 1997 
z
" transform="scale(0.015625)"/>
      <path id="DejaVuSans-3a" d="M 750 794 
L 1409 794 
L 1409 0 
L 750 0 
L 750 794 
z
M 750 3309 
L 1409 3309 
L 1409 2516 
L 750 2516 
L 750 3309 
z
" transform="scale(0.015625)"/>
      <path id="DejaVuSans-73" d="M 2834 3397 
L 2834 2853 
Q 2591 2978 2328 3040 
Q 2066 3103 1784 3103 
Q 1356 3103 1142 2972 
Q 928 2841 928 2578 
Q 928 2378 1081 2264 
Q 1234 2150 1697 2047 
L 1894 2003 
Q 2506 1872 2764 1633 
Q 3022 1394 3022 966 
Q 3022 478 2636 193 
Q 2250 -91 1575 -91 
Q 1294 -91 989 -36 
Q 684 19 347 128 
L 347 722 
Q 666 556 975 473 
Q 1284 391 1588 391 
Q 1994 391 2212 530 
Q 2431 669 2431 922 
Q 2431 1156 2273 1281 
Q 2116 1406 1581 1522 
L 1381 1569 
Q 847 1681 609 1914 
Q 372 2147 372 2553 
Q 372 3047 722 3315 
Q 1072 3584 1716 3584 
Q 2034 3584 2315 3537 
Q 2597 3491 2834 3397 
z
" transform="scale(0.015625)"/>
      <path id="DejaVuSans-66" d="M 2375 4863 
L 2375 4384 
L 1825 4384 
Q 1516 4384 1395 4259 
Q 1275 4134 1275 3809 
L 1275 3500 
L 2222 3500 
L 2222 3053 
L 1275 3053 
L 1275 0 
L 697 0 
L 697 3053 
L 147 3053 
L 147 3500 
L 697 3500 
L 697 3744 
Q 697 4328 969 4595 
Q 1241 4863 1831 4863 
L 2375 4863 
z
" transform="scale(0.015625)"/>
      <path id="DejaVuSans-53" d="M 3425 4513 
L 3425 3897 
Q 3066 4069 2747 4153 
Q 2428 4238 2131 4238 
Q 1616 4238 1336 4038 
Q 1056 3838 1056 3469 
Q 1056 3159 1242 3001 
Q 1428 2844 1947 2747 
L 2328 2669 
Q 3034 2534 3370 2195 
Q 3706 1856 3706 1288 
Q 3706 609 3251 259 
Q 2797 -91 1919 -91 
Q 1588 -91 1214 -16 
Q 841 59 441 206 
L 441 856 
Q 825 641 1194 531 
Q 1563 422 1919 422 
Q 2459 422 2753 634 
Q 3047 847 3047 1241 
Q 3047 1584 2836 1778 
Q 2625 1972 2144 2069 
L 1759 2144 
Q 1053 2284 737 2584 
Q 422 2884 422 3419 
Q 422 4038 858 4394 
Q 1294 4750 2059 4750 
Q 2388 4750 2728 4690 
Q 3069 4631 3425 4513 
z
" transform="scale(0.015625)"/>
      <path id="DejaVuSans-71" d="M 947 1747 
Q 947 1113 1208 752 
Q 1469 391 1925 391 
Q 2381 391 2643 752 
Q 2906 1113 2906 1747 
Q 2906 2381 2643 2742 
Q 2381 3103 1925 3103 
Q 1469 3103 1208 2742 
Q 947 2381 947 1747 
z
M 2906 525 
Q 2725 213 2448 61 
Q 2172 -91 1784 -91 
Q 1150 -91 751 415 
Q 353 922 353 1747 
Q 353 2572 751 3078 
Q 1150 3584 1784 3584 
Q 2172 3584 2448 3432 
Q 2725 3281 2906 2969 
L 2906 3500 
L 3481 3500 
L 3481 -1331 
L 2906 -1331 
L 2906 525 
z
" transform="scale(0.015625)"/>
      <path id="DejaVuSans-63" d="M 3122 3366 
L 3122 2828 
Q 2878 2963 2633 3030 
Q 2388 3097 2138 3097 
Q 1578 3097 1268 2742 
Q 959 2388 959 1747 
Q 959 1106 1268 751 
Q 1578 397 2138 397 
Q 2388 397 2633 464 
Q 2878 531 3122 666 
L 3122 134 
Q 2881 22 2623 -34 
Q 2366 -91 2075 -91 
Q 1284 -91 818 406 
Q 353 903 353 1747 
Q 353 2603 823 3093 
Q 1294 3584 2113 3584 
Q 2378 3584 2631 3529 
Q 2884 3475 3122 3366 
z
" transform="scale(0.015625)"/>
      <path id="DejaVuSans-27" d="M 1147 4666 
L 1147 2931 
L 616 2931 
L 616 4666 
L 1147 4666 
z
" transform="scale(0.015625)"/>
     </defs>
     <use xlink:href="#DejaVuSans-43"/>
     <use xlink:href="#DejaVuSans-75" x="69.824219"/>
     <use xlink:href="#DejaVuSans-74" x="133.203125"/>
     <use xlink:href="#DejaVuSans-61" x="172.412109"/>
     <use xlink:href="#DejaVuSans-64" x="233.691406"/>
     <use xlink:href="#DejaVuSans-61" x="297.167969"/>
     <use xlink:href="#DejaVuSans-70" x="358.447266"/>
     <use xlink:href="#DejaVuSans-74" x="421.923828"/>
     <use xlink:href="#DejaVuSans-3a" x="461.132812"/>
     <use xlink:href="#DejaVuSans-20" x="494.824219"/>
     <use xlink:href="#DejaVuSans-4c" x="526.611328"/>
     <use xlink:href="#DejaVuSans-65" x="580.574219"/>
     <use xlink:href="#DejaVuSans-6e" x="642.097656"/>
     <use xlink:href="#DejaVuSans-67" x="705.476562"/>
     <use xlink:href="#DejaVuSans-74" x="768.953125"/>
     <use xlink:href="#DejaVuSans-68" x="808.162109"/>
     <use xlink:href="#DejaVuSans-73" x="871.541016"/>
     <use xlink:href="#DejaVuSans-20" x="923.640625"/>
     <use xlink:href="#DejaVuSans-6f" x="955.427734"/>
     <use xlink:href="#DejaVuSans-66" x="1016.609375"/>
     <use xlink:href="#DejaVuSans-20" x="1051.814453"/>
     <use xlink:href="#DejaVuSans-54" x="1083.601562"/>
     <use xlink:href="#DejaVuSans-72" x="1129.935547"/>
     <use xlink:href="#DejaVuSans-69" x="1171.048828"/>
     <use xlink:href="#DejaVuSans-6d" x="1198.832031"/>
     <use xlink:href="#DejaVuSans-6d" x="1296.244141"/>
     <use xlink:href="#DejaVuSans-65" x="1393.65625"/>
     <use xlink:href="#DejaVuSans-64" x="1455.179688"/>
     <use xlink:href="#DejaVuSans-20" x="1518.65625"/>
     <use xlink:href="#DejaVuSans-53" x="1550.443359"/>
     <use xlink:href="#DejaVuSans-65" x="1613.919922"/>
     <use xlink:href="#DejaVuSans-71" x="1675.443359"/>
     <use xlink:href="#DejaVuSans-75" x="1738.919922"/>
     <use xlink:href="#DejaVuSans-65" x="1802.298828"/>
     <use xlink:href="#DejaVuSans-6e" x="1863.822266"/>
     <use xlink:href="#DejaVuSans-63" x="1927.201172"/>
     <use xlink:href="#DejaVuSans-65" x="1982.181641"/>
     <use xlink:href="#DejaVuSans-73" x="2043.705078"/>
     <use xlink:href="#DejaVuSans-20" x="2095.804688"/>
     <use xlink:href="#DejaVuSans-28" x="2127.591797"/>
     <use xlink:href="#DejaVuSans-33" x="2166.605469"/>
     <use xlink:href="#DejaVuSans-27" x="2230.228516"/>
     <use xlink:href="#DejaVuSans-20" x="2257.71875"/>
     <use xlink:href="#DejaVuSans-65" x="2289.505859"/>
     <use xlink:href="#DejaVuSans-6e" x="2351.029297"/>
     <use xlink:href="#DejaVuSans-64" x="2414.408203"/>
     <use xlink:href="#DejaVuSans-29" x="2477.884766"/>
    </g>
   </g>
  </g>
 </g>
 <defs>
  <clipPath id="p0a5fd195d4">
   <rect x="40.600625" y="35.2559" width="952.54" height="317.968"/>
  </clipPath>
 </defs>
</svg>
