<?xml version="1.0" encoding="utf-8" standalone="no"?>
<!DOCTYPE svg PUBLIC "-//W3C//DTD SVG 1.1//EN"
  "http://www.w3.org/Graphics/SVG/1.1/DTD/svg11.dtd">
<svg xmlns:xlink="http://www.w3.org/1999/xlink" width="1000.340625pt" height="388.844525pt" viewBox="0 0 1000.340625 388.844525" xmlns="http://www.w3.org/2000/svg" version="1.1">
 <metadata>
  <rdf:RDF xmlns:dc="http://purl.org/dc/elements/1.1/" xmlns:cc="http://creativecommons.org/ns#" xmlns:rdf="http://www.w3.org/1999/02/22-rdf-syntax-ns#">
   <cc:Work>
    <dc:type rdf:resource="http://purl.org/dc/dcmitype/StillImage"/>
    <dc:date>2025-01-24T09:54:51.299613</dc:date>
    <dc:format>image/svg+xml</dc:format>
    <dc:creator>
     <cc:Agent>
      <dc:title>Matplotlib v3.8.2, https://matplotlib.org/</dc:title>
     </cc:Agent>
    </dc:creator>
   </cc:Work>
  </rdf:RDF>
 </metadata>
 <defs>
  <style type="text/css">*{stroke-linejoin: round; stroke-linecap: butt}</style>
 </defs>
 <g id="figure_1">
  <g id="axes_1">
   <g id="patch_1">
    <path d="M 40.600625 353.2239 
L 993.140625 353.2239 
L 993.140625 35.2559 
L 40.600625 35.2559 
z
" style="fill: #ffffff"/>
   </g>
   <g id="matplotlib.axis_1">
    <g id="xtick_1">
     <g id="text_1">
      <!-- 20 -->
      <g transform="translate(78.807898 366.30265) scale(0.08 -0.08)">
       <defs>
        <path id="DejaVuSans-32" d="M 1228 531 
L 3431 531 
L 3431 0 
L 469 0 
L 469 531 
Q 828 903 1448 1529 
Q 2069 2156 2228 2338 
Q 2531 2678 2651 2914 
Q 2772 3150 2772 3378 
Q 2772 3750 2511 3984 
Q 2250 4219 1831 4219 
Q 1534 4219 1204 4116 
Q 875 4013 500 3803 
L 500 4441 
Q 881 4594 1212 4672 
Q 1544 4750 1819 4750 
Q 2544 4750 2975 4387 
Q 3406 4025 3406 3419 
Q 3406 3131 3298 2873 
Q 3191 2616 2906 2266 
Q 2828 2175 2409 1742 
Q 1991 1309 1228 531 
z
" transform="scale(0.015625)"/>
        <path id="DejaVuSans-30" d="M 2034 4250 
Q 1547 4250 1301 3770 
Q 1056 3291 1056 2328 
Q 1056 1369 1301 889 
Q 1547 409 2034 409 
Q 2525 409 2770 889 
Q 3016 1369 3016 2328 
Q 3016 3291 2770 3770 
Q 2525 4250 2034 4250 
z
M 2034 4750 
Q 2819 4750 3233 4129 
Q 3647 3509 3647 2328 
Q 3647 1150 3233 529 
Q 2819 -91 2034 -91 
Q 1250 -91 836 529 
Q 422 1150 422 2328 
Q 422 3509 836 4129 
Q 1250 4750 2034 4750 
z
" transform="scale(0.015625)"/>
       </defs>
       <use xlink:href="#DejaVuSans-32"/>
       <use xlink:href="#DejaVuSans-30" x="63.623047"/>
      </g>
     </g>
    </g>
    <g id="xtick_2">
     <g id="text_2">
      <!-- 25 -->
      <g transform="translate(223.13214 366.30265) scale(0.08 -0.08)">
       <defs>
        <path id="DejaVuSans-35" d="M 691 4666 
L 3169 4666 
L 3169 4134 
L 1269 4134 
L 1269 2991 
Q 1406 3038 1543 3061 
Q 1681 3084 1819 3084 
Q 2600 3084 3056 2656 
Q 3513 2228 3513 1497 
Q 3513 744 3044 326 
Q 2575 -91 1722 -91 
Q 1428 -91 1123 -41 
Q 819 9 494 109 
L 494 744 
Q 775 591 1075 516 
Q 1375 441 1709 441 
Q 2250 441 2565 725 
Q 2881 1009 2881 1497 
Q 2881 1984 2565 2268 
Q 2250 2553 1709 2553 
Q 1456 2553 1204 2497 
Q 953 2441 691 2322 
L 691 4666 
z
" transform="scale(0.015625)"/>
       </defs>
       <use xlink:href="#DejaVuSans-32"/>
       <use xlink:href="#DejaVuSans-35" x="63.623047"/>
      </g>
     </g>
    </g>
    <g id="xtick_3">
     <g id="text_3">
      <!-- 30 -->
      <g transform="translate(367.456383 366.30265) scale(0.08 -0.08)">
       <defs>
        <path id="DejaVuSans-33" d="M 2597 2516 
Q 3050 2419 3304 2112 
Q 3559 1806 3559 1356 
Q 3559 666 3084 287 
Q 2609 -91 1734 -91 
Q 1441 -91 1130 -33 
Q 819 25 488 141 
L 488 750 
Q 750 597 1062 519 
Q 1375 441 1716 441 
Q 2309 441 2620 675 
Q 2931 909 2931 1356 
Q 2931 1769 2642 2001 
Q 2353 2234 1838 2234 
L 1294 2234 
L 1294 2753 
L 1863 2753 
Q 2328 2753 2575 2939 
Q 2822 3125 2822 3475 
Q 2822 3834 2567 4026 
Q 2313 4219 1838 4219 
Q 1578 4219 1281 4162 
Q 984 4106 628 3988 
L 628 4550 
Q 988 4650 1302 4700 
Q 1616 4750 1894 4750 
Q 2613 4750 3031 4423 
Q 3450 4097 3450 3541 
Q 3450 3153 3228 2886 
Q 3006 2619 2597 2516 
z
" transform="scale(0.015625)"/>
       </defs>
       <use xlink:href="#DejaVuSans-33"/>
       <use xlink:href="#DejaVuSans-30" x="63.623047"/>
      </g>
     </g>
    </g>
    <g id="xtick_4">
     <g id="text_4">
      <!-- 35 -->
      <g transform="translate(511.780625 366.30265) scale(0.08 -0.08)">
       <use xlink:href="#DejaVuSans-33"/>
       <use xlink:href="#DejaVuSans-35" x="63.623047"/>
      </g>
     </g>
    </g>
    <g id="xtick_5">
     <g id="text_5">
      <!-- 40 -->
      <g transform="translate(656.104867 366.30265) scale(0.08 -0.08)">
       <defs>
        <path id="DejaVuSans-34" d="M 2419 4116 
L 825 1625 
L 2419 1625 
L 2419 4116 
z
M 2253 4666 
L 3047 4666 
L 3047 1625 
L 3713 1625 
L 3713 1100 
L 3047 1100 
L 3047 0 
L 2419 0 
L 2419 1100 
L 313 1100 
L 313 1709 
L 2253 4666 
z
" transform="scale(0.015625)"/>
       </defs>
       <use xlink:href="#DejaVuSans-34"/>
       <use xlink:href="#DejaVuSans-30" x="63.623047"/>
      </g>
     </g>
    </g>
    <g id="xtick_6">
     <g id="text_6">
      <!-- 45 -->
      <g transform="translate(800.42911 366.30265) scale(0.08 -0.08)">
       <use xlink:href="#DejaVuSans-34"/>
       <use xlink:href="#DejaVuSans-35" x="63.623047"/>
      </g>
     </g>
    </g>
    <g id="xtick_7">
     <g id="text_7">
      <!-- 50 -->
      <g transform="translate(944.753352 366.30265) scale(0.08 -0.08)">
       <use xlink:href="#DejaVuSans-35"/>
       <use xlink:href="#DejaVuSans-30" x="63.623047"/>
      </g>
     </g>
    </g>
    <g id="text_8">
     <!-- Sequence Length (bp) -->
     <g transform="translate(461.530781 379.564837) scale(0.1 -0.1)">
      <defs>
       <path id="DejaVuSans-53" d="M 3425 4513 
L 3425 3897 
Q 3066 4069 2747 4153 
Q 2428 4238 2131 4238 
Q 1616 4238 1336 4038 
Q 1056 3838 1056 3469 
Q 1056 3159 1242 3001 
Q 1428 2844 1947 2747 
L 2328 2669 
Q 3034 2534 3370 2195 
Q 3706 1856 3706 1288 
Q 3706 609 3251 259 
Q 2797 -91 1919 -91 
Q 1588 -91 1214 -16 
Q 841 59 441 206 
L 441 856 
Q 825 641 1194 531 
Q 1563 422 1919 422 
Q 2459 422 2753 634 
Q 3047 847 3047 1241 
Q 3047 1584 2836 1778 
Q 2625 1972 2144 2069 
L 1759 2144 
Q 1053 2284 737 2584 
Q 422 2884 422 3419 
Q 422 4038 858 4394 
Q 1294 4750 2059 4750 
Q 2388 4750 2728 4690 
Q 3069 4631 3425 4513 
z
" transform="scale(0.015625)"/>
       <path id="DejaVuSans-65" d="M 3597 1894 
L 3597 1613 
L 953 1613 
Q 991 1019 1311 708 
Q 1631 397 2203 397 
Q 2534 397 2845 478 
Q 3156 559 3463 722 
L 3463 178 
Q 3153 47 2828 -22 
Q 2503 -91 2169 -91 
Q 1331 -91 842 396 
Q 353 884 353 1716 
Q 353 2575 817 3079 
Q 1281 3584 2069 3584 
Q 2775 3584 3186 3129 
Q 3597 2675 3597 1894 
z
M 3022 2063 
Q 3016 2534 2758 2815 
Q 2500 3097 2075 3097 
Q 1594 3097 1305 2825 
Q 1016 2553 972 2059 
L 3022 2063 
z
" transform="scale(0.015625)"/>
       <path id="DejaVuSans-71" d="M 947 1747 
Q 947 1113 1208 752 
Q 1469 391 1925 391 
Q 2381 391 2643 752 
Q 2906 1113 2906 1747 
Q 2906 2381 2643 2742 
Q 2381 3103 1925 3103 
Q 1469 3103 1208 2742 
Q 947 2381 947 1747 
z
M 2906 525 
Q 2725 213 2448 61 
Q 2172 -91 1784 -91 
Q 1150 -91 751 415 
Q 353 922 353 1747 
Q 353 2572 751 3078 
Q 1150 3584 1784 3584 
Q 2172 3584 2448 3432 
Q 2725 3281 2906 2969 
L 2906 3500 
L 3481 3500 
L 3481 -1331 
L 2906 -1331 
L 2906 525 
z
" transform="scale(0.015625)"/>
       <path id="DejaVuSans-75" d="M 544 1381 
L 544 3500 
L 1119 3500 
L 1119 1403 
Q 1119 906 1312 657 
Q 1506 409 1894 409 
Q 2359 409 2629 706 
Q 2900 1003 2900 1516 
L 2900 3500 
L 3475 3500 
L 3475 0 
L 2900 0 
L 2900 538 
Q 2691 219 2414 64 
Q 2138 -91 1772 -91 
Q 1169 -91 856 284 
Q 544 659 544 1381 
z
M 1991 3584 
L 1991 3584 
z
" transform="scale(0.015625)"/>
       <path id="DejaVuSans-6e" d="M 3513 2113 
L 3513 0 
L 2938 0 
L 2938 2094 
Q 2938 2591 2744 2837 
Q 2550 3084 2163 3084 
Q 1697 3084 1428 2787 
Q 1159 2491 1159 1978 
L 1159 0 
L 581 0 
L 581 3500 
L 1159 3500 
L 1159 2956 
Q 1366 3272 1645 3428 
Q 1925 3584 2291 3584 
Q 2894 3584 3203 3211 
Q 3513 2838 3513 2113 
z
" transform="scale(0.015625)"/>
       <path id="DejaVuSans-63" d="M 3122 3366 
L 3122 2828 
Q 2878 2963 2633 3030 
Q 2388 3097 2138 3097 
Q 1578 3097 1268 2742 
Q 959 2388 959 1747 
Q 959 1106 1268 751 
Q 1578 397 2138 397 
Q 2388 397 2633 464 
Q 2878 531 3122 666 
L 3122 134 
Q 2881 22 2623 -34 
Q 2366 -91 2075 -91 
Q 1284 -91 818 406 
Q 353 903 353 1747 
Q 353 2603 823 3093 
Q 1294 3584 2113 3584 
Q 2378 3584 2631 3529 
Q 2884 3475 3122 3366 
z
" transform="scale(0.015625)"/>
       <path id="DejaVuSans-20" transform="scale(0.015625)"/>
       <path id="DejaVuSans-4c" d="M 628 4666 
L 1259 4666 
L 1259 531 
L 3531 531 
L 3531 0 
L 628 0 
L 628 4666 
z
" transform="scale(0.015625)"/>
       <path id="DejaVuSans-67" d="M 2906 1791 
Q 2906 2416 2648 2759 
Q 2391 3103 1925 3103 
Q 1463 3103 1205 2759 
Q 947 2416 947 1791 
Q 947 1169 1205 825 
Q 1463 481 1925 481 
Q 2391 481 2648 825 
Q 2906 1169 2906 1791 
z
M 3481 434 
Q 3481 -459 3084 -895 
Q 2688 -1331 1869 -1331 
Q 1566 -1331 1297 -1286 
Q 1028 -1241 775 -1147 
L 775 -588 
Q 1028 -725 1275 -790 
Q 1522 -856 1778 -856 
Q 2344 -856 2625 -561 
Q 2906 -266 2906 331 
L 2906 616 
Q 2728 306 2450 153 
Q 2172 0 1784 0 
Q 1141 0 747 490 
Q 353 981 353 1791 
Q 353 2603 747 3093 
Q 1141 3584 1784 3584 
Q 2172 3584 2450 3431 
Q 2728 3278 2906 2969 
L 2906 3500 
L 3481 3500 
L 3481 434 
z
" transform="scale(0.015625)"/>
       <path id="DejaVuSans-74" d="M 1172 4494 
L 1172 3500 
L 2356 3500 
L 2356 3053 
L 1172 3053 
L 1172 1153 
Q 1172 725 1289 603 
Q 1406 481 1766 481 
L 2356 481 
L 2356 0 
L 1766 0 
Q 1100 0 847 248 
Q 594 497 594 1153 
L 594 3053 
L 172 3053 
L 172 3500 
L 594 3500 
L 594 4494 
L 1172 4494 
z
" transform="scale(0.015625)"/>
       <path id="DejaVuSans-68" d="M 3513 2113 
L 3513 0 
L 2938 0 
L 2938 2094 
Q 2938 2591 2744 2837 
Q 2550 3084 2163 3084 
Q 1697 3084 1428 2787 
Q 1159 2491 1159 1978 
L 1159 0 
L 581 0 
L 581 4863 
L 1159 4863 
L 1159 2956 
Q 1366 3272 1645 3428 
Q 1925 3584 2291 3584 
Q 2894 3584 3203 3211 
Q 3513 2838 3513 2113 
z
" transform="scale(0.015625)"/>
       <path id="DejaVuSans-28" d="M 1984 4856 
Q 1566 4138 1362 3434 
Q 1159 2731 1159 2009 
Q 1159 1288 1364 580 
Q 1569 -128 1984 -844 
L 1484 -844 
Q 1016 -109 783 600 
Q 550 1309 550 2009 
Q 550 2706 781 3412 
Q 1013 4119 1484 4856 
L 1984 4856 
z
" transform="scale(0.015625)"/>
       <path id="DejaVuSans-62" d="M 3116 1747 
Q 3116 2381 2855 2742 
Q 2594 3103 2138 3103 
Q 1681 3103 1420 2742 
Q 1159 2381 1159 1747 
Q 1159 1113 1420 752 
Q 1681 391 2138 391 
Q 2594 391 2855 752 
Q 3116 1113 3116 1747 
z
M 1159 2969 
Q 1341 3281 1617 3432 
Q 1894 3584 2278 3584 
Q 2916 3584 3314 3078 
Q 3713 2572 3713 1747 
Q 3713 922 3314 415 
Q 2916 -91 2278 -91 
Q 1894 -91 1617 61 
Q 1341 213 1159 525 
L 1159 0 
L 581 0 
L 581 4863 
L 1159 4863 
L 1159 2969 
z
" transform="scale(0.015625)"/>
       <path id="DejaVuSans-70" d="M 1159 525 
L 1159 -1331 
L 581 -1331 
L 581 3500 
L 1159 3500 
L 1159 2969 
Q 1341 3281 1617 3432 
Q 1894 3584 2278 3584 
Q 2916 3584 3314 3078 
Q 3713 2572 3713 1747 
Q 3713 922 3314 415 
Q 2916 -91 2278 -91 
Q 1894 -91 1617 61 
Q 1341 213 1159 525 
z
M 3116 1747 
Q 3116 2381 2855 2742 
Q 2594 3103 2138 3103 
Q 1681 3103 1420 2742 
Q 1159 2381 1159 1747 
Q 1159 1113 1420 752 
Q 1681 391 2138 391 
Q 2594 391 2855 752 
Q 3116 1113 3116 1747 
z
" transform="scale(0.015625)"/>
       <path id="DejaVuSans-29" d="M 513 4856 
L 1013 4856 
Q 1481 4119 1714 3412 
Q 1947 2706 1947 2009 
Q 1947 1309 1714 600 
Q 1481 -109 1013 -844 
L 513 -844 
Q 928 -128 1133 580 
Q 1338 1288 1338 2009 
Q 1338 2731 1133 3434 
Q 928 4138 513 4856 
z
" transform="scale(0.015625)"/>
      </defs>
      <use xlink:href="#DejaVuSans-53"/>
      <use xlink:href="#DejaVuSans-65" x="63.476562"/>
      <use xlink:href="#DejaVuSans-71" x="125"/>
      <use xlink:href="#DejaVuSans-75" x="188.476562"/>
      <use xlink:href="#DejaVuSans-65" x="251.855469"/>
      <use xlink:href="#DejaVuSans-6e" x="313.378906"/>
      <use xlink:href="#DejaVuSans-63" x="376.757812"/>
      <use xlink:href="#DejaVuSans-65" x="431.738281"/>
      <use xlink:href="#DejaVuSans-20" x="493.261719"/>
      <use xlink:href="#DejaVuSans-4c" x="525.048828"/>
      <use xlink:href="#DejaVuSans-65" x="579.011719"/>
      <use xlink:href="#DejaVuSans-6e" x="640.535156"/>
      <use xlink:href="#DejaVuSans-67" x="703.914062"/>
      <use xlink:href="#DejaVuSans-74" x="767.390625"/>
      <use xlink:href="#DejaVuSans-68" x="806.599609"/>
      <use xlink:href="#DejaVuSans-20" x="869.978516"/>
      <use xlink:href="#DejaVuSans-28" x="901.765625"/>
      <use xlink:href="#DejaVuSans-62" x="940.779297"/>
      <use xlink:href="#DejaVuSans-70" x="1004.255859"/>
      <use xlink:href="#DejaVuSans-29" x="1067.732422"/>
     </g>
    </g>
   </g>
   <g id="matplotlib.axis_2">
    <g id="ytick_1">
     <g id="line2d_1">
      <path d="M 40.600625 353.2239 
L 993.140625 353.2239 
" clip-path="url(#p643ab4f2f7)" style="fill: none; stroke: #dedede; stroke-linecap: square"/>
     </g>
     <g id="text_9">
      <!-- 0.0 -->
      <g transform="translate(20.878125 356.263275) scale(0.08 -0.08)">
       <defs>
        <path id="DejaVuSans-2e" d="M 684 794 
L 1344 794 
L 1344 0 
L 684 0 
L 684 794 
z
" transform="scale(0.015625)"/>
       </defs>
       <use xlink:href="#DejaVuSans-30"/>
       <use xlink:href="#DejaVuSans-2e" x="63.623047"/>
       <use xlink:href="#DejaVuSans-30" x="95.410156"/>
      </g>
     </g>
    </g>
    <g id="ytick_2">
     <g id="line2d_2">
      <path d="M 40.600625 301.859826 
L 993.140625 301.859826 
" clip-path="url(#p643ab4f2f7)" style="fill: none; stroke: #dedede; stroke-linecap: square"/>
     </g>
     <g id="text_10">
      <!-- 0.5 -->
      <g transform="translate(20.878125 304.899201) scale(0.08 -0.08)">
       <use xlink:href="#DejaVuSans-30"/>
       <use xlink:href="#DejaVuSans-2e" x="63.623047"/>
       <use xlink:href="#DejaVuSans-35" x="95.410156"/>
      </g>
     </g>
    </g>
    <g id="ytick_3">
     <g id="line2d_3">
      <path d="M 40.600625 250.495752 
L 993.140625 250.495752 
" clip-path="url(#p643ab4f2f7)" style="fill: none; stroke: #dedede; stroke-linecap: square"/>
     </g>
     <g id="text_11">
      <!-- 1.0 -->
      <g transform="translate(20.878125 253.535127) scale(0.08 -0.08)">
       <defs>
        <path id="DejaVuSans-31" d="M 794 531 
L 1825 531 
L 1825 4091 
L 703 3866 
L 703 4441 
L 1819 4666 
L 2450 4666 
L 2450 531 
L 3481 531 
L 3481 0 
L 794 0 
L 794 531 
z
" transform="scale(0.015625)"/>
       </defs>
       <use xlink:href="#DejaVuSans-31"/>
       <use xlink:href="#DejaVuSans-2e" x="63.623047"/>
       <use xlink:href="#DejaVuSans-30" x="95.410156"/>
      </g>
     </g>
    </g>
    <g id="ytick_4">
     <g id="line2d_4">
      <path d="M 40.600625 199.131678 
L 993.140625 199.131678 
" clip-path="url(#p643ab4f2f7)" style="fill: none; stroke: #dedede; stroke-linecap: square"/>
     </g>
     <g id="text_12">
      <!-- 1.5 -->
      <g transform="translate(20.878125 202.171053) scale(0.08 -0.08)">
       <use xlink:href="#DejaVuSans-31"/>
       <use xlink:href="#DejaVuSans-2e" x="63.623047"/>
       <use xlink:href="#DejaVuSans-35" x="95.410156"/>
      </g>
     </g>
    </g>
    <g id="ytick_5">
     <g id="line2d_5">
      <path d="M 40.600625 147.767604 
L 993.140625 147.767604 
" clip-path="url(#p643ab4f2f7)" style="fill: none; stroke: #dedede; stroke-linecap: square"/>
     </g>
     <g id="text_13">
      <!-- 2.0 -->
      <g transform="translate(20.878125 150.806979) scale(0.08 -0.08)">
       <use xlink:href="#DejaVuSans-32"/>
       <use xlink:href="#DejaVuSans-2e" x="63.623047"/>
       <use xlink:href="#DejaVuSans-30" x="95.410156"/>
      </g>
     </g>
    </g>
    <g id="ytick_6">
     <g id="line2d_6">
      <path d="M 40.600625 96.40353 
L 993.140625 96.40353 
" clip-path="url(#p643ab4f2f7)" style="fill: none; stroke: #dedede; stroke-linecap: square"/>
     </g>
     <g id="text_14">
      <!-- 2.5 -->
      <g transform="translate(20.878125 99.442905) scale(0.08 -0.08)">
       <use xlink:href="#DejaVuSans-32"/>
       <use xlink:href="#DejaVuSans-2e" x="63.623047"/>
       <use xlink:href="#DejaVuSans-35" x="95.410156"/>
      </g>
     </g>
    </g>
    <g id="ytick_7">
     <g id="line2d_7">
      <path d="M 40.600625 45.039456 
L 993.140625 45.039456 
" clip-path="url(#p643ab4f2f7)" style="fill: none; stroke: #dedede; stroke-linecap: square"/>
     </g>
     <g id="text_15">
      <!-- 3.0 -->
      <g transform="translate(20.878125 48.078831) scale(0.08 -0.08)">
       <use xlink:href="#DejaVuSans-33"/>
       <use xlink:href="#DejaVuSans-2e" x="63.623047"/>
       <use xlink:href="#DejaVuSans-30" x="95.410156"/>
      </g>
     </g>
    </g>
    <g id="text_16">
     <!-- Read Count -->
     <g transform="translate(14.798438 223.241463) rotate(-90) scale(0.1 -0.1)">
      <defs>
       <path id="DejaVuSans-52" d="M 2841 2188 
Q 3044 2119 3236 1894 
Q 3428 1669 3622 1275 
L 4263 0 
L 3584 0 
L 2988 1197 
Q 2756 1666 2539 1819 
Q 2322 1972 1947 1972 
L 1259 1972 
L 1259 0 
L 628 0 
L 628 4666 
L 2053 4666 
Q 2853 4666 3247 4331 
Q 3641 3997 3641 3322 
Q 3641 2881 3436 2590 
Q 3231 2300 2841 2188 
z
M 1259 4147 
L 1259 2491 
L 2053 2491 
Q 2509 2491 2742 2702 
Q 2975 2913 2975 3322 
Q 2975 3731 2742 3939 
Q 2509 4147 2053 4147 
L 1259 4147 
z
" transform="scale(0.015625)"/>
       <path id="DejaVuSans-61" d="M 2194 1759 
Q 1497 1759 1228 1600 
Q 959 1441 959 1056 
Q 959 750 1161 570 
Q 1363 391 1709 391 
Q 2188 391 2477 730 
Q 2766 1069 2766 1631 
L 2766 1759 
L 2194 1759 
z
M 3341 1997 
L 3341 0 
L 2766 0 
L 2766 531 
Q 2569 213 2275 61 
Q 1981 -91 1556 -91 
Q 1019 -91 701 211 
Q 384 513 384 1019 
Q 384 1609 779 1909 
Q 1175 2209 1959 2209 
L 2766 2209 
L 2766 2266 
Q 2766 2663 2505 2880 
Q 2244 3097 1772 3097 
Q 1472 3097 1187 3025 
Q 903 2953 641 2809 
L 641 3341 
Q 956 3463 1253 3523 
Q 1550 3584 1831 3584 
Q 2591 3584 2966 3190 
Q 3341 2797 3341 1997 
z
" transform="scale(0.015625)"/>
       <path id="DejaVuSans-64" d="M 2906 2969 
L 2906 4863 
L 3481 4863 
L 3481 0 
L 2906 0 
L 2906 525 
Q 2725 213 2448 61 
Q 2172 -91 1784 -91 
Q 1150 -91 751 415 
Q 353 922 353 1747 
Q 353 2572 751 3078 
Q 1150 3584 1784 3584 
Q 2172 3584 2448 3432 
Q 2725 3281 2906 2969 
z
M 947 1747 
Q 947 1113 1208 752 
Q 1469 391 1925 391 
Q 2381 391 2643 752 
Q 2906 1113 2906 1747 
Q 2906 2381 2643 2742 
Q 2381 3103 1925 3103 
Q 1469 3103 1208 2742 
Q 947 2381 947 1747 
z
" transform="scale(0.015625)"/>
       <path id="DejaVuSans-43" d="M 4122 4306 
L 4122 3641 
Q 3803 3938 3442 4084 
Q 3081 4231 2675 4231 
Q 1875 4231 1450 3742 
Q 1025 3253 1025 2328 
Q 1025 1406 1450 917 
Q 1875 428 2675 428 
Q 3081 428 3442 575 
Q 3803 722 4122 1019 
L 4122 359 
Q 3791 134 3420 21 
Q 3050 -91 2638 -91 
Q 1578 -91 968 557 
Q 359 1206 359 2328 
Q 359 3453 968 4101 
Q 1578 4750 2638 4750 
Q 3056 4750 3426 4639 
Q 3797 4528 4122 4306 
z
" transform="scale(0.015625)"/>
       <path id="DejaVuSans-6f" d="M 1959 3097 
Q 1497 3097 1228 2736 
Q 959 2375 959 1747 
Q 959 1119 1226 758 
Q 1494 397 1959 397 
Q 2419 397 2687 759 
Q 2956 1122 2956 1747 
Q 2956 2369 2687 2733 
Q 2419 3097 1959 3097 
z
M 1959 3584 
Q 2709 3584 3137 3096 
Q 3566 2609 3566 1747 
Q 3566 888 3137 398 
Q 2709 -91 1959 -91 
Q 1206 -91 779 398 
Q 353 888 353 1747 
Q 353 2609 779 3096 
Q 1206 3584 1959 3584 
z
" transform="scale(0.015625)"/>
      </defs>
      <use xlink:href="#DejaVuSans-52"/>
      <use xlink:href="#DejaVuSans-65" x="64.982422"/>
      <use xlink:href="#DejaVuSans-61" x="126.505859"/>
      <use xlink:href="#DejaVuSans-64" x="187.785156"/>
      <use xlink:href="#DejaVuSans-20" x="251.261719"/>
      <use xlink:href="#DejaVuSans-43" x="283.048828"/>
      <use xlink:href="#DejaVuSans-6f" x="352.873047"/>
      <use xlink:href="#DejaVuSans-75" x="414.054688"/>
      <use xlink:href="#DejaVuSans-6e" x="477.433594"/>
      <use xlink:href="#DejaVuSans-74" x="540.8125"/>
     </g>
    </g>
    <g id="text_17">
     <!-- 1e7 -->
     <g transform="translate(40.600625 32.2559) scale(0.1 -0.1)">
      <defs>
       <path id="DejaVuSans-37" d="M 525 4666 
L 3525 4666 
L 3525 4397 
L 1831 0 
L 1172 0 
L 2766 4134 
L 525 4134 
L 525 4666 
z
" transform="scale(0.015625)"/>
      </defs>
      <use xlink:href="#DejaVuSans-31"/>
      <use xlink:href="#DejaVuSans-65" x="63.623047"/>
      <use xlink:href="#DejaVuSans-37" x="125.146484"/>
     </g>
    </g>
   </g>
   <g id="line2d_8">
    <path d="M 83.897898 353.223448 
L 112.762746 353.223253 
L 141.627595 353.223314 
L 170.492443 353.223078 
L 199.357292 353.222729 
L 228.22214 353.222565 
L 257.086989 353.222359 
L 285.951837 353.221887 
L 314.816686 353.22201 
L 343.681534 353.221928 
L 372.546383 353.221383 
L 401.411231 353.221352 
L 430.27608 353.221034 
L 459.140928 353.220438 
L 488.005777 353.220561 
L 516.870625 353.22012 
L 545.735473 353.219462 
L 574.600322 353.219185 
L 603.46517 353.21787 
L 632.330019 353.215805 
L 661.194867 353.21298 
L 690.059716 353.210484 
L 718.924564 353.209775 
L 747.789413 353.202882 
L 776.654261 353.187729 
L 805.51911 353.046684 
L 834.383958 352.551544 
L 863.248807 349.96224 
L 892.113655 342.635289 
L 920.978504 320.792387 
L 949.843352 273.173782 
" clip-path="url(#p643ab4f2f7)" style="fill: none; stroke: #f0ad4e; stroke-linecap: square"/>
   </g>
   <g id="line2d_9">
    <path d="M 83.897898 353.222359 
L 112.762746 353.222071 
L 141.627595 353.221989 
L 170.492443 353.221845 
L 199.357292 353.221845 
L 228.22214 353.221537 
L 257.086989 353.221322 
L 285.951837 353.220839 
L 314.816686 353.221147 
L 343.681534 353.220644 
L 372.546383 353.220274 
L 401.411231 353.220048 
L 430.27608 353.21975 
L 459.140928 353.219072 
L 488.005777 353.218445 
L 516.870625 353.217983 
L 545.735473 353.217973 
L 574.600322 353.217192 
L 603.46517 353.215897 
L 632.330019 353.213463 
L 661.194867 353.210227 
L 690.059716 353.20882 
L 718.924564 353.206837 
L 747.789413 353.20018 
L 776.654261 353.182963 
L 805.51911 353.038147 
L 834.383958 352.531502 
L 863.248807 349.965065 
L 892.113655 342.605323 
L 920.978504 320.807601 
L 949.843352 273.257197 
" clip-path="url(#p643ab4f2f7)" style="fill: none; stroke: #f0ad4e; stroke-linecap: square"/>
   </g>
   <g id="line2d_10">
    <path d="M 83.897898 353.222904 
L 112.762746 353.222934 
L 141.627595 353.222626 
L 170.492443 353.222585 
L 199.357292 353.221969 
L 228.22214 353.221856 
L 257.086989 353.221599 
L 285.951837 353.22128 
L 314.816686 353.220859 
L 343.681534 353.220952 
L 372.546383 353.220726 
L 401.411231 353.219883 
L 430.27608 353.219411 
L 459.140928 353.219144 
L 488.005777 353.218188 
L 516.870625 353.217664 
L 545.735473 353.217418 
L 574.600322 353.215815 
L 603.46517 353.215343 
L 632.330019 353.212692 
L 661.194867 353.208244 
L 690.059716 353.206128 
L 718.924564 353.20393 
L 747.789413 353.19226 
L 776.654261 353.177662 
L 805.51911 353.02206 
L 834.383958 352.470338 
L 863.248807 349.555057 
L 892.113655 341.173097 
L 920.978504 317.521492 
L 949.843352 263.105231 
" clip-path="url(#p643ab4f2f7)" style="fill: none; stroke: #f0ad4e; stroke-linecap: square"/>
   </g>
   <g id="line2d_11">
    <path d="M 83.897898 353.221661 
L 112.762746 353.221414 
L 141.627595 353.221116 
L 170.492443 353.221065 
L 199.357292 353.220715 
L 228.22214 353.220561 
L 257.086989 353.220448 
L 285.951837 353.220099 
L 314.816686 353.219544 
L 343.681534 353.219401 
L 372.546383 353.218435 
L 401.411231 353.21825 
L 430.27608 353.217305 
L 459.140928 353.216062 
L 488.005777 353.215106 
L 516.870625 353.213196 
L 545.735473 353.214192 
L 574.600322 353.212302 
L 603.46517 353.211562 
L 632.330019 353.208398 
L 661.194867 353.204104 
L 690.059716 353.204299 
L 718.924564 353.201772 
L 747.789413 353.192291 
L 776.654261 353.175032 
L 805.51911 353.012393 
L 834.383958 352.465345 
L 863.248807 349.582084 
L 892.113655 341.153199 
L 920.978504 317.706547 
L 949.843352 262.983447 
" clip-path="url(#p643ab4f2f7)" style="fill: none; stroke: #f0ad4e; stroke-linecap: square"/>
   </g>
   <g id="line2d_12">
    <path d="M 83.897898 353.223284 
L 112.762746 353.223356 
L 141.627595 353.222904 
L 170.492443 353.222904 
L 199.357292 353.222636 
L 228.22214 353.22239 
L 257.086989 353.222195 
L 285.951837 353.221753 
L 314.816686 353.221763 
L 343.681534 353.221496 
L 372.546383 353.221013 
L 401.411231 353.220952 
L 430.27608 353.220828 
L 459.140928 353.220572 
L 488.005777 353.219863 
L 516.870625 353.219472 
L 545.735473 353.218568 
L 574.600322 353.218425 
L 603.46517 353.216997 
L 632.330019 353.214819 
L 661.194867 353.211264 
L 690.059716 353.208943 
L 718.924564 353.207525 
L 747.789413 353.195845 
L 776.654261 353.182007 
L 805.51911 353.04164 
L 834.383958 352.561827 
L 863.248807 350.012402 
L 892.113655 342.788158 
L 920.978504 321.760559 
L 949.843352 275.422829 
" clip-path="url(#p643ab4f2f7)" style="fill: none; stroke: #f0ad4e; stroke-linecap: square"/>
   </g>
   <g id="line2d_13">
    <path d="M 83.897898 353.222246 
L 112.762746 353.222071 
L 141.627595 353.222123 
L 170.492443 353.221661 
L 199.357292 353.221486 
L 228.22214 353.221106 
L 257.086989 353.221024 
L 285.951837 353.220602 
L 314.816686 353.220294 
L 343.681534 353.220469 
L 372.546383 353.219678 
L 401.411231 353.219719 
L 430.27608 353.218877 
L 459.140928 353.218887 
L 488.005777 353.218507 
L 516.870625 353.217305 
L 545.735473 353.217182 
L 574.600322 353.216575 
L 603.46517 353.214747 
L 632.330019 353.213144 
L 661.194867 353.208162 
L 690.059716 353.207618 
L 718.924564 353.20431 
L 747.789413 353.197992 
L 776.654261 353.182901 
L 805.51911 353.035599 
L 834.383958 352.540172 
L 863.248807 350.017867 
L 892.113655 342.774588 
L 920.978504 321.889319 
L 949.843352 275.362959 
" clip-path="url(#p643ab4f2f7)" style="fill: none; stroke: #f0ad4e; stroke-linecap: square"/>
   </g>
   <g id="line2d_14">
    <path d="M 83.897898 353.223366 
L 112.762746 353.223181 
L 141.627595 353.222986 
L 170.492443 353.222914 
L 199.357292 353.222349 
L 228.22214 353.222565 
L 257.086989 353.222256 
L 285.951837 353.221938 
L 314.816686 353.221866 
L 343.681534 353.221712 
L 372.546383 353.221383 
L 401.411231 353.221435 
L 430.27608 353.2209 
L 459.140928 353.220685 
L 488.005777 353.22015 
L 516.870625 353.219904 
L 545.735473 353.219719 
L 574.600322 353.218312 
L 603.46517 353.217654 
L 632.330019 353.215836 
L 661.194867 353.211932 
L 690.059716 353.209251 
L 718.924564 353.207885 
L 747.789413 353.198331 
L 776.654261 353.185983 
L 805.51911 353.070434 
L 834.383958 352.648006 
L 863.248807 350.463893 
L 892.113655 344.281107 
L 920.978504 325.661003 
L 949.843352 285.404687 
" clip-path="url(#p643ab4f2f7)" style="fill: none; stroke: #f0ad4e; stroke-linecap: square"/>
   </g>
   <g id="line2d_15">
    <path d="M 83.897898 353.22239 
L 112.762746 353.222359 
L 141.627595 353.221887 
L 170.492443 353.221897 
L 199.357292 353.221845 
L 228.22214 353.221702 
L 257.086989 353.221342 
L 285.951837 353.220798 
L 314.816686 353.220561 
L 343.681534 353.22051 
L 372.546383 353.219904 
L 401.411231 353.22012 
L 430.27608 353.219267 
L 459.140928 353.219103 
L 488.005777 353.218404 
L 516.870625 353.217788 
L 545.735473 353.217747 
L 574.600322 353.216914 
L 603.46517 353.216134 
L 632.330019 353.213802 
L 661.194867 353.211388 
L 690.059716 353.209775 
L 718.924564 353.20808 
L 747.789413 353.202173 
L 776.654261 353.188233 
L 805.51911 353.066181 
L 834.383958 352.634456 
L 863.248807 350.487931 
L 892.113655 344.258506 
L 920.978504 325.737679 
L 949.843352 285.364747 
" clip-path="url(#p643ab4f2f7)" style="fill: none; stroke: #f0ad4e; stroke-linecap: square"/>
   </g>
   <g id="line2d_16">
    <path d="M 83.897898 353.223109 
L 112.762746 353.222975 
L 141.627595 353.222791 
L 170.492443 353.222431 
L 199.357292 353.222195 
L 228.22214 353.221835 
L 257.086989 353.221568 
L 285.951837 353.220911 
L 314.816686 353.220767 
L 343.681534 353.220828 
L 372.546383 353.219503 
L 401.411231 353.218907 
L 430.27608 353.218887 
L 459.140928 353.217726 
L 488.005777 353.216175 
L 516.870625 353.215137 
L 545.735473 353.214788 
L 574.600322 353.213658 
L 603.46517 353.211285 
L 632.330019 353.209138 
L 661.194867 353.203776 
L 690.059716 353.200047 
L 718.924564 353.197427 
L 747.789413 353.185397 
L 776.654261 353.169886 
L 805.51911 353.027258 
L 834.383958 352.513473 
L 863.248807 349.775378 
L 892.113655 341.801198 
L 920.978504 319.290173 
L 949.843352 266.557462 
" clip-path="url(#p643ab4f2f7)" style="fill: none; stroke: #f0ad4e; stroke-linecap: square"/>
   </g>
   <g id="line2d_17">
    <path d="M 83.897898 353.221732 
L 112.762746 353.221712 
L 141.627595 353.221229 
L 170.492443 353.221013 
L 199.357292 353.22089 
L 228.22214 353.221332 
L 257.086989 353.220644 
L 285.951837 353.219853 
L 314.816686 353.219401 
L 343.681534 353.219657 
L 372.546383 353.218229 
L 401.411231 353.217531 
L 430.27608 353.21713 
L 459.140928 353.215733 
L 488.005777 353.213843 
L 516.870625 353.213227 
L 545.735473 353.212733 
L 574.600322 353.212014 
L 603.46517 353.208655 
L 632.330019 353.206303 
L 661.194867 353.200807 
L 690.059716 353.199297 
L 718.924564 353.195187 
L 747.789413 353.188294 
L 776.654261 353.169392 
L 805.51911 353.017612 
L 834.383958 352.498434 
L 863.248807 349.786452 
L 892.113655 341.772732 
L 920.978504 319.451384 
L 949.843352 266.473636 
" clip-path="url(#p643ab4f2f7)" style="fill: none; stroke: #f0ad4e; stroke-linecap: square"/>
   </g>
   <g id="line2d_18">
    <path d="M 83.897898 353.223263 
L 112.762746 353.222873 
L 141.627595 353.223006 
L 170.492443 353.222893 
L 199.357292 353.222297 
L 228.22214 353.221969 
L 257.086989 353.221794 
L 285.951837 353.221352 
L 314.816686 353.220972 
L 343.681534 353.220448 
L 372.546383 353.220459 
L 401.411231 353.219801 
L 430.27608 353.219185 
L 459.140928 353.218466 
L 488.005777 353.217767 
L 516.870625 353.216154 
L 545.735473 353.216452 
L 574.600322 353.21485 
L 603.46517 353.21262 
L 632.330019 353.21034 
L 661.194867 353.205912 
L 690.059716 353.202389 
L 718.924564 353.200273 
L 747.789413 353.188829 
L 776.654261 353.170358 
L 805.51911 353.003486 
L 834.383958 352.419333 
L 863.248807 349.318546 
L 892.113655 340.454545 
L 920.978504 315.494142 
L 949.843352 258.279176 
" clip-path="url(#p643ab4f2f7)" style="fill: none; stroke: #f0ad4e; stroke-linecap: square"/>
   </g>
   <g id="line2d_19">
    <path d="M 83.897898 353.222051 
L 112.762746 353.221537 
L 141.627595 353.221352 
L 170.492443 353.221291 
L 199.357292 353.220839 
L 228.22214 353.220849 
L 257.086989 353.2205 
L 285.951837 353.22014 
L 314.816686 353.219524 
L 343.681534 353.218907 
L 372.546383 353.21899 
L 401.411231 353.218106 
L 430.27608 353.217161 
L 459.140928 353.216267 
L 488.005777 353.215004 
L 516.870625 353.213802 
L 545.735473 353.213319 
L 574.600322 353.212168 
L 603.46517 353.210617 
L 632.330019 353.206775 
L 661.194867 353.202738 
L 690.059716 353.199214 
L 718.924564 353.198485 
L 747.789413 353.187997 
L 776.654261 353.167256 
L 805.51911 352.995022 
L 834.383958 352.406297 
L 863.248807 349.335619 
L 892.113655 340.438067 
L 920.978504 315.678755 
L 949.843352 258.165302 
" clip-path="url(#p643ab4f2f7)" style="fill: none; stroke: #f0ad4e; stroke-linecap: square"/>
   </g>
   <g id="line2d_20">
    <path d="M 83.897898 353.223037 
L 112.762746 353.222708 
L 141.627595 353.222647 
L 170.492443 353.22239 
L 199.357292 353.222318 
L 228.22214 353.222369 
L 257.086989 353.221476 
L 285.951837 353.2209 
L 314.816686 353.22088 
L 343.681534 353.220479 
L 372.546383 353.219555 
L 401.411231 353.219154 
L 430.27608 353.218517 
L 459.140928 353.217223 
L 488.005777 353.216658 
L 516.870625 353.215713 
L 545.735473 353.215024 
L 574.600322 353.212898 
L 603.46517 353.210309 
L 632.330019 353.20885 
L 661.194867 353.203077 
L 690.059716 353.198352 
L 718.924564 353.195413 
L 747.789413 353.180354 
L 776.654261 353.165684 
L 805.51911 353.02808 
L 834.383958 352.538251 
L 863.248807 349.909119 
L 892.113655 342.239816 
L 920.978504 320.707678 
L 949.843352 269.627133 
" clip-path="url(#p643ab4f2f7)" style="fill: none; stroke: #f0ad4e; stroke-linecap: square"/>
   </g>
   <g id="line2d_21">
    <path d="M 83.897898 353.221917 
L 112.762746 353.221681 
L 141.627595 353.221322 
L 170.492443 353.221085 
L 199.357292 353.221239 
L 228.22214 353.221034 
L 257.086989 353.220921 
L 285.951837 353.219534 
L 314.816686 353.219791 
L 343.681534 353.219103 
L 372.546383 353.218568 
L 401.411231 353.217849 
L 430.27608 353.216699 
L 459.140928 353.215641 
L 488.005777 353.214973 
L 516.870625 353.213802 
L 545.735473 353.212754 
L 574.600322 353.211614 
L 603.46517 353.209035 
L 632.330019 353.206395 
L 661.194867 353.202173 
L 690.059716 353.200201 
L 718.924564 353.197602 
L 747.789413 353.190267 
L 776.654261 353.17044 
L 805.51911 353.022974 
L 834.383958 352.529427 
L 863.248807 349.920728 
L 892.113655 342.196218 
L 920.978504 320.855123 
L 949.843352 269.535952 
" clip-path="url(#p643ab4f2f7)" style="fill: none; stroke: #f0ad4e; stroke-linecap: square"/>
   </g>
   <g id="line2d_22">
    <path d="M 83.897898 353.223109 
L 112.762746 353.22314 
L 141.627595 353.222924 
L 170.492443 353.222636 
L 199.357292 353.222482 
L 228.22214 353.222267 
L 257.086989 353.222071 
L 285.951837 353.221106 
L 314.816686 353.221291 
L 343.681534 353.221024 
L 372.546383 353.220366 
L 401.411231 353.220274 
L 430.27608 353.219678 
L 459.140928 353.218579 
L 488.005777 353.21786 
L 516.870625 353.217716 
L 545.735473 353.216308 
L 574.600322 353.214993 
L 603.46517 353.213329 
L 632.330019 353.211316 
L 661.194867 353.208039 
L 690.059716 353.202841 
L 718.924564 353.2028 
L 747.789413 353.189866 
L 776.654261 353.176666 
L 805.51911 353.038106 
L 834.383958 352.550753 
L 863.248807 349.988621 
L 892.113655 342.581849 
L 920.978504 321.354711 
L 949.843352 272.748816 
" clip-path="url(#p643ab4f2f7)" style="fill: none; stroke: #f0ad4e; stroke-linecap: square"/>
   </g>
   <g id="line2d_23">
    <path d="M 83.897898 353.221928 
L 112.762746 353.222277 
L 141.627595 353.221435 
L 170.492443 353.221681 
L 199.357292 353.221383 
L 228.22214 353.221126 
L 257.086989 353.220818 
L 285.951837 353.220284 
L 314.816686 353.220387 
L 343.681534 353.219904 
L 372.546383 353.218856 
L 401.411231 353.219 
L 430.27608 353.218209 
L 459.140928 353.216956 
L 488.005777 353.215846 
L 516.870625 353.215795 
L 545.735473 353.214716 
L 574.600322 353.213155 
L 603.46517 353.211532 
L 632.330019 353.208953 
L 661.194867 353.205132 
L 690.059716 353.202512 
L 718.924564 353.200468 
L 747.789413 353.192691 
L 776.654261 353.175053 
L 805.51911 353.033329 
L 834.383958 352.536145 
L 863.248807 349.99008 
L 892.113655 342.534492 
L 920.978504 321.441732 
L 949.843352 272.759664 
" clip-path="url(#p643ab4f2f7)" style="fill: none; stroke: #f0ad4e; stroke-linecap: square"/>
   </g>
   <g id="line2d_24">
    <path d="M 83.897898 353.223006 
L 112.762746 353.222513 
L 141.627595 353.222688 
L 170.492443 353.222708 
L 199.357292 353.222565 
L 228.22214 353.222421 
L 257.086989 353.222195 
L 285.951837 353.221681 
L 314.816686 353.221763 
L 343.681534 353.221948 
L 372.546383 353.221753 
L 401.411231 353.221239 
L 430.27608 353.221209 
L 459.140928 353.220705 
L 488.005777 353.220181 
L 516.870625 353.219904 
L 545.735473 353.219442 
L 574.600322 353.218784 
L 603.46517 353.21825 
L 632.330019 353.215661 
L 661.194867 353.210535 
L 690.059716 353.208707 
L 718.924564 353.205245 
L 747.789413 353.20018 
L 776.654261 353.187113 
L 805.51911 353.088843 
L 834.383958 352.734863 
L 863.248807 350.850027 
L 892.113655 345.334409 
L 920.978504 328.764605 
L 949.843352 290.549775 
" clip-path="url(#p643ab4f2f7)" style="fill: none; stroke: #f0ad4e; stroke-linecap: square"/>
   </g>
   <g id="line2d_25">
    <path d="M 83.897898 353.222082 
L 112.762746 353.221506 
L 141.627595 353.221825 
L 170.492443 353.221938 
L 199.357292 353.221589 
L 228.22214 353.22164 
L 257.086989 353.221548 
L 285.951837 353.220695 
L 314.816686 353.220705 
L 343.681534 353.220921 
L 372.546383 353.2205 
L 401.411231 353.219924 
L 430.27608 353.219544 
L 459.140928 353.219442 
L 488.005777 353.218692 
L 516.870625 353.218199 
L 545.735473 353.217942 
L 574.600322 353.217079 
L 603.46517 353.21676 
L 632.330019 353.213976 
L 661.194867 353.211665 
L 690.059716 353.210586 
L 718.924564 353.208049 
L 747.789413 353.202491 
L 776.654261 353.189507 
L 805.51911 353.082813 
L 834.383958 352.726809 
L 863.248807 350.853664 
L 892.113655 345.306498 
L 920.978504 328.751025 
L 949.843352 290.615306 
" clip-path="url(#p643ab4f2f7)" style="fill: none; stroke: #f0ad4e; stroke-linecap: square"/>
   </g>
   <g id="line2d_26">
    <path d="M 83.897898 353.223253 
L 112.762746 353.222975 
L 141.627595 353.223058 
L 170.492443 353.222996 
L 199.357292 353.222708 
L 228.22214 353.222513 
L 257.086989 353.222339 
L 285.951837 353.22201 
L 314.816686 353.222472 
L 343.681534 353.222071 
L 372.546383 353.22202 
L 401.411231 353.221671 
L 430.27608 353.221363 
L 459.140928 353.220952 
L 488.005777 353.220828 
L 516.870625 353.220818 
L 545.735473 353.220418 
L 574.600322 353.21974 
L 603.46517 353.21863 
L 632.330019 353.217027 
L 661.194867 353.213144 
L 690.059716 353.211162 
L 718.924564 353.209467 
L 747.789413 353.204371 
L 776.654261 353.194222 
L 805.51911 353.105187 
L 834.383958 352.789185 
L 863.248807 351.104896 
L 892.113655 346.282857 
L 920.978504 331.711814 
L 949.843352 298.902077 
" clip-path="url(#p643ab4f2f7)" style="fill: none; stroke: #f0ad4e; stroke-linecap: square"/>
   </g>
   <g id="line2d_27">
    <path d="M 83.897898 353.222452 
L 112.762746 353.222051 
L 141.627595 353.222174 
L 170.492443 353.222133 
L 199.357292 353.221845 
L 228.22214 353.221989 
L 257.086989 353.22164 
L 285.951837 353.220941 
L 314.816686 353.221209 
L 343.681534 353.221085 
L 372.546383 353.221024 
L 401.411231 353.220418 
L 430.27608 353.219431 
L 459.140928 353.219226 
L 488.005777 353.217911 
L 516.870625 353.217418 
L 545.735473 353.21827 
L 574.600322 353.2175 
L 603.46517 353.216123 
L 632.330019 353.214747 
L 661.194867 353.212497 
L 690.059716 353.211727 
L 718.924564 353.210083 
L 747.789413 353.205327 
L 776.654261 353.194684 
L 805.51911 353.10226 
L 834.383958 352.782929 
L 863.248807 351.107104 
L 892.113655 346.266739 
L 920.978504 331.759778 
L 949.843352 298.905529 
" clip-path="url(#p643ab4f2f7)" style="fill: none; stroke: #f0ad4e; stroke-linecap: square"/>
   </g>
   <g id="line2d_28">
    <path d="M 83.897898 353.223027 
L 112.762746 353.223027 
L 141.627595 353.222955 
L 170.492443 353.222667 
L 199.357292 353.222328 
L 228.22214 353.221887 
L 257.086989 353.222051 
L 285.951837 353.221393 
L 314.816686 353.221414 
L 343.681534 353.221404 
L 372.546383 353.220962 
L 401.411231 353.220479 
L 430.27608 353.220859 
L 459.140928 353.220294 
L 488.005777 353.21976 
L 516.870625 353.219205 
L 545.735473 353.219031 
L 574.600322 353.217993 
L 603.46517 353.216514 
L 632.330019 353.214901 
L 661.194867 353.210432 
L 690.059716 353.20735 
L 718.924564 353.206005 
L 747.789413 353.198444 
L 776.654261 353.182727 
L 805.51911 353.051954 
L 834.383958 352.581243 
L 863.248807 350.117319 
L 892.113655 342.978226 
L 920.978504 321.27182 
L 949.843352 273.079508 
" clip-path="url(#p643ab4f2f7)" style="fill: none; stroke: #f0ad4e; stroke-linecap: square"/>
   </g>
   <g id="line2d_29">
    <path d="M 83.897898 353.221784 
L 112.762746 353.221866 
L 141.627595 353.221486 
L 170.492443 353.221352 
L 199.357292 353.221137 
L 228.22214 353.221167 
L 257.086989 353.2209 
L 285.951837 353.220459 
L 314.816686 353.220048 
L 343.681534 353.220253 
L 372.546383 353.219154 
L 401.411231 353.219401 
L 430.27608 353.218774 
L 459.140928 353.218661 
L 488.005777 353.218014 
L 516.870625 353.217223 
L 545.735473 353.21676 
L 574.600322 353.216041 
L 603.46517 353.213843 
L 632.330019 353.211953 
L 661.194867 353.209343 
L 690.059716 353.206816 
L 718.924564 353.204977 
L 747.789413 353.197561 
L 776.654261 353.179367 
L 805.51911 353.042924 
L 834.383958 352.56458 
L 863.248807 350.083932 
L 892.113655 342.930159 
L 920.978504 321.289037 
L 949.843352 273.208206 
" clip-path="url(#p643ab4f2f7)" style="fill: none; stroke: #f0ad4e; stroke-linecap: square"/>
   </g>
   <g id="line2d_30">
    <path d="M 83.897898 353.223427 
L 112.762746 353.223119 
L 141.627595 353.223181 
L 170.492443 353.223212 
L 199.357292 353.22277 
L 228.22214 353.222606 
L 257.086989 353.222708 
L 285.951837 353.222349 
L 314.816686 353.222092 
L 343.681534 353.221938 
L 372.546383 353.222174 
L 401.411231 353.221619 
L 430.27608 353.221363 
L 459.140928 353.220859 
L 488.005777 353.220787 
L 516.870625 353.220079 
L 545.735473 353.219781 
L 574.600322 353.219339 
L 603.46517 353.218733 
L 632.330019 353.21712 
L 661.194867 353.212846 
L 690.059716 353.212055 
L 718.924564 353.21035 
L 747.789413 353.205245 
L 776.654261 353.193164 
L 805.51911 353.099722 
L 834.383958 352.75998 
L 863.248807 350.988648 
L 892.113655 345.869099 
L 920.978504 329.975092 
L 949.843352 295.172491 
" clip-path="url(#p643ab4f2f7)" style="fill: none; stroke: #f0ad4e; stroke-linecap: square"/>
   </g>
   <g id="line2d_31">
    <path d="M 83.897898 353.222729 
L 112.762746 353.222339 
L 141.627595 353.222369 
L 170.492443 353.22238 
L 199.357292 353.221897 
L 228.22214 353.221835 
L 257.086989 353.221907 
L 285.951837 353.221548 
L 314.816686 353.221301 
L 343.681534 353.220931 
L 372.546383 353.221414 
L 401.411231 353.220736 
L 430.27608 353.22013 
L 459.140928 353.219822 
L 488.005777 353.21977 
L 516.870625 353.218805 
L 545.735473 353.218661 
L 574.600322 353.217921 
L 603.46517 353.217048 
L 632.330019 353.214654 
L 661.194867 353.213442 
L 690.059716 353.211429 
L 718.924564 353.209754 
L 747.789413 353.204433 
L 776.654261 353.192332 
L 805.51911 353.096928 
L 834.383958 352.748392 
L 863.248807 350.974133 
L 892.113655 345.849375 
L 920.978504 330.025655 
L 949.843352 295.193879 
" clip-path="url(#p643ab4f2f7)" style="fill: none; stroke: #f0ad4e; stroke-linecap: square"/>
   </g>
   <g id="line2d_32">
    <path d="M 83.897898 353.222832 
L 112.762746 353.222462 
L 141.627595 353.222503 
L 170.492443 353.222308 
L 199.357292 353.222297 
L 228.22214 353.222575 
L 257.086989 353.221691 
L 285.951837 353.221167 
L 314.816686 353.221578 
L 343.681534 353.221085 
L 372.546383 353.220798 
L 401.411231 353.219688 
L 430.27608 353.219996 
L 459.140928 353.21899 
L 488.005777 353.21751 
L 516.870625 353.217274 
L 545.735473 353.215908 
L 574.600322 353.214963 
L 603.46517 353.213247 
L 632.330019 353.211254 
L 661.194867 353.203478 
L 690.059716 353.199738 
L 718.924564 353.193308 
L 747.789413 353.184935 
L 776.654261 353.175166 
L 805.51911 353.103893 
L 834.383958 352.843611 
L 863.248807 351.398883 
L 892.113655 346.882122 
L 920.978504 333.671549 
L 949.843352 300.972861 
" clip-path="url(#p643ab4f2f7)" style="fill: none; stroke: #f0ad4e; stroke-linecap: square"/>
   </g>
   <g id="line2d_33">
    <path d="M 83.897898 353.222154 
L 112.762746 353.22163 
L 141.627595 353.221794 
L 170.492443 353.221506 
L 199.357292 353.221548 
L 228.22214 353.221845 
L 257.086989 353.221003 
L 285.951837 353.220428 
L 314.816686 353.220787 
L 343.681534 353.219924 
L 372.546383 353.219719 
L 401.411231 353.218414 
L 430.27608 353.218589 
L 459.140928 353.217654 
L 488.005777 353.215949 
L 516.870625 353.215476 
L 545.735473 353.214346 
L 574.600322 353.213278 
L 603.46517 353.211521 
L 632.330019 353.209302 
L 661.194867 353.206426 
L 690.059716 353.204505 
L 718.924564 353.202954 
L 747.789413 353.195948 
L 776.654261 353.183867 
L 805.51911 353.10605 
L 834.383958 352.837077 
L 863.248807 351.39765 
L 892.113655 346.894028 
L 920.978504 333.778088 
L 949.843352 300.846207 
" clip-path="url(#p643ab4f2f7)" style="fill: none; stroke: #f0ad4e; stroke-linecap: square"/>
   </g>
   <g id="line2d_34">
    <path d="M 83.897898 353.223088 
L 112.762746 353.223017 
L 141.627595 353.22277 
L 170.492443 353.222883 
L 199.357292 353.222657 
L 228.22214 353.222421 
L 257.086989 353.222041 
L 285.951837 353.221506 
L 314.816686 353.221815 
L 343.681534 353.221393 
L 372.546383 353.220952 
L 401.411231 353.220561 
L 430.27608 353.220222 
L 459.140928 353.219318 
L 488.005777 353.21824 
L 516.870625 353.217716 
L 545.735473 353.216699 
L 574.600322 353.214809 
L 603.46517 353.213422 
L 632.330019 353.210987 
L 661.194867 353.206898 
L 690.059716 353.205542 
L 718.924564 353.202902 
L 747.789413 353.195794 
L 776.654261 353.185089 
L 805.51911 353.095377 
L 834.383958 352.775903 
L 863.248807 351.065273 
L 892.113655 345.955997 
L 920.978504 331.033921 
L 949.843352 295.21466 
" clip-path="url(#p643ab4f2f7)" style="fill: none; stroke: #f0ad4e; stroke-linecap: square"/>
   </g>
   <g id="line2d_35">
    <path d="M 83.897898 353.222102 
L 112.762746 353.222256 
L 141.627595 353.221815 
L 170.492443 353.221661 
L 199.357292 353.221856 
L 228.22214 353.221743 
L 257.086989 353.221322 
L 285.951837 353.220541 
L 314.816686 353.221034 
L 343.681534 353.220582 
L 372.546383 353.219832 
L 401.411231 353.219575 
L 430.27608 353.219041 
L 459.140928 353.218291 
L 488.005777 353.217017 
L 516.870625 353.216493 
L 545.735473 353.215353 
L 574.600322 353.213617 
L 603.46517 353.212271 
L 632.330019 353.209066 
L 661.194867 353.206323 
L 690.059716 353.205337 
L 718.924564 353.203087 
L 747.789413 353.196502 
L 776.654261 353.183497 
L 805.51911 353.09021 
L 834.383958 352.766503 
L 863.248807 351.075967 
L 892.113655 345.95048 
L 920.978504 331.047553 
L 949.843352 295.232946 
" clip-path="url(#p643ab4f2f7)" style="fill: none; stroke: #f0ad4e; stroke-linecap: square"/>
   </g>
   <g id="line2d_36">
    <path d="M 83.897898 353.222852 
L 112.762746 353.222575 
L 141.627595 353.222636 
L 170.492443 353.222482 
L 199.357292 353.222421 
L 228.22214 353.221958 
L 257.086989 353.221835 
L 285.951837 353.221558 
L 314.816686 353.221352 
L 343.681534 353.2209 
L 372.546383 353.220161 
L 401.411231 353.219606 
L 430.27608 353.218466 
L 459.140928 353.21824 
L 488.005777 353.217716 
L 516.870625 353.215148 
L 545.735473 353.21449 
L 574.600322 353.212795 
L 603.46517 353.211213 
L 632.330019 353.208111 
L 661.194867 353.20168 
L 690.059716 353.198033 
L 718.924564 353.19416 
L 747.789413 353.187452 
L 776.654261 353.17192 
L 805.51911 353.069438 
L 834.383958 352.693114 
L 863.248807 350.661305 
L 892.113655 344.402048 
L 920.978504 326.209767 
L 949.843352 281.181246 
" clip-path="url(#p643ab4f2f7)" style="fill: none; stroke: #f0ad4e; stroke-linecap: square"/>
   </g>
   <g id="line2d_37">
    <path d="M 83.897898 353.221907 
L 112.762746 353.221866 
L 141.627595 353.221815 
L 170.492443 353.22165 
L 199.357292 353.221537 
L 228.22214 353.221229 
L 257.086989 353.221116 
L 285.951837 353.220418 
L 314.816686 353.220356 
L 343.681534 353.219811 
L 372.546383 353.219205 
L 401.411231 353.218353 
L 430.27608 353.217161 
L 459.140928 353.217048 
L 488.005777 353.216308 
L 516.870625 353.213853 
L 545.735473 353.213093 
L 574.600322 353.210936 
L 603.46517 353.209302 
L 632.330019 353.206457 
L 661.194867 353.202646 
L 690.059716 353.199872 
L 718.924564 353.19754 
L 747.789413 353.190174 
L 776.654261 353.175084 
L 805.51911 353.064918 
L 834.383958 352.680807 
L 863.248807 350.658562 
L 892.113655 344.368847 
L 920.978504 326.263463 
L 949.843352 281.191344 
" clip-path="url(#p643ab4f2f7)" style="fill: none; stroke: #f0ad4e; stroke-linecap: square"/>
   </g>
   <g id="line2d_38">
    <path d="M 83.897898 353.223314 
L 112.762746 353.22315 
L 141.627595 353.223212 
L 170.492443 353.223006 
L 199.357292 353.22278 
L 228.22214 353.222955 
L 257.086989 353.222842 
L 285.951837 353.222215 
L 314.816686 353.222575 
L 343.681534 353.222113 
L 372.546383 353.222041 
L 401.411231 353.221465 
L 430.27608 353.221239 
L 459.140928 353.220972 
L 488.005777 353.220007 
L 516.870625 353.21974 
L 545.735473 353.218373 
L 574.600322 353.217829 
L 603.46517 353.216925 
L 632.330019 353.215353 
L 661.194867 353.212456 
L 690.059716 353.208809 
L 718.924564 353.208984 
L 747.789413 353.20318 
L 776.654261 353.195711 
L 805.51911 353.12824 
L 834.383958 352.886818 
L 863.248807 351.605007 
L 892.113655 347.813609 
L 920.978504 336.435439 
L 949.843352 310.3263 
" clip-path="url(#p643ab4f2f7)" style="fill: none; stroke: #f0ad4e; stroke-linecap: square"/>
   </g>
   <g id="line2d_39">
    <path d="M 83.897898 353.222904 
L 112.762746 353.22278 
L 141.627595 353.222462 
L 170.492443 353.222339 
L 199.357292 353.222462 
L 228.22214 353.2224 
L 257.086989 353.222226 
L 285.951837 353.221702 
L 314.816686 353.221989 
L 343.681534 353.221681 
L 372.546383 353.221435 
L 401.411231 353.220859 
L 430.27608 353.220294 
L 459.140928 353.219924 
L 488.005777 353.219226 
L 516.870625 353.218332 
L 545.735473 353.217408 
L 574.600322 353.216699 
L 603.46517 353.216113 
L 632.330019 353.214398 
L 661.194867 353.212199 
L 690.059716 353.210247 
L 718.924564 353.208244 
L 747.789413 353.204608 
L 776.654261 353.195074 
L 805.51911 353.125445 
L 834.383958 352.878066 
L 863.248807 351.600333 
L 892.113655 347.821817 
L 920.978504 336.464101 
L 949.843352 310.318893 
" clip-path="url(#p643ab4f2f7)" style="fill: none; stroke: #f0ad4e; stroke-linecap: square"/>
   </g>
   <g id="line2d_40">
    <path d="M 83.897898 353.217079 
L 112.762746 353.216473 
L 141.627595 353.215754 
L 170.492443 353.21448 
L 199.357292 353.214038 
L 228.22214 353.212703 
L 257.086989 353.210063 
L 285.951837 353.207494 
L 314.816686 353.207094 
L 343.681534 353.204464 
L 372.546383 353.201947 
L 401.411231 353.199194 
L 430.27608 353.196112 
L 459.140928 353.194109 
L 488.005777 353.192445 
L 516.870625 353.188983 
L 545.735473 353.18438 
L 574.600322 353.175803 
L 603.46517 353.165859 
L 632.330019 353.150008 
L 661.194867 353.134403 
L 690.059716 353.122343 
L 718.924564 353.109358 
L 747.789413 353.063624 
L 776.654261 352.989546 
L 805.51911 352.464287 
L 834.383958 350.71006 
L 863.248807 341.568292 
L 892.113655 315.305924 
L 920.978504 235.995376 
L 949.843352 52.62296 
" clip-path="url(#p643ab4f2f7)" style="fill: none; stroke: #f0ad4e; stroke-linecap: square"/>
   </g>
   <g id="line2d_41">
    <path d="M 83.897898 353.216257 
L 112.762746 353.215507 
L 141.627595 353.214654 
L 170.492443 353.213278 
L 199.357292 353.213196 
L 228.22214 353.211799 
L 257.086989 353.209138 
L 285.951837 353.206354 
L 314.816686 353.206066 
L 343.681534 353.203015 
L 372.546383 353.200653 
L 401.411231 353.198043 
L 430.27608 353.195342 
L 459.140928 353.192701 
L 488.005777 353.190554 
L 516.870625 353.187247 
L 545.735473 353.182377 
L 574.600322 353.173799 
L 603.46517 353.16365 
L 632.330019 353.147203 
L 661.194867 353.132934 
L 690.059716 353.120319 
L 718.924564 353.106451 
L 747.789413 353.061939 
L 776.654261 352.985848 
L 805.51911 352.453439 
L 834.383958 350.694466 
L 863.248807 341.525557 
L 892.113655 315.257004 
L 920.978504 235.923908 
L 949.843352 52.851952 
" clip-path="url(#p643ab4f2f7)" style="fill: none; stroke: #f0ad4e; stroke-linecap: square"/>
   </g>
   <g id="line2d_42">
    <path d="M 83.897898 353.220479 
L 112.762746 353.220099 
L 141.627595 353.219668 
L 170.492443 353.219503 
L 199.357292 353.218435 
L 228.22214 353.217829 
L 257.086989 353.216894 
L 285.951837 353.214151 
L 314.816686 353.214562 
L 343.681534 353.212898 
L 372.546383 353.212302 
L 401.411231 353.20997 
L 430.27608 353.207196 
L 459.140928 353.204382 
L 488.005777 353.201177 
L 516.870625 353.199071 
L 545.735473 353.19379 
L 574.600322 353.189609 
L 603.46517 353.18474 
L 632.330019 353.175762 
L 661.194867 353.165509 
L 690.059716 353.15913 
L 718.924564 353.151148 
L 747.789413 353.129318 
L 776.654261 353.073085 
L 805.51911 352.634035 
L 834.383958 350.981714 
L 863.248807 342.41809 
L 892.113655 317.080182 
L 920.978504 237.876565 
L 949.843352 50.795201 
" clip-path="url(#p643ab4f2f7)" style="fill: none; stroke: #f0ad4e; stroke-linecap: square"/>
   </g>
   <g id="line2d_43">
    <path d="M 83.897898 353.216822 
L 112.762746 353.216432 
L 141.627595 353.215846 
L 170.492443 353.215148 
L 199.357292 353.21488 
L 228.22214 353.214521 
L 257.086989 353.213668 
L 285.951837 353.210884 
L 314.816686 353.211028 
L 343.681534 353.209179 
L 372.546383 353.2077 
L 401.411231 353.204916 
L 430.27608 353.20169 
L 459.140928 353.198619 
L 488.005777 353.195434 
L 516.870625 353.191736 
L 545.735473 353.187668 
L 574.600322 353.181894 
L 603.46517 353.176912 
L 632.330019 353.165417 
L 661.194867 353.155175 
L 690.059716 353.14556 
L 718.924564 353.140413 
L 747.789413 353.114227 
L 776.654261 353.05219 
L 805.51911 352.597762 
L 834.383958 350.920519 
L 863.248807 342.413355 
L 892.113655 317.148589 
L 920.978504 238.481089 
L 949.843352 50.397222 
" clip-path="url(#p643ab4f2f7)" style="fill: none; stroke: #f0ad4e; stroke-linecap: square"/>
   </g>
   <g id="line2d_44">
    <path d="M 83.897898 353.223407 
L 112.762746 353.223314 
L 141.627595 353.223181 
L 170.492443 353.222729 
L 199.357292 353.222821 
L 228.22214 353.221897 
L 257.086989 353.221044 
L 285.951837 353.220459 
L 314.816686 353.219483 
L 343.681534 353.218414 
L 372.546383 353.218034 
L 401.411231 353.216575 
L 430.27608 353.21449 
L 459.140928 353.211285 
L 488.005777 353.206025 
L 516.870625 353.198352 
L 545.735473 353.185418 
L 574.600322 353.178443 
L 603.46517 353.174128 
L 632.330019 353.17004 
L 661.194867 353.166835 
L 690.059716 353.165931 
L 718.924564 353.15989 
L 747.789413 353.147902 
L 776.654261 353.115337 
L 805.51911 352.940956 
L 834.383958 352.341414 
L 863.248807 349.186869 
L 892.113655 341.344838 
L 920.978504 314.197774 
L 949.843352 260.812041 
" clip-path="url(#p643ab4f2f7)" style="fill: none; stroke: #f0ad4e; stroke-linecap: square"/>
   </g>
   <g id="line2d_45">
    <path d="M 83.897898 353.222267 
L 112.762746 353.222123 
L 141.627595 353.222041 
L 170.492443 353.221691 
L 199.357292 353.221558 
L 228.22214 353.220736 
L 257.086989 353.220079 
L 285.951837 353.219308 
L 314.816686 353.218373 
L 343.681534 353.21711 
L 372.546383 353.216627 
L 401.411231 353.215065 
L 430.27608 353.212785 
L 459.140928 353.209498 
L 488.005777 353.204032 
L 516.870625 353.196677 
L 545.735473 353.183651 
L 574.600322 353.17606 
L 603.46517 353.171509 
L 632.330019 353.167143 
L 661.194867 353.16477 
L 690.059716 353.162715 
L 718.924564 353.156387 
L 747.789413 353.143156 
L 776.654261 353.10982 
L 805.51911 352.926512 
L 834.383958 352.319779 
L 863.248807 349.154848 
L 892.113655 341.302833 
L 920.978504 314.075641 
L 949.843352 261.094533 
" clip-path="url(#p643ab4f2f7)" style="fill: none; stroke: #f0ad4e; stroke-linecap: square"/>
   </g>
   <g id="line2d_46">
    <path d="M 83.897898 353.223469 
L 112.762746 353.223201 
L 141.627595 353.223356 
L 170.492443 353.222934 
L 199.357292 353.222523 
L 228.22214 353.222 
L 257.086989 353.221075 
L 285.951837 353.22051 
L 314.816686 353.219318 
L 343.681534 353.21861 
L 372.546383 353.218281 
L 401.411231 353.216206 
L 430.27608 353.213853 
L 459.140928 353.21072 
L 488.005777 353.205584 
L 516.870625 353.196061 
L 545.735473 353.187082 
L 574.600322 353.17757 
L 603.46517 353.172782 
L 632.330019 353.170153 
L 661.194867 353.166434 
L 690.059716 353.166701 
L 718.924564 353.157425 
L 747.789413 353.147203 
L 776.654261 353.114197 
L 805.51911 352.936888 
L 834.383958 352.331911 
L 863.248807 349.160334 
L 892.113655 341.444125 
L 920.978504 314.245163 
L 949.843352 262.367808 
" clip-path="url(#p643ab4f2f7)" style="fill: none; stroke: #f0ad4e; stroke-linecap: square"/>
   </g>
   <g id="line2d_47">
    <path d="M 83.897898 353.22238 
L 112.762746 353.221958 
L 141.627595 353.221907 
L 170.492443 353.221691 
L 199.357292 353.221373 
L 228.22214 353.220859 
L 257.086989 353.220171 
L 285.951837 353.219349 
L 314.816686 353.218168 
L 343.681534 353.217716 
L 372.546383 353.216699 
L 401.411231 353.214665 
L 430.27608 353.212323 
L 459.140928 353.209385 
L 488.005777 353.203755 
L 516.870625 353.193924 
L 545.735473 353.18512 
L 574.600322 353.175895 
L 603.46517 353.170625 
L 632.330019 353.168827 
L 661.194867 353.163465 
L 690.059716 353.16253 
L 718.924564 353.154743 
L 747.789413 353.142128 
L 776.654261 353.10869 
L 805.51911 352.925321 
L 834.383958 352.314992 
L 863.248807 349.123465 
L 892.113655 341.393747 
L 920.978504 314.138808 
L 949.843352 262.638794 
" clip-path="url(#p643ab4f2f7)" style="fill: none; stroke: #f0ad4e; stroke-linecap: square"/>
   </g>
   <g id="line2d_48">
    <path d="M 83.897898 353.22353 
L 112.762746 353.22316 
L 141.627595 353.223243 
L 170.492443 353.222975 
L 199.357292 353.222585 
L 228.22214 353.222277 
L 257.086989 353.221332 
L 285.951837 353.220602 
L 314.816686 353.220007 
L 343.681534 353.218599 
L 372.546383 353.218476 
L 401.411231 353.216843 
L 430.27608 353.214531 
L 459.140928 353.211038 
L 488.005777 353.206981 
L 516.870625 353.198352 
L 545.735473 353.186219 
L 574.600322 353.178617 
L 603.46517 353.174272 
L 632.330019 353.171149 
L 661.194867 353.168221 
L 690.059716 353.169208 
L 718.924564 353.163794 
L 747.789413 353.150264 
L 776.654261 353.120535 
L 805.51911 352.960197 
L 834.383958 352.413591 
L 863.248807 349.589871 
L 892.113655 342.656625 
L 920.978504 318.280304 
L 949.843352 271.313888 
" clip-path="url(#p643ab4f2f7)" style="fill: none; stroke: #f0ad4e; stroke-linecap: square"/>
   </g>
   <g id="line2d_49">
    <path d="M 83.897898 353.222606 
L 112.762746 353.222041 
L 141.627595 353.221876 
L 170.492443 353.221815 
L 199.357292 353.221517 
L 228.22214 353.221363 
L 257.086989 353.219976 
L 285.951837 353.219411 
L 314.816686 353.218887 
L 343.681534 353.217572 
L 372.546383 353.217192 
L 401.411231 353.215106 
L 430.27608 353.212816 
L 459.140928 353.209374 
L 488.005777 353.204433 
L 516.870625 353.195455 
L 545.735473 353.184278 
L 574.600322 353.176203 
L 603.46517 353.171673 
L 632.330019 353.168776 
L 661.194867 353.166064 
L 690.059716 353.166434 
L 718.924564 353.160445 
L 747.789413 353.146515 
L 776.654261 353.116374 
L 805.51911 352.952009 
L 834.383958 352.407376 
L 863.248807 349.583399 
L 892.113655 342.634662 
L 920.978504 318.239726 
L 949.843352 271.445915 
" clip-path="url(#p643ab4f2f7)" style="fill: none; stroke: #f0ad4e; stroke-linecap: square"/>
   </g>
   <g id="line2d_50">
    <path d="M 83.897898 353.223633 
L 112.762746 353.223633 
L 141.627595 353.223407 
L 170.492443 353.223099 
L 199.357292 353.222955 
L 228.22214 353.222719 
L 257.086989 353.222082 
L 285.951837 353.221681 
L 314.816686 353.221619 
L 343.681534 353.221393 
L 372.546383 353.220972 
L 401.411231 353.220212 
L 430.27608 353.219205 
L 459.140928 353.217829 
L 488.005777 353.215569 
L 516.870625 353.212456 
L 545.735473 353.20772 
L 574.600322 353.206107 
L 603.46517 353.205039 
L 632.330019 353.202902 
L 661.194867 353.201043 
L 690.059716 353.198988 
L 718.924564 353.194746 
L 747.789413 353.186846 
L 776.654261 353.168714 
L 805.51911 353.061929 
L 834.383958 352.671808 
L 863.248807 350.611585 
L 892.113655 344.210481 
L 920.978504 323.12031 
L 949.843352 273.914195 
" clip-path="url(#p643ab4f2f7)" style="fill: none; stroke: #f0ad4e; stroke-linecap: square"/>
   </g>
   <g id="line2d_51">
    <path d="M 83.897898 353.222883 
L 112.762746 353.222873 
L 141.627595 353.222688 
L 170.492443 353.222523 
L 199.357292 353.222369 
L 228.22214 353.222051 
L 257.086989 353.221548 
L 285.951837 353.221096 
L 314.816686 353.221096 
L 343.681534 353.220531 
L 372.546383 353.220058 
L 401.411231 353.219133 
L 430.27608 353.218312 
L 459.140928 353.216853 
L 488.005777 353.214901 
L 516.870625 353.211234 
L 545.735473 353.206734 
L 574.600322 353.204844 
L 603.46517 353.203354 
L 632.330019 353.201392 
L 661.194867 353.199502 
L 690.059716 353.197489 
L 718.924564 353.193195 
L 747.789413 353.184113 
L 776.654261 353.163054 
L 805.51911 353.055929 
L 834.383958 352.663261 
L 863.248807 350.591943 
L 892.113655 344.197773 
L 920.978504 323.259989 
L 949.843352 273.852157 
" clip-path="url(#p643ab4f2f7)" style="fill: none; stroke: #f0ad4e; stroke-linecap: square"/>
   </g>
   <g id="line2d_52">
    <path d="M 83.897898 353.223602 
L 112.762746 353.223551 
L 141.627595 353.223458 
L 170.492443 353.223294 
L 199.357292 353.222883 
L 228.22214 353.222534 
L 257.086989 353.221958 
L 285.951837 353.22163 
L 314.816686 353.221311 
L 343.681534 353.221044 
L 372.546383 353.220695 
L 401.411231 353.219308 
L 430.27608 353.21862 
L 459.140928 353.21673 
L 488.005777 353.214644 
L 516.870625 353.210874 
L 545.735473 353.205625 
L 574.600322 353.202666 
L 603.46517 353.200909 
L 632.330019 353.199348 
L 661.194867 353.197026 
L 690.059716 353.197242 
L 718.924564 353.190976 
L 747.789413 353.181494 
L 776.654261 353.160866 
L 805.51911 353.040756 
L 834.383958 352.593447 
L 863.248807 350.235548 
L 892.113655 343.366117 
L 920.978504 319.493575 
L 949.843352 267.504647 
" clip-path="url(#p643ab4f2f7)" style="fill: none; stroke: #f0ad4e; stroke-linecap: square"/>
   </g>
   <g id="line2d_53">
    <path d="M 83.897898 353.22277 
L 112.762746 353.222893 
L 141.627595 353.222349 
L 170.492443 353.222369 
L 199.357292 353.222195 
L 228.22214 353.221928 
L 257.086989 353.221291 
L 285.951837 353.220715 
L 314.816686 353.2205 
L 343.681534 353.219935 
L 372.546383 353.219883 
L 401.411231 353.218394 
L 430.27608 353.217336 
L 459.140928 353.2156 
L 488.005777 353.213411 
L 516.870625 353.209179 
L 545.735473 353.204649 
L 574.600322 353.201177 
L 603.46517 353.199379 
L 632.330019 353.196954 
L 661.194867 353.195526 
L 690.059716 353.195455 
L 718.924564 353.187678 
L 747.789413 353.179121 
L 776.654261 353.15538 
L 805.51911 353.029436 
L 834.383958 352.574648 
L 863.248807 350.213061 
L 892.113655 343.370298 
L 920.978504 319.596817 
L 949.843352 267.486053 
" clip-path="url(#p643ab4f2f7)" style="fill: none; stroke: #f0ad4e; stroke-linecap: square"/>
   </g>
   <g id="line2d_54">
    <path d="M 83.897898 353.223571 
L 112.762746 353.223325 
L 141.627595 353.223335 
L 170.492443 353.222883 
L 199.357292 353.222729 
L 228.22214 353.222359 
L 257.086989 353.221589 
L 285.951837 353.220489 
L 314.816686 353.220561 
L 343.681534 353.220017 
L 372.546383 353.21976 
L 401.411231 353.218116 
L 430.27608 353.216914 
L 459.140928 353.214624 
L 488.005777 353.212292 
L 516.870625 353.206559 
L 545.735473 353.200026 
L 574.600322 353.197468 
L 603.46517 353.195537 
L 632.330019 353.192404 
L 661.194867 353.191274 
L 690.059716 353.188592 
L 718.924564 353.182049 
L 747.789413 353.170677 
L 776.654261 353.147224 
L 805.51911 353.003938 
L 834.383958 352.481997 
L 863.248807 349.746449 
L 892.113655 341.70902 
L 920.978504 314.045891 
L 949.843352 253.346797 
" clip-path="url(#p643ab4f2f7)" style="fill: none; stroke: #f0ad4e; stroke-linecap: square"/>
   </g>
   <g id="line2d_55">
    <path d="M 83.897898 353.222493 
L 112.762746 353.222349 
L 141.627595 353.222236 
L 170.492443 353.221804 
L 199.357292 353.221917 
L 228.22214 353.221342 
L 257.086989 353.220551 
L 285.951837 353.219493 
L 314.816686 353.219288 
L 343.681534 353.219164 
L 372.546383 353.21861 
L 401.411231 353.216781 
L 430.27608 353.215117 
L 459.140928 353.212466 
L 488.005777 353.209754 
L 516.870625 353.202604 
L 545.735473 353.198064 
L 574.600322 353.195003 
L 603.46517 353.192866 
L 632.330019 353.19 
L 661.194867 353.189424 
L 690.059716 353.187041 
L 718.924564 353.178669 
L 747.789413 353.166876 
L 776.654261 353.142539 
L 805.51911 352.996963 
L 834.383958 352.469762 
L 863.248807 349.73742 
L 892.113655 341.736941 
L 920.978504 314.29137 
L 949.843352 253.149559 
" clip-path="url(#p643ab4f2f7)" style="fill: none; stroke: #f0ad4e; stroke-linecap: square"/>
   </g>
   <g id="line2d_56">
    <path d="M 83.897898 353.223356 
L 112.762746 353.223304 
L 141.627595 353.223191 
L 170.492443 353.222842 
L 199.357292 353.222318 
L 228.22214 353.221887 
L 257.086989 353.220911 
L 285.951837 353.219565 
L 314.816686 353.219329 
L 343.681534 353.218476 
L 372.546383 353.217325 
L 401.411231 353.215076 
L 430.27608 353.212949 
L 459.140928 353.209991 
L 488.005777 353.202933 
L 516.870625 353.195773 
L 545.735473 353.182747 
L 574.600322 353.173666 
L 603.46517 353.16779 
L 632.330019 353.165961 
L 661.194867 353.162407 
L 690.059716 353.160979 
L 718.924564 353.153233 
L 747.789413 353.141892 
L 776.654261 353.105331 
L 805.51911 352.91213 
L 834.383958 352.276428 
L 863.248807 348.942992 
L 892.113655 340.824921 
L 920.978504 312.094909 
L 949.843352 258.229805 
" clip-path="url(#p643ab4f2f7)" style="fill: none; stroke: #f0ad4e; stroke-linecap: square"/>
   </g>
   <g id="line2d_57">
    <path d="M 83.897898 353.222205 
L 112.762746 353.221938 
L 141.627595 353.221845 
L 170.492443 353.221342 
L 199.357292 353.221198 
L 228.22214 353.221013 
L 257.086989 353.219627 
L 285.951837 353.218219 
L 314.816686 353.218188 
L 343.681534 353.216945 
L 372.546383 353.215723 
L 401.411231 353.213504 
L 430.27608 353.211347 
L 459.140928 353.208111 
L 488.005777 353.200755 
L 516.870625 353.193636 
L 545.735473 353.180395 
L 574.600322 353.17118 
L 603.46517 353.165437 
L 632.330019 353.163999 
L 661.194867 353.160116 
L 690.059716 353.158781 
L 718.924564 353.149679 
L 747.789413 353.137218 
L 776.654261 353.099126 
L 805.51911 352.900409 
L 834.383958 352.258862 
L 863.248807 348.921625 
L 892.113655 340.810744 
L 920.978504 312.044623 
L 949.843352 258.396625 
" clip-path="url(#p643ab4f2f7)" style="fill: none; stroke: #f0ad4e; stroke-linecap: square"/>
   </g>
   <g id="line2d_58">
    <path d="M 83.897898 353.22353 
L 112.762746 353.223417 
L 141.627595 353.223191 
L 170.492443 353.222862 
L 199.357292 353.222647 
L 228.22214 353.222441 
L 257.086989 353.22165 
L 285.951837 353.220695 
L 314.816686 353.219585 
L 343.681534 353.219534 
L 372.546383 353.219072 
L 401.411231 353.217171 
L 430.27608 353.215846 
L 459.140928 353.21259 
L 488.005777 353.207741 
L 516.870625 353.201022 
L 545.735473 353.190144 
L 574.600322 353.182418 
L 603.46517 353.178504 
L 632.330019 353.176625 
L 661.194867 353.17533 
L 690.059716 353.173769 
L 718.924564 353.167523 
L 747.789413 353.153357 
L 776.654261 353.124439 
L 805.51911 352.952359 
L 834.383958 352.367086 
L 863.248807 349.323959 
L 892.113655 342.252955 
L 920.978504 316.213732 
L 949.843352 270.364311 
" clip-path="url(#p643ab4f2f7)" style="fill: none; stroke: #f0ad4e; stroke-linecap: square"/>
   </g>
   <g id="line2d_59">
    <path d="M 83.897898 353.222349 
L 112.762746 353.222534 
L 141.627595 353.222113 
L 170.492443 353.221917 
L 199.357292 353.221856 
L 228.22214 353.221435 
L 257.086989 353.220664 
L 285.951837 353.219647 
L 314.816686 353.218507 
L 343.681534 353.218342 
L 372.546383 353.218003 
L 401.411231 353.215867 
L 430.27608 353.214357 
L 459.140928 353.210658 
L 488.005777 353.205717 
L 516.870625 353.19942 
L 545.735473 353.188746 
L 574.600322 353.179912 
L 603.46517 353.176573 
L 632.330019 353.175464 
L 661.194867 353.172207 
L 690.059716 353.171817 
L 718.924564 353.164667 
L 747.789413 353.148888 
L 776.654261 353.120103 
L 805.51911 352.946216 
L 834.383958 352.346376 
L 863.248807 349.309814 
L 892.113655 342.235234 
L 920.978504 316.170155 
L 949.843352 270.509948 
" clip-path="url(#p643ab4f2f7)" style="fill: none; stroke: #f0ad4e; stroke-linecap: square"/>
   </g>
   <g id="line2d_60">
    <path d="M 83.897898 353.223653 
L 112.762746 353.223571 
L 141.627595 353.223469 
L 170.492443 353.223201 
L 199.357292 353.223078 
L 228.22214 353.222595 
L 257.086989 353.222071 
L 285.951837 353.22164 
L 314.816686 353.221137 
L 343.681534 353.221096 
L 372.546383 353.219966 
L 401.411231 353.21937 
L 430.27608 353.218096 
L 459.140928 353.217027 
L 488.005777 353.213833 
L 516.870625 353.209343 
L 545.735473 353.200416 
L 574.600322 353.194119 
L 603.46517 353.192167 
L 632.330019 353.190441 
L 661.194867 353.188757 
L 690.059716 353.188284 
L 718.924564 353.183168 
L 747.789413 353.175022 
L 776.654261 353.151507 
L 805.51911 353.010462 
L 834.383958 352.53028 
L 863.248807 350.047289 
L 892.113655 344.39796 
L 920.978504 322.926133 
L 949.843352 286.055429 
" clip-path="url(#p643ab4f2f7)" style="fill: none; stroke: #f0ad4e; stroke-linecap: square"/>
   </g>
   <g id="line2d_61">
    <path d="M 83.897898 353.222934 
L 112.762746 353.222832 
L 141.627595 353.222749 
L 170.492443 353.222339 
L 199.357292 353.222287 
L 228.22214 353.221938 
L 257.086989 353.221383 
L 285.951837 353.221096 
L 314.816686 353.220346 
L 343.681534 353.22013 
L 372.546383 353.219431 
L 401.411231 353.218466 
L 430.27608 353.21676 
L 459.140928 353.215826 
L 488.005777 353.212754 
L 516.870625 353.207874 
L 545.735473 353.199595 
L 574.600322 353.193153 
L 603.46517 353.1904 
L 632.330019 353.188685 
L 661.194867 353.186476 
L 690.059716 353.186476 
L 718.924564 353.181268 
L 747.789413 353.171478 
L 776.654261 353.148734 
L 805.51911 353.002243 
L 834.383958 352.518558 
L 863.248807 350.037992 
L 892.113655 344.375093 
L 920.978504 322.880275 
L 949.843352 286.18501 
" clip-path="url(#p643ab4f2f7)" style="fill: none; stroke: #f0ad4e; stroke-linecap: square"/>
   </g>
   <g id="line2d_62">
    <path d="M 83.897898 353.223551 
L 112.762746 353.223294 
L 141.627595 353.223273 
L 170.492443 353.223006 
L 199.357292 353.222852 
L 228.22214 353.2224 
L 257.086989 353.221753 
L 285.951837 353.221188 
L 314.816686 353.221034 
L 343.681534 353.220315 
L 372.546383 353.220274 
L 401.411231 353.219031 
L 430.27608 353.218219 
L 459.140928 353.216144 
L 488.005777 353.213792 
L 516.870625 353.210237 
L 545.735473 353.20506 
L 574.600322 353.202656 
L 603.46517 353.201885 
L 632.330019 353.198814 
L 661.194867 353.19565 
L 690.059716 353.192907 
L 718.924564 353.189342 
L 747.789413 353.178494 
L 776.654261 353.156613 
L 805.51911 353.024803 
L 834.383958 352.539124 
L 863.248807 350.001688 
L 892.113655 342.142522 
L 920.978504 316.282437 
L 949.843352 256.752595 
" clip-path="url(#p643ab4f2f7)" style="fill: none; stroke: #f0ad4e; stroke-linecap: square"/>
   </g>
   <g id="line2d_63">
    <path d="M 83.897898 353.222698 
L 112.762746 353.222585 
L 141.627595 353.222308 
L 170.492443 353.222092 
L 199.357292 353.221897 
L 228.22214 353.22165 
L 257.086989 353.220849 
L 285.951837 353.220222 
L 314.816686 353.219966 
L 343.681534 353.219452 
L 372.546383 353.219185 
L 401.411231 353.217839 
L 430.27608 353.216976 
L 459.140928 353.214757 
L 488.005777 353.212025 
L 516.870625 353.207977 
L 545.735473 353.202964 
L 574.600322 353.200951 
L 603.46517 353.199666 
L 632.330019 353.196194 
L 661.194867 353.193616 
L 690.059716 353.191089 
L 718.924564 353.186702 
L 747.789413 353.174344 
L 776.654261 353.15237 
L 805.51911 353.013913 
L 834.383958 352.526078 
L 863.248807 349.980094 
L 892.113655 342.188298 
L 920.978504 316.391626 
L 949.843352 256.684568 
" clip-path="url(#p643ab4f2f7)" style="fill: none; stroke: #f0ad4e; stroke-linecap: square"/>
   </g>
   <g id="line2d_64">
    <path d="M 83.897898 353.22352 
L 112.762746 353.223438 
L 141.627595 353.223181 
L 170.492443 353.222791 
L 199.357292 353.222647 
L 228.22214 353.222236 
L 257.086989 353.221784 
L 285.951837 353.221239 
L 314.816686 353.220551 
L 343.681534 353.220407 
L 372.546383 353.21974 
L 401.411231 353.21862 
L 430.27608 353.217397 
L 459.140928 353.215445 
L 488.005777 353.212394 
L 516.870625 353.20845 
L 545.735473 353.202286 
L 574.600322 353.199831 
L 603.46517 353.1968 
L 632.330019 353.194664 
L 661.194867 353.191366 
L 690.059716 353.190215 
L 718.924564 353.184565 
L 747.789413 353.171118 
L 776.654261 353.147778 
L 805.51911 353.001833 
L 834.383958 352.472762 
L 863.248807 349.710464 
L 892.113655 341.387224 
L 920.978504 313.842376 
L 949.843352 251.314269 
" clip-path="url(#p643ab4f2f7)" style="fill: none; stroke: #f0ad4e; stroke-linecap: square"/>
   </g>
   <g id="line2d_65">
    <path d="M 83.897898 353.222626 
L 112.762746 353.22239 
L 141.627595 353.222184 
L 170.492443 353.221661 
L 199.357292 353.22165 
L 228.22214 353.221044 
L 257.086989 353.220839 
L 285.951837 353.220253 
L 314.816686 353.219606 
L 343.681534 353.219195 
L 372.546383 353.218404 
L 401.411231 353.217233 
L 430.27608 353.215805 
L 459.140928 353.213792 
L 488.005777 353.210792 
L 516.870625 353.206652 
L 545.735473 353.200838 
L 574.600322 353.197581 
L 603.46517 353.195352 
L 632.330019 353.192445 
L 661.194867 353.188808 
L 690.059716 353.187555 
L 718.924564 353.18171 
L 747.789413 353.168221 
L 776.654261 353.143669 
L 805.51911 352.988139 
L 834.383958 352.460332 
L 863.248807 349.695876 
L 892.113655 341.394826 
L 920.978504 314.00555 
L 949.843352 251.226365 
" clip-path="url(#p643ab4f2f7)" style="fill: none; stroke: #f0ad4e; stroke-linecap: square"/>
   </g>
   <g id="line2d_66">
    <path d="M 83.897898 353.22352 
L 112.762746 353.223314 
L 141.627595 353.223345 
L 170.492443 353.223027 
L 199.357292 353.222585 
L 228.22214 353.222359 
L 257.086989 353.222226 
L 285.951837 353.221085 
L 314.816686 353.221024 
L 343.681534 353.220664 
L 372.546383 353.219935 
L 401.411231 353.218979 
L 430.27608 353.218116 
L 459.140928 353.215065 
L 488.005777 353.212929 
L 516.870625 353.209456 
L 545.735473 353.203036 
L 574.600322 353.200221 
L 603.46517 353.19906 
L 632.330019 353.195383 
L 661.194867 353.193379 
L 690.059716 353.190914 
L 718.924564 353.185161 
L 747.789413 353.175042 
L 776.654261 353.152802 
L 805.51911 353.01039 
L 834.383958 352.48548 
L 863.248807 349.78414 
L 892.113655 341.842505 
L 920.978504 314.956144 
L 949.843352 255.604114 
" clip-path="url(#p643ab4f2f7)" style="fill: none; stroke: #f0ad4e; stroke-linecap: square"/>
   </g>
   <g id="line2d_67">
    <path d="M 83.897898 353.222585 
L 112.762746 353.222493 
L 141.627595 353.222246 
L 170.492443 353.222041 
L 199.357292 353.221835 
L 228.22214 353.221722 
L 257.086989 353.221157 
L 285.951837 353.220263 
L 314.816686 353.21976 
L 343.681534 353.219534 
L 372.546383 353.218846 
L 401.411231 353.218096 
L 430.27608 353.216884 
L 459.140928 353.213514 
L 488.005777 353.211439 
L 516.870625 353.207597 
L 545.735473 353.201711 
L 574.600322 353.198578 
L 603.46517 353.196769 
L 632.330019 353.193082 
L 661.194867 353.191006 
L 690.059716 353.187955 
L 718.924564 353.181638 
L 747.789413 353.171509 
L 776.654261 353.1471 
L 805.51911 352.998473 
L 834.383958 352.477806 
L 863.248807 349.771053 
L 892.113655 341.813186 
L 920.978504 315.101063 
L 949.843352 255.564461 
" clip-path="url(#p643ab4f2f7)" style="fill: none; stroke: #f0ad4e; stroke-linecap: square"/>
   </g>
   <g id="line2d_68">
    <path d="M 83.897898 353.223047 
L 112.762746 353.222647 
L 141.627595 353.222462 
L 170.492443 353.221599 
L 199.357292 353.221537 
L 228.22214 353.219719 
L 257.086989 353.218281 
L 285.951837 353.216123 
L 314.816686 353.21485 
L 343.681534 353.21298 
L 372.546383 353.211521 
L 401.411231 353.208984 
L 430.27608 353.204135 
L 459.140928 353.196348 
L 488.005777 353.185973 
L 516.870625 353.168714 
L 545.735473 353.143536 
L 574.600322 353.124716 
L 603.46517 353.114608 
L 632.330019 353.112286 
L 661.194867 353.105095 
L 690.059716 353.104797 
L 718.924564 353.09021 
L 747.789413 353.06009 
L 776.654261 352.98856 
L 805.51911 352.617136 
L 834.383958 351.337965 
L 863.248807 344.703268 
L 892.113655 328.515089 
L 920.978504 270.627182 
L 949.843352 160.824701 
" clip-path="url(#p643ab4f2f7)" style="fill: none; stroke: #f0ad4e; stroke-linecap: square"/>
   </g>
   <g id="line2d_69">
    <path d="M 83.897898 353.220777 
L 112.762746 353.220305 
L 141.627595 353.219709 
L 170.492443 353.219534 
L 199.357292 353.219226 
L 228.22214 353.217736 
L 257.086989 353.216524 
L 285.951837 353.214059 
L 314.816686 353.212271 
L 343.681534 353.210206 
L 372.546383 353.208655 
L 401.411231 353.206159 
L 430.27608 353.200725 
L 459.140928 353.193575 
L 488.005777 353.182254 
L 516.870625 353.164523 
L 545.735473 353.139129 
L 574.600322 353.121275 
L 603.46517 353.110519 
L 632.330019 353.107571 
L 661.194867 353.100246 
L 690.059716 353.098715 
L 718.924564 353.082834 
L 747.789413 353.050474 
L 776.654261 352.978801 
L 805.51911 352.592985 
L 834.383958 351.297573 
L 863.248807 344.657862 
L 892.113655 328.421319 
L 920.978504 270.457845 
L 949.843352 161.294774 
" clip-path="url(#p643ab4f2f7)" style="fill: none; stroke: #f0ad4e; stroke-linecap: square"/>
   </g>
   <g id="line2d_70">
    <path d="M 83.897898 353.223212 
L 112.762746 353.223047 
L 141.627595 353.222657 
L 170.492443 353.222359 
L 199.357292 353.221907 
L 228.22214 353.220839 
L 257.086989 353.219565 
L 285.951837 353.21787 
L 314.816686 353.217418 
L 343.681534 353.217284 
L 372.546383 353.215908 
L 401.411231 353.214459 
L 430.27608 353.211891 
L 459.140928 353.207638 
L 488.005777 353.202471 
L 516.870625 353.193729 
L 545.735473 353.183271 
L 574.600322 353.174467 
L 603.46517 353.173471 
L 632.330019 353.168447 
L 661.194867 353.166876 
L 690.059716 353.160209 
L 718.924564 353.148991 
L 747.789413 353.132831 
L 776.654261 353.091206 
L 805.51911 352.864002 
L 834.383958 352.031308 
L 863.248807 347.662794 
L 892.113655 334.416564 
L 920.978504 289.546964 
L 949.843352 179.157833 
" clip-path="url(#p643ab4f2f7)" style="fill: none; stroke: #f0ad4e; stroke-linecap: square"/>
   </g>
   <g id="line2d_71">
    <path d="M 83.897898 353.221578 
L 112.762746 353.221414 
L 141.627595 353.221198 
L 170.492443 353.220746 
L 199.357292 353.22013 
L 228.22214 353.219431 
L 257.086989 353.218219 
L 285.951837 353.216627 
L 314.816686 353.216144 
L 343.681534 353.215487 
L 372.546383 353.214983 
L 401.411231 353.212939 
L 430.27608 353.209456 
L 459.140928 353.205429 
L 488.005777 353.200375 
L 516.870625 353.19077 
L 545.735473 353.180672 
L 574.600322 353.171262 
L 603.46517 353.169505 
L 632.330019 353.165016 
L 661.194867 353.163085 
L 690.059716 353.157127 
L 718.924564 353.144614 
L 747.789413 353.126884 
L 776.654261 353.081745 
L 805.51911 352.848449 
L 834.383958 352.011667 
L 863.248807 347.686041 
L 892.113655 334.596534 
L 920.978504 290.000745 
L 949.843352 178.603214 
" clip-path="url(#p643ab4f2f7)" style="fill: none; stroke: #f0ad4e; stroke-linecap: square"/>
   </g>
   <g id="line2d_72">
    <path d="M 40.600625 353.2239 
L 993.140625 353.2239 
" clip-path="url(#p643ab4f2f7)" style="fill: none; stroke: #dedede; stroke-width: 2; stroke-linecap: square"/>
   </g>
   <g id="text_18">
    <!-- FastQC: Sequence Length Distribution -->
    <g transform="translate(364.858125 19.3575) scale(0.16 -0.16)">
     <defs>
      <path id="DejaVuSans-46" d="M 628 4666 
L 3309 4666 
L 3309 4134 
L 1259 4134 
L 1259 2759 
L 3109 2759 
L 3109 2228 
L 1259 2228 
L 1259 0 
L 628 0 
L 628 4666 
z
" transform="scale(0.015625)"/>
      <path id="DejaVuSans-73" d="M 2834 3397 
L 2834 2853 
Q 2591 2978 2328 3040 
Q 2066 3103 1784 3103 
Q 1356 3103 1142 2972 
Q 928 2841 928 2578 
Q 928 2378 1081 2264 
Q 1234 2150 1697 2047 
L 1894 2003 
Q 2506 1872 2764 1633 
Q 3022 1394 3022 966 
Q 3022 478 2636 193 
Q 2250 -91 1575 -91 
Q 1294 -91 989 -36 
Q 684 19 347 128 
L 347 722 
Q 666 556 975 473 
Q 1284 391 1588 391 
Q 1994 391 2212 530 
Q 2431 669 2431 922 
Q 2431 1156 2273 1281 
Q 2116 1406 1581 1522 
L 1381 1569 
Q 847 1681 609 1914 
Q 372 2147 372 2553 
Q 372 3047 722 3315 
Q 1072 3584 1716 3584 
Q 2034 3584 2315 3537 
Q 2597 3491 2834 3397 
z
" transform="scale(0.015625)"/>
      <path id="DejaVuSans-51" d="M 2522 4238 
Q 1834 4238 1429 3725 
Q 1025 3213 1025 2328 
Q 1025 1447 1429 934 
Q 1834 422 2522 422 
Q 3209 422 3611 934 
Q 4013 1447 4013 2328 
Q 4013 3213 3611 3725 
Q 3209 4238 2522 4238 
z
M 3406 84 
L 4238 -825 
L 3475 -825 
L 2784 -78 
Q 2681 -84 2626 -87 
Q 2572 -91 2522 -91 
Q 1538 -91 948 567 
Q 359 1225 359 2328 
Q 359 3434 948 4092 
Q 1538 4750 2522 4750 
Q 3503 4750 4090 4092 
Q 4678 3434 4678 2328 
Q 4678 1516 4351 937 
Q 4025 359 3406 84 
z
" transform="scale(0.015625)"/>
      <path id="DejaVuSans-3a" d="M 750 794 
L 1409 794 
L 1409 0 
L 750 0 
L 750 794 
z
M 750 3309 
L 1409 3309 
L 1409 2516 
L 750 2516 
L 750 3309 
z
" transform="scale(0.015625)"/>
      <path id="DejaVuSans-44" d="M 1259 4147 
L 1259 519 
L 2022 519 
Q 2988 519 3436 956 
Q 3884 1394 3884 2338 
Q 3884 3275 3436 3711 
Q 2988 4147 2022 4147 
L 1259 4147 
z
M 628 4666 
L 1925 4666 
Q 3281 4666 3915 4102 
Q 4550 3538 4550 2338 
Q 4550 1131 3912 565 
Q 3275 0 1925 0 
L 628 0 
L 628 4666 
z
" transform="scale(0.015625)"/>
      <path id="DejaVuSans-69" d="M 603 3500 
L 1178 3500 
L 1178 0 
L 603 0 
L 603 3500 
z
M 603 4863 
L 1178 4863 
L 1178 4134 
L 603 4134 
L 603 4863 
z
" transform="scale(0.015625)"/>
      <path id="DejaVuSans-72" d="M 2631 2963 
Q 2534 3019 2420 3045 
Q 2306 3072 2169 3072 
Q 1681 3072 1420 2755 
Q 1159 2438 1159 1844 
L 1159 0 
L 581 0 
L 581 3500 
L 1159 3500 
L 1159 2956 
Q 1341 3275 1631 3429 
Q 1922 3584 2338 3584 
Q 2397 3584 2469 3576 
Q 2541 3569 2628 3553 
L 2631 2963 
z
" transform="scale(0.015625)"/>
     </defs>
     <use xlink:href="#DejaVuSans-46"/>
     <use xlink:href="#DejaVuSans-61" x="48.394531"/>
     <use xlink:href="#DejaVuSans-73" x="109.673828"/>
     <use xlink:href="#DejaVuSans-74" x="161.773438"/>
     <use xlink:href="#DejaVuSans-51" x="200.982422"/>
     <use xlink:href="#DejaVuSans-43" x="279.693359"/>
     <use xlink:href="#DejaVuSans-3a" x="349.517578"/>
     <use xlink:href="#DejaVuSans-20" x="383.208984"/>
     <use xlink:href="#DejaVuSans-53" x="414.996094"/>
     <use xlink:href="#DejaVuSans-65" x="478.472656"/>
     <use xlink:href="#DejaVuSans-71" x="539.996094"/>
     <use xlink:href="#DejaVuSans-75" x="603.472656"/>
     <use xlink:href="#DejaVuSans-65" x="666.851562"/>
     <use xlink:href="#DejaVuSans-6e" x="728.375"/>
     <use xlink:href="#DejaVuSans-63" x="791.753906"/>
     <use xlink:href="#DejaVuSans-65" x="846.734375"/>
     <use xlink:href="#DejaVuSans-20" x="908.257812"/>
     <use xlink:href="#DejaVuSans-4c" x="940.044922"/>
     <use xlink:href="#DejaVuSans-65" x="994.007812"/>
     <use xlink:href="#DejaVuSans-6e" x="1055.53125"/>
     <use xlink:href="#DejaVuSans-67" x="1118.910156"/>
     <use xlink:href="#DejaVuSans-74" x="1182.386719"/>
     <use xlink:href="#DejaVuSans-68" x="1221.595703"/>
     <use xlink:href="#DejaVuSans-20" x="1284.974609"/>
     <use xlink:href="#DejaVuSans-44" x="1316.761719"/>
     <use xlink:href="#DejaVuSans-69" x="1393.763672"/>
     <use xlink:href="#DejaVuSans-73" x="1421.546875"/>
     <use xlink:href="#DejaVuSans-74" x="1473.646484"/>
     <use xlink:href="#DejaVuSans-72" x="1512.855469"/>
     <use xlink:href="#DejaVuSans-69" x="1553.96875"/>
     <use xlink:href="#DejaVuSans-62" x="1581.751953"/>
     <use xlink:href="#DejaVuSans-75" x="1645.228516"/>
     <use xlink:href="#DejaVuSans-74" x="1708.607422"/>
     <use xlink:href="#DejaVuSans-69" x="1747.816406"/>
     <use xlink:href="#DejaVuSans-6f" x="1775.599609"/>
     <use xlink:href="#DejaVuSans-6e" x="1836.78125"/>
    </g>
   </g>
  </g>
 </g>
 <defs>
  <clipPath id="p643ab4f2f7">
   <rect x="40.600625" y="35.2559" width="952.54" height="317.968"/>
  </clipPath>
 </defs>
</svg>
