<?xml version="1.0" encoding="utf-8" standalone="no"?>
<!DOCTYPE svg PUBLIC "-//W3C//DTD SVG 1.1//EN"
  "http://www.w3.org/Graphics/SVG/1.1/DTD/svg11.dtd">
<svg xmlns:xlink="http://www.w3.org/1999/xlink" width="999.820751pt" height="388.844525pt" viewBox="0 0 999.820751 388.844525" xmlns="http://www.w3.org/2000/svg" version="1.1">
 <metadata>
  <rdf:RDF xmlns:dc="http://purl.org/dc/elements/1.1/" xmlns:cc="http://creativecommons.org/ns#" xmlns:rdf="http://www.w3.org/1999/02/22-rdf-syntax-ns#">
   <cc:Work>
    <dc:type rdf:resource="http://purl.org/dc/dcmitype/StillImage"/>
    <dc:date>2025-01-24T09:54:48.577864</dc:date>
    <dc:format>image/svg+xml</dc:format>
    <dc:creator>
     <cc:Agent>
      <dc:title>Matplotlib v3.8.2, https://matplotlib.org/</dc:title>
     </cc:Agent>
    </dc:creator>
   </cc:Work>
  </rdf:RDF>
 </metadata>
 <defs>
  <style type="text/css">*{stroke-linejoin: round; stroke-linecap: butt}</style>
 </defs>
 <g id="figure_1">
  <g id="axes_1">
   <g id="patch_1">
    <path d="M 40.600625 353.2239 
L 990.236266 353.2239 
L 990.236266 35.2559 
L 40.600625 35.2559 
z
" style="fill: #ffffff"/>
   </g>
   <g id="patch_2">
    <path d="M 798.144726 353.2239 
L 2746.115272 353.2239 
L 2746.115272 35.2559 
L 798.144726 35.2559 
z
" clip-path="url(#pe443ae61d0)" style="fill: #c3e6c3"/>
   </g>
   <g id="patch_3">
    <path d="M 581.703554 353.2239 
L 798.144726 353.2239 
L 798.144726 35.2559 
L 581.703554 35.2559 
z
" clip-path="url(#pe443ae61d0)" style="fill: #e6dcc3"/>
   </g>
   <g id="patch_4">
    <path d="M 40.600625 353.2239 
L 581.703554 353.2239 
L 581.703554 35.2559 
L 40.600625 35.2559 
z
" clip-path="url(#pe443ae61d0)" style="fill: #e6c3c3"/>
   </g>
   <g id="matplotlib.axis_1">
    <g id="xtick_1">
     <g id="text_1">
      <!-- 0 -->
      <g transform="translate(38.055625 366.30265) scale(0.08 -0.08)">
       <defs>
        <path id="DejaVuSans-30" d="M 2034 4250 
Q 1547 4250 1301 3770 
Q 1056 3291 1056 2328 
Q 1056 1369 1301 889 
Q 1547 409 2034 409 
Q 2525 409 2770 889 
Q 3016 1369 3016 2328 
Q 3016 3291 2770 3770 
Q 2525 4250 2034 4250 
z
M 2034 4750 
Q 2819 4750 3233 4129 
Q 3647 3509 3647 2328 
Q 3647 1150 3233 529 
Q 2819 -91 2034 -91 
Q 1250 -91 836 529 
Q 422 1150 422 2328 
Q 422 3509 836 4129 
Q 1250 4750 2034 4750 
z
" transform="scale(0.015625)"/>
       </defs>
       <use xlink:href="#DejaVuSans-30"/>
      </g>
     </g>
    </g>
    <g id="xtick_2">
     <g id="text_2">
      <!-- 5 -->
      <g transform="translate(173.331357 366.30265) scale(0.08 -0.08)">
       <defs>
        <path id="DejaVuSans-35" d="M 691 4666 
L 3169 4666 
L 3169 4134 
L 1269 4134 
L 1269 2991 
Q 1406 3038 1543 3061 
Q 1681 3084 1819 3084 
Q 2600 3084 3056 2656 
Q 3513 2228 3513 1497 
Q 3513 744 3044 326 
Q 2575 -91 1722 -91 
Q 1428 -91 1123 -41 
Q 819 9 494 109 
L 494 744 
Q 775 591 1075 516 
Q 1375 441 1709 441 
Q 2250 441 2565 725 
Q 2881 1009 2881 1497 
Q 2881 1984 2565 2268 
Q 2250 2553 1709 2553 
Q 1456 2553 1204 2497 
Q 953 2441 691 2322 
L 691 4666 
z
" transform="scale(0.015625)"/>
       </defs>
       <use xlink:href="#DejaVuSans-35"/>
      </g>
     </g>
    </g>
    <g id="xtick_3">
     <g id="text_3">
      <!-- 10 -->
      <g transform="translate(306.06209 366.30265) scale(0.08 -0.08)">
       <defs>
        <path id="DejaVuSans-31" d="M 794 531 
L 1825 531 
L 1825 4091 
L 703 3866 
L 703 4441 
L 1819 4666 
L 2450 4666 
L 2450 531 
L 3481 531 
L 3481 0 
L 794 0 
L 794 531 
z
" transform="scale(0.015625)"/>
       </defs>
       <use xlink:href="#DejaVuSans-31"/>
       <use xlink:href="#DejaVuSans-30" x="63.623047"/>
      </g>
     </g>
    </g>
    <g id="xtick_4">
     <g id="text_4">
      <!-- 15 -->
      <g transform="translate(441.337822 366.30265) scale(0.08 -0.08)">
       <use xlink:href="#DejaVuSans-31"/>
       <use xlink:href="#DejaVuSans-35" x="63.623047"/>
      </g>
     </g>
    </g>
    <g id="xtick_5">
     <g id="text_5">
      <!-- 20 -->
      <g transform="translate(576.613554 366.30265) scale(0.08 -0.08)">
       <defs>
        <path id="DejaVuSans-32" d="M 1228 531 
L 3431 531 
L 3431 0 
L 469 0 
L 469 531 
Q 828 903 1448 1529 
Q 2069 2156 2228 2338 
Q 2531 2678 2651 2914 
Q 2772 3150 2772 3378 
Q 2772 3750 2511 3984 
Q 2250 4219 1831 4219 
Q 1534 4219 1204 4116 
Q 875 4013 500 3803 
L 500 4441 
Q 881 4594 1212 4672 
Q 1544 4750 1819 4750 
Q 2544 4750 2975 4387 
Q 3406 4025 3406 3419 
Q 3406 3131 3298 2873 
Q 3191 2616 2906 2266 
Q 2828 2175 2409 1742 
Q 1991 1309 1228 531 
z
" transform="scale(0.015625)"/>
       </defs>
       <use xlink:href="#DejaVuSans-32"/>
       <use xlink:href="#DejaVuSans-30" x="63.623047"/>
      </g>
     </g>
    </g>
    <g id="xtick_6">
     <g id="text_6">
      <!-- 25 -->
      <g transform="translate(711.889287 366.30265) scale(0.08 -0.08)">
       <use xlink:href="#DejaVuSans-32"/>
       <use xlink:href="#DejaVuSans-35" x="63.623047"/>
      </g>
     </g>
    </g>
    <g id="xtick_7">
     <g id="text_7">
      <!-- 30 -->
      <g transform="translate(847.165019 366.30265) scale(0.08 -0.08)">
       <defs>
        <path id="DejaVuSans-33" d="M 2597 2516 
Q 3050 2419 3304 2112 
Q 3559 1806 3559 1356 
Q 3559 666 3084 287 
Q 2609 -91 1734 -91 
Q 1441 -91 1130 -33 
Q 819 25 488 141 
L 488 750 
Q 750 597 1062 519 
Q 1375 441 1716 441 
Q 2309 441 2620 675 
Q 2931 909 2931 1356 
Q 2931 1769 2642 2001 
Q 2353 2234 1838 2234 
L 1294 2234 
L 1294 2753 
L 1863 2753 
Q 2328 2753 2575 2939 
Q 2822 3125 2822 3475 
Q 2822 3834 2567 4026 
Q 2313 4219 1838 4219 
Q 1578 4219 1281 4162 
Q 984 4106 628 3988 
L 628 4550 
Q 988 4650 1302 4700 
Q 1616 4750 1894 4750 
Q 2613 4750 3031 4423 
Q 3450 4097 3450 3541 
Q 3450 3153 3228 2886 
Q 3006 2619 2597 2516 
z
" transform="scale(0.015625)"/>
       </defs>
       <use xlink:href="#DejaVuSans-33"/>
       <use xlink:href="#DejaVuSans-30" x="63.623047"/>
      </g>
     </g>
    </g>
    <g id="xtick_8">
     <g id="text_8">
      <!-- 35 -->
      <g transform="translate(982.440751 366.30265) scale(0.08 -0.08)">
       <use xlink:href="#DejaVuSans-33"/>
       <use xlink:href="#DejaVuSans-35" x="63.623047"/>
      </g>
     </g>
    </g>
    <g id="text_9">
     <!-- Mean Sequence Quality (Phred Score) -->
     <g transform="translate(420.626258 379.564837) scale(0.1 -0.1)">
      <defs>
       <path id="DejaVuSans-4d" d="M 628 4666 
L 1569 4666 
L 2759 1491 
L 3956 4666 
L 4897 4666 
L 4897 0 
L 4281 0 
L 4281 4097 
L 3078 897 
L 2444 897 
L 1241 4097 
L 1241 0 
L 628 0 
L 628 4666 
z
" transform="scale(0.015625)"/>
       <path id="DejaVuSans-65" d="M 3597 1894 
L 3597 1613 
L 953 1613 
Q 991 1019 1311 708 
Q 1631 397 2203 397 
Q 2534 397 2845 478 
Q 3156 559 3463 722 
L 3463 178 
Q 3153 47 2828 -22 
Q 2503 -91 2169 -91 
Q 1331 -91 842 396 
Q 353 884 353 1716 
Q 353 2575 817 3079 
Q 1281 3584 2069 3584 
Q 2775 3584 3186 3129 
Q 3597 2675 3597 1894 
z
M 3022 2063 
Q 3016 2534 2758 2815 
Q 2500 3097 2075 3097 
Q 1594 3097 1305 2825 
Q 1016 2553 972 2059 
L 3022 2063 
z
" transform="scale(0.015625)"/>
       <path id="DejaVuSans-61" d="M 2194 1759 
Q 1497 1759 1228 1600 
Q 959 1441 959 1056 
Q 959 750 1161 570 
Q 1363 391 1709 391 
Q 2188 391 2477 730 
Q 2766 1069 2766 1631 
L 2766 1759 
L 2194 1759 
z
M 3341 1997 
L 3341 0 
L 2766 0 
L 2766 531 
Q 2569 213 2275 61 
Q 1981 -91 1556 -91 
Q 1019 -91 701 211 
Q 384 513 384 1019 
Q 384 1609 779 1909 
Q 1175 2209 1959 2209 
L 2766 2209 
L 2766 2266 
Q 2766 2663 2505 2880 
Q 2244 3097 1772 3097 
Q 1472 3097 1187 3025 
Q 903 2953 641 2809 
L 641 3341 
Q 956 3463 1253 3523 
Q 1550 3584 1831 3584 
Q 2591 3584 2966 3190 
Q 3341 2797 3341 1997 
z
" transform="scale(0.015625)"/>
       <path id="DejaVuSans-6e" d="M 3513 2113 
L 3513 0 
L 2938 0 
L 2938 2094 
Q 2938 2591 2744 2837 
Q 2550 3084 2163 3084 
Q 1697 3084 1428 2787 
Q 1159 2491 1159 1978 
L 1159 0 
L 581 0 
L 581 3500 
L 1159 3500 
L 1159 2956 
Q 1366 3272 1645 3428 
Q 1925 3584 2291 3584 
Q 2894 3584 3203 3211 
Q 3513 2838 3513 2113 
z
" transform="scale(0.015625)"/>
       <path id="DejaVuSans-20" transform="scale(0.015625)"/>
       <path id="DejaVuSans-53" d="M 3425 4513 
L 3425 3897 
Q 3066 4069 2747 4153 
Q 2428 4238 2131 4238 
Q 1616 4238 1336 4038 
Q 1056 3838 1056 3469 
Q 1056 3159 1242 3001 
Q 1428 2844 1947 2747 
L 2328 2669 
Q 3034 2534 3370 2195 
Q 3706 1856 3706 1288 
Q 3706 609 3251 259 
Q 2797 -91 1919 -91 
Q 1588 -91 1214 -16 
Q 841 59 441 206 
L 441 856 
Q 825 641 1194 531 
Q 1563 422 1919 422 
Q 2459 422 2753 634 
Q 3047 847 3047 1241 
Q 3047 1584 2836 1778 
Q 2625 1972 2144 2069 
L 1759 2144 
Q 1053 2284 737 2584 
Q 422 2884 422 3419 
Q 422 4038 858 4394 
Q 1294 4750 2059 4750 
Q 2388 4750 2728 4690 
Q 3069 4631 3425 4513 
z
" transform="scale(0.015625)"/>
       <path id="DejaVuSans-71" d="M 947 1747 
Q 947 1113 1208 752 
Q 1469 391 1925 391 
Q 2381 391 2643 752 
Q 2906 1113 2906 1747 
Q 2906 2381 2643 2742 
Q 2381 3103 1925 3103 
Q 1469 3103 1208 2742 
Q 947 2381 947 1747 
z
M 2906 525 
Q 2725 213 2448 61 
Q 2172 -91 1784 -91 
Q 1150 -91 751 415 
Q 353 922 353 1747 
Q 353 2572 751 3078 
Q 1150 3584 1784 3584 
Q 2172 3584 2448 3432 
Q 2725 3281 2906 2969 
L 2906 3500 
L 3481 3500 
L 3481 -1331 
L 2906 -1331 
L 2906 525 
z
" transform="scale(0.015625)"/>
       <path id="DejaVuSans-75" d="M 544 1381 
L 544 3500 
L 1119 3500 
L 1119 1403 
Q 1119 906 1312 657 
Q 1506 409 1894 409 
Q 2359 409 2629 706 
Q 2900 1003 2900 1516 
L 2900 3500 
L 3475 3500 
L 3475 0 
L 2900 0 
L 2900 538 
Q 2691 219 2414 64 
Q 2138 -91 1772 -91 
Q 1169 -91 856 284 
Q 544 659 544 1381 
z
M 1991 3584 
L 1991 3584 
z
" transform="scale(0.015625)"/>
       <path id="DejaVuSans-63" d="M 3122 3366 
L 3122 2828 
Q 2878 2963 2633 3030 
Q 2388 3097 2138 3097 
Q 1578 3097 1268 2742 
Q 959 2388 959 1747 
Q 959 1106 1268 751 
Q 1578 397 2138 397 
Q 2388 397 2633 464 
Q 2878 531 3122 666 
L 3122 134 
Q 2881 22 2623 -34 
Q 2366 -91 2075 -91 
Q 1284 -91 818 406 
Q 353 903 353 1747 
Q 353 2603 823 3093 
Q 1294 3584 2113 3584 
Q 2378 3584 2631 3529 
Q 2884 3475 3122 3366 
z
" transform="scale(0.015625)"/>
       <path id="DejaVuSans-51" d="M 2522 4238 
Q 1834 4238 1429 3725 
Q 1025 3213 1025 2328 
Q 1025 1447 1429 934 
Q 1834 422 2522 422 
Q 3209 422 3611 934 
Q 4013 1447 4013 2328 
Q 4013 3213 3611 3725 
Q 3209 4238 2522 4238 
z
M 3406 84 
L 4238 -825 
L 3475 -825 
L 2784 -78 
Q 2681 -84 2626 -87 
Q 2572 -91 2522 -91 
Q 1538 -91 948 567 
Q 359 1225 359 2328 
Q 359 3434 948 4092 
Q 1538 4750 2522 4750 
Q 3503 4750 4090 4092 
Q 4678 3434 4678 2328 
Q 4678 1516 4351 937 
Q 4025 359 3406 84 
z
" transform="scale(0.015625)"/>
       <path id="DejaVuSans-6c" d="M 603 4863 
L 1178 4863 
L 1178 0 
L 603 0 
L 603 4863 
z
" transform="scale(0.015625)"/>
       <path id="DejaVuSans-69" d="M 603 3500 
L 1178 3500 
L 1178 0 
L 603 0 
L 603 3500 
z
M 603 4863 
L 1178 4863 
L 1178 4134 
L 603 4134 
L 603 4863 
z
" transform="scale(0.015625)"/>
       <path id="DejaVuSans-74" d="M 1172 4494 
L 1172 3500 
L 2356 3500 
L 2356 3053 
L 1172 3053 
L 1172 1153 
Q 1172 725 1289 603 
Q 1406 481 1766 481 
L 2356 481 
L 2356 0 
L 1766 0 
Q 1100 0 847 248 
Q 594 497 594 1153 
L 594 3053 
L 172 3053 
L 172 3500 
L 594 3500 
L 594 4494 
L 1172 4494 
z
" transform="scale(0.015625)"/>
       <path id="DejaVuSans-79" d="M 2059 -325 
Q 1816 -950 1584 -1140 
Q 1353 -1331 966 -1331 
L 506 -1331 
L 506 -850 
L 844 -850 
Q 1081 -850 1212 -737 
Q 1344 -625 1503 -206 
L 1606 56 
L 191 3500 
L 800 3500 
L 1894 763 
L 2988 3500 
L 3597 3500 
L 2059 -325 
z
" transform="scale(0.015625)"/>
       <path id="DejaVuSans-28" d="M 1984 4856 
Q 1566 4138 1362 3434 
Q 1159 2731 1159 2009 
Q 1159 1288 1364 580 
Q 1569 -128 1984 -844 
L 1484 -844 
Q 1016 -109 783 600 
Q 550 1309 550 2009 
Q 550 2706 781 3412 
Q 1013 4119 1484 4856 
L 1984 4856 
z
" transform="scale(0.015625)"/>
       <path id="DejaVuSans-50" d="M 1259 4147 
L 1259 2394 
L 2053 2394 
Q 2494 2394 2734 2622 
Q 2975 2850 2975 3272 
Q 2975 3691 2734 3919 
Q 2494 4147 2053 4147 
L 1259 4147 
z
M 628 4666 
L 2053 4666 
Q 2838 4666 3239 4311 
Q 3641 3956 3641 3272 
Q 3641 2581 3239 2228 
Q 2838 1875 2053 1875 
L 1259 1875 
L 1259 0 
L 628 0 
L 628 4666 
z
" transform="scale(0.015625)"/>
       <path id="DejaVuSans-68" d="M 3513 2113 
L 3513 0 
L 2938 0 
L 2938 2094 
Q 2938 2591 2744 2837 
Q 2550 3084 2163 3084 
Q 1697 3084 1428 2787 
Q 1159 2491 1159 1978 
L 1159 0 
L 581 0 
L 581 4863 
L 1159 4863 
L 1159 2956 
Q 1366 3272 1645 3428 
Q 1925 3584 2291 3584 
Q 2894 3584 3203 3211 
Q 3513 2838 3513 2113 
z
" transform="scale(0.015625)"/>
       <path id="DejaVuSans-72" d="M 2631 2963 
Q 2534 3019 2420 3045 
Q 2306 3072 2169 3072 
Q 1681 3072 1420 2755 
Q 1159 2438 1159 1844 
L 1159 0 
L 581 0 
L 581 3500 
L 1159 3500 
L 1159 2956 
Q 1341 3275 1631 3429 
Q 1922 3584 2338 3584 
Q 2397 3584 2469 3576 
Q 2541 3569 2628 3553 
L 2631 2963 
z
" transform="scale(0.015625)"/>
       <path id="DejaVuSans-64" d="M 2906 2969 
L 2906 4863 
L 3481 4863 
L 3481 0 
L 2906 0 
L 2906 525 
Q 2725 213 2448 61 
Q 2172 -91 1784 -91 
Q 1150 -91 751 415 
Q 353 922 353 1747 
Q 353 2572 751 3078 
Q 1150 3584 1784 3584 
Q 2172 3584 2448 3432 
Q 2725 3281 2906 2969 
z
M 947 1747 
Q 947 1113 1208 752 
Q 1469 391 1925 391 
Q 2381 391 2643 752 
Q 2906 1113 2906 1747 
Q 2906 2381 2643 2742 
Q 2381 3103 1925 3103 
Q 1469 3103 1208 2742 
Q 947 2381 947 1747 
z
" transform="scale(0.015625)"/>
       <path id="DejaVuSans-6f" d="M 1959 3097 
Q 1497 3097 1228 2736 
Q 959 2375 959 1747 
Q 959 1119 1226 758 
Q 1494 397 1959 397 
Q 2419 397 2687 759 
Q 2956 1122 2956 1747 
Q 2956 2369 2687 2733 
Q 2419 3097 1959 3097 
z
M 1959 3584 
Q 2709 3584 3137 3096 
Q 3566 2609 3566 1747 
Q 3566 888 3137 398 
Q 2709 -91 1959 -91 
Q 1206 -91 779 398 
Q 353 888 353 1747 
Q 353 2609 779 3096 
Q 1206 3584 1959 3584 
z
" transform="scale(0.015625)"/>
       <path id="DejaVuSans-29" d="M 513 4856 
L 1013 4856 
Q 1481 4119 1714 3412 
Q 1947 2706 1947 2009 
Q 1947 1309 1714 600 
Q 1481 -109 1013 -844 
L 513 -844 
Q 928 -128 1133 580 
Q 1338 1288 1338 2009 
Q 1338 2731 1133 3434 
Q 928 4138 513 4856 
z
" transform="scale(0.015625)"/>
      </defs>
      <use xlink:href="#DejaVuSans-4d"/>
      <use xlink:href="#DejaVuSans-65" x="86.279297"/>
      <use xlink:href="#DejaVuSans-61" x="147.802734"/>
      <use xlink:href="#DejaVuSans-6e" x="209.082031"/>
      <use xlink:href="#DejaVuSans-20" x="272.460938"/>
      <use xlink:href="#DejaVuSans-53" x="304.248047"/>
      <use xlink:href="#DejaVuSans-65" x="367.724609"/>
      <use xlink:href="#DejaVuSans-71" x="429.248047"/>
      <use xlink:href="#DejaVuSans-75" x="492.724609"/>
      <use xlink:href="#DejaVuSans-65" x="556.103516"/>
      <use xlink:href="#DejaVuSans-6e" x="617.626953"/>
      <use xlink:href="#DejaVuSans-63" x="681.005859"/>
      <use xlink:href="#DejaVuSans-65" x="735.986328"/>
      <use xlink:href="#DejaVuSans-20" x="797.509766"/>
      <use xlink:href="#DejaVuSans-51" x="829.296875"/>
      <use xlink:href="#DejaVuSans-75" x="908.007812"/>
      <use xlink:href="#DejaVuSans-61" x="971.386719"/>
      <use xlink:href="#DejaVuSans-6c" x="1032.666016"/>
      <use xlink:href="#DejaVuSans-69" x="1060.449219"/>
      <use xlink:href="#DejaVuSans-74" x="1088.232422"/>
      <use xlink:href="#DejaVuSans-79" x="1127.441406"/>
      <use xlink:href="#DejaVuSans-20" x="1186.621094"/>
      <use xlink:href="#DejaVuSans-28" x="1218.408203"/>
      <use xlink:href="#DejaVuSans-50" x="1257.421875"/>
      <use xlink:href="#DejaVuSans-68" x="1317.724609"/>
      <use xlink:href="#DejaVuSans-72" x="1381.103516"/>
      <use xlink:href="#DejaVuSans-65" x="1419.966797"/>
      <use xlink:href="#DejaVuSans-64" x="1481.490234"/>
      <use xlink:href="#DejaVuSans-20" x="1544.966797"/>
      <use xlink:href="#DejaVuSans-53" x="1576.753906"/>
      <use xlink:href="#DejaVuSans-63" x="1640.230469"/>
      <use xlink:href="#DejaVuSans-6f" x="1695.210938"/>
      <use xlink:href="#DejaVuSans-72" x="1756.392578"/>
      <use xlink:href="#DejaVuSans-65" x="1795.255859"/>
      <use xlink:href="#DejaVuSans-29" x="1856.779297"/>
     </g>
    </g>
   </g>
   <g id="matplotlib.axis_2">
    <g id="ytick_1">
     <g id="line2d_1">
      <path d="M 40.600625 353.2239 
L 990.236266 353.2239 
" clip-path="url(#pe443ae61d0)" style="fill: none; stroke: #dedede; stroke-linecap: square"/>
     </g>
     <g id="text_10">
      <!-- 0.0 -->
      <g transform="translate(20.878125 356.263275) scale(0.08 -0.08)">
       <defs>
        <path id="DejaVuSans-2e" d="M 684 794 
L 1344 794 
L 1344 0 
L 684 0 
L 684 794 
z
" transform="scale(0.015625)"/>
       </defs>
       <use xlink:href="#DejaVuSans-30"/>
       <use xlink:href="#DejaVuSans-2e" x="63.623047"/>
       <use xlink:href="#DejaVuSans-30" x="95.410156"/>
      </g>
     </g>
    </g>
    <g id="ytick_2">
     <g id="line2d_2">
      <path d="M 40.600625 292.789528 
L 990.236266 292.789528 
" clip-path="url(#pe443ae61d0)" style="fill: none; stroke: #dedede; stroke-linecap: square"/>
     </g>
     <g id="text_11">
      <!-- 0.5 -->
      <g transform="translate(20.878125 295.828903) scale(0.08 -0.08)">
       <use xlink:href="#DejaVuSans-30"/>
       <use xlink:href="#DejaVuSans-2e" x="63.623047"/>
       <use xlink:href="#DejaVuSans-35" x="95.410156"/>
      </g>
     </g>
    </g>
    <g id="ytick_3">
     <g id="line2d_3">
      <path d="M 40.600625 232.355156 
L 990.236266 232.355156 
" clip-path="url(#pe443ae61d0)" style="fill: none; stroke: #dedede; stroke-linecap: square"/>
     </g>
     <g id="text_12">
      <!-- 1.0 -->
      <g transform="translate(20.878125 235.394531) scale(0.08 -0.08)">
       <use xlink:href="#DejaVuSans-31"/>
       <use xlink:href="#DejaVuSans-2e" x="63.623047"/>
       <use xlink:href="#DejaVuSans-30" x="95.410156"/>
      </g>
     </g>
    </g>
    <g id="ytick_4">
     <g id="line2d_4">
      <path d="M 40.600625 171.920784 
L 990.236266 171.920784 
" clip-path="url(#pe443ae61d0)" style="fill: none; stroke: #dedede; stroke-linecap: square"/>
     </g>
     <g id="text_13">
      <!-- 1.5 -->
      <g transform="translate(20.878125 174.960159) scale(0.08 -0.08)">
       <use xlink:href="#DejaVuSans-31"/>
       <use xlink:href="#DejaVuSans-2e" x="63.623047"/>
       <use xlink:href="#DejaVuSans-35" x="95.410156"/>
      </g>
     </g>
    </g>
    <g id="ytick_5">
     <g id="line2d_5">
      <path d="M 40.600625 111.486412 
L 990.236266 111.486412 
" clip-path="url(#pe443ae61d0)" style="fill: none; stroke: #dedede; stroke-linecap: square"/>
     </g>
     <g id="text_14">
      <!-- 2.0 -->
      <g transform="translate(20.878125 114.525787) scale(0.08 -0.08)">
       <use xlink:href="#DejaVuSans-32"/>
       <use xlink:href="#DejaVuSans-2e" x="63.623047"/>
       <use xlink:href="#DejaVuSans-30" x="95.410156"/>
      </g>
     </g>
    </g>
    <g id="ytick_6">
     <g id="line2d_6">
      <path d="M 40.600625 51.05204 
L 990.236266 51.05204 
" clip-path="url(#pe443ae61d0)" style="fill: none; stroke: #dedede; stroke-linecap: square"/>
     </g>
     <g id="text_15">
      <!-- 2.5 -->
      <g transform="translate(20.878125 54.091415) scale(0.08 -0.08)">
       <use xlink:href="#DejaVuSans-32"/>
       <use xlink:href="#DejaVuSans-2e" x="63.623047"/>
       <use xlink:href="#DejaVuSans-35" x="95.410156"/>
      </g>
     </g>
    </g>
    <g id="text_16">
     <!-- Count -->
     <g transform="translate(14.798438 209.088338) rotate(-90) scale(0.1 -0.1)">
      <defs>
       <path id="DejaVuSans-43" d="M 4122 4306 
L 4122 3641 
Q 3803 3938 3442 4084 
Q 3081 4231 2675 4231 
Q 1875 4231 1450 3742 
Q 1025 3253 1025 2328 
Q 1025 1406 1450 917 
Q 1875 428 2675 428 
Q 3081 428 3442 575 
Q 3803 722 4122 1019 
L 4122 359 
Q 3791 134 3420 21 
Q 3050 -91 2638 -91 
Q 1578 -91 968 557 
Q 359 1206 359 2328 
Q 359 3453 968 4101 
Q 1578 4750 2638 4750 
Q 3056 4750 3426 4639 
Q 3797 4528 4122 4306 
z
" transform="scale(0.015625)"/>
      </defs>
      <use xlink:href="#DejaVuSans-43"/>
      <use xlink:href="#DejaVuSans-6f" x="69.824219"/>
      <use xlink:href="#DejaVuSans-75" x="131.005859"/>
      <use xlink:href="#DejaVuSans-6e" x="194.384766"/>
      <use xlink:href="#DejaVuSans-74" x="257.763672"/>
     </g>
    </g>
    <g id="text_17">
     <!-- 1e7 -->
     <g transform="translate(40.600625 32.2559) scale(0.1 -0.1)">
      <defs>
       <path id="DejaVuSans-37" d="M 525 4666 
L 3525 4666 
L 3525 4397 
L 1831 0 
L 1172 0 
L 2766 4134 
L 525 4134 
L 525 4666 
z
" transform="scale(0.015625)"/>
      </defs>
      <use xlink:href="#DejaVuSans-31"/>
      <use xlink:href="#DejaVuSans-65" x="63.623047"/>
      <use xlink:href="#DejaVuSans-37" x="125.146484"/>
     </g>
    </g>
   </g>
   <g id="line2d_7">
    <path d="M 527.593261 353.223864 
L 554.648408 353.223682 
L 581.703554 353.222305 
L 608.758701 353.21718 
L 635.813847 353.201866 
L 662.868994 353.16077 
L 689.92414 353.075098 
L 716.979287 352.906535 
L 744.034433 352.625249 
L 771.08958 352.160944 
L 798.144726 351.49179 
L 825.199873 350.684254 
L 852.255019 349.50854 
L 879.310166 347.396782 
L 906.365312 338.120867 
L 933.420458 274.339736 
L 960.475605 313.430259 
" clip-path="url(#pe443ae61d0)" style="fill: none; stroke: #5cb85c; stroke-linecap: square"/>
   </g>
   <g id="line2d_8">
    <path d="M 392.317529 353.223864 
L 419.372676 353.223815 
L 446.427822 353.223271 
L 473.482968 353.221543 
L 500.538115 353.216781 
L 527.593261 353.206592 
L 554.648408 353.19187 
L 581.703554 353.161363 
L 608.758701 353.123494 
L 635.813847 353.06445 
L 662.868994 352.988931 
L 689.92414 352.863421 
L 716.979287 352.684245 
L 744.034433 352.42422 
L 771.08958 352.030418 
L 798.144726 351.480888 
L 825.199873 350.749656 
L 852.255019 349.496115 
L 879.310166 346.885338 
L 906.365312 334.289594 
L 933.420458 271.554775 
L 960.475605 321.804578 
" clip-path="url(#pe443ae61d0)" style="fill: none; stroke: #5cb85c; stroke-linecap: square"/>
   </g>
   <g id="line2d_9">
    <path d="M 500.538115 353.223888 
L 527.593261 353.22384 
L 554.648408 353.223537 
L 581.703554 353.221446 
L 608.758701 353.212877 
L 635.813847 353.190141 
L 662.868994 353.141625 
L 689.92414 353.045353 
L 716.979287 352.866963 
L 744.034433 352.564065 
L 771.08958 352.058242 
L 798.144726 351.326817 
L 825.199873 350.429173 
L 852.255019 349.117251 
L 879.310166 346.82419 
L 906.365312 336.998589 
L 933.420458 266.145415 
L 960.475605 306.306388 
" clip-path="url(#pe443ae61d0)" style="fill: none; stroke: #5cb85c; stroke-linecap: square"/>
   </g>
   <g id="line2d_10">
    <path d="M 419.372676 353.223791 
L 446.427822 353.223126 
L 473.482968 353.221301 
L 500.538115 353.21527 
L 527.593261 353.203292 
L 554.648408 353.182877 
L 581.703554 353.150702 
L 608.758701 353.109196 
L 635.813847 353.052073 
L 662.868994 352.981921 
L 689.92414 352.861161 
L 716.979287 352.698544 
L 744.034433 352.43337 
L 771.08958 352.031179 
L 798.144726 351.441159 
L 825.199873 350.687711 
L 852.255019 349.353731 
L 879.310166 346.705219 
L 906.365312 334.205783 
L 933.420458 262.071909 
L 960.475605 313.738184 
" clip-path="url(#pe443ae61d0)" style="fill: none; stroke: #5cb85c; stroke-linecap: square"/>
   </g>
   <g id="line2d_11">
    <path d="M 527.593261 353.223864 
L 554.648408 353.223586 
L 581.703554 353.221797 
L 608.758701 353.216128 
L 635.813847 353.199025 
L 662.868994 353.158728 
L 689.92414 353.068922 
L 716.979287 352.904843 
L 744.034433 352.623448 
L 771.08958 352.16283 
L 798.144726 351.515976 
L 825.199873 350.725446 
L 852.255019 349.578523 
L 879.310166 347.515257 
L 906.365312 338.603302 
L 933.420458 277.068928 
L 960.475605 313.979088 
" clip-path="url(#pe443ae61d0)" style="fill: none; stroke: #5cb85c; stroke-linecap: square"/>
   </g>
   <g id="line2d_12">
    <path d="M 419.372676 353.223755 
L 446.427822 353.223308 
L 473.482968 353.221434 
L 500.538115 353.215947 
L 527.593261 353.20519 
L 554.648408 353.189211 
L 581.703554 353.159114 
L 608.758701 353.117656 
L 635.813847 353.062153 
L 662.868994 352.985692 
L 689.92414 352.860822 
L 716.979287 352.692597 
L 744.034433 352.427677 
L 771.08958 352.049213 
L 798.144726 351.497773 
L 825.199873 350.799346 
L 852.255019 349.586125 
L 879.310166 347.084868 
L 906.365312 335.172951 
L 933.420458 274.109312 
L 960.475605 322.001146 
" clip-path="url(#pe443ae61d0)" style="fill: none; stroke: #5cb85c; stroke-linecap: square"/>
   </g>
   <g id="line2d_13">
    <path d="M 527.593261 353.223864 
L 554.648408 353.223622 
L 581.703554 353.222522 
L 608.758701 353.217591 
L 635.813847 353.203896 
L 662.868994 353.170778 
L 689.92414 353.093736 
L 716.979287 352.955015 
L 744.034433 352.71387 
L 771.08958 352.330898 
L 798.144726 351.757387 
L 825.199873 351.067444 
L 852.255019 350.055894 
L 879.310166 348.224793 
L 906.365312 340.25032 
L 933.420458 286.421776 
L 960.475605 319.628082 
" clip-path="url(#pe443ae61d0)" style="fill: none; stroke: #5cb85c; stroke-linecap: square"/>
   </g>
   <g id="line2d_14">
    <path d="M 392.317529 353.223888 
L 419.372676 353.223755 
L 446.427822 353.223235 
L 473.482968 353.221616 
L 500.538115 353.217252 
L 527.593261 353.208308 
L 554.648408 353.194468 
L 581.703554 353.170694 
L 608.758701 353.136379 
L 635.813847 353.091428 
L 662.868994 353.027114 
L 689.92414 352.922296 
L 716.979287 352.782487 
L 744.034433 352.561938 
L 771.08958 352.228872 
L 798.144726 351.774333 
L 825.199873 351.151376 
L 852.255019 350.101087 
L 879.310166 347.878008 
L 906.365312 337.30713 
L 933.420458 284.007217 
L 960.475605 326.228108 
" clip-path="url(#pe443ae61d0)" style="fill: none; stroke: #5cb85c; stroke-linecap: square"/>
   </g>
   <g id="line2d_15">
    <path d="M 527.593261 353.223864 
L 554.648408 353.223622 
L 581.703554 353.221616 
L 608.758701 353.21388 
L 635.813847 353.193961 
L 662.868994 353.148454 
L 689.92414 353.049341 
L 716.979287 352.87164 
L 744.034433 352.564827 
L 771.08958 352.067331 
L 798.144726 351.340463 
L 825.199873 350.486392 
L 852.255019 349.244768 
L 879.310166 347.024663 
L 906.365312 337.494598 
L 933.420458 269.651262 
L 960.475605 309.010923 
" clip-path="url(#pe443ae61d0)" style="fill: none; stroke: #5cb85c; stroke-linecap: square"/>
   </g>
   <g id="line2d_16">
    <path d="M 365.262383 353.223888 
L 392.317529 353.223864 
L 419.372676 353.223779 
L 446.427822 353.223344 
L 473.482968 353.221229 
L 500.538115 353.216793 
L 527.593261 353.205177 
L 554.648408 353.188715 
L 581.703554 353.155658 
L 608.758701 353.115928 
L 635.813847 353.056908 
L 662.868994 352.979298 
L 689.92414 352.843236 
L 716.979287 352.671723 
L 744.034433 352.398693 
L 771.08958 351.979556 
L 798.144726 351.39906 
L 825.199873 350.643497 
L 852.255019 349.371366 
L 879.310166 346.74594 
L 906.365312 334.187617 
L 933.420458 265.960776 
L 960.475605 317.138959 
" clip-path="url(#pe443ae61d0)" style="fill: none; stroke: #5cb85c; stroke-linecap: square"/>
   </g>
   <g id="line2d_17">
    <path d="M 527.593261 353.223864 
L 554.648408 353.223465 
L 581.703554 353.221724 
L 608.758701 353.214508 
L 635.813847 353.192668 
L 662.868994 353.144961 
L 689.92414 353.033435 
L 716.979287 352.834763 
L 744.034433 352.493599 
L 771.08958 351.935077 
L 798.144726 351.142951 
L 825.199873 350.188318 
L 852.255019 348.798182 
L 879.310166 346.367463 
L 906.365312 335.670302 
L 933.420458 260.590505 
L 960.475605 305.316365 
" clip-path="url(#pe443ae61d0)" style="fill: none; stroke: #5cb85c; stroke-linecap: square"/>
   </g>
   <g id="line2d_18">
    <path d="M 365.262383 353.223864 
L 392.317529 353.223876 
L 419.372676 353.223803 
L 446.427822 353.223078 
L 473.482968 353.220709 
L 500.538115 353.215512 
L 527.593261 353.202385 
L 554.648408 353.184461 
L 581.703554 353.150243 
L 608.758701 353.106017 
L 635.813847 353.036952 
L 662.868994 352.94873 
L 689.92414 352.802346 
L 716.979287 352.593195 
L 744.034433 352.288158 
L 771.08958 351.824119 
L 798.144726 351.165989 
L 825.199873 350.331378 
L 852.255019 348.884071 
L 879.310166 345.923222 
L 906.365312 331.738756 
L 933.420458 256.872752 
L 960.475605 314.551933 
" clip-path="url(#pe443ae61d0)" style="fill: none; stroke: #5cb85c; stroke-linecap: square"/>
   </g>
   <g id="line2d_19">
    <path d="M 500.538115 353.223888 
L 527.593261 353.223852 
L 554.648408 353.223682 
L 581.703554 353.222147 
L 608.758701 353.216152 
L 635.813847 353.197817 
L 662.868994 353.15689 
L 689.92414 353.060751 
L 716.979287 352.892792 
L 744.034433 352.60168 
L 771.08958 352.121565 
L 798.144726 351.437049 
L 825.199873 350.602861 
L 852.255019 349.412848 
L 879.310166 347.304861 
L 906.365312 338.356936 
L 933.420458 273.386493 
L 960.475605 309.578511 
" clip-path="url(#pe443ae61d0)" style="fill: none; stroke: #5cb85c; stroke-linecap: square"/>
   </g>
   <g id="line2d_20">
    <path d="M 392.317529 353.223888 
L 419.372676 353.223791 
L 446.427822 353.223429 
L 473.482968 353.221362 
L 500.538115 353.216829 
L 527.593261 353.206447 
L 554.648408 353.191072 
L 581.703554 353.162728 
L 608.758701 353.123289 
L 635.813847 353.065671 
L 662.868994 352.989632 
L 689.92414 352.858308 
L 716.979287 352.679785 
L 744.034433 352.4102 
L 771.08958 352.008939 
L 798.144726 351.439068 
L 825.199873 350.701841 
L 852.255019 349.470853 
L 879.310166 346.954342 
L 906.365312 334.833878 
L 933.420458 269.212907 
L 960.475605 318.698118 
" clip-path="url(#pe443ae61d0)" style="fill: none; stroke: #5cb85c; stroke-linecap: square"/>
   </g>
   <g id="line2d_21">
    <path d="M 527.593261 353.223852 
L 554.648408 353.223549 
L 581.703554 353.222256 
L 608.758701 353.216587 
L 635.813847 353.198651 
L 662.868994 353.158546 
L 689.92414 353.06561 
L 716.979287 352.901265 
L 744.034433 352.60979 
L 771.08958 352.134873 
L 798.144726 351.48316 
L 825.199873 350.6822 
L 852.255019 349.504732 
L 879.310166 347.427047 
L 906.365312 338.363027 
L 933.420458 274.948262 
L 960.475605 312.656881 
" clip-path="url(#pe443ae61d0)" style="fill: none; stroke: #5cb85c; stroke-linecap: square"/>
   </g>
   <g id="line2d_22">
    <path d="M 392.317529 353.223876 
L 419.372676 353.223803 
L 446.427822 353.223356 
L 473.482968 353.221869 
L 500.538115 353.216406 
L 527.593261 353.206773 
L 554.648408 353.190927 
L 581.703554 353.16123 
L 608.758701 353.122382 
L 635.813847 353.065127 
L 662.868994 352.985656 
L 689.92414 352.857752 
L 716.979287 352.681477 
L 744.034433 352.417887 
L 771.08958 352.029983 
L 798.144726 351.47169 
L 825.199873 350.75848 
L 852.255019 349.540425 
L 879.310166 347.017749 
L 906.365312 334.935553 
L 933.420458 271.874896 
L 960.475605 320.712492 
" clip-path="url(#pe443ae61d0)" style="fill: none; stroke: #5cb85c; stroke-linecap: square"/>
   </g>
   <g id="line2d_23">
    <path d="M 527.593261 353.223876 
L 554.648408 353.223646 
L 581.703554 353.222619 
L 608.758701 353.219017 
L 635.813847 353.206519 
L 662.868994 353.176084 
L 689.92414 353.106947 
L 716.979287 352.983299 
L 744.034433 352.757697 
L 771.08958 352.397762 
L 798.144726 351.88488 
L 825.199873 351.246403 
L 852.255019 350.30521 
L 879.310166 348.641149 
L 906.365312 341.602407 
L 933.420458 293.505276 
L 960.475605 321.579024 
" clip-path="url(#pe443ae61d0)" style="fill: none; stroke: #5cb85c; stroke-linecap: square"/>
   </g>
   <g id="line2d_24">
    <path d="M 419.372676 353.223803 
L 446.427822 353.22338 
L 473.482968 353.221712 
L 500.538115 353.218086 
L 527.593261 353.209299 
L 554.648408 353.196427 
L 581.703554 353.172253 
L 608.758701 353.142604 
L 635.813847 353.096722 
L 662.868994 353.037363 
L 689.92414 352.936728 
L 716.979287 352.800122 
L 744.034433 352.590475 
L 771.08958 352.278416 
L 798.144726 351.839578 
L 825.199873 351.269235 
L 852.255019 350.317514 
L 879.310166 348.289857 
L 906.365312 338.832844 
L 933.420458 291.137772 
L 960.475605 328.143225 
" clip-path="url(#pe443ae61d0)" style="fill: none; stroke: #5cb85c; stroke-linecap: square"/>
   </g>
   <g id="line2d_25">
    <path d="M 527.593261 353.223888 
L 554.648408 353.22367 
L 581.703554 353.222437 
L 608.758701 353.218437 
L 635.813847 353.205455 
L 662.868994 353.177728 
L 689.92414 353.120461 
L 716.979287 353.016852 
L 744.034433 352.83428 
L 771.08958 352.529666 
L 798.144726 352.088169 
L 825.199873 351.549868 
L 852.255019 350.730583 
L 879.310166 349.283482 
L 906.365312 343.121799 
L 933.420458 300.966371 
L 960.475605 325.597596 
" clip-path="url(#pe443ae61d0)" style="fill: none; stroke: #5cb85c; stroke-linecap: square"/>
   </g>
   <g id="line2d_26">
    <path d="M 392.317529 353.223852 
L 419.372676 353.223815 
L 446.427822 353.223296 
L 473.482968 353.222002 
L 500.538115 353.218425 
L 527.593261 353.210689 
L 554.648408 353.199327 
L 581.703554 353.177462 
L 608.758701 353.150496 
L 635.813847 353.113462 
L 662.868994 353.068753 
L 689.92414 352.999616 
L 716.979287 352.889565 
L 744.034433 352.730973 
L 771.08958 352.48816 
L 798.144726 352.126037 
L 825.199873 351.658251 
L 852.255019 350.833962 
L 879.310166 349.141522 
L 906.365312 341.240453 
L 933.420458 298.827043 
L 960.475605 330.263081 
" clip-path="url(#pe443ae61d0)" style="fill: none; stroke: #5cb85c; stroke-linecap: square"/>
   </g>
   <g id="line2d_27">
    <path d="M 500.538115 353.223888 
L 527.593261 353.223876 
L 554.648408 353.223537 
L 581.703554 353.222039 
L 608.758701 353.216213 
L 635.813847 353.198989 
L 662.868994 353.162051 
L 689.92414 353.073817 
L 716.979287 352.912361 
L 744.034433 352.633468 
L 771.08958 352.177576 
L 798.144726 351.516085 
L 825.199873 350.688328 
L 852.255019 349.466816 
L 879.310166 347.288955 
L 906.365312 337.871769 
L 933.420458 275.762035 
L 960.475605 313.396186 
" clip-path="url(#pe443ae61d0)" style="fill: none; stroke: #5cb85c; stroke-linecap: square"/>
   </g>
   <g id="line2d_28">
    <path d="M 392.317529 353.223888 
L 419.372676 353.223731 
L 446.427822 353.223211 
L 473.482968 353.22118 
L 500.538115 353.215137 
L 527.593261 353.204561 
L 554.648408 353.187772 
L 581.703554 353.154606 
L 608.758701 353.114006 
L 635.813847 353.049595 
L 662.868994 352.973943 
L 689.92414 352.846959 
L 716.979287 352.673633 
L 744.034433 352.41136 
L 771.08958 352.016736 
L 798.144726 351.454394 
L 825.199873 350.713795 
L 852.255019 349.433251 
L 879.310166 346.714429 
L 906.365312 334.120015 
L 933.420458 273.002299 
L 960.475605 321.975087 
" clip-path="url(#pe443ae61d0)" style="fill: none; stroke: #5cb85c; stroke-linecap: square"/>
   </g>
   <g id="line2d_29">
    <path d="M 527.593261 353.223864 
L 554.648408 353.223695 
L 581.703554 353.222897 
L 608.758701 353.219198 
L 635.813847 353.208513 
L 662.868994 353.18081 
L 689.92414 353.121802 
L 716.979287 353.008367 
L 744.034433 352.803893 
L 771.08958 352.470017 
L 798.144726 351.987256 
L 825.199873 351.389934 
L 852.255019 350.502311 
L 879.310166 348.91447 
L 906.365312 342.094705 
L 933.420458 296.823776 
L 960.475605 324.620058 
" clip-path="url(#pe443ae61d0)" style="fill: none; stroke: #5cb85c; stroke-linecap: square"/>
   </g>
   <g id="line2d_30">
    <path d="M 392.317529 353.223852 
L 419.372676 353.223731 
L 446.427822 353.223441 
L 473.482968 353.222184 
L 500.538115 353.218207 
L 527.593261 353.210073 
L 554.648408 353.199593 
L 581.703554 353.178876 
L 608.758701 353.150376 
L 635.813847 353.111649 
L 662.868994 353.058261 
L 689.92414 352.967574 
L 716.979287 352.850863 
L 744.034433 352.666417 
L 771.08958 352.37377 
L 798.144726 351.973706 
L 825.199873 351.435756 
L 852.255019 350.522592 
L 879.310166 348.59974 
L 906.365312 339.592637 
L 933.420458 294.819156 
L 960.475605 330.312613 
" clip-path="url(#pe443ae61d0)" style="fill: none; stroke: #5cb85c; stroke-linecap: square"/>
   </g>
   <g id="line2d_31">
    <path d="M 527.593261 353.223876 
L 554.648408 353.223646 
L 581.703554 353.222631 
L 608.758701 353.218195 
L 635.813847 353.205818 
L 662.868994 353.179009 
L 689.92414 353.122334 
L 716.979287 353.022376 
L 744.034433 352.848482 
L 771.08958 352.556632 
L 798.144726 352.133724 
L 825.199873 351.609565 
L 852.255019 350.824595 
L 879.310166 349.366785 
L 906.365312 343.500723 
L 933.420458 304.298589 
L 960.475605 327.273659 
" clip-path="url(#pe443ae61d0)" style="fill: none; stroke: #5cb85c; stroke-linecap: square"/>
   </g>
   <g id="line2d_32">
    <path d="M 392.317529 353.223876 
L 419.372676 353.223731 
L 446.427822 353.223622 
L 473.482968 353.221966 
L 500.538115 353.217736 
L 527.593261 353.210484 
L 554.648408 353.198264 
L 581.703554 353.17774 
L 608.758701 353.151149 
L 635.813847 353.113486 
L 662.868994 353.069224 
L 689.92414 352.989741 
L 716.979287 352.887232 
L 744.034433 352.717956 
L 771.08958 352.470537 
L 798.144726 352.112754 
L 825.199873 351.648158 
L 852.255019 350.851827 
L 879.310166 349.127199 
L 906.365312 341.28741 
L 933.420458 302.443556 
L 960.475605 332.38249 
" clip-path="url(#pe443ae61d0)" style="fill: none; stroke: #5cb85c; stroke-linecap: square"/>
   </g>
   <g id="line2d_33">
    <path d="M 500.538115 353.223888 
L 527.593261 353.223876 
L 554.648408 353.223767 
L 581.703554 353.222643 
L 608.758701 353.218098 
L 635.813847 353.206108 
L 662.868994 353.177897 
L 689.92414 353.115275 
L 716.979287 352.99964 
L 744.034433 352.792 
L 771.08958 352.458088 
L 798.144726 351.973827 
L 825.199873 351.395373 
L 852.255019 350.528503 
L 879.310166 349.006342 
L 906.365312 342.582386 
L 933.420458 298.293842 
L 960.475605 324.01679 
" clip-path="url(#pe443ae61d0)" style="fill: none; stroke: #5cb85c; stroke-linecap: square"/>
   </g>
   <g id="line2d_34">
    <path d="M 419.372676 353.223852 
L 446.427822 353.223477 
L 473.482968 353.222292 
L 500.538115 353.218715 
L 527.593261 353.210496 
L 554.648408 353.20056 
L 581.703554 353.178828 
L 608.758701 353.15301 
L 635.813847 353.110283 
L 662.868994 353.055071 
L 689.92414 352.969302 
L 716.979287 352.84239 
L 744.034433 352.655358 
L 771.08958 352.376453 
L 798.144726 351.976595 
L 825.199873 351.449003 
L 852.255019 350.567036 
L 879.310166 348.733058 
L 906.365312 340.187626 
L 933.420458 296.00402 
L 960.475605 329.77262 
" clip-path="url(#pe443ae61d0)" style="fill: none; stroke: #5cb85c; stroke-linecap: square"/>
   </g>
   <g id="line2d_35">
    <path d="M 500.538115 353.223876 
L 527.593261 353.223803 
L 554.648408 353.223622 
L 581.703554 353.222268 
L 608.758701 353.217458 
L 635.813847 353.202663 
L 662.868994 353.168578 
L 689.92414 353.090691 
L 716.979287 352.94977 
L 744.034433 352.711151 
L 771.08958 352.305914 
L 798.144726 351.724753 
L 825.199873 351.012679 
L 852.255019 349.981233 
L 879.310166 348.175648 
L 906.365312 340.588632 
L 933.420458 286.280238 
L 960.475605 315.662076 
" clip-path="url(#pe443ae61d0)" style="fill: none; stroke: #5cb85c; stroke-linecap: square"/>
   </g>
   <g id="line2d_36">
    <path d="M 392.317529 353.223888 
L 419.372676 353.223864 
L 446.427822 353.223296 
L 473.482968 353.221906 
L 500.538115 353.218086 
L 527.593261 353.20855 
L 554.648408 353.194311 
L 581.703554 353.169243 
L 608.758701 353.135376 
L 635.813847 353.086605 
L 662.868994 353.017903 
L 689.92414 352.909097 
L 716.979287 352.75858 
L 744.034433 352.534731 
L 771.08958 352.18212 
L 798.144726 351.697715 
L 825.199873 351.053847 
L 852.255019 349.997671 
L 879.310166 347.817369 
L 906.365312 337.499662 
L 933.420458 282.778284 
L 960.475605 323.70855 
" clip-path="url(#pe443ae61d0)" style="fill: none; stroke: #5cb85c; stroke-linecap: square"/>
   </g>
   <g id="line2d_37">
    <path d="M 527.593261 353.223852 
L 554.648408 353.223815 
L 581.703554 353.223006 
L 608.758701 353.219887 
L 635.813847 353.211414 
L 662.868994 353.19054 
L 689.92414 353.145384 
L 716.979287 353.058515 
L 744.034433 352.90645 
L 771.08958 352.658331 
L 798.144726 352.301357 
L 825.199873 351.873712 
L 852.255019 351.227112 
L 879.310166 350.098718 
L 906.365312 345.234754 
L 933.420458 311.937784 
L 960.475605 331.894048 
" clip-path="url(#pe443ae61d0)" style="fill: none; stroke: #5cb85c; stroke-linecap: square"/>
   </g>
   <g id="line2d_38">
    <path d="M 419.372676 353.223815 
L 446.427822 353.223634 
L 473.482968 353.222619 
L 500.538115 353.21973 
L 527.593261 353.214303 
L 554.648408 353.206954 
L 581.703554 353.191592 
L 608.758701 353.17212 
L 635.813847 353.140924 
L 662.868994 353.098728 
L 689.92414 353.03074 
L 716.979287 352.933452 
L 744.034433 352.793366 
L 771.08958 352.580322 
L 798.144726 352.281172 
L 825.199873 351.895734 
L 852.255019 351.241217 
L 879.310166 349.868692 
L 906.365312 343.396473 
L 933.420458 310.420555 
L 960.475605 336.168136 
" clip-path="url(#pe443ae61d0)" style="fill: none; stroke: #5cb85c; stroke-linecap: square"/>
   </g>
   <g id="line2d_39">
    <path d="M 392.317529 353.223815 
L 419.372676 353.223489 
L 446.427822 353.222014 
L 473.482968 353.215681 
L 500.538115 353.199871 
L 527.593261 353.162753 
L 554.648408 353.108313 
L 581.703554 353.014845 
L 608.758701 352.894786 
L 635.813847 352.706836 
L 662.868994 352.439051 
L 689.92414 351.94477 
L 716.979287 351.200847 
L 744.034433 349.977523 
L 771.08958 348.102957 
L 798.144726 345.5494 
L 825.199873 342.642688 
L 852.255019 338.450536 
L 879.310166 330.048986 
L 906.365312 289.116677 
L 933.420458 58.539182 
L 960.475605 226.724908 
" clip-path="url(#pe443ae61d0)" style="fill: none; stroke: #5cb85c; stroke-linecap: square"/>
   </g>
   <g id="line2d_40">
    <path d="M 392.317529 353.223791 
L 419.372676 353.223465 
L 446.427822 353.22164 
L 473.482968 353.213662 
L 500.538115 353.194372 
L 527.593261 353.148007 
L 554.648408 353.080513 
L 581.703554 352.962751 
L 608.758701 352.811411 
L 635.813847 352.589653 
L 662.868994 352.288884 
L 689.92414 351.76725 
L 716.979287 351.0179 
L 744.034433 349.814289 
L 771.08958 348.017769 
L 798.144726 345.546632 
L 825.199873 342.725531 
L 852.255019 338.508686 
L 879.310166 329.722496 
L 906.365312 285.981729 
L 933.420458 54.835268 
L 960.475605 234.814231 
" clip-path="url(#pe443ae61d0)" style="fill: none; stroke: #5cb85c; stroke-linecap: square"/>
   </g>
   <g id="line2d_41">
    <path d="M 527.593261 353.223827 
L 554.648408 353.22309 
L 581.703554 353.218969 
L 608.758701 353.203328 
L 635.813847 353.151197 
L 662.868994 353.02628 
L 689.92414 352.742492 
L 716.979287 352.192479 
L 744.034433 351.235307 
L 771.08958 349.617793 
L 798.144726 347.252331 
L 825.199873 344.337872 
L 852.255019 339.98181 
L 879.310166 332.346411 
L 906.365312 299.05575 
L 933.420458 63.634283 
L 960.475605 202.338032 
" clip-path="url(#pe443ae61d0)" style="fill: none; stroke: #5cb85c; stroke-linecap: square"/>
   </g>
   <g id="line2d_42">
    <path d="M 392.317529 353.223815 
L 419.372676 353.223308 
L 446.427822 353.221519 
L 473.482968 353.215197 
L 500.538115 353.19888 
L 527.593261 353.165472 
L 554.648408 353.116242 
L 581.703554 353.020998 
L 608.758701 352.901156 
L 635.813847 352.714015 
L 662.868994 352.461134 
L 689.92414 352.041006 
L 716.979287 351.446719 
L 744.034433 350.532346 
L 771.08958 349.142719 
L 798.144726 347.160519 
L 825.199873 344.558312 
L 852.255019 340.121644 
L 879.310166 330.816757 
L 906.365312 286.029545 
L 933.420458 50.397233 
L 960.475605 234.192216 
" clip-path="url(#pe443ae61d0)" style="fill: none; stroke: #5cb85c; stroke-linecap: square"/>
   </g>
   <g id="line2d_43">
    <path d="M 473.482968 353.223888 
L 500.538115 353.2239 
L 527.593261 353.223852 
L 554.648408 353.223417 
L 581.703554 353.221628 
L 608.758701 353.21417 
L 635.813847 353.192087 
L 662.868994 353.142011 
L 689.92414 353.034438 
L 716.979287 352.82849 
L 744.034433 352.480315 
L 771.08958 351.91552 
L 798.144726 351.092912 
L 825.199873 350.107046 
L 852.255019 348.686149 
L 879.310166 346.195189 
L 906.365312 335.475135 
L 933.420458 260.861191 
L 960.475605 307.399223 
" clip-path="url(#pe443ae61d0)" style="fill: none; stroke: #5cb85c; stroke-linecap: square"/>
   </g>
   <g id="line2d_44">
    <path d="M 365.262383 353.223888 
L 392.317529 353.22384 
L 419.372676 353.22384 
L 446.427822 353.223296 
L 473.482968 353.221277 
L 500.538115 353.216442 
L 527.593261 353.205407 
L 554.648408 353.189199 
L 581.703554 353.15457 
L 608.758701 353.107407 
L 635.813847 353.038499 
L 662.868994 352.951619 
L 689.92414 352.797185 
L 716.979287 352.58257 
L 744.034433 352.26251 
L 771.08958 351.780981 
L 798.144726 351.097517 
L 825.199873 350.229002 
L 852.255019 348.788186 
L 879.310166 345.862728 
L 906.365312 331.873331 
L 933.420458 257.230572 
L 960.475605 316.152296 
" clip-path="url(#pe443ae61d0)" style="fill: none; stroke: #5cb85c; stroke-linecap: square"/>
   </g>
   <g id="line2d_45">
    <path d="M 527.593261 353.223864 
L 554.648408 353.223586 
L 581.703554 353.221749 
L 608.758701 353.215729 
L 635.813847 353.195532 
L 662.868994 353.149251 
L 689.92414 353.041146 
L 716.979287 352.845218 
L 744.034433 352.492765 
L 771.08958 351.931003 
L 798.144726 351.117122 
L 825.199873 350.149616 
L 852.255019 348.72218 
L 879.310166 346.291014 
L 906.365312 335.627478 
L 933.420458 261.617443 
L 960.475605 308.174318 
" clip-path="url(#pe443ae61d0)" style="fill: none; stroke: #5cb85c; stroke-linecap: square"/>
   </g>
   <g id="line2d_46">
    <path d="M 392.317529 353.223888 
L 419.372676 353.223731 
L 446.427822 353.223223 
L 473.482968 353.221338 
L 500.538115 353.217107 
L 527.593261 353.206507 
L 554.648408 353.189295 
L 581.703554 353.157833 
L 608.758701 353.116061 
L 635.813847 353.046163 
L 662.868994 352.957614 
L 689.92414 352.806576 
L 716.979287 352.595987 
L 744.034433 352.274283 
L 771.08958 351.796887 
L 798.144726 351.100961 
L 825.199873 350.231395 
L 852.255019 348.769935 
L 879.310166 345.827373 
L 906.365312 331.754541 
L 933.420458 258.112273 
L 960.475605 317.305541 
" clip-path="url(#pe443ae61d0)" style="fill: none; stroke: #5cb85c; stroke-linecap: square"/>
   </g>
   <g id="line2d_47">
    <path d="M 527.593261 353.223803 
L 554.648408 353.223525 
L 581.703554 353.221241 
L 608.758701 353.211934 
L 635.813847 353.186975 
L 662.868994 353.141721 
L 689.92414 353.047637 
L 716.979287 352.881455 
L 744.034433 352.591853 
L 771.08958 352.098963 
L 798.144726 351.386562 
L 825.199873 350.531428 
L 852.255019 349.253749 
L 879.310166 347.110528 
L 906.365312 337.714627 
L 933.420458 270.918244 
L 960.475605 311.858639 
" clip-path="url(#pe443ae61d0)" style="fill: none; stroke: #5cb85c; stroke-linecap: square"/>
   </g>
   <g id="line2d_48">
    <path d="M 392.317529 353.223888 
L 419.372676 353.223827 
L 446.427822 353.223368 
L 473.482968 353.221664 
L 500.538115 353.21724 
L 527.593261 353.205407 
L 554.648408 353.189138 
L 581.703554 353.15903 
L 608.758701 353.1215 
L 635.813847 353.067145 
L 662.868994 353.000921 
L 689.92414 352.888405 
L 716.979287 352.729656 
L 744.034433 352.467346 
L 771.08958 352.071259 
L 798.144726 351.501339 
L 825.199873 350.749016 
L 852.255019 349.475095 
L 879.310166 346.973548 
L 906.365312 335.043464 
L 933.420458 267.314047 
L 960.475605 318.65608 
" clip-path="url(#pe443ae61d0)" style="fill: none; stroke: #5cb85c; stroke-linecap: square"/>
   </g>
   <g id="line2d_49">
    <path d="M 527.593261 353.223852 
L 554.648408 353.223622 
L 581.703554 353.222087 
L 608.758701 353.215572 
L 635.813847 353.198179 
L 662.868994 353.160347 
L 689.92414 353.072657 
L 716.979287 352.919154 
L 744.034433 352.658174 
L 771.08958 352.223312 
L 798.144726 351.58098 
L 825.199873 350.808386 
L 852.255019 349.703102 
L 879.310166 347.806128 
L 906.365312 339.540676 
L 933.420458 278.990064 
L 960.475605 312.662078 
" clip-path="url(#pe443ae61d0)" style="fill: none; stroke: #5cb85c; stroke-linecap: square"/>
   </g>
   <g id="line2d_50">
    <path d="M 419.372676 353.223815 
L 446.427822 353.223356 
L 473.482968 353.222196 
L 500.538115 353.218159 
L 527.593261 353.209915 
L 554.648408 353.194275 
L 581.703554 353.166935 
L 608.758701 353.134203 
L 635.813847 353.082411 
L 662.868994 353.01464 
L 689.92414 352.90054 
L 716.979287 352.743821 
L 744.034433 352.498615 
L 771.08958 352.122435 
L 798.144726 351.608223 
L 825.199873 350.915682 
L 852.255019 349.79518 
L 879.310166 347.478791 
L 906.365312 336.269569 
L 933.420458 275.184258 
L 960.475605 320.89695 
" clip-path="url(#pe443ae61d0)" style="fill: none; stroke: #5cb85c; stroke-linecap: square"/>
   </g>
   <g id="line2d_51">
    <path d="M 527.593261 353.223864 
L 554.648408 353.223477 
L 581.703554 353.222063 
L 608.758701 353.216068 
L 635.813847 353.197115 
L 662.868994 353.155295 
L 689.92414 353.062576 
L 716.979287 352.894883 
L 744.034433 352.603034 
L 771.08958 352.120574 
L 798.144726 351.421517 
L 825.199873 350.580452 
L 852.255019 349.35465 
L 879.310166 347.242529 
L 906.365312 337.938549 
L 933.420458 271.159256 
L 960.475605 310.181126 
" clip-path="url(#pe443ae61d0)" style="fill: none; stroke: #5cb85c; stroke-linecap: square"/>
   </g>
   <g id="line2d_52">
    <path d="M 392.317529 353.223876 
L 419.372676 353.223767 
L 446.427822 353.223513 
L 473.482968 353.22193 
L 500.538115 353.218026 
L 527.593261 353.208223 
L 554.648408 353.192172 
L 581.703554 353.163949 
L 608.758701 353.129284 
L 635.813847 353.071847 
L 662.868994 352.999858 
L 689.92414 352.873961 
L 716.979287 352.700405 
L 744.034433 352.435497 
L 771.08958 352.02678 
L 798.144726 351.439261 
L 825.199873 350.690032 
L 852.255019 349.413368 
L 879.310166 346.820733 
L 906.365312 334.099612 
L 933.420458 267.307024 
L 960.475605 319.233409 
" clip-path="url(#pe443ae61d0)" style="fill: none; stroke: #5cb85c; stroke-linecap: square"/>
   </g>
   <g id="line2d_53">
    <path d="M 527.593261 353.223803 
L 554.648408 353.223199 
L 581.703554 353.220528 
L 608.758701 353.209214 
L 635.813847 353.183034 
L 662.868994 353.129284 
L 689.92414 353.026691 
L 716.979287 352.843877 
L 744.034433 352.5243 
L 771.08958 351.985527 
L 798.144726 351.200388 
L 825.199873 350.234163 
L 852.255019 348.8196 
L 879.310166 346.407108 
L 906.365312 335.831492 
L 933.420458 257.938681 
L 960.475605 301.925416 
" clip-path="url(#pe443ae61d0)" style="fill: none; stroke: #5cb85c; stroke-linecap: square"/>
   </g>
   <g id="line2d_54">
    <path d="M 392.317529 353.223888 
L 419.372676 353.223803 
L 446.427822 353.223259 
L 473.482968 353.221386 
L 500.538115 353.215935 
L 527.593261 353.203256 
L 554.648408 353.183397 
L 581.703554 353.146834 
L 608.758701 353.103636 
L 635.813847 353.048459 
L 662.868994 352.982573 
L 689.92414 352.864243 
L 716.979287 352.693721 
L 744.034433 352.419591 
L 771.08958 351.992525 
L 798.144726 351.357034 
L 825.199873 350.517927 
L 852.255019 349.119814 
L 879.310166 346.268581 
L 906.365312 332.523931 
L 933.420458 253.00876 
L 960.475605 310.503253 
" clip-path="url(#pe443ae61d0)" style="fill: none; stroke: #5cb85c; stroke-linecap: square"/>
   </g>
   <g id="line2d_55">
    <path d="M 527.593261 353.223876 
L 554.648408 353.223441 
L 581.703554 353.220854 
L 608.758701 353.211257 
L 635.813847 353.186225 
L 662.868994 353.135339 
L 689.92414 353.019583 
L 716.979287 352.810916 
L 744.034433 352.449772 
L 771.08958 351.859896 
L 798.144726 351.007844 
L 825.199873 349.989283 
L 852.255019 348.493194 
L 879.310166 345.917517 
L 906.365312 334.755095 
L 933.420458 257.073092 
L 960.475605 306.120903 
" clip-path="url(#pe443ae61d0)" style="fill: none; stroke: #5cb85c; stroke-linecap: square"/>
   </g>
   <g id="line2d_56">
    <path d="M 392.317529 353.223876 
L 419.372676 353.223815 
L 446.427822 353.223223 
L 473.482968 353.221688 
L 500.538115 353.216056 
L 527.593261 353.20392 
L 554.648408 353.184811 
L 581.703554 353.150678 
L 608.758701 353.105171 
L 635.813847 353.03769 
L 662.868994 352.950302 
L 689.92414 352.798889 
L 716.979287 352.586571 
L 744.034433 352.269508 
L 771.08958 351.777814 
L 798.144726 351.065039 
L 825.199873 350.175651 
L 852.255019 348.655122 
L 879.310166 345.653661 
L 906.365312 331.192489 
L 933.420458 253.103883 
L 960.475605 314.797732 
" clip-path="url(#pe443ae61d0)" style="fill: none; stroke: #5cb85c; stroke-linecap: square"/>
   </g>
   <g id="line2d_57">
    <path d="M 500.538115 353.223888 
L 527.593261 353.223827 
L 554.648408 353.223417 
L 581.703554 353.221712 
L 608.758701 353.214799 
L 635.813847 353.19471 
L 662.868994 353.149928 
L 689.92414 353.047553 
L 716.979287 352.861971 
L 744.034433 352.539142 
L 771.08958 352.005301 
L 798.144726 351.238873 
L 825.199873 350.326072 
L 852.255019 348.98432 
L 879.310166 346.680562 
L 906.365312 336.624584 
L 933.420458 267.890047 
L 960.475605 312.83237 
" clip-path="url(#pe443ae61d0)" style="fill: none; stroke: #5cb85c; stroke-linecap: square"/>
   </g>
   <g id="line2d_58">
    <path d="M 392.317529 353.223888 
L 419.372676 353.223815 
L 446.427822 353.223284 
L 473.482968 353.221761 
L 500.538115 353.217095 
L 527.593261 353.207148 
L 554.648408 353.191846 
L 581.703554 353.16216 
L 608.758701 353.120871 
L 635.813847 353.062637 
L 662.868994 352.985692 
L 689.92414 352.851757 
L 716.979287 352.662066 
L 744.034433 352.375692 
L 771.08958 351.927087 
L 798.144726 351.29689 
L 825.199873 350.48615 
L 852.255019 349.121337 
L 879.310166 346.427124 
L 906.365312 333.393159 
L 933.420458 264.739809 
L 960.475605 320.257409 
" clip-path="url(#pe443ae61d0)" style="fill: none; stroke: #5cb85c; stroke-linecap: square"/>
   </g>
   <g id="line2d_59">
    <path d="M 527.593261 353.223876 
L 554.648408 353.223707 
L 581.703554 353.222486 
L 608.758701 353.21724 
L 635.813847 353.201467 
L 662.868994 353.166101 
L 689.92414 353.086799 
L 716.979287 352.937997 
L 744.034433 352.684003 
L 771.08958 352.260371 
L 798.144726 351.639939 
L 825.199873 350.910835 
L 852.255019 349.820152 
L 879.310166 347.985497 
L 906.365312 339.90298 
L 933.420458 284.050295 
L 960.475605 319.922663 
" clip-path="url(#pe443ae61d0)" style="fill: none; stroke: #5cb85c; stroke-linecap: square"/>
   </g>
   <g id="line2d_60">
    <path d="M 392.317529 353.223876 
L 419.372676 353.223767 
L 446.427822 353.223513 
L 473.482968 353.222268 
L 500.538115 353.219186 
L 527.593261 353.21162 
L 554.648408 353.199835 
L 581.703554 353.178514 
L 608.758701 353.146012 
L 635.813847 353.097072 
L 662.868994 353.034329 
L 689.92414 352.92475 
L 716.979287 352.77179 
L 744.034433 352.541378 
L 771.08958 352.177636 
L 798.144726 351.661007 
L 825.199873 351.007759 
L 852.255019 349.914103 
L 879.310166 347.716129 
L 906.365312 337.089156 
L 933.420458 281.070058 
L 960.475605 326.722147 
" clip-path="url(#pe443ae61d0)" style="fill: none; stroke: #5cb85c; stroke-linecap: square"/>
   </g>
   <g id="line2d_61">
    <path d="M 500.538115 353.223888 
L 527.593261 353.223803 
L 554.648408 353.223417 
L 581.703554 353.220975 
L 608.758701 353.211922 
L 635.813847 353.186503 
L 662.868994 353.134058 
L 689.92414 353.030667 
L 716.979287 352.847817 
L 744.034433 352.52598 
L 771.08958 351.991764 
L 798.144726 351.227451 
L 825.199873 350.284167 
L 852.255019 348.935211 
L 879.310166 346.582416 
L 906.365312 336.491097 
L 933.420458 262.41908 
L 960.475605 304.010148 
" clip-path="url(#pe443ae61d0)" style="fill: none; stroke: #5cb85c; stroke-linecap: square"/>
   </g>
   <g id="line2d_62">
    <path d="M 392.317529 353.223888 
L 419.372676 353.223803 
L 446.427822 353.22338 
L 473.482968 353.221313 
L 500.538115 353.216346 
L 527.593261 353.204924 
L 554.648408 353.185234 
L 581.703554 353.15156 
L 608.758701 353.1087 
L 635.813847 353.047323 
L 662.868994 352.971236 
L 689.92414 352.841906 
L 716.979287 352.666925 
L 744.034433 352.372053 
L 771.08958 351.935064 
L 798.144726 351.305508 
L 825.199873 350.484857 
L 852.255019 349.093332 
L 879.310166 346.28902 
L 906.365312 332.714722 
L 933.420458 257.6496 
L 960.475605 313.53527 
" clip-path="url(#pe443ae61d0)" style="fill: none; stroke: #5cb85c; stroke-linecap: square"/>
   </g>
   <g id="line2d_63">
    <path d="M 500.538115 353.223888 
L 527.593261 353.223852 
L 554.648408 353.22338 
L 581.703554 353.220769 
L 608.758701 353.212695 
L 635.813847 353.188026 
L 662.868994 353.136717 
L 689.92414 353.026944 
L 716.979287 352.829602 
L 744.034433 352.481935 
L 771.08958 351.908993 
L 798.144726 351.088282 
L 825.199873 350.08952 
L 852.255019 348.644292 
L 879.310166 346.161563 
L 906.365312 335.235706 
L 933.420458 256.500899 
L 960.475605 301.709218 
" clip-path="url(#pe443ae61d0)" style="fill: none; stroke: #5cb85c; stroke-linecap: square"/>
   </g>
   <g id="line2d_64">
    <path d="M 419.372676 353.223815 
L 446.427822 353.223368 
L 473.482968 353.221495 
L 500.538115 353.216382 
L 527.593261 353.20415 
L 554.648408 353.184013 
L 581.703554 353.150605 
L 608.758701 353.106416 
L 635.813847 353.040445 
L 662.868994 352.956647 
L 689.92414 352.814892 
L 716.979287 352.61871 
L 744.034433 352.310797 
L 771.08958 351.833728 
L 798.144726 351.146589 
L 825.199873 350.275138 
L 852.255019 348.779375 
L 879.310166 345.734981 
L 906.365312 331.005481 
L 933.420458 251.767994 
L 960.475605 311.962961 
" clip-path="url(#pe443ae61d0)" style="fill: none; stroke: #5cb85c; stroke-linecap: square"/>
   </g>
   <g id="line2d_65">
    <path d="M 527.593261 353.223864 
L 554.648408 353.223489 
L 581.703554 353.221519 
L 608.758701 353.213397 
L 635.813847 353.192752 
L 662.868994 353.145178 
L 689.92414 353.040772 
L 716.979287 352.848941 
L 744.034433 352.52436 
L 771.08958 351.98653 
L 798.144726 351.183527 
L 825.199873 350.234115 
L 852.255019 348.874281 
L 879.310166 346.470311 
L 906.365312 336.190774 
L 933.420458 260.520692 
L 960.475605 302.816835 
" clip-path="url(#pe443ae61d0)" style="fill: none; stroke: #5cb85c; stroke-linecap: square"/>
   </g>
   <g id="line2d_66">
    <path d="M 392.317529 353.223888 
L 419.372676 353.223803 
L 446.427822 353.22332 
L 473.482968 353.221507 
L 500.538115 353.216781 
L 527.593261 353.205661 
L 554.648408 353.188691 
L 581.703554 353.157446 
L 608.758701 353.115976 
L 635.813847 353.055264 
L 662.868994 352.971284 
L 689.92414 352.836383 
L 716.979287 352.642908 
L 744.034433 352.351868 
L 771.08958 351.890827 
L 798.144726 351.235682 
L 825.199873 350.387908 
L 852.255019 348.974989 
L 879.310166 346.074538 
L 906.365312 331.952875 
L 933.420458 255.213514 
L 960.475605 313.665724 
" clip-path="url(#pe443ae61d0)" style="fill: none; stroke: #5cb85c; stroke-linecap: square"/>
   </g>
   <g id="line2d_67">
    <path d="M 527.593261 353.223767 
L 554.648408 353.223006 
L 581.703554 353.219198 
L 608.758701 353.203389 
L 635.813847 353.159598 
L 662.868994 353.057234 
L 689.92414 352.82982 
L 716.979287 352.413112 
L 744.034433 351.688396 
L 771.08958 350.482391 
L 798.144726 348.775169 
L 825.199873 346.695501 
L 852.255019 343.692094 
L 879.310166 338.501688 
L 906.365312 315.881937 
L 933.420458 159.210094 
L 960.475605 258.333451 
" clip-path="url(#pe443ae61d0)" style="fill: none; stroke: #5cb85c; stroke-linecap: square"/>
   </g>
   <g id="line2d_68">
    <path d="M 392.317529 353.223864 
L 419.372676 353.223646 
L 446.427822 353.222812 
L 473.482968 353.218884 
L 500.538115 353.209118 
L 527.593261 353.187011 
L 554.648408 353.150666 
L 581.703554 353.082665 
L 608.758701 352.98794 
L 635.813847 352.855154 
L 662.868994 352.672678 
L 689.92414 352.354261 
L 716.979287 351.926978 
L 744.034433 351.257813 
L 771.08958 350.245392 
L 798.144726 348.79811 
L 825.199873 346.977548 
L 852.255019 343.903216 
L 879.310166 337.745582 
L 906.365312 308.143255 
L 933.420458 151.424624 
L 960.475605 276.898129 
" clip-path="url(#pe443ae61d0)" style="fill: none; stroke: #5cb85c; stroke-linecap: square"/>
   </g>
   <g id="line2d_69">
    <path d="M 527.593261 353.223791 
L 554.648408 353.223308 
L 581.703554 353.219645 
L 608.758701 353.206011 
L 635.813847 353.16581 
L 662.868994 353.082302 
L 689.92414 352.901785 
L 716.979287 352.568441 
L 744.034433 351.984536 
L 771.08958 351.034798 
L 798.144726 349.659783 
L 825.199873 348.014469 
L 852.255019 345.619431 
L 879.310166 341.459733 
L 906.365312 323.515185 
L 933.420458 191.791787 
L 960.475605 266.034446 
" clip-path="url(#pe443ae61d0)" style="fill: none; stroke: #5cb85c; stroke-linecap: square"/>
   </g>
   <g id="line2d_70">
    <path d="M 392.317529 353.223876 
L 419.372676 353.223755 
L 446.427822 353.22303 
L 473.482968 353.220274 
L 500.538115 353.211982 
L 527.593261 353.192136 
L 554.648408 353.162632 
L 581.703554 353.107866 
L 608.758701 353.030425 
L 635.813847 352.927324 
L 662.868994 352.786138 
L 689.92414 352.550359 
L 716.979287 352.21218 
L 744.034433 351.687537 
L 771.08958 350.895678 
L 798.144726 349.757554 
L 825.199873 348.275485 
L 852.255019 345.824037 
L 879.310166 340.742933 
L 906.365312 316.097844 
L 933.420458 181.917656 
L 960.475605 285.554059 
" clip-path="url(#pe443ae61d0)" style="fill: none; stroke: #5cb85c; stroke-linecap: square"/>
   </g>
   <g id="line2d_71">
    <path d="M 40.600625 353.2239 
L 990.236266 353.2239 
" clip-path="url(#pe443ae61d0)" style="fill: none; stroke: #dedede; stroke-width: 2; stroke-linecap: square"/>
   </g>
   <g id="text_18">
    <!-- FastQC: Per Sequence Quality Scores -->
    <g transform="translate(367.225946 19.3575) scale(0.16 -0.16)">
     <defs>
      <path id="DejaVuSans-46" d="M 628 4666 
L 3309 4666 
L 3309 4134 
L 1259 4134 
L 1259 2759 
L 3109 2759 
L 3109 2228 
L 1259 2228 
L 1259 0 
L 628 0 
L 628 4666 
z
" transform="scale(0.015625)"/>
      <path id="DejaVuSans-73" d="M 2834 3397 
L 2834 2853 
Q 2591 2978 2328 3040 
Q 2066 3103 1784 3103 
Q 1356 3103 1142 2972 
Q 928 2841 928 2578 
Q 928 2378 1081 2264 
Q 1234 2150 1697 2047 
L 1894 2003 
Q 2506 1872 2764 1633 
Q 3022 1394 3022 966 
Q 3022 478 2636 193 
Q 2250 -91 1575 -91 
Q 1294 -91 989 -36 
Q 684 19 347 128 
L 347 722 
Q 666 556 975 473 
Q 1284 391 1588 391 
Q 1994 391 2212 530 
Q 2431 669 2431 922 
Q 2431 1156 2273 1281 
Q 2116 1406 1581 1522 
L 1381 1569 
Q 847 1681 609 1914 
Q 372 2147 372 2553 
Q 372 3047 722 3315 
Q 1072 3584 1716 3584 
Q 2034 3584 2315 3537 
Q 2597 3491 2834 3397 
z
" transform="scale(0.015625)"/>
      <path id="DejaVuSans-3a" d="M 750 794 
L 1409 794 
L 1409 0 
L 750 0 
L 750 794 
z
M 750 3309 
L 1409 3309 
L 1409 2516 
L 750 2516 
L 750 3309 
z
" transform="scale(0.015625)"/>
     </defs>
     <use xlink:href="#DejaVuSans-46"/>
     <use xlink:href="#DejaVuSans-61" x="48.394531"/>
     <use xlink:href="#DejaVuSans-73" x="109.673828"/>
     <use xlink:href="#DejaVuSans-74" x="161.773438"/>
     <use xlink:href="#DejaVuSans-51" x="200.982422"/>
     <use xlink:href="#DejaVuSans-43" x="279.693359"/>
     <use xlink:href="#DejaVuSans-3a" x="349.517578"/>
     <use xlink:href="#DejaVuSans-20" x="383.208984"/>
     <use xlink:href="#DejaVuSans-50" x="414.996094"/>
     <use xlink:href="#DejaVuSans-65" x="471.673828"/>
     <use xlink:href="#DejaVuSans-72" x="533.197266"/>
     <use xlink:href="#DejaVuSans-20" x="574.310547"/>
     <use xlink:href="#DejaVuSans-53" x="606.097656"/>
     <use xlink:href="#DejaVuSans-65" x="669.574219"/>
     <use xlink:href="#DejaVuSans-71" x="731.097656"/>
     <use xlink:href="#DejaVuSans-75" x="794.574219"/>
     <use xlink:href="#DejaVuSans-65" x="857.953125"/>
     <use xlink:href="#DejaVuSans-6e" x="919.476562"/>
     <use xlink:href="#DejaVuSans-63" x="982.855469"/>
     <use xlink:href="#DejaVuSans-65" x="1037.835938"/>
     <use xlink:href="#DejaVuSans-20" x="1099.359375"/>
     <use xlink:href="#DejaVuSans-51" x="1131.146484"/>
     <use xlink:href="#DejaVuSans-75" x="1209.857422"/>
     <use xlink:href="#DejaVuSans-61" x="1273.236328"/>
     <use xlink:href="#DejaVuSans-6c" x="1334.515625"/>
     <use xlink:href="#DejaVuSans-69" x="1362.298828"/>
     <use xlink:href="#DejaVuSans-74" x="1390.082031"/>
     <use xlink:href="#DejaVuSans-79" x="1429.291016"/>
     <use xlink:href="#DejaVuSans-20" x="1488.470703"/>
     <use xlink:href="#DejaVuSans-53" x="1520.257812"/>
     <use xlink:href="#DejaVuSans-63" x="1583.734375"/>
     <use xlink:href="#DejaVuSans-6f" x="1638.714844"/>
     <use xlink:href="#DejaVuSans-72" x="1699.896484"/>
     <use xlink:href="#DejaVuSans-65" x="1738.759766"/>
     <use xlink:href="#DejaVuSans-73" x="1800.283203"/>
    </g>
   </g>
  </g>
 </g>
 <defs>
  <clipPath id="pe443ae61d0">
   <rect x="40.600625" y="35.2559" width="949.635641" height="317.968"/>
  </clipPath>
 </defs>
</svg>
